<?xml version="1.0" encoding="UTF-8" standalone="no"?>
<!-- Created with Inkscape (http://www.inkscape.org/) -->

<svg
   xmlns:dc="http://purl.org/dc/elements/1.1/"
   xmlns:cc="http://creativecommons.org/ns#"
   xmlns:rdf="http://www.w3.org/1999/02/22-rdf-syntax-ns#"
   xmlns:svg="http://www.w3.org/2000/svg"
   xmlns="http://www.w3.org/2000/svg"
   xmlns:sodipodi="http://sodipodi.sourceforge.net/DTD/sodipodi-0.dtd"
   xmlns:inkscape="http://www.inkscape.org/namespaces/inkscape"
   width="26.458332mm"
   height="26.458334mm"
   viewBox="0 0 26.458332 26.458335"
   version="1.1"
   id="svg8"
   inkscape:version="0.92.2 (5c3e80d, 2017-08-06)"
   sodipodi:docname="angular.svg">
  <defs
     id="defs2" />
  <sodipodi:namedview
     id="base"
     pagecolor="#ffffff"
     bordercolor="#666666"
     borderopacity="1.0"
     inkscape:pageopacity="0.0"
     inkscape:pageshadow="2"
     inkscape:zoom="0.35"
     inkscape:cx="-245.60595"
     inkscape:cy="329.94469"
     inkscape:document-units="mm"
     inkscape:current-layer="layer1"
     showgrid="false"
     inkscape:window-width="1920"
     inkscape:window-height="1017"
     inkscape:window-x="-8"
     inkscape:window-y="-8"
     inkscape:window-maximized="1" />
  <metadata
     id="metadata5">
    <rdf:RDF>
      <cc:Work
         rdf:about="">
        <dc:format>image/svg+xml</dc:format>
        <dc:type
           rdf:resource="http://purl.org/dc/dcmitype/StillImage" />
        <dc:title />
      </cc:Work>
    </rdf:RDF>
  </metadata>
  <g
     inkscape:label="Layer 1"
     inkscape:groupmode="layer"
     id="layer1"
     transform="translate(-170.81657,-270.14905)">
    <g
       id="g33"
       transform="matrix(0.10403314,0,0,0.09820734,170.72825,270.11556)">
      <path
         id="path10"
         d="M 127.606,0.341 0.849,44.95 20.88,211.022 127.74,269.754 235.152,210.226 255.175,44.16 Z"
         inkscape:connector-curvature="0"
         style="fill:#b3b3b3" />
      <path
         id="path12"
         d="M 242.532,53.758 127.31,14.466 v 241.256 l 96.561,-53.441 18.66,-148.523 z"
         inkscape:connector-curvature="0"
         style="fill:#a6120d" />
      <path
         id="path14"
         d="m 15.073,54.466 17.165,148.525 95.07,52.731 V 14.462 L 15.074,54.465 Z"
         inkscape:connector-curvature="0"
         style="fill:#dd1b16" />
      <path
         id="path16"
         d="M 159.027,142.898 127.31,157.73 H 93.881 l -15.714,39.305 -29.228,0.54 78.371,-174.348 31.717,119.672 z m -3.066,-7.467 -28.44,-56.303 -23.329,55.334 h 23.117 l 28.652,0.97 z"
         inkscape:connector-curvature="0"
         style="fill:#f2f2f2" />
      <path
         id="path18"
         d="m 127.309,23.226 0.21,55.902 26.47,55.377 h -26.62 l -0.06,23.189 36.81,0.035 17.204,39.852 27.967,0.518 z"
         inkscape:connector-curvature="0"
         style="fill:#b3b3b3" />
    </g>
  </g>
</svg>
