<?xml version="1.0" encoding="UTF-8" standalone="no"?>
<svg
   xmlns:dc="http://purl.org/dc/elements/1.1/"
   xmlns:cc="http://creativecommons.org/ns#"
   xmlns:rdf="http://www.w3.org/1999/02/22-rdf-syntax-ns#"
   xmlns:svg="http://www.w3.org/2000/svg"
   xmlns="http://www.w3.org/2000/svg"
   xmlns:sodipodi="http://sodipodi.sourceforge.net/DTD/sodipodi-0.dtd"
   xmlns:inkscape="http://www.inkscape.org/namespaces/inkscape"
   width="100"
   height="100"
   viewBox="5.5 797.5 7 7"
   version="1.1"
   id="svg44"
   sodipodi:docname="bootstrap-icon.svg"
   inkscape:version="0.92.2 (5c3e80d, 2017-08-06)">
  <metadata
     id="metadata50">
    <rdf:RDF>
      <cc:Work
         rdf:about="">
        <dc:format>image/svg+xml</dc:format>
        <dc:type
           rdf:resource="http://purl.org/dc/dcmitype/StillImage" />
      </cc:Work>
    </rdf:RDF>
  </metadata>
  <defs
     id="defs48" />
  <sodipodi:namedview
     pagecolor="#ffffff"
     bordercolor="#666666"
     borderopacity="1"
     objecttolerance="10"
     gridtolerance="10"
     guidetolerance="10"
     inkscape:pageopacity="0"
     inkscape:pageshadow="2"
     inkscape:window-width="1920"
     inkscape:window-height="1017"
     id="namedview46"
     showgrid="false"
     inkscape:zoom="0.3392"
     inkscape:cx="1250"
     inkscape:cy="1250"
     inkscape:window-x="-8"
     inkscape:window-y="-8"
     inkscape:window-maximized="1"
     inkscape:current-layer="svg44" />
  <g
     id="g42"
     transform="matrix(0.04,0,0,0.04,5.28,765.6)">
    <linearGradient
       id="a"
       gradientUnits="userSpaceOnUse"
       x1="-64.999001"
       y1="1381.5"
       x2="-64.999001"
       y2="1206.5"
       gradientTransform="translate(158,-409)">
      <stop
         offset="0"
         stop-color="#3bb1dc"
         id="stop31" />
      <stop
         offset="1"
         stop-color="#60f0ff"
         id="stop33" />
    </linearGradient>
    <path
       d="m 151.333,799.216 c 7.292,0 14.183,2.861 19.388,8.062 5.204,5.205 8.062,12.097 8.062,19.389 v 116.666 c 0,7.292 -2.859,14.184 -8.062,19.387 -5.205,5.205 -12.097,8.064 -19.388,8.064 H 34.667 c -7.292,0 -14.183,-2.859 -19.387,-8.064 -5.205,-5.203 -8.064,-12.095 -8.064,-19.387 V 826.667 c 0,-7.292 2.859,-14.184 8.064,-19.389 5.205,-5.201 12.096,-8.062 19.387,-8.062 h 116.666 m 0,-1.716 H 34.667 C 18.625,797.5 5.5,810.625 5.5,826.667 v 116.666 c 0,16.042 13.125,29.167 29.167,29.167 h 116.666 c 16.042,0 29.167,-13.125 29.167,-29.167 V 826.667 c 0,-16.042 -13.125,-29.167 -29.167,-29.167 z"
       id="path36"
       style="fill:url(#a)"
       inkscape:connector-curvature="0" />
    <g
       id="g40">
      <path
         d="m 53.053,835.533 h 49.612 c 9.149,0 16.499,2.085 22.019,6.289 5.52,4.203 8.293,10.521 8.293,19.015 0,5.147 -1.258,9.552 -3.773,13.212 -2.518,3.659 -6.119,6.521 -10.811,8.521 v 0.283 c 6.293,1.346 11.066,4.318 14.297,8.923 3.231,4.633 4.861,10.408 4.861,17.387 0,4.003 -0.715,7.75 -2.145,11.209 -1.43,3.487 -3.661,6.493 -6.721,9.006 -3.06,2.517 -6.947,4.521 -11.724,6.006 -4.774,1.488 -10.438,2.231 -17.013,2.231 H 53.053 Z m 17.872,42.748 h 29.167 c 4.29,0 7.863,-1.201 10.723,-3.66 2.86,-2.459 4.289,-5.948 4.289,-10.525 0,-5.146 -1.287,-8.775 -3.858,-10.862 -2.573,-2.089 -6.291,-3.146 -11.152,-3.146 H 70.925 Z m 0,44.752 h 31.597 c 5.435,0 9.666,-1.404 12.642,-4.234 3.001,-2.802 4.519,-6.806 4.519,-11.953 0,-5.061 -1.488,-8.921 -4.519,-11.667 -3.031,-2.744 -7.207,-4.06 -12.642,-4.06 H 70.925 Z"
         id="path38"
         inkscape:connector-curvature="0"
         style="fill:#3bb1dc" />
    </g>
  </g>
</svg>
