<?xml version="1.0" encoding="UTF-8" standalone="no"?>
<svg
   xmlns:dc="http://purl.org/dc/elements/1.1/"
   xmlns:cc="http://creativecommons.org/ns#"
   xmlns:rdf="http://www.w3.org/1999/02/22-rdf-syntax-ns#"
   xmlns:svg="http://www.w3.org/2000/svg"
   xmlns="http://www.w3.org/2000/svg"
   xmlns:sodipodi="http://sodipodi.sourceforge.net/DTD/sodipodi-0.dtd"
   xmlns:inkscape="http://www.inkscape.org/namespaces/inkscape"
   width="100.00001"
   height="99.999992"
   viewBox="0 0 10.240001 10.240963"
   preserveAspectRatio="xMinYMin meet"
   version="1.1"
   id="svg34"
   sodipodi:docname="jasmine-2.svg"
   inkscape:version="0.92.2 (5c3e80d, 2017-08-06)">
  <metadata
     id="metadata40">
    <rdf:RDF>
      <cc:Work
         rdf:about="">
        <dc:format>image/svg+xml</dc:format>
        <dc:type
           rdf:resource="http://purl.org/dc/dcmitype/StillImage" />
      </cc:Work>
    </rdf:RDF>
  </metadata>
  <defs
     id="defs38" />
  <sodipodi:namedview
     pagecolor="#ffffff"
     bordercolor="#666666"
     borderopacity="1"
     objecttolerance="10"
     gridtolerance="10"
     guidetolerance="10"
     inkscape:pageopacity="0"
     inkscape:pageshadow="2"
     inkscape:window-width="1920"
     inkscape:window-height="1017"
     id="namedview36"
     showgrid="false"
     inkscape:zoom="0.34056225"
     inkscape:cx="1246.2504"
     inkscape:cy="1237.569"
     inkscape:window-x="-8"
     inkscape:window-y="-8"
     inkscape:window-maximized="1"
     inkscape:current-layer="svg34" />
  <g
     id="g32"
     transform="matrix(0.04007233,0,0,0.04029765,-0.01538777,-0.00427155)"
     style="fill:#8a4182">
    <path
       d="m 118.267,105.334 h 19.795 l 4.918,-6.733 V 45.874 h -29.627 v 52.733 l 4.914,6.727 m -12.758,23.517 6.115,-18.717 -4.919,-6.73 -50.434,-16.294 -9.154,28.016 50.44,16.296 7.952,-2.57 m 18.551,19.335 -16.012,-11.57 -7.96,2.572 -31.168,42.66 23.968,17.313 31.172,-42.66 v -8.315 m 24.225,-11.573 -16.016,11.57 0.004,8.32 31.169,42.658 23.969,-17.314 -31.175,-42.663 -7.95,-2.57 m -3.584,-26.485 6.118,18.72 7.958,2.569 50.435,-16.293 -9.157,-28.018 -50.436,16.297 -4.918,6.725"
       id="path26"
       inkscape:connector-curvature="0" />
    <path
       d="M 128.17,0.106 C 57.71,0.106 0.384,57.1 0.384,127.152 c 0,70.078 57.326,127.087 127.788,127.087 70.454,0 127.774,-57.009 127.774,-127.087 0,-70.053 -57.32,-127.046 -127.774,-127.046 z m 0,25.725 c 56.27,0 101.9,45.357 101.9,101.32 0,55.983 -45.63,101.36 -101.9,101.36 -56.287,0 -101.912,-45.377 -101.912,-101.36 0,-55.963 45.625,-101.32 101.913,-101.32 z"
       id="path28"
       inkscape:connector-curvature="0" />
    <path
       d="m 205.565,155.391 -38.338,-12.387 2.535,-7.765 38.338,12.387 -2.535,7.765 M 156.67,94.19 l -6.645,-4.798 23.693,-32.429 6.644,4.799 -23.693,32.428 m -56.597,-0.295 -23.69,-32.43 6.644,-4.798 23.69,32.428 -6.644,4.8 m -49.464,61.012 -2.536,-7.765 38.334,-12.382 2.537,7.765 -38.335,12.382 m 73.199,53.252 h 8.211 v -40.085 h -8.21 v 40.085 z"
       id="path30"
       inkscape:connector-curvature="0" />
  </g>
</svg>
