<?xml version="1.0" encoding="UTF-8" standalone="no"?>
<svg
   xmlns:dc="http://purl.org/dc/elements/1.1/"
   xmlns:cc="http://creativecommons.org/ns#"
   xmlns:rdf="http://www.w3.org/1999/02/22-rdf-syntax-ns#"
   xmlns:svg="http://www.w3.org/2000/svg"
   xmlns="http://www.w3.org/2000/svg"
   xmlns:sodipodi="http://sodipodi.sourceforge.net/DTD/sodipodi-0.dtd"
   xmlns:inkscape="http://www.inkscape.org/namespaces/inkscape"
   width="100"
   height="100.00005"
   viewBox="0 0 20.48 20.494709"
   version="1.1"
   id="svg181"
   sodipodi:docname="jquery-1.svg"
   inkscape:version="0.92.2 (5c3e80d, 2017-08-06)">
  <metadata
     id="metadata187">
    <rdf:RDF>
      <cc:Work
         rdf:about="">
        <dc:format>image/svg+xml</dc:format>
        <dc:type
           rdf:resource="http://purl.org/dc/dcmitype/StillImage" />
      </cc:Work>
    </rdf:RDF>
  </metadata>
  <defs
     id="defs185" />
  <sodipodi:namedview
     pagecolor="#ffffff"
     bordercolor="#666666"
     borderopacity="1"
     objecttolerance="10"
     gridtolerance="10"
     guidetolerance="10"
     inkscape:pageopacity="0"
     inkscape:pageshadow="2"
     inkscape:window-width="1920"
     inkscape:window-height="1017"
     id="namedview183"
     showgrid="false"
     inkscape:zoom="0.1136"
     inkscape:cx="1244.3181"
     inkscape:cy="283.06421"
     inkscape:window-x="-8"
     inkscape:window-y="-8"
     inkscape:window-maximized="1"
     inkscape:current-layer="g179" />
  <g
     id="g179"
     style="fill:none;fill-rule:evenodd"
     transform="translate(-1.1644813,-95.51845)">
    <path
       d="m 20.614923,97.033104 0.860512,0.02086 c 0,0 -1.599861,9.539596 -1.730505,10.317056 -0.04242,0.25173 -0.106861,0.52326 -0.139562,0.85985 -0.08264,0.84605 -0.167482,2.70203 -0.167482,2.70203 l -0.787357,0.0173 c 0,0 0.122529,-1.93465 0.117467,-2.96508 -0.0044,-0.90015 -0.108869,-1.79924 -0.167442,-2.70204 -0.05922,-0.91394 -0.139602,-2.70221 -0.139602,-2.70221 h 0.809492 l 0.111641,1.96523 1.232838,-7.513025"
       id="path167"
       inkscape:connector-curvature="0"
       style="fill:#1a1918;stroke-width:0.08427168" />
    <path
       d="m 18.985454,99.045003 c 0.158805,0.421259 0.256266,2.745167 0.256266,2.745167 0,0 -0.830945,0.0539 -1.283135,0.0539 h -0.390766 l -0.474527,9.08881 h -0.725691 c 0,0 0.451629,-9.87724 0.558249,-11.667987 0.03455,-0.579828 0.236701,-0.480303 0.578053,-0.480303 h 0.545112 c 0.351998,0 0.763413,-0.197813 0.936439,0.260393 M 15.607,103.4715 c 0,0 0.02262,-0.58336 -0.07673,-1.25901 -0.08489,-0.57594 -0.163264,-0.70993 -0.386587,-0.74069 -0.63052,-0.0872 -0.618267,1.96894 -0.618267,1.96894 z m 0.68383,-2.35467 c 0.0924,1.46672 -0.08372,4.91299 -0.08372,4.91299 0,0 -0.919727,-0.0675 -1.423501,0 -0.156635,0.021 -0.344124,-0.075 -0.390765,0.24572 -0.0656,0.44936 0.02398,1.14109 0.09991,1.4333 0.08738,0.33641 0.257591,0.37477 0.318775,0.40889 0.408884,0.22857 1.264655,0.059 1.264655,0.059 l -0.148239,2.88854 c 0,0 -1.209337,0.26693 -1.814226,-0.3684 -0.119435,-0.12516 -0.231398,-0.37813 -0.307045,-0.73681 -0.02065,-0.0981 -0.03857,-0.23193 -0.05809,-0.34754 -0.01559,-0.0923 -0.06106,-0.39545 -0.08147,-0.63516 -0.138156,-1.61999 0.01619,-4.72349 0.167483,-6.3866 0.01755,-0.19269 0.03961,-0.43717 0.06283,-0.64489 0.029,-0.25897 0.05355,-0.55136 0.07673,-0.70622 0.01559,-0.10677 0.03491,-0.17554 0.0511,-0.2763 0.01868,-0.11915 0.04041,-0.23459 0.06054,-0.33765 0.05584,-0.28496 0.119194,-0.48649 0.195403,-0.736804 0.252007,-0.830498 0.708095,-1.475204 1.256018,-1.228423 0.20629,0.09334 0.517834,0.417547 0.66989,1.351107 0.04074,0.24926 0.06086,0.74423 0.08372,1.10539 z m -3.328478,-2.343533 0.703676,-0.01821 c 0,0 -0.392172,8.186013 -0.592034,12.177813 h -0.809492 c -0.565721,0 -1.069534,0.3083 -1.283899,-1.47396 -0.207937,-1.73047 -0.0095,-4.57623 0.08372,-6.50964 0.06589,-1.36825 0.204643,-4.164868 0.204643,-4.164868 l 0.729065,-0.02935 c 0,0 -0.206008,4.354018 -0.291738,6.528018 -0.03069,0.7787 -0.09401,1.51197 -0.02788,2.08774 0.06279,0.54801 0.150731,0.58725 0.418646,0.6143 0.08489,0.009 0.362886,0 0.362886,0 l 0.502407,-9.21185 m -3.2936078,5.89551 c 0.073678,-1.15188 0.1811414,-2.40099 0.1674825,-3.43902 -0.014784,-1.11016 -0.2263364,-2.120968 -0.3628452,-2.333454 -0.4111336,-0.638695 -0.7960339,0.254206 -0.9490138,0.982527 -0.1978937,0.943277 -0.2649028,2.045127 -0.334965,3.562057 -0.052145,1.12607 -0.094889,2.31489 0,3.19312 0.1680047,1.55263 0.6919449,1.21357 1.2560583,1.22842 0.083721,-0.98747 0.1529398,-2.09657 0.2232832,-3.19365 z m 0.9769338,-4.54423 c 0.08035,2.57175 -0.228023,5.41044 -0.44046,7.87895 0.216615,0.0861 0.406434,-0.0133 0.420093,0.0578 0.01422,0.0921 -0.145187,2.94652 -0.200746,2.95394 -0.171902,0.0196 -0.7415593,0.0405 -0.979104,0.0405 -0.7751437,0 -1.5002718,0.22221 -1.870067,-1.47379 -0.1501678,-0.68907 -0.2540157,-1.87083 -0.2791642,-2.70221 -0.041861,-1.38788 0.010606,-2.91594 0.083761,-4.17583 0.066165,-1.13756 0.1509713,-2.21095 0.2791241,-3.193647 0.3257251,-2.501748 0.8923293,-4.358791 1.8421465,-3.930107 0.1842348,0.08344 0.4488161,0.438407 0.6140896,0.859667 0.01141,0.02952 0.05138,0.169529 0.06054,0.194101 0.223323,0.62526 0.426801,2.117435 0.469786,3.490636 z M 7.2161242,98.788146 c -0.046882,0.93957 -0.093765,2.004654 -0.1431776,2.933084 H 6.2914153 c 0.060541,-1.0292 0.1069011,-2.052381 0.1674824,-2.947757 0.2500788,0 0.4826019,0.01467 0.7572667,0.01467 m -0.9526696,3.792927 h 0.7536511 c -0.098545,2.39993 -0.2936668,6.27117 -0.4466066,8.96596 -0.095733,1.68645 -0.1596487,2.91699 -0.4186861,3.80742 -0.02318,0.0799 -0.036558,0.0419 -0.055841,0.12286 -0.047726,0.20029 -0.2685183,0.43257 -0.3907255,0.49126 -0.1987373,0.0948 -0.4234265,0.0124 -0.6676802,-0.01 0.063916,-1.02796 0.1362278,-2.26239 0.1931935,-3.18375 0.5953683,0.31713 0.6104333,-2.15916 0.7256905,-4.54423 0.066688,-1.37816 0.2687995,-5.09719 0.3070043,-5.6498"
       id="path169"
       inkscape:connector-curvature="0"
       style="fill:#1a1918;stroke-width:0.08427168" />
    <g
       id="g177"
       transform="matrix(0.0401733,0,0,0.17677701,0.94133634,95.50469)"
       style="fill:#21609b">
      <path
         d="m 88.708,75.464 -0.402,1.042 C 81.456,89.846 69.317,98.03 52.003,98.391 43.909,98.558 36.197,96.481 31.159,94.223 20.287,89.338 11.142,80.279 6.148,70.6 -1.016,56.725 -2.308,37.424 12.588,23.008 c 0.23,0 -1.807,3.126 -1.577,3.126 l -0.41,1.334 C -0.133,61.074 32.938,89.874 65.086,86.58 72.812,85.788 82.664,81.557 88.708,75.464"
         id="path171"
         inkscape:connector-curvature="0" />
      <path
         d="M 69.254,61.568 C 77.342,61.623 85.79,57.843 90.793,52.536 86.416,63.646 73.743,70.787 56.749,68.516 42.519,66.612 28.964,52.293 27.568,37.945 26.547,27.503 30.186,21.271 36.183,13.711 c -2.084,3.954 -2.863,7.003 -3.057,8.948 -2.278,22.588 18.044,38.79 36.128,38.909"
         id="path173"
         inkscape:connector-curvature="0" />
      <path
         d="m 89.98,33.512 c -1.257,2.884 -8.496,8.33 -11.693,9.011 -12.659,2.697 -20.766,-3.306 -25.013,-10.137 -0.631,-1.02 -1.798,-3.806 -2.007,-4.515 -1.647,-5.6 -0.89,-14.07 4.023,-18.454 -1.48,4.169 -1.696,9.011 -0.917,12.159 0.472,1.903 1.91,5.226 3.349,7.316 2.618,3.807 4.279,4.732 7.642,6.754 1.515,0.91 3.14,1.64 3.842,1.84 3.189,0.939 9.922,3.412 20.775,-3.974"
         id="path175"
         inkscape:connector-curvature="0" />
    </g>
  </g>
</svg>
