<?xml version="1.0" encoding="UTF-8" standalone="no"?>
<svg
   xmlns:dc="http://purl.org/dc/elements/1.1/"
   xmlns:cc="http://creativecommons.org/ns#"
   xmlns:rdf="http://www.w3.org/1999/02/22-rdf-syntax-ns#"
   xmlns:svg="http://www.w3.org/2000/svg"
   xmlns="http://www.w3.org/2000/svg"
   xmlns:sodipodi="http://sodipodi.sourceforge.net/DTD/sodipodi-0.dtd"
   xmlns:inkscape="http://www.inkscape.org/namespaces/inkscape"
   width="100"
   height="100.00002"
   viewBox="0 0 11.641655 11.640002"
   preserveAspectRatio="xMidYMid"
   version="1.1"
   id="svg229"
   sodipodi:docname="mocha-1.svg"
   inkscape:version="0.92.2 (5c3e80d, 2017-08-06)">
  <metadata
     id="metadata235">
    <rdf:RDF>
      <cc:Work
         rdf:about="">
        <dc:format>image/svg+xml</dc:format>
        <dc:type
           rdf:resource="http://purl.org/dc/dcmitype/StillImage" />
      </cc:Work>
    </rdf:RDF>
  </metadata>
  <defs
     id="defs233" />
  <sodipodi:namedview
     pagecolor="#ffffff"
     bordercolor="#666666"
     borderopacity="1"
     objecttolerance="10"
     gridtolerance="10"
     guidetolerance="10"
     inkscape:pageopacity="0"
     inkscape:pageshadow="2"
     inkscape:window-width="1920"
     inkscape:window-height="1017"
     id="namedview231"
     showgrid="false"
     inkscape:zoom="0.0944"
     inkscape:cx="1099.5"
     inkscape:cy="1248.1883"
     inkscape:window-x="-8"
     inkscape:window-y="-8"
     inkscape:window-maximized="1"
     inkscape:current-layer="svg229" />
  <path
     d="M 11.286721,8.9370772 6.1757617,11.536627 a 0.70536608,0.62093459 0 0 1 -0.7098681,0 L 0.35493406,8.9370772 C 0.13487949,8.8245872 0,8.6184272 0,8.3996872 v -5.1991 c 0,-0.22494 0.13487949,-0.4249 0.35493406,-0.53739 L 5.4658936,0.06364717 a 0.70536608,0.62093459 0 0 1 0.7098681,0 L 11.286721,2.6631972 c 0.2201,0.11249 0.354934,0.3187 0.354934,0.53739 v 5.1991 c -0.0071,0.2187 -0.141973,0.4249 -0.354934,0.53739 z"
     id="path225"
     inkscape:connector-curvature="0"
     style="fill:#8d6748;stroke-width:0.04266683" />
  <path
     d="m 5.8137335,0.76981717 c -0.1064575,0 -0.2129604,0.025 -0.3052296,0.075 L 1.0931787,3.0881572 c -0.19167802,0.0938 -0.30522963,0.27494 -0.30522963,0.46237 v 4.48673 c 0,0.19372 0.11355161,0.3687 0.30522963,0.46245 l 4.4153252,2.2433498 c 0.092269,0.05 0.1987267,0.075 0.3052296,0.075 0.106412,0 0.2129605,-0.025 0.3052297,-0.075 L 10.534288,8.4996672 c 0.191678,-0.0937 0.30523,-0.27494 0.30523,-0.46237 v -4.48677 c 0,-0.19367 -0.113552,-0.36861 -0.30523,-0.46237 L 6.1189632,0.84477717 c -0.092315,-0.05 -0.1987722,-0.0749 -0.3052297,-0.0749 z m 0,0.18747 c 0.070941,0 0.1348795,0.0187 0.1987267,0.05 l 4.4153248,2.24334 c 0.120692,0.0625 0.198727,0.18123 0.198727,0.30621 v 4.48669 c 0,0.12498 -0.07803,0.24367 -0.198727,0.30616 L 6.0125057,10.593037 c -0.063893,0.0312 -0.1277854,0.05 -0.1987722,0.05 a 0.38149159,0.33582749 0 0 1 -0.1987722,-0.05 L 1.1996362,8.3497272 C 1.078945,8.2872372 1.000864,8.1685472 1.000864,8.0435672 v -4.48673 c 0,-0.12498 0.078081,-0.24372 0.1987267,-0.30625 l 4.4153252,-2.2433 c 0.063893,-0.0313 0.1348795,-0.05 0.1987267,-0.05 z M 5.405548,4.8690772 h 0.596271 c 0.021328,0 0.035516,-0.006 0.049704,-0.0188 0.3549341,-0.34992 0.3904502,-1.08106 0.3904502,-1.29976 0,-0.0312 -0.028422,-0.0625 -0.070987,-0.0625 H 5.0364256 c -0.035471,0 -0.070987,0.025 -0.070987,0.0625 0,0.21245 0.035516,0.94359 0.3904502,1.29976 0.014188,0.0125 0.028377,0.0188 0.049659,0.0188 z m -0.163256,-1.1873 h 0.9370168 c 0.035471,0 0.070987,0.025 0.070987,0.0625 0,0.17497 -0.035516,0.66861 -0.2768531,0.92481 -0.021282,0.0125 -0.035471,0.0188 -0.056799,0.0188 h -0.418781 c -0.021328,0 -0.035516,-0.006 -0.049704,-0.0188 -0.2413825,-0.24992 -0.269759,-0.74984 -0.2768532,-0.92481 0,-0.0312 0.028377,-0.0625 0.070987,-0.0625 z m 0.596271,-0.31866 c 0,0 0.2555707,-0.13126 0.099363,-0.36869 -0.092269,-0.12502 -0.134834,-0.23123 -0.099363,-0.27498 -0.092269,0.1 -0.2484311,0.2062 -0.078081,0.43118 0.056844,0.0562 0.085175,0.17494 0.078081,0.21245 z m -0.2839473,0.0187 c 0,0 0.1703502,-0.0875 0.063893,-0.24996 -0.063893,-0.0812 -0.092269,-0.15621 -0.063893,-0.18123 -0.063893,0.0687 -0.163256,0.13747 -0.049704,0.29372 0.035516,0.0312 0.049704,0.11249 0.049704,0.13747 z m -0.021282,1.23106 h 0.3549341 c 0.014188,0 0.028377,-0.006 0.042565,-0.0187 0.1206912,-0.12498 0.1774898,-0.31869 0.2058663,-0.48743 0,0 -0.00709,0.0562 -0.1774443,0.11249 -0.2341974,0.075 -0.6459754,0.025 -0.6459754,0.025 0.035471,0.13123 0.092315,0.25621 0.1774443,0.34996 0.00709,0.0125 0.028422,0.0187 0.04261,0.0187 z m -2.6690772,1.75592 v -1.24976 H 2.6016371 l -0.433015,0.58739 -0.433015,-0.58739 H 1.4729422 v 1.256 h 0.2484312 v -0.89359 l 0.4401091,0.58114 h 0.00709 l 0.4472488,-0.58739 v 0.8936 z m 1.5901319,-1.22478 c -0.092315,-0.0312 -0.1916781,-0.05 -0.2981356,-0.05 -0.1065029,0 -0.2058663,0.0125 -0.2981809,0.05 -0.092315,0.0312 -0.1703502,0.0812 -0.2342429,0.13743 a 0.71341519,0.62802023 0 0 0 -0.1561619,0.2062 c -0.035471,0.0813 -0.056844,0.16245 -0.056844,0.24996 v 0.006 c 0,0.0875 0.021373,0.17498 0.056844,0.24996 0.035471,0.0813 0.085175,0.14996 0.1490678,0.2062 0.063893,0.0562 0.1419736,0.10625 0.2341973,0.13747 0.092315,0.0313 0.1917236,0.05 0.298181,0.05 0.106503,0 0.2058663,-0.0125 0.298181,-0.05 0.092269,-0.0312 0.1703502,-0.0812 0.2341974,-0.13747 a 0.71341519,0.62802023 0 0 0 0.1562074,-0.20616 c 0.035471,-0.0813 0.056799,-0.16253 0.056799,-0.25 v -0.006 c 0,-0.0875 -0.021373,-0.17494 -0.056844,-0.24996 -0.035471,-0.0812 -0.08513,-0.14996 -0.1490223,-0.20616 -0.063893,-0.0563 -0.1419736,-0.10628 -0.2342433,-0.13751 z m 0.1703501,0.60612 c 0,0.0563 -0.014188,0.11249 -0.035516,0.16874 -0.028377,0.05 -0.056753,0.1 -0.099363,0.13747 a 0.56798545,0.49999826 0 0 1 -0.1490677,0.0937 c -0.056844,0.025 -0.1206913,0.0375 -0.1916781,0.0375 -0.063847,0 -0.134834,-0.0125 -0.1916325,-0.0375 a 0.56798545,0.49999826 0 0 1 -0.1490678,-0.0937 c -0.04261,-0.0438 -0.078081,-0.0876 -0.099409,-0.14372 -0.021282,-0.0563 -0.035471,-0.11249 -0.035471,-0.17502 v -0.006 c 0,-0.0562 0.014188,-0.11249 0.035471,-0.16874 0.028422,-0.05 0.056799,-0.1 0.099409,-0.13747 a 0.56812187,0.50011836 0 0 1 0.1490678,-0.0937 c 0.056798,-0.025 0.1206457,-0.0375 0.1916325,-0.0375 0.070941,0 0.1348795,0.0125 0.1916781,0.0375 a 0.56812187,0.50011836 0 0 1 0.1490677,0.0937 c 0.04261,0.0438 0.078081,0.0875 0.099363,0.14372 0.021328,0.0562 0.035471,0.11249 0.035471,0.17498 v 0.006 z m 1.0505685,-0.18747 c 0.028377,-0.05 0.056799,-0.1 0.099363,-0.13747 a 0.56962256,0.50143941 0 0 1 0.1490678,-0.0937 c 0.056799,-0.025 0.1135971,-0.0375 0.1845839,-0.0375 0.085175,0 0.1561619,0.0125 0.2200545,0.0437 0.063893,0.0313 0.1206913,0.0688 0.1774443,0.11249 l 0.1633015,-0.16245 c -0.035516,-0.0312 -0.070987,-0.0562 -0.1065029,-0.0813 -0.035471,-0.025 -0.078081,-0.0437 -0.1206458,-0.0625 -0.049704,-0.0125 -0.092315,-0.025 -0.1491132,-0.0375 -0.056753,-0.006 -0.1135516,-0.0125 -0.1774443,-0.0125 -0.1135971,0 -0.2058663,0.0187 -0.2981355,0.05 -0.092269,0.0313 -0.1703502,0.0813 -0.2342429,0.13751 a 0.81914507,0.72109437 0 0 0 -0.1490674,0.2062 0.74984084,0.66008577 0 0 0 -0.056799,0.24996 v 0.006 c 0,0.0875 0.021282,0.16869 0.056799,0.24996 0.035471,0.0813 0.085175,0.14996 0.1490677,0.2062 0.063893,0.0562 0.1419737,0.10625 0.2271487,0.13747 a 0.72291951,0.6363869 0 0 0 0.2839473,0.05 c 0.063893,0 0.1277399,0 0.1916326,-0.0125 0.049704,-0.006 0.1065029,-0.025 0.1490677,-0.0437 0.04261,-0.0187 0.085221,-0.0375 0.1277854,-0.0687 0.04261,-0.0312 0.078081,-0.0562 0.1135971,-0.0937 l -0.1632561,-0.14372 c -0.063893,0.05 -0.1277853,0.0875 -0.1845839,0.11874 -0.056799,0.0313 -0.1348795,0.0437 -0.2200545,0.0437 -0.063893,0 -0.1277854,-0.0188 -0.1845839,-0.0375 -0.056753,-0.0187 -0.1064575,-0.0562 -0.1490678,-0.0937 -0.042565,-0.0438 -0.078081,-0.0876 -0.099363,-0.1438 -0.021282,-0.0562 -0.035516,-0.11245 -0.035516,-0.17494 v -0.006 c 0,-0.0562 0.014234,-0.11249 0.035515,-0.16874 z m 1.4978171,-0.44363 v 1.24976 h 0.2484312 v -0.5249 h 0.6814915 v 0.5249 h 0.2484311 v -1.2498 H 8.1030468 v 0.51869 H 7.4215553 v -0.51869 H 7.1731241 Z m 2.72583,0.94984 0.1419739,0.29996 h 0.262619 L 9.6788995,5.1127972 H 9.4517053 l -0.6246475,1.256 h 0.2555707 l 0.1490223,-0.29996 h 0.6673033 z m -0.3336517,-0.69364 0.241337,0.49992 h -0.482674 z m -8.2698044,1.45592 h 9.050659 v -0.0687 H 1.295498 Z m 5.2032742,-2.41832 c 0,0.025 -0.00714,0.0437 -0.00714,0.0688 h 3.8545248 v -0.0688 H 6.4987267 Z m -1.5829923,0 H 1.295498 v 0.0688 h 3.627376 c 0,-0.025 -0.00714,-0.0437 -0.00714,-0.0688 z"
     id="path227"
     inkscape:connector-curvature="0"
     style="fill:#ffffff;stroke-width:0.04266683" />
</svg>
