<?xml version="1.0" encoding="UTF-8"?>
<svg version="1.1" viewBox="0 0 1000 1000" xmlns="http://www.w3.org/2000/svg">
 <g transform="translate(0 -52.362)">
  <circle cx="500" cy="552.36" r="443.92" fill="#409fe2"/>
  <path d="m745.29 301.83a5.948 5.948 0 0 0 -4.2921 1.7392 5.948 5.948 0 0 0 -1.0934 6.8909l-10.736 10.736c-18.081 5.8717-106.39 35.645-147.91 70.262-43.854 36.56-102.48 107.75-147.93 142.81l-59.309 17.464c13.482-23.409 19.92-48.765 19.92-48.765s-31.132 7.5928-56.144 24.162c-22.031 14.594-69.477 61.123-81.018 72.541l-3.6108-3.6108-9.3472 9.3472 6.5044 6.5044c-1.4887 2.395-16.978 27.336-24.208 41.254-5.4774 10.546-10.537 28.165-10.537 28.165s17.618-5.0599 28.165-10.537c13.918-7.2292 38.86-22.719 41.254-24.208l6.5044 6.5044 9.3472-9.3472-3.6311-3.6311c2.2722-2.3093 3.7043-3.7394 8.9099-9.1184l30.194 5.7315c40.967 7.7778 12.187 51.259 20.429 59.502 8.2417 8.2417 51.727-20.538 59.507 20.429l5.7262 30.148c-5.3812 5.2271-6.8148 6.6667-9.1235 8.9454l-3.504-3.5041-9.3523 9.3523 6.5044 6.5044c-1.4909 2.3983-16.974 27.336-24.203 41.254-5.4774 10.546-10.537 28.16-10.537 28.16s17.613-5.0599 28.16-10.537c13.918-7.2287 38.86-22.712 41.259-24.203l6.4993 6.4993 9.3472-9.3472-3.7328-3.7328c11.399-11.567 57.837-59.103 72.383-81.18 16.514-25.068 24.324-55.977 24.324-55.977s-25.341 6.2082-48.669 19.59l17.367-58.978c35.065-45.448 106.25-104.07 142.81-147.93 34.618-41.522 64.392-129.83 70.262-147.91l10.736-10.736a5.948 5.948 0 0 0 6.8909 -1.0934 5.948 5.948 0 0 0 0 -8.4115 5.948 5.948 0 0 0 -4.1194 -1.7392zm-134.98 112.39a28.873 28.873 0 0 1 19.997 8.4574 28.873 28.873 0 0 1 0 40.832 28.873 28.873 0 0 1 -40.836 0 28.873 28.873 0 0 1 0 -40.832 28.873 28.873 0 0 1 20.841 -8.4574zm-353.74 203.93 22.204 22.204c-3.3968 1.9361-15.043 8.5545-23.394 12.892-7.0006 3.636-20.912 9.21-20.912 9.21s5.5791-13.911 9.2151-20.912c4.3373-8.3509 10.951-19.997 12.887-23.394zm156.19 156.19 22.198 22.193c-3.3997 1.9377-15.039 8.5553-23.389 12.892-7.0006 3.636-20.912 9.21-20.912 9.21s5.574-13.906 9.21-20.907c4.3359-8.348 10.953-19.986 12.892-23.389z" fill-opacity=".13333" fill-rule="evenodd"/>
  <path d="m739.29 295.83a5.948 5.948 0 0 0 -4.2921 1.7392 5.948 5.948 0 0 0 -1.0934 6.8909l-10.736 10.736c-18.081 5.8717-106.39 35.645-147.91 70.262-43.854 36.56-102.48 107.75-147.93 142.81l-59.309 17.464c13.482-23.409 19.92-48.765 19.92-48.765s-31.132 7.5928-56.144 24.162c-22.031 14.594-69.477 61.123-81.018 72.541l-3.6108-3.6108-9.3472 9.3472 6.5044 6.5044c-1.4887 2.395-16.978 27.336-24.208 41.254-5.4774 10.546-10.537 28.165-10.537 28.165s17.618-5.0599 28.165-10.537c13.918-7.2292 38.86-22.719 41.254-24.208l6.5044 6.5044 9.3472-9.3472-3.6311-3.6311c2.2722-2.3093 3.7043-3.7394 8.9099-9.1184l30.194 5.7315c40.967 7.7778 12.187 51.259 20.429 59.502 8.2417 8.2417 51.727-20.538 59.507 20.429l5.7262 30.148c-5.3812 5.2271-6.8148 6.6667-9.1235 8.9454l-3.504-3.5041-9.3523 9.3523 6.5044 6.5044c-1.4909 2.3983-16.974 27.336-24.203 41.254-5.4774 10.546-10.537 28.16-10.537 28.16s17.613-5.0599 28.16-10.537c13.918-7.2287 38.86-22.712 41.259-24.203l6.4993 6.4993 9.3472-9.3472-3.7328-3.7328c11.399-11.567 57.837-59.103 72.383-81.18 16.514-25.068 24.324-55.977 24.324-55.977s-25.341 6.2082-48.669 19.59l17.367-58.978c35.065-45.448 106.25-104.07 142.81-147.93 34.618-41.522 64.392-129.83 70.262-147.91l10.736-10.736a5.948 5.948 0 0 0 6.8909 -1.0934 5.948 5.948 0 0 0 0 -8.4115 5.948 5.948 0 0 0 -4.1194 -1.7392zm-134.98 112.39a28.873 28.873 0 0 1 19.997 8.4574 28.873 28.873 0 0 1 0 40.832 28.873 28.873 0 0 1 -40.836 0 28.873 28.873 0 0 1 0 -40.832 28.873 28.873 0 0 1 20.841 -8.4574zm-353.74 203.93 22.204 22.204c-3.3968 1.9361-15.043 8.5545-23.394 12.892-7.0006 3.636-20.912 9.21-20.912 9.21s5.5791-13.911 9.2151-20.912c4.3373-8.3509 10.951-19.997 12.887-23.394zm156.19 156.19 22.198 22.193c-3.3997 1.9377-15.039 8.5553-23.389 12.892-7.0006 3.636-20.912 9.21-20.912 9.21s5.574-13.906 9.21-20.907c4.3359-8.348 10.953-19.986 12.892-23.389z" fill="#e4ff1e" fill-rule="evenodd"/>
 </g>
</svg>
