<?xml version="1.0" encoding="iso-8859-1"?>
<!-- Generator: Adobe Illustrator 19.0.0, SVG Export Plug-In . SVG Version: 6.00 Build 0)  -->
<svg version="1.1" id="Layer_1" xmlns="http://www.w3.org/2000/svg" xmlns:xlink="http://www.w3.org/1999/xlink" x="0px" y="0px"
	 viewBox="0 0 512 512" style="enable-background:new 0 0 512 512;" xml:space="preserve">
<path style="fill:#84A7B7;" d="M416,512H104.348c-24.588,0-44.522-19.933-44.522-44.522V77.913
	c0-24.588,19.933-44.522,44.522-44.522H416c24.588,0,44.522,19.933,44.522,44.522v389.565C460.522,492.066,440.589,512,416,512z"/>
<path style="fill:#F2EFE2;" d="M393.739,467.478h-267.13c-12.295,0-22.261-9.966-22.261-22.261V44.522
	c0-12.295,9.966-22.261,22.261-22.261h267.13c12.295,0,22.261,9.966,22.261,22.261v400.696
	C416,457.512,406.034,467.478,393.739,467.478z"/>
<path style="fill:#FED766;" d="M293.565,66.783h-66.783c-18.442,0-33.391-14.949-33.391-33.391l0,0
	C193.391,14.949,208.34,0,226.782,0h66.783c18.442,0,33.391,14.949,33.391,33.391l0,0C326.956,51.833,312.007,66.783,293.565,66.783
	z"/>
<path style="fill:#E8BA52;" d="M322.479,16.696c2.843,4.913,4.478,10.612,4.478,16.696l0,0c0,18.442-14.949,33.391-33.391,33.391
	h-66.783c-18.442,0-33.391-14.949-33.391-33.391l0,0c0-6.084,1.635-11.783,4.478-16.696c5.774,9.977,16.555,16.696,28.914,16.696
	h66.783C305.923,33.391,316.704,26.673,322.479,16.696z"/>
<path style="fill:#A3CCAA;" d="M182.261,328.348v89.043c0,9.22-7.475,16.696-16.696,16.696c-9.22,0-16.696-7.475-16.696-16.696
	v-89.043c0-9.22,7.475-16.696,16.696-16.696C174.786,311.652,182.261,319.127,182.261,328.348z M291.711,111.304L291.711,111.304
	c-9.22,0-16.696,7.475-16.696,16.696v289.391c0,9.22,7.475,16.696,16.696,16.696l0,0c9.22,0,16.696-7.475,16.696-16.696V128
	C308.406,118.78,300.931,111.304,291.711,111.304z"/>
<path style="fill:#80A886;" d="M245.334,194.783v222.609c0,9.22-7.475,16.696-16.696,16.696l0,0c-9.22,0-16.696-7.475-16.696-16.696
	V194.783c0-9.22,7.475-16.696,16.696-16.696l0,0C237.858,178.087,245.334,185.562,245.334,194.783z M354.782,178.087
	c-9.22,0-16.696,7.475-16.696,16.696v222.609c0,9.22,7.475,16.696,16.696,16.696c9.22,0,16.696-7.475,16.696-16.696V194.783
	C371.478,185.562,364.004,178.087,354.782,178.087z"/>
<path style="fill:#FCBB9A;" d="M512,147.478c0,30.736-24.917,55.652-55.652,55.652c-10.194,0-19.741-2.755-27.959-7.54
	l-69.095,69.096c-1.565,1.566-3.689,2.445-5.902,2.445H167.632L14.25,420.511c-1.629,1.631-3.765,2.445-5.902,2.445
	s-4.273-0.815-5.902-2.445c-3.26-3.26-3.26-8.546,0-11.805L158.271,252.88c1.565-1.566,3.689-2.445,5.902-2.445h185.76
	l65.375-65.375c-9.073-9.902-14.613-23.093-14.613-37.582c0-30.736,24.917-55.652,55.652-55.652S512,116.743,512,147.478z"/>
<path style="fill:#FC8059;" d="M187.826,258.783c0,12.295-9.966,22.261-22.261,22.261c-12.295,0-22.261-9.966-22.261-22.261
	c0-12.294,9.966-22.261,22.261-22.261C177.86,236.522,187.826,246.489,187.826,258.783z M59.826,336.696
	c-12.295,0-22.261,9.966-22.261,22.261c0,12.295,9.966,22.261,22.261,22.261s22.261-9.966,22.261-22.261
	C82.087,346.662,72.121,336.696,59.826,336.696z M354.782,236.522c-12.295,0-22.261,9.967-22.261,22.261
	c0,12.295,9.966,22.261,22.261,22.261c12.295,0,22.261-9.966,22.261-22.261C377.043,246.489,367.077,236.522,354.782,236.522z
	 M456.348,125.217c-12.295,0-22.261,9.966-22.261,22.261c0,12.295,9.966,22.261,22.261,22.261c12.295,0,22.261-9.966,22.261-22.261
	C478.609,135.184,468.642,125.217,456.348,125.217z"/>
<g>
</g>
<g>
</g>
<g>
</g>
<g>
</g>
<g>
</g>
<g>
</g>
<g>
</g>
<g>
</g>
<g>
</g>
<g>
</g>
<g>
</g>
<g>
</g>
<g>
</g>
<g>
</g>
<g>
</g>
</svg>
