<?xml version="1.0" encoding="UTF-8" standalone="no"?>
<!-- Generator: Adobe Illustrator 19.0.0, SVG Export Plug-In . SVG Version: 6.00 Build 0)  -->

<svg
   xmlns:dc="http://purl.org/dc/elements/1.1/"
   xmlns:cc="http://creativecommons.org/ns#"
   xmlns:rdf="http://www.w3.org/1999/02/22-rdf-syntax-ns#"
   xmlns:svg="http://www.w3.org/2000/svg"
   xmlns="http://www.w3.org/2000/svg"
   xmlns:sodipodi="http://sodipodi.sourceforge.net/DTD/sodipodi-0.dtd"
   xmlns:inkscape="http://www.inkscape.org/namespaces/inkscape"
   version="1.1"
   id="Layer_1"
   x="0px"
   y="0px"
   viewBox="0 0 512 512"
   style="enable-background:new 0 0 512 512;"
   xml:space="preserve"
   sodipodi:docname="custom-sd.svg"
   inkscape:version="0.92.2 (5c3e80d, 2017-08-06)"><metadata
     id="metadata1111"><rdf:RDF><cc:Work
         rdf:about=""><dc:format>image/svg+xml</dc:format><dc:type
           rdf:resource="http://purl.org/dc/dcmitype/StillImage" /></cc:Work></rdf:RDF></metadata><defs
     id="defs1109" /><sodipodi:namedview
     pagecolor="#ffffff"
     bordercolor="#666666"
     borderopacity="1"
     objecttolerance="10"
     gridtolerance="10"
     guidetolerance="10"
     inkscape:pageopacity="0"
     inkscape:pageshadow="2"
     inkscape:window-width="1920"
     inkscape:window-height="1017"
     id="namedview1107"
     showgrid="false"
     inkscape:zoom="1.65625"
     inkscape:cx="256"
     inkscape:cy="256"
     inkscape:window-x="-8"
     inkscape:window-y="-8"
     inkscape:window-maximized="1"
     inkscape:current-layer="Layer_1" /><path
     style="fill:#FFD55C;"
     d="M256,201.626c48.481,0,87.929,39.437,87.929,87.922h49.007c0-75.621-61.311-136.929-136.935-136.929  S119.068,213.93,119.068,289.548h49.007C168.075,241.066,207.519,201.626,256,201.626z"
     id="path966" /><path
     style="fill:#FFC640;"
     d="M256.017,152.612c-75.647,0-136.932,61.318-136.932,136.929h20.176  c0-64.373,52.356-116.749,116.756-116.749c64.373,0,116.756,52.373,116.756,116.749h20.176  C392.948,213.93,331.631,152.612,256.017,152.612z"
     id="path968" /><rect
     x="97.445"
     y="289.561"
     style="fill:#FFD55C;"
     width="317.11"
     height="49.007"
     id="rect970" /><rect
     x="97.445"
     y="318.365"
     style="fill:#FFC640;"
     width="317.11"
     height="20.179"
     id="rect972" /><g
     id="g1016"><rect
       x="399.294"
       y="330.422"
       style="fill:#242D3C;"
       width="1.724"
       height="8.136"
       id="rect974" /><rect
       x="370.457"
       y="330.422"
       style="fill:#242D3C;"
       width="1.728"
       height="8.136"
       id="rect976" /><rect
       x="341.62"
       y="330.422"
       style="fill:#242D3C;"
       width="1.728"
       height="8.136"
       id="rect978" /><rect
       x="312.782"
       y="330.422"
       style="fill:#242D3C;"
       width="1.728"
       height="8.136"
       id="rect980" /><rect
       x="283.965"
       y="330.422"
       style="fill:#242D3C;"
       width="1.728"
       height="8.136"
       id="rect982" /><rect
       x="255.141"
       y="330.422"
       style="fill:#242D3C;"
       width="1.731"
       height="8.136"
       id="rect984" /><rect
       x="226.304"
       y="330.422"
       style="fill:#242D3C;"
       width="1.731"
       height="8.136"
       id="rect986" /><rect
       x="197.48"
       y="330.422"
       style="fill:#242D3C;"
       width="1.724"
       height="8.136"
       id="rect988" /><rect
       x="168.663"
       y="330.422"
       style="fill:#242D3C;"
       width="1.728"
       height="8.136"
       id="rect990" /><rect
       x="139.826"
       y="330.422"
       style="fill:#242D3C;"
       width="1.728"
       height="8.136"
       id="rect992" /><rect
       x="110.995"
       y="330.422"
       style="fill:#242D3C;"
       width="1.728"
       height="8.136"
       id="rect994" /><rect
       x="384.859"
       y="330.422"
       style="fill:#242D3C;"
       width="1.724"
       height="8.136"
       id="rect996" /><rect
       x="356.022"
       y="330.422"
       style="fill:#242D3C;"
       width="1.728"
       height="8.136"
       id="rect998" /><rect
       x="327.218"
       y="330.422"
       style="fill:#242D3C;"
       width="1.728"
       height="8.136"
       id="rect1000" /><rect
       x="298.38"
       y="330.422"
       style="fill:#242D3C;"
       width="1.728"
       height="8.136"
       id="rect1002" /><rect
       x="269.543"
       y="330.422"
       style="fill:#242D3C;"
       width="1.728"
       height="8.136"
       id="rect1004" /><rect
       x="240.719"
       y="330.422"
       style="fill:#242D3C;"
       width="1.731"
       height="8.136"
       id="rect1006" /><rect
       x="211.902"
       y="330.422"
       style="fill:#242D3C;"
       width="1.731"
       height="8.136"
       id="rect1008" /><rect
       x="183.065"
       y="330.422"
       style="fill:#242D3C;"
       width="1.724"
       height="8.136"
       id="rect1010" /><rect
       x="154.238"
       y="330.422"
       style="fill:#242D3C;"
       width="1.728"
       height="8.136"
       id="rect1012" /><rect
       x="125.414"
       y="330.422"
       style="fill:#242D3C;"
       width="1.728"
       height="8.136"
       id="rect1014" /></g><rect
     x="254.302"
     y="116.802"
     style="fill:#FFFFFF;"
     width="3.379"
     height="11.839"
     id="rect1018" /><rect
     x="253.589"
     y="127.749"
     style="fill:#3E4959;"
     width="4.839"
     height="4.826"
     id="rect1020" /><rect
     x="202.818"
     y="241.499"
     style="fill:#242D3C;"
     width="106.331"
     height="3.386"
     id="rect1022" /><rect
     x="253.589"
     y="228.682"
     style="fill:#FFFFFF;"
     width="4.839"
     height="29.006"
     id="rect1024" /><path
     style="fill:#242D3C;"
     d="M255.997,177.182c-14.131,0-25.617-11.492-25.617-25.613c0-14.128,11.485-25.62,25.617-25.62  c14.125,0,25.617,11.492,25.617,25.62C281.613,165.69,270.121,177.182,255.997,177.182z M255.997,128.852  c-12.529,0-22.72,10.181-22.72,22.716c0,12.529,10.19,22.716,22.72,22.716c12.526,0,22.72-10.187,22.72-22.716  C278.716,139.033,268.523,128.852,255.997,128.852z"
     id="path1026" /><path
     style="fill:#3E4959;"
     d="M315.006,386.342c0.139,0.059,0.301,0.059,0.429,0.026l0.39-0.096  c0.142-0.046,0.268-0.122,0.367-0.251c0.096-0.129,0.139-0.271,0.139-0.42l-0.043-4.324l-3.739,1.014l2.127,3.762  C314.745,386.173,314.857,386.276,315.006,386.342z"
     id="path1028" /><rect
     x="311.343"
     y="373.086"
     transform="matrix(-0.9655 0.2604 -0.2604 -0.9655 714.0465 660.4207)"
     style="fill:#242D3C;"
     width="3.865"
     height="8.849"
     id="rect1030" /><path
     style="fill:#FFFFFF;"
     d="M310.061,347.618l6.689,24.976c0.32,1.186,0.185,2.517-0.482,3.67  c-0.667,1.143-1.737,1.929-2.933,2.246l-0.469,0.129c-0.601,0.155-1.259,0.083-1.84-0.244c-0.575-0.33-0.965-0.879-1.126-1.463  l-7.317-27.318L310.061,347.618z"
     id="path1032" /><polygon
     style="fill:#3E4959;"
     points="280.047,265.49 290.221,303.464 304.227,299.715 265.84,156.457 260.942,157.769   255.997,175.735 268.783,223.47 273.656,222.168 284.91,264.192 "
     id="polygon1034" /><polygon
     style="fill:#242D3C;"
     points="290.221,303.464 309.129,374.044 312.657,373.096 317.004,347.394 304.227,299.715 "
     id="polygon1036" /><path
     style="fill:#FFFFFF;"
     d="M322.065,347.605c1.381,5.156-1.678,10.451-6.834,11.839c-5.16,1.374-10.455-1.685-11.842-6.838  c-1.377-5.15,1.681-10.465,6.834-11.839C315.379,339.387,320.684,342.445,322.065,347.605z"
     id="path1038" /><circle
     style="fill:#3E4959;"
     cx="312.716"
     cy="350.109"
     r="2.418"
     id="circle1040" /><rect
     x="293.383"
     y="277.817"
     transform="matrix(0.9661 -0.2582 0.2582 0.9661 -64.8799 85.7681)"
     style="fill:#242D3C;"
     width="1.45"
     height="24.173"
     id="rect1042" /><g
     id="g1048"><rect
       x="301.031"
       y="277.738"
       transform="matrix(-0.9659 0.259 -0.259 -0.9659 670.9767 486.416)"
       style="fill:#FFFFFF;"
       width="4.833"
       height="19.338"
       id="rect1044" /><rect
       x="285.193"
       y="289.639"
       transform="matrix(-0.9657 0.2597 -0.2597 -0.9657 638.3529 499.7719)"
       style="fill:#FFFFFF;"
       width="1.939"
       height="4.829"
       id="rect1046" /></g><polygon
     style="fill:#CDD3DA;"
     points="199.128,373.046 196.608,382.438 196.552,386.368 198.474,382.936 200.991,373.549 "
     id="polygon1050" /><path
     style="fill:#FFFFFF;"
     d="M199.614,363.755l-2.999,11.208c-0.195,0.71-0.112,1.503,0.291,2.2  c0.4,0.697,1.044,1.163,1.761,1.348c0.714,0.188,1.503,0.116,2.197-0.291c0.694-0.4,1.159-1.044,1.348-1.761l3.003-11.208  L199.614,363.755z"
     id="path1052" /><polygon
     style="fill:#3E4959;"
     points="227.08,264.192 238.341,222.168 243.203,223.47 255.997,175.735 251.055,157.769   246.15,156.457 194.989,347.394 199.333,373.103 202.854,374.044 231.949,265.49 "
     id="polygon1054" /><circle
     style="fill:#FFFFFF;"
     cx="256"
     cy="175.732"
     r="9.665"
     id="circle1056" /><circle
     style="fill:#3E4959;"
     cx="256"
     cy="175.732"
     r="2.418"
     id="circle1058" /><g
     id="g1064"><path
       style="fill:#242D3C;"
       d="M230.334,243.18c0,1.341-1.083,2.408-2.418,2.408c-1.331,0-2.411-1.064-2.411-2.408   c0-1.335,1.08-2.418,2.411-2.418C229.25,240.762,230.334,241.846,230.334,243.18z"
       id="path1060" /><path
       style="fill:#242D3C;"
       d="M286.492,243.18c0,1.341-1.083,2.408-2.415,2.408c-1.335,0-2.415-1.064-2.415-2.408   c0-1.335,1.08-2.418,2.415-2.418C285.409,240.762,286.492,241.846,286.492,243.18z"
       id="path1062" /></g><g
     id="g1070"><rect
       x="217.435"
       y="240.762"
       style="fill:#FFFFFF;"
       width="4.833"
       height="4.826"
       id="rect1066" /><rect
       x="289.726"
       y="240.762"
       style="fill:#FFFFFF;"
       width="4.833"
       height="4.826"
       id="rect1068" /></g><polygon
     style="fill:#3E4959;"
     points="262.765,111.415 259.379,124.644 252.614,124.644 249.232,111.415 "
     id="polygon1072" /><rect
     x="249.228"
     y="85.983"
     style="fill:#242D3C;"
     width="13.533"
     height="25.438"
     id="rect1074" /><g
     id="g1076" /><g
     id="g1078" /><g
     id="g1080" /><g
     id="g1082" /><g
     id="g1084" /><g
     id="g1086" /><g
     id="g1088" /><g
     id="g1090" /><g
     id="g1092" /><g
     id="g1094" /><g
     id="g1096" /><g
     id="g1098" /><g
     id="g1100" /><g
     id="g1102" /><g
     id="g1104" /></svg>