<?xml version="1.0" encoding="iso-8859-1"?>
<!-- Generator: Adobe Illustrator 19.0.0, SVG Export Plug-In . SVG Version: 6.00 Build 0)  -->
<svg version="1.1" id="Layer_1" xmlns="http://www.w3.org/2000/svg" xmlns:xlink="http://www.w3.org/1999/xlink" x="0px" y="0px"
	 viewBox="0 0 512 512" style="enable-background:new 0 0 512 512;" xml:space="preserve">
<circle style="fill:#F2F2F2;" cx="256" cy="256" r="256"/>
<polygon style="fill:#CCCBCA;" points="135.363,376.878 136.625,421.161 171.315,393.626 "/>
<polygon style="fill:#FF6D3B;" points="171.315,393.626 135.363,376.878 268.38,91.691 304.303,108.442 "/>
<polygon style="fill:#F15424;" points="171.315,393.626 153.323,385.255 286.33,100.061 304.303,108.442 "/>
<g>
	<polygon style="fill:#242D3C;" points="136.109,403.816 136.625,421.161 150.188,410.393 	"/>
	<polygon style="fill:#242D3C;" points="367.666,361.145 331.779,377.902 220.219,138.742 256.129,121.985 	"/>
	<polygon style="fill:#242D3C;" points="250.563,110.04 214.65,126.801 205.665,107.596 241.657,90.839 	"/>
</g>
<polygon style="fill:#131A26;" points="373.582,408.444 364.22,412.84 331.779,377.902 367.666,361.145 "/>
<g>
	<polygon style="fill:#CCCBCA;" points="375.227,419.496 371.613,421.161 367.091,411.463 370.704,409.808 	"/>
	<polygon style="fill:#CCCBCA;" points="223.625,137.107 252.743,123.537 247.174,111.626 218.082,125.182 	"/>
</g>
<path style="fill:#131A26;" d="M317.387,233.799l-44.802-96.005c-0.36-0.803-1.07-1.453-1.903-1.754
	c-0.819-0.32-1.747-0.268-2.593,0.076l-4.387,2.071l-2.857-6.161l4.38-2.068c2.418-1.15,5.259-1.268,7.845-0.327
	c2.458,0.928,4.568,2.798,5.705,5.265l44.795,96.018L317.387,233.799z"/>
<path style="fill:#16C6CC;" d="M135.697,299.246h240.941v-39.665H135.697V299.246z M155.433,279.42c0,2.765-2.233,5.021-5.021,5.021
	c-2.742,0-5.014-2.256-5.014-5.021c0-2.768,2.273-5.011,5.014-5.011C153.2,274.409,155.433,276.652,155.433,279.42z"/>
<g>
	<rect x="164.342" y="259.567" style="fill:#242D3C;" width="1.186" height="10.085"/>
	<rect x="184.419" y="259.567" style="fill:#242D3C;" width="1.212" height="10.085"/>
	<rect x="204.523" y="259.567" style="fill:#242D3C;" width="1.143" height="10.085"/>
	<rect x="224.573" y="259.567" style="fill:#242D3C;" width="1.206" height="10.085"/>
	<rect x="244.637" y="259.567" style="fill:#242D3C;" width="1.252" height="10.085"/>
	<rect x="264.721" y="259.567" style="fill:#242D3C;" width="1.232" height="10.085"/>
	<rect x="284.804" y="259.567" style="fill:#242D3C;" width="1.199" height="10.085"/>
	<rect x="304.888" y="259.567" style="fill:#242D3C;" width="1.199" height="10.085"/>
	<rect x="324.938" y="259.567" style="fill:#242D3C;" width="1.226" height="10.085"/>
	<rect x="345.055" y="259.567" style="fill:#242D3C;" width="1.186" height="10.085"/>
	<rect x="365.106" y="259.567" style="fill:#242D3C;" width="1.206" height="10.085"/>
	<rect x="355.163" y="259.567" style="fill:#242D3C;" width="0.994" height="5.057"/>
	<rect x="335.145" y="259.567" style="fill:#242D3C;" width="0.948" height="5.057"/>
	<rect x="315.062" y="259.567" style="fill:#242D3C;" width="0.988" height="5.057"/>
	<rect x="295.011" y="259.567" style="fill:#242D3C;" width="0.961" height="5.057"/>
	<rect x="274.861" y="259.567" style="fill:#242D3C;" width="1.014" height="5.057"/>
	<rect x="254.778" y="259.567" style="fill:#242D3C;" width="1.014" height="5.057"/>
	<rect x="234.694" y="259.567" style="fill:#242D3C;" width="1.014" height="5.057"/>
	<rect x="214.644" y="259.567" style="fill:#242D3C;" width="1.021" height="5.057"/>
	<rect x="194.56" y="259.567" style="fill:#242D3C;" width="1.007" height="5.057"/>
	<rect x="174.483" y="259.567" style="fill:#242D3C;" width="0.988" height="5.057"/>
</g>
<g>
</g>
<g>
</g>
<g>
</g>
<g>
</g>
<g>
</g>
<g>
</g>
<g>
</g>
<g>
</g>
<g>
</g>
<g>
</g>
<g>
</g>
<g>
</g>
<g>
</g>
<g>
</g>
<g>
</g>
</svg>
