<?xml version="1.0" encoding="UTF-8" standalone="no"?>
<!-- Created with Inkscape (http://www.inkscape.org/) -->

<svg
   xmlns:dc="http://purl.org/dc/elements/1.1/"
   xmlns:cc="http://creativecommons.org/ns#"
   xmlns:rdf="http://www.w3.org/1999/02/22-rdf-syntax-ns#"
   xmlns:svg="http://www.w3.org/2000/svg"
   xmlns="http://www.w3.org/2000/svg"
   xmlns:sodipodi="http://sodipodi.sourceforge.net/DTD/sodipodi-0.dtd"
   xmlns:inkscape="http://www.inkscape.org/namespaces/inkscape"
   width="146.44739mm"
   height="76.375946mm"
   viewBox="0 0 146.44739 76.375946"
   version="1.1"
   id="svg2071"
   inkscape:version="0.92.2 (5c3e80d, 2017-08-06)"
   sodipodi:docname="bg2.svg">
  <defs
     id="defs2065" />
  <sodipodi:namedview
     id="base"
     pagecolor="#ffffff"
     bordercolor="#666666"
     borderopacity="1.0"
     inkscape:pageopacity="0.0"
     inkscape:pageshadow="2"
     inkscape:zoom="0.35"
     inkscape:cx="1246.751"
     inkscape:cy="-427.09607"
     inkscape:document-units="mm"
     inkscape:current-layer="layer1"
     showgrid="false"
     inkscape:window-width="1920"
     inkscape:window-height="1017"
     inkscape:window-x="-8"
     inkscape:window-y="-8"
     inkscape:window-maximized="1" />
  <metadata
     id="metadata2068">
    <rdf:RDF>
      <cc:Work
         rdf:about="">
        <dc:format>image/svg+xml</dc:format>
        <dc:type
           rdf:resource="http://purl.org/dc/dcmitype/StillImage" />
        <dc:title></dc:title>
      </cc:Work>
    </rdf:RDF>
  </metadata>
  <g
     inkscape:label="Layer 1"
     inkscape:groupmode="layer"
     id="layer1"
     transform="translate(346.87846,40.545116)">
    <path
       inkscape:connector-curvature="0"
       style="fill:#242d3c;stroke-width:0.26458332"
       d="m -211.94943,-12.293967 c -0.48154,-0.478102 -1.11257,-0.720196 -1.74783,-0.720196 h -69.60897 c -0.63024,0 -1.26286,0.242094 -1.74784,0.720196 -0.4781,0.482335 -0.72019,1.112573 -0.72019,1.745456 v 43.018869 h 74.54609 v -43.018869 c -0.001,-0.632883 -0.23971,-1.262856 -0.72126,-1.745456 z"
       id="path817" />
    <circle
       style="fill:#3e4959;stroke-width:0.26458332"
       cx="-248.50267"
       cy="-11.114721"
       r="1.0443105"
       id="circle819" />
    <g
       id="g827"
       transform="matrix(0.26458333,0,0,0.26458333,-316.236,-65.72101)">
      <circle
         style="fill:#ffffff"
         cx="256"
         cy="206.386"
         r="1.698"
         id="circle821" />
      <rect
         x="129.784"
         y="213.554"
         style="fill:#ffffff"
         width="252.433"
         height="157.554"
         id="rect823" />
      <rect
         x="85.252998"
         y="371.117"
         style="fill:#ffffff"
         width="341.487"
         height="4.2309999"
         id="rect825" />
    </g>
    <path
       inkscape:connector-curvature="0"
       style="fill:#cccbca;stroke-width:0.26458332"
       d="m -293.67948,33.590075 c 3.26178,1.441185 6.87043,2.240756 10.66509,2.240756 h 69.02582 c 3.79492,0 7.39987,-0.799571 10.6635,-2.240756 z"
       id="path829" />
    <rect
       x="-256.34229"
       y="32.470364"
       style="fill:#242d3c;stroke-width:0.26458332"
       width="15.680002"
       height="0.56012297"
       id="rect831" />
    <polygon
       style="fill:#ffffff"
       points="74.323,290.568 94.479,282.119 94.479,299.011 "
       id="polygon833"
       transform="matrix(0.26458333,0,0,0.26458333,-316.236,-65.72101)" />
    <rect
       x="-291.23843"
       y="8.9256172"
       style="fill:#ffb733;stroke-width:0.26458332"
       width="85.474968"
       height="4.4696059"
       id="rect835" />
    <rect
       x="-291.23843"
       y="8.9256172"
       style="fill:#ffd55c;stroke-width:0.26458332"
       width="85.474968"
       height="2.2357292"
       id="rect837" />
    <polygon
       style="fill:#242d3c"
       points="74.323,290.568 84.401,286.343 84.401,294.793 "
       id="polygon839"
       transform="matrix(0.26458333,0,0,0.26458333,-316.236,-65.72101)" />
    <rect
       x="-205.76505"
       y="8.9256172"
       style="fill:#ffffff;stroke-width:0.26458332"
       width="1.5792979"
       height="4.4696059"
       id="rect841" />
    <rect
       x="-204.18312"
       y="8.9256172"
       style="fill:#f15424;stroke-width:0.26458332"
       width="3.7520561"
       height="4.4696059"
       id="rect843" />
    <polygon
       style="fill:#1f2633"
       points="364.577,213.554 147.423,213.554 145.639,199.218 366.361,199.218 "
       id="polygon845"
       transform="matrix(0.26458333,0,0,0.26458333,-316.236,-65.72101)" />
    <polygon
       style="fill:#d9d8d7"
       points="355.989,282.129 156.011,282.129 147.423,213.554 364.577,213.554 "
       id="polygon847"
       transform="matrix(0.26458333,0,0,0.26458333,-316.236,-65.72101)" />
    <polygon
       style="fill:#d9b44e"
       points="354.965,290.552 157.035,290.552 156.011,282.129 355.989,282.129 "
       id="polygon849"
       transform="matrix(0.26458333,0,0,0.26458333,-316.236,-65.72101)" />
    <polygon
       style="fill:#d99b2b"
       points="353.908,299.008 158.092,299.008 157.035,290.552 354.965,290.552 "
       id="polygon851"
       transform="matrix(0.26458333,0,0,0.26458333,-316.236,-65.72101)" />
    <polygon
       style="fill:#d9d8d7"
       points="344.89,371.117 167.11,371.117 158.092,299.008 353.908,299.008 "
       id="polygon853"
       transform="matrix(0.26458333,0,0,0.26458333,-316.236,-65.72101)" />
    <rect
       x="-272.01962"
       y="-40.545116"
       style="fill:#ffffff;stroke-width:0.26458332"
       width="47.033924"
       height="73.012032"
       id="rect855" />
    <rect
       x="-272.01962"
       y="-40.545116"
       style="fill:#f15424;stroke-width:0.26458332"
       width="47.033924"
       height="4.3619208"
       id="rect857" />
    <rect
       x="-272.01962"
       y="8.9256172"
       style="fill:#3e4959;stroke-width:0.26458332"
       width="47.033924"
       height="23.54686"
       id="rect859" />
    <g
       id="g867"
       transform="matrix(0.26458333,0,0,0.26458333,-316.236,-65.72101)">
      <rect
         x="180.786"
         y="295.80399"
         style="fill:#ffffff"
         width="41.033001"
         height="32.798"
         id="rect861" />
      <rect
         x="235.487"
         y="295.80399"
         style="fill:#ffffff"
         width="41.019001"
         height="32.798"
         id="rect863" />
      <rect
         x="290.18799"
         y="295.80399"
         style="fill:#ffffff"
         width="41.026001"
         height="32.798"
         id="rect865" />
    </g>
    <g
       id="g875"
       transform="matrix(0.26458333,0,0,0.26458333,-316.236,-65.72101)">
      <rect
         x="180.786"
         y="206.782"
         style="fill:#f15424"
         width="41.033001"
         height="32.793999"
         id="rect869" />
      <rect
         x="235.487"
         y="206.782"
         style="fill:#f15424"
         width="41.019001"
         height="32.793999"
         id="rect871" />
      <rect
         x="290.18799"
         y="206.782"
         style="fill:#f15424"
         width="41.026001"
         height="32.793999"
         id="rect873" />
    </g>
    <rect
       x="-268.3996"
       y="-32.563961"
       style="fill:#3e4959;stroke-width:0.26458332"
       width="39.794922"
       height="5.2062063"
       id="rect877" />
    <rect
       x="-268.40305"
       y="-23.743809"
       style="fill:#f15424;stroke-width:0.26458332"
       width="39.798363"
       height="1.7367251"
       id="rect879" />
    <g
       id="g905"
       transform="matrix(0.26458333,0,0,0.26458333,-316.236,-65.72101)">
      <rect
         x="180.786"
         y="334.55099"
         style="fill:#ffffff"
         width="41.033001"
         height="3.164"
         id="rect881" />
      <rect
         x="180.786"
         y="341.65302"
         style="fill:#ffffff"
         width="41.033001"
         height="3.161"
         id="rect883" />
      <rect
         x="180.786"
         y="348.755"
         style="fill:#ffffff"
         width="41.033001"
         height="3.161"
         id="rect885" />
      <rect
         x="180.786"
         y="355.85699"
         style="fill:#ffffff"
         width="20.51"
         height="3.161"
         id="rect887" />
      <rect
         x="235.487"
         y="334.55099"
         style="fill:#ffffff"
         width="41.019001"
         height="3.164"
         id="rect889" />
      <rect
         x="235.487"
         y="341.65302"
         style="fill:#ffffff"
         width="41.019001"
         height="3.161"
         id="rect891" />
      <rect
         x="235.487"
         y="348.755"
         style="fill:#ffffff"
         width="41.019001"
         height="3.161"
         id="rect893" />
      <rect
         x="235.487"
         y="355.85699"
         style="fill:#ffffff"
         width="20.51"
         height="3.161"
         id="rect895" />
      <rect
         x="290.18799"
         y="334.55099"
         style="fill:#ffffff"
         width="41.026001"
         height="3.164"
         id="rect897" />
      <rect
         x="290.18799"
         y="341.65302"
         style="fill:#ffffff"
         width="41.026001"
         height="3.161"
         id="rect899" />
      <rect
         x="290.18799"
         y="348.755"
         style="fill:#ffffff"
         width="41.026001"
         height="3.161"
         id="rect901" />
      <rect
         x="290.18799"
         y="355.85699"
         style="fill:#ffffff"
         width="20.516001"
         height="3.161"
         id="rect903" />
    </g>
    <g
       id="g921"
       transform="matrix(0.26458333,0,0,0.26458333,-316.236,-65.72101)">
      <rect
         x="180.799"
         y="245.562"
         style="fill:#242d3c"
         width="150.42599"
         height="3.161"
         id="rect907" />
      <rect
         x="180.786"
         y="252.664"
         style="fill:#242d3c"
         width="150.439"
         height="3.161"
         id="rect909" />
      <rect
         x="180.799"
         y="259.76599"
         style="fill:#242d3c"
         width="150.42599"
         height="3.161"
         id="rect911" />
      <rect
         x="180.799"
         y="266.86801"
         style="fill:#242d3c"
         width="75.208"
         height="3.161"
         id="rect913" />
      <rect
         x="180.799"
         y="177.33"
         style="fill:#242d3c"
         width="150.42599"
         height="3.161"
         id="rect915" />
      <rect
         x="180.786"
         y="184.43201"
         style="fill:#242d3c"
         width="150.439"
         height="3.161"
         id="rect917" />
      <rect
         x="201.295"
         y="191.541"
         style="fill:#242d3c"
         width="109.403"
         height="3.161"
         id="rect919" />
    </g>
    <g
       id="g931"
       transform="matrix(0.26458333,0,0,0.26458333,-316.236,-65.72101)">
      <rect
         x="197.50301"
         y="133.582"
         style="fill:#ffffff"
         width="16.711"
         height="3.161"
         id="rect923" />
      <rect
         x="230.929"
         y="133.582"
         style="fill:#ffffff"
         width="16.711"
         height="3.161"
         id="rect925" />
      <rect
         x="264.35699"
         y="133.582"
         style="fill:#ffffff"
         width="16.711"
         height="3.161"
         id="rect927" />
      <rect
         x="297.78601"
         y="133.582"
         style="fill:#ffffff"
         width="16.724001"
         height="3.161"
         id="rect929" />
    </g>
    <g
       id="g1168"
       transform="matrix(0.26458333,0,0,0.26458333,-372.66078,-67.923399)">
      <rect
         x="401.20999"
         y="364.181"
         style="fill:#242d3c"
         width="13.345"
         height="15.912"
         id="rect1164" />
      <rect
         x="97.445"
         y="158.819"
         style="fill:#242d3c"
         width="29.504"
         height="221.267"
         id="rect1166" />
    </g>
    <g
       id="g1228"
       transform="matrix(0.26458333,0,0,0.27994777,-372.18076,-72.18604)">
      <rect
         x="97.445"
         y="371.61301"
         style="fill:#ffffff"
         width="8.1850004"
         height="2.223"
         id="rect1170" />
      <rect
         x="97.445"
         y="356.84698"
         style="fill:#ffffff"
         width="8.1850004"
         height="2.223"
         id="rect1172" />
      <rect
         x="97.447998"
         y="342.11499"
         style="fill:#ffffff"
         width="8.1820002"
         height="2.2160001"
         id="rect1174" />
      <rect
         x="97.445"
         y="327.35001"
         style="fill:#ffffff"
         width="8.1850004"
         height="2.2160001"
         id="rect1176" />
      <rect
         x="97.447998"
         y="312.617"
         style="fill:#ffffff"
         width="8.1850004"
         height="2.223"
         id="rect1178" />
      <rect
         x="97.445"
         y="297.85199"
         style="fill:#ffffff"
         width="8.1820002"
         height="2.2160001"
         id="rect1180" />
      <rect
         x="97.445"
         y="283.086"
         style="fill:#ffffff"
         width="8.1890001"
         height="2.22"
         id="rect1182" />
      <rect
         x="97.445"
         y="268.354"
         style="fill:#ffffff"
         width="8.1850004"
         height="2.223"
         id="rect1184" />
      <rect
         x="97.445"
         y="253.589"
         style="fill:#ffffff"
         width="8.1820002"
         height="2.22"
         id="rect1186" />
      <rect
         x="97.445"
         y="238.856"
         style="fill:#ffffff"
         width="8.1850004"
         height="2.223"
         id="rect1188" />
      <rect
         x="97.447998"
         y="224.097"
         style="fill:#ffffff"
         width="8.1850004"
         height="2.22"
         id="rect1190" />
      <rect
         x="97.445"
         y="201.959"
         style="fill:#ffffff"
         width="4.3140001"
         height="2.22"
         id="rect1192" />
      <rect
         x="97.445"
         y="187.217"
         style="fill:#ffffff"
         width="4.3140001"
         height="2.223"
         id="rect1194" />
      <rect
         x="97.445"
         y="172.461"
         style="fill:#ffffff"
         width="4.3169999"
         height="2.223"
         id="rect1196" />
      <rect
         x="97.447998"
         y="364.24701"
         style="fill:#ffffff"
         width="4.3140001"
         height="2.2160001"
         id="rect1198" />
      <rect
         x="97.445"
         y="349.48099"
         style="fill:#ffffff"
         width="4.3140001"
         height="2.223"
         id="rect1200" />
      <rect
         x="97.447998"
         y="334.716"
         style="fill:#ffffff"
         width="4.3140001"
         height="2.22"
         id="rect1202" />
      <rect
         x="97.447998"
         y="319.983"
         style="fill:#ffffff"
         width="4.3109999"
         height="2.22"
         id="rect1204" />
      <rect
         x="97.445"
         y="305.21799"
         style="fill:#ffffff"
         width="4.3109999"
         height="2.22"
         id="rect1206" />
      <rect
         x="97.445"
         y="290.48599"
         style="fill:#ffffff"
         width="4.3169999"
         height="2.22"
         id="rect1208" />
      <rect
         x="97.447998"
         y="275.72"
         style="fill:#ffffff"
         width="4.3070002"
         height="2.22"
         id="rect1210" />
      <rect
         x="97.447998"
         y="260.98801"
         style="fill:#ffffff"
         width="4.3070002"
         height="2.22"
         id="rect1212" />
      <rect
         x="97.447998"
         y="246.222"
         style="fill:#ffffff"
         width="4.3109999"
         height="2.22"
         id="rect1214" />
      <rect
         x="97.445"
         y="231.49001"
         style="fill:#ffffff"
         width="4.3109999"
         height="2.2160001"
         id="rect1216" />
      <rect
         x="97.445"
         y="216.72501"
         style="fill:#ffffff"
         width="4.3109999"
         height="2.22"
         id="rect1218" />
      <rect
         x="97.447998"
         y="209.358"
         style="fill:#ffffff"
         width="8.1890001"
         height="2.2160001"
         id="rect1220" />
      <rect
         x="97.445"
         y="194.593"
         style="fill:#ffffff"
         width="8.1890001"
         height="2.22"
         id="rect1222" />
      <rect
         x="97.447998"
         y="179.86099"
         style="fill:#ffffff"
         width="8.1820002"
         height="2.2160001"
         id="rect1224" />
      <rect
         x="97.447998"
         y="165.092"
         style="fill:#ffffff"
         width="8.1820002"
         height="2.22"
         id="rect1226" />
    </g>
    <g
       id="g1414"
       transform="matrix(0.26458333,0,0,0.26458333,-382.15002,-44.16608)">
      <polygon
         style="fill:#3e4959"
         points="266.065,117.588 262.359,99.097 249.648,99.097 245.942,117.588 "
         id="polygon1390" />
      <polygon
         style="fill:#3e4959"
         points="232.078,121.304 219.622,107.143 208.612,113.496 214.644,131.369 "
         id="polygon1392" />
      <polygon
         style="fill:#3e4959"
         points="204.499,141.517 186.632,135.479 180.28,146.485 194.441,158.941 "
         id="polygon1394" />
      <polygon
         style="fill:#3e4959"
         points="190.728,172.805 172.23,176.511 172.237,189.225 190.728,192.928 "
         id="polygon1396" />
      <polygon
         style="fill:#3e4959"
         points="194.441,206.795 180.28,219.252 186.639,230.258 204.499,224.22 "
         id="polygon1398" />
      <polygon
         style="fill:#3e4959"
         points="214.65,234.367 208.612,252.238 219.622,258.593 232.078,244.432 "
         id="polygon1400" />
      <polygon
         style="fill:#3e4959"
         points="245.948,248.148 249.655,266.64 262.359,266.64 266.065,248.148 "
         id="polygon1402" />
      <polygon
         style="fill:#3e4959"
         points="279.929,244.432 292.392,258.593 303.395,252.238 297.356,234.367 "
         id="polygon1404" />
      <polygon
         style="fill:#3e4959"
         points="307.507,224.22 325.374,230.258 331.726,219.252 317.566,206.795 "
         id="polygon1406" />
      <polygon
         style="fill:#3e4959"
         points="321.285,192.928 339.773,189.225 339.77,176.511 321.285,172.805 "
         id="polygon1408" />
      <polygon
         style="fill:#3e4959"
         points="317.566,158.941 331.726,146.485 325.374,135.479 307.507,141.517 "
         id="polygon1410" />
      <polygon
         style="fill:#3e4959"
         points="297.356,131.369 303.395,113.496 292.385,107.143 279.929,121.304 "
         id="polygon1412" />
    </g>
    <path
       inkscape:connector-curvature="0"
       style="fill:#242d3c;stroke-width:0.26458332"
       d="m -314.41669,-13.256212 c -9.65147,0 -17.4744,7.8213171 -17.4744,17.4743751 0,9.6530579 7.82293,17.4744059 17.4744,17.4744059 9.65306,0 17.47441,-7.821348 17.47441,-17.4744059 0,-9.653058 -7.82135,-17.4743751 -17.47441,-17.4743751 z m 0,22.3136041 c -2.66831,0 -4.83843,-2.169319 -4.83843,-4.839229 0,-2.669911 2.17012,-4.83922896 4.83843,-4.83922896 2.66912,0 4.84003,2.16931796 4.84003,4.83922896 0,2.66991 -2.17091,4.839229 -4.84003,4.839229 z"
       id="path1416" />
  </g>
</svg>
