<?xml version="1.0" encoding="UTF-8" standalone="no"?>
<!-- Created with Inkscape (http://www.inkscape.org/) -->

<svg
   xmlns:dc="http://purl.org/dc/elements/1.1/"
   xmlns:cc="http://creativecommons.org/ns#"
   xmlns:rdf="http://www.w3.org/1999/02/22-rdf-syntax-ns#"
   xmlns:svg="http://www.w3.org/2000/svg"
   xmlns="http://www.w3.org/2000/svg"
   xmlns:sodipodi="http://sodipodi.sourceforge.net/DTD/sodipodi-0.dtd"
   xmlns:inkscape="http://www.inkscape.org/namespaces/inkscape"
   width="91.037857mm"
   height="63.499466mm"
   viewBox="0 0 91.037857 63.499466"
   version="1.1"
   id="svg9697"
   inkscape:version="0.92.2 (5c3e80d, 2017-08-06)"
   sodipodi:docname="email_mark.svg">
  <defs
     id="defs9691">
    <clipPath
       clipPathUnits="userSpaceOnUse"
       id="clipPath680">
      <path
         inkscape:connector-curvature="0"
         d="m 354.603,679.734 c 0,-12.712 10.303,-23.016 23.014,-23.016 v 0 c 12.711,0 23.016,10.304 23.016,23.016 v 0 c 0,12.711 -10.305,23.015 -23.016,23.015 v 0 c -12.711,0 -23.014,-10.304 -23.014,-23.015"
         id="path678" />
    </clipPath>
    <clipPath
       clipPathUnits="userSpaceOnUse"
       id="clipPath692">
      <path
         inkscape:connector-curvature="0"
         d="m 362.72,694.096 h 49.345 v -49.32 H 362.72 Z"
         id="path690" />
    </clipPath>
    <clipPath
       clipPathUnits="userSpaceOnUse"
       id="clipPath716">
      <path
         inkscape:connector-curvature="0"
         d="m 370.304,691.36 h 5.253 v -14.704 h -5.253 z"
         id="path714" />
    </clipPath>
    <clipPath
       clipPathUnits="userSpaceOnUse"
       id="clipPath612">
      <path
         inkscape:connector-curvature="0"
         d="m 350.262,601.19 c 0,-14.074 11.409,-25.483 25.484,-25.483 v 0 c 14.073,0 25.482,11.409 25.482,25.483 v 0 c 0,14.073 -11.409,25.483 -25.482,25.483 v 0 c -14.075,0 -25.484,-11.41 -25.484,-25.483"
         id="path610" />
    </clipPath>
    <clipPath
       clipPathUnits="userSpaceOnUse"
       id="clipPath624">
      <path
         inkscape:connector-curvature="0"
         d="M 358.087,606.852 H 413.57 V 566.837 H 358.087 Z"
         id="path622" />
    </clipPath>
    <clipPath
       clipPathUnits="userSpaceOnUse"
       id="clipPath656">
      <path
         inkscape:connector-curvature="0"
         d="m 358.087,600.749 h 35.317 v -6.104 h -35.317 z"
         id="path654" />
    </clipPath>
  </defs>
  <sodipodi:namedview
     id="base"
     pagecolor="#ffffff"
     bordercolor="#666666"
     borderopacity="1.0"
     inkscape:pageopacity="0.0"
     inkscape:pageshadow="2"
     inkscape:zoom="0.98994949"
     inkscape:cx="523.79839"
     inkscape:cy="231.03172"
     inkscape:document-units="mm"
     inkscape:current-layer="layer1"
     showgrid="false"
     inkscape:window-width="1920"
     inkscape:window-height="1017"
     inkscape:window-x="-8"
     inkscape:window-y="-8"
     inkscape:window-maximized="1" />
  <metadata
     id="metadata9694">
    <rdf:RDF>
      <cc:Work
         rdf:about="">
        <dc:format>image/svg+xml</dc:format>
        <dc:type
           rdf:resource="http://purl.org/dc/dcmitype/StillImage" />
        <dc:title></dc:title>
      </cc:Work>
    </rdf:RDF>
  </metadata>
  <g
     inkscape:label="Layer 1"
     inkscape:groupmode="layer"
     id="layer1"
     transform="translate(4.4794851,-171.3994)">
    <g
       transform="matrix(0.23899905,0,0,-0.23261333,54.683541,215.2023)"
       id="g242" />
    <g
       transform="matrix(0.23899905,0,0,-0.23261333,-4.2124948,231.97922)"
       id="g262">
      <path
         inkscape:connector-curvature="0"
         id="path264"
         style="fill:#273942;fill-opacity:1;fill-rule:nonzero;stroke:none"
         d="m 0,0 c 0,0 -7.885,-11.785 18.242,-11.785 26.127,0 332.503,-0.757 332.503,-0.757 0,0 17.988,-0.774 15.079,11.636 z" />
    </g>
    <g
       transform="matrix(0.23899905,0,0,-0.23261333,83.220304,232.19433)"
       id="g266">
      <path
         inkscape:connector-curvature="0"
         id="path268"
         style="fill:#e6e6e8;fill-opacity:1;fill-rule:nonzero;stroke:none"
         d="m 0,0 c 1.242,-4.369 -1.771,-6.562 -6.257,-6.562 l -353.36,0.758 c -4.486,0 -7.258,3.043 -6.212,6.729 l 51.63,53.736 c 4.157,3.801 4.803,5.574 8.85,5.574 h 243.933 c 1.948,0 5.276,-1.511 9.167,-5.574 z" />
    </g>
    <g
       transform="matrix(0.23899905,0,0,-0.23261333,11.189865,184.18794)"
       id="g270">
      <path
         inkscape:connector-curvature="0"
         id="path272"
         style="fill:#273942;fill-opacity:1;fill-rule:nonzero;stroke:none"
         d="m 0,0 c -4.047,0 -7.281,-3.312 -7.281,-7.472 v -138.755 c 0,0 3.234,0.216 7.281,0.216 H 9.143 L 229.991,0 Z" />
    </g>
    <g
       transform="matrix(0.23899905,0,0,-0.23261333,67.244135,184.18794)"
       id="g274">
      <path
         inkscape:connector-curvature="0"
         id="path276"
         style="fill:#273942;fill-opacity:1;fill-rule:nonzero;stroke:none"
         d="M 0,0 H -4.546 L -225.395,-146.011 H 0 c 4.046,0 7.378,-0.216 7.378,-0.216 V -7.472 C 7.378,-3.312 4.046,0 0,0" />
    </g>
    <g
       transform="matrix(0.23899905,0,0,-0.23261333,27.442166,228.08496)"
       id="g278">
      <path
         inkscape:connector-curvature="0"
         id="path280"
         style="fill:#354f5c;fill-opacity:1;fill-rule:nonzero;stroke:none"
         d="M 0,0 3.734,9.272 H -14.078 L -19.271,0 Z" />
    </g>
    <g
       transform="matrix(0.23899905,0,0,-0.23261333,28.884545,225.23193)"
       id="g282">
      <path
         inkscape:connector-curvature="0"
         id="path284"
         style="fill:#354f5c;fill-opacity:1;fill-rule:nonzero;stroke:none"
         d="m 0,0 2.977,7.302 h -16.56 L -17.729,0 Z" />
    </g>
    <g
       transform="matrix(0.23899905,0,0,-0.23261333,29.804715,222.9668)"
       id="g286">
      <path
         inkscape:connector-curvature="0"
         id="path288"
         style="fill:#354f5c;fill-opacity:1;fill-rule:nonzero;stroke:none"
         d="M 0,0 2.754,6.858 H -12.652 L -16.494,0 Z" />
    </g>
    <g
       transform="matrix(0.23899905,0,0,-0.23261333,24.116224,222.9668)"
       id="g290">
      <path
         inkscape:connector-curvature="0"
         id="path292"
         style="fill:#354f5c;fill-opacity:1;fill-rule:nonzero;stroke:none"
         d="M 0,0 3.921,6.858 H -10.362 L -15.292,0 Z" />
    </g>
    <g
       transform="matrix(0.23899905,0,0,-0.23261333,20.896865,228.08496)"
       id="g294">
      <path
         inkscape:connector-curvature="0"
         id="path296"
         style="fill:#354f5c;fill-opacity:1;fill-rule:nonzero;stroke:none"
         d="M 0,0 5.308,9.272 H -11.207 L -17.867,0 Z" />
    </g>
    <g
       transform="matrix(0.23899905,0,0,-0.23261333,22.740835,225.23193)"
       id="g298">
      <path
         inkscape:connector-curvature="0"
         id="path300"
         style="fill:#354f5c;fill-opacity:1;fill-rule:nonzero;stroke:none"
         d="M 0,0 4.238,7.302 H -11.113 L -16.438,0 Z" />
    </g>
    <g
       transform="matrix(0.23899905,0,0,-0.23261333,34.807346,222.9668)"
       id="g302">
      <path
         inkscape:connector-curvature="0"
         id="path304"
         style="fill:#354f5c;fill-opacity:1;fill-rule:nonzero;stroke:none"
         d="m 0,0 1.756,6.858 h -13.06 L -13.981,0 Z" />
    </g>
    <g
       transform="matrix(0.23899905,0,0,-0.23261333,18.779015,222.9668)"
       id="g306">
      <path
         inkscape:connector-curvature="0"
         id="path308"
         style="fill:#354f5c;fill-opacity:1;fill-rule:nonzero;stroke:none"
         d="M 0,0 5.006,6.858 H -10.298 L -16.385,0 Z" />
    </g>
    <g
       transform="matrix(0.23899905,0,0,-0.23261333,16.436875,225.92819)"
       id="g310">
      <path
         inkscape:connector-curvature="0"
         id="path312"
         style="fill:#354f5c;fill-opacity:1;fill-rule:nonzero;stroke:none"
         d="m 0,0 h -17.137 l -8.775,-9.272 h 19.144 z" />
    </g>
    <g
       transform="matrix(0.23899905,0,0,-0.23261333,16.951995,225.26795)"
       id="g314">
      <path
         inkscape:connector-curvature="0"
         id="path316"
         style="fill:#354f5c;fill-opacity:1;fill-rule:nonzero;stroke:none"
         d="M 0,0 5.752,7.307 H -10.342 L -16.914,0 Z" />
    </g>
    <g
       transform="matrix(0.23899905,0,0,-0.23261333,13.378185,222.94839)"
       id="g318">
      <path
         inkscape:connector-curvature="0"
         id="path320"
         style="fill:#354f5c;fill-opacity:1;fill-rule:nonzero;stroke:none"
         d="M 0,0 6.402,6.935 -8.722,6.945 -16.191,0.011 Z" />
    </g>
    <g
       transform="matrix(0.23899905,0,0,-0.23261333,10.418015,225.94305)"
       id="g322">
      <path
         inkscape:connector-curvature="0"
         id="path324"
         style="fill:#354f5c;fill-opacity:1;fill-rule:nonzero;stroke:none"
         d="M 0,0 -16.935,0.011 -27.574,-9.365 -8.656,-9.377 Z" />
    </g>
    <g
       transform="matrix(0.23899905,0,0,-0.23261333,11.071065,225.27543)"
       id="g326">
      <path
         inkscape:connector-curvature="0"
         id="path328"
         style="fill:#354f5c;fill-opacity:1;fill-rule:nonzero;stroke:none"
         d="M 0,0 7.235,7.389 -8.67,7.399 -16.715,0.011 Z" />
    </g>
    <g
       transform="matrix(0.23899905,0,0,-0.23261333,34.400546,225.23193)"
       id="g330">
      <path
         inkscape:connector-curvature="0"
         id="path332"
         style="fill:#354f5c;fill-opacity:1;fill-rule:nonzero;stroke:none"
         d="M 0,0 1.735,7.302 H -13.761 L -16.027,0 Z" />
    </g>
    <g
       transform="matrix(0.23899905,0,0,-0.23261333,63.355374,228.08496)"
       id="g334">
      <path
         inkscape:connector-curvature="0"
         id="path336"
         style="fill:#354f5c;fill-opacity:1;fill-rule:nonzero;stroke:none"
         d="M 0,0 H 19.145 L 10.334,9.272 H -7.361 Z" />
    </g>
    <g
       transform="matrix(0.23899905,0,0,-0.23261333,59.594756,223.53335)"
       id="g338">
      <path
         inkscape:connector-curvature="0"
         id="path340"
         style="fill:#354f5c;fill-opacity:1;fill-rule:nonzero;stroke:none"
         d="M 0,0 5.892,-7.302 H 23.503 L 16.448,0 Z" />
    </g>
    <g
       transform="matrix(0.23899905,0,0,-0.23261333,63.192806,222.9668)"
       id="g342">
      <path
         inkscape:connector-curvature="0"
         id="path344"
         style="fill:#354f5c;fill-opacity:1;fill-rule:nonzero;stroke:none"
         d="M 0,0 -6.535,6.858 H -21.839 L -16.384,0 Z" />
    </g>
    <g
       transform="matrix(0.23899905,0,0,-0.23261333,52.686316,225.23193)"
       id="g346">
      <path
         inkscape:connector-curvature="0"
         id="path348"
         style="fill:#354f5c;fill-opacity:1;fill-rule:nonzero;stroke:none"
         d="M 0,0 -4.582,7.302 H -19.166 L -15.616,0 Z" />
    </g>
    <g
       transform="matrix(0.23899905,0,0,-0.23261333,54.443914,228.08496)"
       id="g350">
      <path
         inkscape:connector-curvature="0"
         id="path352"
         style="fill:#354f5c;fill-opacity:1;fill-rule:nonzero;stroke:none"
         d="m 0,0 -6.188,9.272 h -15.69 L -17.452,0 Z" />
    </g>
    <g
       transform="matrix(0.23899905,0,0,-0.23261333,57.124715,222.9668)"
       id="g354">
      <path
         inkscape:connector-curvature="0"
         id="path356"
         style="fill:#354f5c;fill-opacity:1;fill-rule:nonzero;stroke:none"
         d="M 0,0 -4.503,6.858 H -19.396 L -14.527,0 Z" />
    </g>
    <g
       transform="matrix(0.23899905,0,0,-0.23261333,59.071606,225.23193)"
       id="g358">
      <path
         inkscape:connector-curvature="0"
         id="path360"
         style="fill:#354f5c;fill-opacity:1;fill-rule:nonzero;stroke:none"
         d="M 0,0 -5.799,7.302 H -21.37 L -16.673,0 Z" />
    </g>
    <g
       transform="matrix(0.23899905,0,0,-0.23261333,56.798295,228.08496)"
       id="g362">
      <path
         inkscape:connector-curvature="0"
         id="path364"
         style="fill:#354f5c;fill-opacity:1;fill-rule:nonzero;stroke:none"
         d="M 0,0 H 18.122 L 10.894,9.272 H -5.858 Z" />
    </g>
    <g
       transform="matrix(0.23899905,0,0,-0.23261333,51.418615,222.9668)"
       id="g366">
      <path
         inkscape:connector-curvature="0"
         id="path368"
         style="fill:#354f5c;fill-opacity:1;fill-rule:nonzero;stroke:none"
         d="M 0,0 -5.097,6.858 H -19.585 L -15.511,0 Z" />
    </g>
    <g
       transform="matrix(0.23899905,0,0,-0.23261333,68.150175,225.92819)"
       id="g370">
      <path
         inkscape:connector-curvature="0"
         id="path372"
         style="fill:#354f5c;fill-opacity:1;fill-rule:nonzero;stroke:none"
         d="M 0,0 8.95,-9.272 H 29.115 L 18.637,0 Z" />
    </g>
    <g
       transform="matrix(0.23899905,0,0,-0.23261333,69.425924,222.9668)"
       id="g374">
      <path
         inkscape:connector-curvature="0"
         id="path376"
         style="fill:#354f5c;fill-opacity:1;fill-rule:nonzero;stroke:none"
         d="m 0,0 -7.769,6.858 h -16.12 L -17.258,0 Z" />
    </g>
    <g
       transform="matrix(0.23899905,0,0,-0.23261333,67.497704,225.23193)"
       id="g378">
      <path
         inkscape:connector-curvature="0"
         id="path380"
         style="fill:#354f5c;fill-opacity:1;fill-rule:nonzero;stroke:none"
         d="M 0,0 H 18.553 L 10.162,7.302 H -7.165 Z" />
    </g>
    <g
       transform="matrix(0.23899905,0,0,-0.23261333,46.007055,222.9668)"
       id="g382">
      <path
         inkscape:connector-curvature="0"
         id="path384"
         style="fill:#354f5c;fill-opacity:1;fill-rule:nonzero;stroke:none"
         d="M 0,0 -3.197,6.858 H -18.501 L -16.384,0 Z" />
    </g>
    <g
       transform="matrix(0.23899905,0,0,-0.23261333,46.852994,225.23193)"
       id="g386">
      <path
         inkscape:connector-curvature="0"
         id="path388"
         style="fill:#354f5c;fill-opacity:1;fill-rule:nonzero;stroke:none"
         d="M 0,0 -3.449,7.302 H -19.897 L -17.612,0 Z" />
    </g>
    <g
       transform="matrix(0.23899905,0,0,-0.23261333,40.299215,222.9668)"
       id="g390">
      <path
         inkscape:connector-curvature="0"
         id="path392"
         style="fill:#354f5c;fill-opacity:1;fill-rule:nonzero;stroke:none"
         d="M 0,0 -0.855,6.858 H -15 L -15.741,0 Z" />
    </g>
    <g
       transform="matrix(0.23899905,0,0,-0.23261333,40.543806,225.23193)"
       id="g394">
      <path
         inkscape:connector-curvature="0"
         id="path396"
         style="fill:#354f5c;fill-opacity:1;fill-rule:nonzero;stroke:none"
         d="M 0,0 -1.273,7.302 H -16.844 L -17.911,0 Z" />
    </g>
    <g
       transform="matrix(0.23899905,0,0,-0.23261333,47.078586,225.92819)"
       id="g398">
      <path
         inkscape:connector-curvature="0"
         id="path400"
         style="fill:#354f5c;fill-opacity:1;fill-rule:nonzero;stroke:none"
         d="m 0,0 h -18.506 -16.661 -0.09 -17.213 -0.273 -18.13 l -2.846,-9.272 h 19.872 0.277 18.648 0.091 18.031 20.356 z" />
    </g>
    <g
       transform="matrix(0.23899905,0,0,-0.23261333,29.361036,231.04967)"
       id="g402">
      <path
         inkscape:connector-curvature="0"
         id="path404"
         style="fill:#273942;fill-opacity:1;fill-rule:nonzero;stroke:none"
         d="m 0,0 -1.117,-0.677 c -3.595,-3.849 -0.997,-4.902 6.985,-4.902 h 63.416 c 7.981,0 10.73,1.526 6.857,4.902 L 75.037,0 Z" />
    </g>
    <g
       transform="matrix(0.23899905,0,0,-0.23261333,45.474666,229.53232)"
       id="g406">
      <path
         inkscape:connector-curvature="0"
         id="path408"
         style="fill:#354f5c;fill-opacity:1;fill-rule:nonzero;stroke:none"
         d="m 0,0 c -2.171,1.52 -3.654,2.335 -8.009,2.335 l -43.965,0.069 c -4.354,0 -5.547,-0.884 -7.743,-2.404 l -7.7,-6.523 H 7.624 Z" />
    </g>
    <g
       transform="matrix(0.23899905,0,0,-0.23261333,65.410795,186.34599)"
       id="g410">
      <path
         inkscape:connector-curvature="0"
         id="path412"
         style="fill:#2aadd3;fill-opacity:1;fill-rule:nonzero;stroke:none"
         d="m 0,0 h -218.333 c -4.047,0 -7.336,-3.343 -7.336,-7.419 V -126.29 c 0,-4.077 3.289,-7.414 7.336,-7.414 h 0.954 L 0.213,-0.05 C 0.142,-0.048 0.071,0 0,0" />
    </g>
    <g
       transform="matrix(0.23899905,0,0,-0.23261333,65.455605,186.36404)"
       id="g414">
      <path
         inkscape:connector-curvature="0"
         id="path416"
         style="fill:#2aadd3;fill-opacity:1;fill-rule:nonzero;stroke:none"
         d="m 0,0 -217.567,-133.626 h 217.38 c 4.045,0 7.275,3.337 7.275,7.414 V -7.342 C 7.088,-3.338 3.947,-0.112 0,0" />
    </g>
    <g
       transform="matrix(0.23899905,0,0,-0.23261333,30.367796,198.25902)"
       id="g418">
      <path
         inkscape:connector-curvature="0"
         id="path420"
         style="fill:#e6e7e8;fill-opacity:1;fill-rule:evenodd;stroke:none"
         d="m 0,0 c -16.764,-26.326 -36.692,-60.553 -69.595,-11.857 -0.935,-2.451 -1.906,-4.888 -2.942,-7.306 l -6.238,-14.55 c 3.421,-4.857 9.27,-10.763 19.163,-15.766 34.195,-17.288 50.607,7.566 71.096,39.161 z" />
    </g>
    <g
       transform="matrix(0.23899905,0,0,-0.23261333,32.593926,200.83515)"
       id="g422">
      <path
         inkscape:connector-curvature="0"
         id="path424"
         style="fill:#ffd1ae;fill-opacity:1;fill-rule:evenodd;stroke:none"
         d="m 0,0 c -0.699,0.568 -8.526,4.329 -8.932,9.355 -0.406,5.029 -1.527,10.901 2.101,14.335 3.629,3.434 7.566,5.385 13.212,0.942 5.645,-4.442 8.427,-6.443 6.394,-13.391 C 10.739,4.294 0,0 0,0" />
    </g>
    <g
       transform="matrix(0.23899905,0,0,-0.23261333,36.740466,189.39837)"
       id="g426">
      <path
         inkscape:connector-curvature="0"
         id="path428"
         style="fill:#f48245;fill-opacity:1;fill-rule:evenodd;stroke:none"
         d="m 0,0 c -1.543,-2.734 -4.07,-12.089 -3.693,-21.948 0.379,-9.86 4.587,-17.515 3.494,-21.26 -1.134,-3.891 -13.386,-7.459 -16.426,-1.452 -2.453,4.843 -1.368,46.439 -0.148,46.897 C -15.555,2.695 0,0 0,0" />
    </g>
    <g
       transform="matrix(0.23899905,0,0,-0.23261333,55.315065,177.49624)"
       id="g430">
      <path
         inkscape:connector-curvature="0"
         id="path432"
         style="fill:#e6e7e8;fill-opacity:1;fill-rule:evenodd;stroke:none"
         d="m 0,0 c -0.126,0.85 -1.267,0.155 -4.298,-0.778 -3.03,-0.932 -0.611,-0.188 -3.976,-3.772 -7.126,-7.593 -74.562,-24.026 -86.989,-25.711 -7.763,-1.052 -9.612,-1.932 -12.46,-3.031 l 1.571,-32.481 c 2.922,-0.879 4.477,-0.837 12.3,-1.294 12.518,-0.73 81.013,-11.957 88.7,-18.981 2.075,-1.896 8.595,-3.926 8.597,-3.905 C 5.581,-60.278 4.48,-30.298 0,0" />
    </g>
    <g
       transform="matrix(0.23899905,0,0,-0.23261333,32.890575,184.4845)"
       id="g434">
      <path
         inkscape:connector-curvature="0"
         id="path436"
         style="fill:#f48245;fill-opacity:1;fill-rule:evenodd;stroke:none"
         d="M 0,0 C -0.536,-0.088 -1.02,-0.163 -1.436,-0.219 -9.2,-1.271 -13.375,-0.346 -16.222,-1.443 l 0.68,-17.746 0.68,-17.744 c 2.923,-0.879 7.014,0.366 14.837,-0.092 0.419,-0.024 0.906,-0.061 1.445,-0.108 z" />
    </g>
    <g
       transform="matrix(0.23899905,0,0,-0.23261333,32.626835,189.3202)"
       id="g438">
      <path
         inkscape:connector-curvature="0"
         id="path440"
         style="fill:#c96c38;fill-opacity:1;fill-rule:evenodd;stroke:none"
         d="M 0,0 C 0.141,1.162 0.288,1.843 0.438,1.901 1.13,2.161 6.427,1.408 10.886,0.704 Z" />
    </g>
    <g
       transform="matrix(0.23899905,0,0,-0.23261333,55.315065,177.49624)"
       id="g442">
      <path
         inkscape:connector-curvature="0"
         id="path444"
         style="fill:#e6e7e8;fill-opacity:1;fill-rule:evenodd;stroke:none"
         d="m 0,0 c -0.126,0.848 -7.042,-3.236 -8.274,-4.55 -7.126,-7.593 -74.562,-24.026 -86.989,-25.711 -7.763,-1.052 -9.612,-1.932 -12.46,-3.031 l 0.219,-18.351 111.675,7.215 C 3.584,-29.694 2.199,-14.886 0,0" />
    </g>
    <g
       transform="matrix(0.23899905,0,0,-0.23261333,32.890575,184.4845)"
       id="g446">
      <path
         inkscape:connector-curvature="0"
         id="path448"
         style="fill:#f48245;fill-opacity:1;fill-rule:evenodd;stroke:none"
         d="M 0,0 C -0.537,-0.088 -1.02,-0.163 -1.436,-0.219 -9.2,-1.273 -13.375,-0.346 -16.222,-1.443 l 0.68,-17.746 0.097,-2.525 16.236,1.049 z" />
    </g>
    <g
       transform="matrix(0.23899905,0,0,-0.23261333,37.299586,195.27253)"
       id="g450">
      <path
         inkscape:connector-curvature="0"
         id="path452"
         style="fill:#f2c8ad;fill-opacity:1;fill-rule:evenodd;stroke:none"
         d="m 0,0 c -3.42,-1.432 -9.225,-3.688 -11.535,-2.063 -2.862,2.011 -3.142,4.784 -1.554,6.598 1.586,1.813 9.12,3.977 11.975,3.561 C 1.743,7.68 2.629,6.29 3.174,4.574 4.012,1.936 2.04,0.855 0,0" />
    </g>
    <g
       transform="matrix(0.23899905,0,0,-0.23261333,37.443334,197.21384)"
       id="g454">
      <path
         inkscape:connector-curvature="0"
         id="path456"
         style="fill:#f2c8ad;fill-opacity:1;fill-rule:evenodd;stroke:none"
         d="m 0,0 c -3.42,-1.433 -9.226,-3.689 -11.537,-2.065 -2.86,2.013 -3.139,4.784 -1.552,6.6 1.586,1.813 9.119,3.975 11.976,3.561 C 1.742,7.681 2.629,6.29 3.173,4.571 4.01,1.934 2.039,0.854 0,0" />
    </g>
    <g
       transform="matrix(0.23899905,0,0,-0.23261333,36.519914,199.0393)"
       id="g458">
      <path
         inkscape:connector-curvature="0"
         id="path460"
         style="fill:#f2c8ad;fill-opacity:1;fill-rule:evenodd;stroke:none"
         d="m 0,0 c -3.67,-0.543 -7.872,-1.023 -9.709,1.122 -2.274,2.657 -1.859,5.411 0.126,6.777 1.986,1.366 9.821,1.6 12.485,0.491 C 5.566,7.281 6.081,5.714 6.185,3.916 6.343,1.152 2.186,0.324 0,0" />
    </g>
    <g
       transform="matrix(0.23899905,0,0,-0.23261333,36.100854,200.48429)"
       id="g462">
      <path
         inkscape:connector-curvature="0"
         id="path464"
         style="fill:#f2c8ad;fill-opacity:1;fill-rule:evenodd;stroke:none"
         d="M 0,0 C -3.081,0.491 -6.574,1.167 -7.506,3.354 -8.659,6.059 -7.631,8.165 -5.692,8.757 -3.754,9.353 2.59,7.559 4.447,5.997 6.305,4.435 6.321,3.049 5.951,1.58 5.379,-0.678 1.835,-0.292 0,0" />
    </g>
    <g
       transform="matrix(0.23899905,0,0,-0.23261333,34.256645,200.9193)"
       id="g466">
      <path
         inkscape:connector-curvature="0"
         id="path468"
         style="fill:#d0d2d3;fill-opacity:1;fill-rule:evenodd;stroke:none"
         d="m 0,0 c -2.276,-3.328 -4.434,-6.666 -4.434,-6.666 0,0 -15.794,9.156 -15.757,9.59 0.035,0.436 4.096,7.945 4.168,8.288 C -15.95,11.555 -5.077,2.309 0,0" />
    </g>
    <g
       transform="matrix(0.23899905,0,0,-0.23261333,11.384505,206.45534)"
       id="g470">
      <path
         inkscape:connector-curvature="0"
         id="path472"
         style="fill:#252122;fill-opacity:1;fill-rule:evenodd;stroke:none"
         d="m 0,0 c 1.707,-2.171 3.375,-4.372 4.992,-6.614 7.628,-7.181 22.422,-17.486 38.535,-15.778 12.481,1.324 28.697,11.693 34.338,18.475 5.643,6.779 18.476,22.148 16.053,23.244 C 91.494,20.42 76.072,30.337 76.329,30.36 76.586,30.381 64.62,15.062 59.518,10.413 54.416,5.761 46.148,-1.634 37.702,1.861 31.01,4.631 7.323,25.009 0.365,33.112 c -1.301,-3.609 -0.5,-10.75 0,-16.25 z" />
    </g>
    <g
       transform="matrix(0.23899905,0,0,-0.23261333,36.315005,195.62814)"
       id="g474">
      <path
         inkscape:connector-curvature="0"
         id="path476"
         style="fill:#ffd1ae;fill-opacity:1;fill-rule:evenodd;stroke:none"
         d="m 0,0 c 0.584,-4.255 -2.306,-6.7 -7.975,-4.203 -5.671,2.498 -8.3,2.048 -8.3,2.048 0,0 -4.133,-9.429 -6.948,-10.649 -2.815,-1.219 -4.179,10.93 -2.974,14.054 C -19.555,18.482 -0.582,4.259 0,0" />
    </g>
    <g
       transform="matrix(0.23899905,0,0,-0.23261333,32.890575,184.4845)"
       id="g478">
      <path
         inkscape:connector-curvature="0"
         id="path480"
         style="fill:#f48245;fill-opacity:1;fill-rule:evenodd;stroke:none"
         d="m 0,0 -16.842,-1.082 1.98,-35.851 16.282,-0.2 z" />
    </g>
    <g
       transform="matrix(0.23899905,0,0,-0.23261333,29.257626,186.33657)"
       id="g482">
      <path
         inkscape:connector-curvature="0"
         id="path484"
         style="fill:#f48245;fill-opacity:1;fill-rule:evenodd;stroke:none"
         d="m 0,0 -10.585,-0.681 1.244,-22.531 10.234,-0.127 z" />
    </g>
    <g
       transform="matrix(0.23899905,0,0,-0.23261333,58.674244,179.31409)"
       id="g486">
      <path
         inkscape:connector-curvature="0"
         id="path488"
         style="fill:#f1f1f1;fill-opacity:1;fill-rule:nonzero;stroke:none"
         d="m 0,0 c 0,0 1.033,-0.896 2.803,-2.503 0.441,-0.403 0.926,-0.85 1.457,-1.337 0.478,-0.547 0.997,-1.137 1.551,-1.769 0.555,-0.641 1.144,-1.323 1.767,-2.042 0.645,-0.71 1.126,-1.577 1.739,-2.421 0.588,-0.861 1.197,-1.759 1.83,-2.686 0.531,-0.993 1.077,-2.018 1.64,-3.073 0.279,-0.53 0.564,-1.068 0.852,-1.61 0.266,-0.555 0.478,-1.14 0.726,-1.72 0.484,-1.161 0.944,-2.366 1.423,-3.586 0.671,-2.526 1.617,-5.096 1.952,-7.843 0.572,-2.706 0.655,-5.517 0.871,-8.314 -0.119,-2.802 -0.11,-5.612 -0.59,-8.338 -0.18,-1.367 -0.333,-2.728 -0.717,-4.028 -0.326,-1.311 -0.651,-2.605 -0.97,-3.876 -0.439,-1.236 -0.854,-2.456 -1.3,-3.634 -0.227,-0.586 -0.419,-1.18 -0.668,-1.741 -0.27,-0.554 -0.534,-1.1 -0.798,-1.638 -0.527,-1.074 -1.038,-2.117 -1.534,-3.126 -0.6,-0.95 -1.182,-1.867 -1.742,-2.749 -0.582,-0.86 -1.04,-1.746 -1.653,-2.474 -0.596,-0.734 -1.16,-1.431 -1.691,-2.086 -0.53,-0.648 -1.027,-1.256 -1.486,-1.818 -0.517,-0.509 -0.994,-0.977 -1.424,-1.4 -1.726,-1.676 -2.723,-2.597 -2.723,-2.597 0,0 0.794,1.129 2.202,3.039 0.351,0.475 0.741,1.001 1.165,1.574 0.371,0.608 0.772,1.267 1.202,1.97 0.429,0.697 0.885,1.44 1.366,2.222 0.497,0.77 0.869,1.671 1.337,2.557 0.449,0.895 0.915,1.828 1.397,2.792 0.396,1.002 0.807,2.037 1.229,3.102 0.211,0.529 0.429,1.066 0.645,1.61 0.197,0.55 0.337,1.13 0.512,1.703 0.322,1.154 0.7,2.314 1.057,3.502 0.461,2.441 1.095,4.925 1.309,7.523 0.422,2.571 0.358,5.22 0.445,7.854 -0.17,2.63 -0.2,5.28 -0.706,7.835 -0.293,2.59 -1.016,5.051 -1.56,7.476 -0.398,1.174 -0.811,2.323 -1.173,3.466 -0.192,0.565 -0.354,1.141 -0.569,1.684 -0.235,0.536 -0.467,1.064 -0.698,1.588 -0.456,1.05 -0.902,2.071 -1.333,3.058 -0.516,0.95 -1.012,1.866 -1.491,2.745 -0.496,0.867 -0.902,1.761 -1.419,2.506 -0.504,0.763 -0.982,1.484 -1.431,2.164 -0.45,0.688 -0.874,1.331 -1.264,1.925 -0.448,0.563 -0.86,1.081 -1.23,1.549 C 0.822,-1.091 0,0 0,0" />
    </g>
    <g
       transform="matrix(0.23899905,0,0,-0.23261333,64.851225,175.39409)"
       id="g490">
      <path
         inkscape:connector-curvature="0"
         id="path492"
         style="fill:#f1f1f1;fill-opacity:1;fill-rule:nonzero;stroke:none"
         d="m 0,0 c 0,0 0.372,-0.309 1.072,-0.892 0.675,-0.611 1.756,-1.394 2.955,-2.609 0.618,-0.596 1.298,-1.254 2.041,-1.971 0.7,-0.759 1.454,-1.581 2.26,-2.456 0.805,-0.881 1.578,-1.888 2.443,-2.917 0.868,-1.028 1.634,-2.213 2.518,-3.399 0.848,-1.208 1.656,-2.516 2.528,-3.855 0.782,-1.388 1.642,-2.802 2.385,-4.329 1.579,-3.011 2.975,-6.329 4.198,-9.843 1.143,-3.537 2.187,-7.252 2.862,-11.111 0.662,-3.859 1.033,-7.829 1.142,-11.809 0.027,-3.981 -0.21,-7.962 -0.741,-11.841 -0.54,-3.882 -1.463,-7.631 -2.485,-11.202 -1.107,-3.553 -2.384,-6.918 -3.865,-9.98 -0.692,-1.551 -1.508,-2.992 -2.238,-4.408 -0.826,-1.365 -1.591,-2.702 -2.399,-3.936 -0.843,-1.214 -1.57,-2.425 -2.402,-3.482 -0.83,-1.058 -1.569,-2.09 -2.347,-2.996 -0.779,-0.906 -1.491,-1.763 -2.174,-2.53 -0.718,-0.74 -1.375,-1.419 -1.97,-2.033 -1.157,-1.251 -2.222,-2.081 -2.875,-2.712 -0.678,-0.604 -1.041,-0.927 -1.041,-0.927 0,0 0.291,0.39 0.837,1.119 0.536,0.735 1.389,1.75 2.338,3.146 0.483,0.688 1.02,1.45 1.603,2.277 0.547,0.85 1.139,1.769 1.772,2.749 1.226,1.983 2.523,4.262 3.84,6.785 0.653,1.266 1.255,2.623 1.908,4.004 0.563,1.426 1.267,2.84 1.807,4.374 0.283,0.759 0.569,1.53 0.858,2.307 0.274,0.786 0.51,1.594 0.771,2.402 0.537,1.61 0.962,3.294 1.445,4.987 0.844,3.422 1.47,7.005 1.935,10.663 0.394,3.667 0.607,7.408 0.558,11.153 -0.077,3.743 -0.412,7.476 -0.929,11.127 -0.581,3.642 -1.332,7.201 -2.288,10.594 -1.053,3.358 -2.098,6.615 -3.398,9.588 -0.591,1.515 -1.344,2.903 -1.951,4.31 -0.702,1.359 -1.349,2.696 -2.044,3.938 -1.402,2.478 -2.775,4.713 -4.068,6.653 C 6.196,-8.104 5.572,-7.205 4.997,-6.376 4.389,-5.569 3.83,-4.828 3.325,-4.159 2.332,-2.802 1.435,-1.8 0.875,-1.087 0.305,-0.378 0,0 0,0" />
    </g>
    <g
       transform="matrix(0.23899905,0,0,-0.23261333,61.609675,177.16297)"
       id="g494">
      <path
         inkscape:connector-curvature="0"
         id="path496"
         style="fill:#f1f1f1;fill-opacity:1;fill-rule:nonzero;stroke:none"
         d="m 0,0 c 0,0 0.321,-0.273 0.924,-0.779 0.586,-0.529 1.528,-1.202 2.569,-2.259 0.533,-0.515 1.126,-1.088 1.77,-1.71 0.606,-0.658 1.259,-1.369 1.959,-2.13 1.364,-1.554 2.844,-3.373 4.303,-5.477 0.737,-1.048 1.436,-2.183 2.194,-3.345 0.679,-1.203 1.424,-2.43 2.068,-3.756 1.371,-2.611 2.579,-5.488 3.643,-8.535 0.988,-3.07 1.903,-6.29 2.473,-9.64 0.552,-3.351 0.892,-6.79 0.997,-10.242 0.015,-3.455 -0.213,-6.902 -0.652,-10.269 -0.448,-3.369 -1.263,-6.618 -2.145,-9.719 -0.959,-3.081 -2.068,-6 -3.353,-8.655 -0.599,-1.346 -1.307,-2.596 -1.94,-3.824 -0.718,-1.184 -1.381,-2.343 -2.081,-3.415 -1.389,-2.152 -2.806,-4.019 -4.119,-5.62 -0.673,-0.783 -1.304,-1.515 -1.886,-2.193 -0.623,-0.642 -1.195,-1.231 -1.709,-1.763 -1,-1.086 -1.932,-1.802 -2.496,-2.349 -0.587,-0.526 -0.901,-0.807 -0.901,-0.807 0,0 0.255,0.337 0.732,0.965 0.463,0.639 1.197,1.524 2.023,2.733 0.419,0.598 0.882,1.258 1.389,1.977 0.476,0.736 0.989,1.533 1.538,2.383 1.061,1.721 2.188,3.697 3.33,5.886 0.567,1.098 1.088,2.275 1.657,3.473 0.487,1.237 1.098,2.463 1.566,3.794 1.037,2.616 1.853,5.467 2.668,8.408 0.733,2.971 1.264,6.079 1.686,9.25 0.365,3.178 0.526,6.427 0.476,9.673 -0.054,3.248 -0.326,6.489 -0.799,9.655 -0.52,3.157 -1.159,6.246 -1.992,9.188 -0.914,2.913 -1.821,5.737 -2.95,8.316 -0.51,1.313 -1.163,2.518 -1.69,3.739 -0.611,1.179 -1.17,2.338 -1.774,3.415 -1.217,2.15 -2.403,4.089 -3.527,5.771 -0.577,0.831 -1.118,1.61 -1.618,2.33 C 3.806,-4.83 3.321,-4.188 2.884,-3.608 2.021,-2.431 1.246,-1.558 0.762,-0.939 0.265,-0.328 0,0 0,0" />
    </g>
    <g
       id="g11791"
       transform="matrix(0.32786312,0,0,0.34063735,52.899726,153.42952)">
      <g
         id="g1472"
         transform="matrix(0.35277777,0,0,-0.35277777,88.608759,162.28331)">
        <path
           d="m 0,0 c 28.96,8.089 45.892,38.715 37.819,68.403 -8.072,29.687 -38.09,47.194 -67.049,39.104 -28.958,-8.091 -45.892,-38.715 -37.821,-68.401 0.33,-1.21 0.707,-2.391 1.108,-3.558 l -12.578,-24.992 25.298,4.156 C -39.785,0.817 -19.651,-5.49 0,0"
           style="fill:#004b96;fill-opacity:1;fill-rule:nonzero;stroke:none"
           id="path1474"
           inkscape:connector-curvature="0" />
      </g>
      <g
         id="g1476"
         transform="matrix(0.35277777,0,0,-0.35277777,91.577788,149.25247)">
        <path
           d="m 0,0 h -47.953 c -0.977,0 -1.776,0.796 -1.776,1.812 V 31.874 L -23.733,11.94 1.778,30.316 V 1.812 C 1.778,0.796 0.989,0 0,0 M -1.742,35.147 -23.617,19.402 -44.156,35.147 Z M 0,41.173 h -47.953 c -4.266,-0.014 -7.72,-3.508 -7.72,-7.841 V 1.812 c 0,-4.344 3.454,-7.828 7.72,-7.837 H 0 c 4.265,0.009 7.728,3.504 7.728,7.837 v 31.52 c 0,4.333 -3.463,7.841 -7.728,7.841"
           style="fill:#ffffff;fill-opacity:1;fill-rule:nonzero;stroke:none"
           id="path1478"
           inkscape:connector-curvature="0" />
      </g>
    </g>
    <g
       id="g11936"
       transform="matrix(0.32469929,0,0,0.28157253,5.1087695,174.48467)">
      <g
         id="g1410"
         transform="matrix(0.35277777,0,0,-0.35277777,142.12988,149.0768)">
        <path
           d="M 0,0 C 0,-2.271 -2.4,-4.344 -4.763,-4.344 H -74.521 C -76.884,-4.344 -79,-2.271 -79,0 v 137.058 c 0,2.272 2.116,3.598 4.479,3.598 H -4.763 C -2.4,140.656 0,139.33 0,137.058 Z"
           style="fill:#273942;fill-opacity:1;fill-rule:nonzero;stroke:none"
           id="path1412"
           inkscape:connector-curvature="0" />
      </g>
      <path
         d="M 139.3077,143.90629 H 116.37714 V 102.98407 H 139.3077 Z"
         style="fill:#ffffff;fill-opacity:1;fill-rule:nonzero;stroke:none;stroke-width:0.35277775"
         id="path1414"
         inkscape:connector-curvature="0" />
      <path
         d="m 138.42857,107.27102 h -21.8186 v -4.06012 h 21.8186 z"
         style="fill:#636363;fill-opacity:1;fill-rule:nonzero;stroke:none;stroke-width:0.35277775"
         id="path1416"
         inkscape:connector-curvature="0" />
      <g
         id="g1418"
         transform="matrix(0.35277777,0,0,-0.35277777,118.78142,105.24142)">
        <path
           d="m 0,0 c 0,-0.99 -0.784,-1.793 -1.769,-1.793 -0.969,0 -1.766,0.803 -1.766,1.793 0,0.992 0.797,1.794 1.766,1.794 C -0.784,1.794 0,0.992 0,0"
           style="fill:#01c5c5;fill-opacity:1;fill-rule:nonzero;stroke:none"
           id="path1420"
           inkscape:connector-curvature="0" />
      </g>
      <g
         id="g1422"
         transform="matrix(0.35277777,0,0,-0.35277777,120.47677,105.24142)">
        <path
           d="m 0,0 c 0,-0.99 -0.788,-1.793 -1.762,-1.793 -0.98,0 -1.773,0.803 -1.773,1.793 0,0.992 0.793,1.794 1.773,1.794 C -0.788,1.794 0,0.992 0,0"
           style="fill:#b8de70;fill-opacity:1;fill-rule:nonzero;stroke:none"
           id="path1424"
           inkscape:connector-curvature="0" />
      </g>
      <g
         id="g1426"
         transform="matrix(0.35277777,0,0,-0.35277777,122.17486,105.24142)">
        <path
           d="m 0,0 c 0,-0.99 -0.796,-1.793 -1.771,-1.793 -0.978,0 -1.77,0.803 -1.77,1.793 0,0.992 0.792,1.794 1.77,1.794 C -0.796,1.794 0,0.992 0,0"
           style="fill:#f29232;fill-opacity:1;fill-rule:nonzero;stroke:none"
           id="path1428"
           inkscape:connector-curvature="0" />
      </g>
      <path
         d="m 135.02991,105.87402 h -11.60603 v -1.26541 h 11.60603 z"
         style="fill:#ffffff;fill-opacity:1;fill-rule:nonzero;stroke:none;stroke-width:0.35277775"
         id="path1430"
         inkscape:connector-curvature="0" />
      <g
         id="g1432"
         transform="matrix(0.35277777,0,0,-0.35277777,122.39877,131.65566)">
        <path
           d="M 0,0 V 0 L 0.065,-9.596 -12.53,0 h -19.924 c -4.451,0 -8.098,3.693 -8.098,8.21 v 42.195 c 0,4.514 3.647,8.207 8.098,8.207 h 39.84 c 4.459,0 8.1,-3.693 8.1,-8.207 V 7.91 c 0,-4.428 -3.561,-8.007 -7.927,-7.972 z"
           style="fill:#9b5ab6;fill-opacity:1;fill-rule:nonzero;stroke:none"
           id="path1434"
           inkscape:connector-curvature="0" />
      </g>
      <path
         d="m 124.94364,119.12647 h -13.90861 v 1.42099 h 13.90861 z"
         style="fill:#ffffff;fill-opacity:1;fill-rule:nonzero;stroke:none;stroke-width:0.35277775"
         id="path1436"
         inkscape:connector-curvature="0" />
      <path
         d="m 122.74196,122.52337 h -11.70693 v 1.42205 h 11.70693 z"
         style="fill:#ffffff;fill-opacity:1;fill-rule:nonzero;stroke:none;stroke-width:0.35277775"
         id="path1438"
         inkscape:connector-curvature="0" />
      <path
         d="m 124.94364,125.92309 h -13.90861 v 1.42205 h 13.90861 z"
         style="fill:#ffffff;fill-opacity:1;fill-rule:nonzero;stroke:none;stroke-width:0.35277775"
         id="path1440"
         inkscape:connector-curvature="0" />
      <path
         d="m 121.37036,115.3581 h -10.33533 v 1.42099 h 10.33533 z"
         style="fill:#ffffff;fill-opacity:1;fill-rule:nonzero;stroke:none;stroke-width:0.35277775"
         id="path1442"
         inkscape:connector-curvature="0" />
    </g>
    <g
       transform="matrix(0.16467408,0,0,-0.16508229,24.798247,176.64869)"
       id="g1480"
       style="fill:#00b0ff;fill-opacity:1">
      <path
         inkscape:connector-curvature="0"
         id="path1482"
         style="fill:#00b0ff;fill-opacity:1;fill-rule:nonzero;stroke:none"
         d="m 0,0 c -2.077,0 -3.762,1.709 -3.762,3.812 0,2.105 1.685,3.814 3.762,3.814 2.078,0 3.763,-1.709 3.763,-3.814 C 3.763,1.709 2.078,0 0,0 m -10.529,0 c -2.076,0 -3.76,1.709 -3.76,3.812 0,2.105 1.684,3.814 3.76,3.814 2.078,0 3.761,-1.709 3.761,-3.814 C -6.768,1.709 -8.451,0 -10.529,0 m -10.532,0 c -2.076,0 -3.759,1.709 -3.759,3.812 0,2.105 1.683,3.814 3.759,3.814 2.08,0 3.763,-1.709 3.763,-3.814 C -17.298,1.709 -18.981,0 -21.061,0 m 47.906,5.747 c 0,14.387 -16.221,26.051 -36.231,26.051 -20.011,0 -36.233,-11.664 -36.233,-26.051 0,-14.389 16.222,-26.056 36.233,-26.056 4.76,0 9.303,0.669 13.466,1.87 2.332,-3.078 8,-8.751 18.882,-10.281 0,0 -5.87,7.716 -6.983,15.869 6.702,4.729 10.866,11.311 10.866,18.598" />
    </g>
  </g>
</svg>
