<?xml version="1.0" encoding="UTF-8"?>
<svg enable-background="new 0 0 2280.067 1646.086" version="1.1" viewBox="0 0 2280.067 1646.086" xmlns="http://www.w3.org/2000/svg">
 <path d="m2129.1 830.13c42.644-59.107 67.786-131.68 67.786-210.13 0-259.61-266.86-432.56-502.91-329.82-75.747-54.693-169.53-76.742-261.85-61.949-21.234-116.7-123.39-205.19-246.22-205.19-122.18 0-223.9 87.557-245.87 203.34-229.54-191.49-581.35-2.784-541.76 298.73-197.51-18.627-366.33 136.59-366.33 333.02 0 171.54 129.12 312.89 295.46 332.25-53.444 345.44 370.19 547.45 606.97 299.7 138.46 114.26 346.78 91.73 456.52-55.185 87.232 114.34 224.9 188.15 379.82 188.15 413.1 0 626.9-488.09 358.38-792.92z"/>
 <radialGradient id="dc" cx="435.38" cy="1376.5" r="77.627" gradientUnits="userSpaceOnUse">
  <stop stop-color="#fff" offset="0"/>
  <stop stop-color="#F6F0F6" offset=".049"/>
  <stop stop-color="#DEC6DD" offset=".199"/>
  <stop stop-color="#CAA4C8" offset=".3524"/>
  <stop stop-color="#BA89B8" offset=".5077"/>
  <stop stop-color="#AF76AD" offset=".6655"/>
  <stop stop-color="#A86BA6" offset=".8275"/>
  <stop stop-color="#A667A4" offset="1"/>
 </radialGradient>
 <polygon points="457.6 1450.9 466.67 1447.5 464.02 1430.4 471.66 1425.6 485.96 1435.3 492.88 1428.5 483.51 1414 488.53 1406.5 505.54 1409.5 509.12 1400.6 494.65 1391.1 496.17 1382.2 512.96 1378 512.56 1368.4 495.5 1365.6 493.26 1356.9 506.91 1346.3 502.63 1337.6 485.92 1342 480.3 1334.9 488.47 1319.7 481.02 1313.5 467.56 1324.3 459.54 1320.1 460.8 1302.9 451.49 1300.3 443.6 1315.7 434.57 1315.1 428.71 1298.8 419.14 1300.2 418.18 1317.5 409.7 1320.6 397.73 1308.2 389.56 1313.3 395.7 1329.5 389.22 1335.8 373.22 1329.3 367.86 1337.3 380.04 1349.6 376.7 1358 359.42 1358.5 357.8 1368.1 373.91 1374.3 374.28 1383.4 358.72 1390.9 361.11 1400.3 378.38 1399.4 382.39 1407.5 371.24 1420.7 377.24 1428.3 392.66 1420.5 399.62 1426.3 394.81 1442.9 403.37 1447.4 414.29 1434 423 1436.4 425.36 1453.6 435.01 1454.2 439.53 1437.5 448.49 1436.2" fill="url(#dc)"/>
 <radialGradient id="do" cx="435.39" cy="1376.5" r="34.239" gradientUnits="userSpaceOnUse">
  <stop stop-color="#fff" offset="0"/>
  <stop stop-color="#FDE8E8" offset=".0546"/>
  <stop stop-color="#F8B6B7" offset=".1819"/>
  <stop stop-color="#F48C8D" offset=".3125"/>
  <stop stop-color="#F16A6B" offset=".4442"/>
  <stop stop-color="#EE4F50" offset=".5775"/>
  <stop stop-color="#EC3C3D" offset=".713"/>
  <stop stop-color="#EB3132" offset=".852"/>
  <stop stop-color="#EB2D2E" offset="1"/>
 </radialGradient>
 <circle cx="435.39" cy="1376.5" r="34.23" fill="url(#do)"/>
 <radialGradient id="dz" cx="1492.4" cy="767.78" r="80.348" gradientUnits="userSpaceOnUse">
  <stop stop-color="#fff" offset="0"/>
  <stop stop-color="#CBE2F0" offset=".1102"/>
  <stop stop-color="#96C5E1" offset=".239"/>
  <stop stop-color="#68ABD3" offset=".3696"/>
  <stop stop-color="#4396C8" offset=".4992"/>
  <stop stop-color="#2586C0" offset=".6276"/>
  <stop stop-color="#117ABA" offset=".7546"/>
  <stop stop-color="#0473B6" offset=".8795"/>
  <stop stop-color="#0071B5" offset="1"/>
 </radialGradient>
 <polygon points="1572.5 772.65 1572.5 762.63 1555 759.09 1553 749.92 1567.6 739.49 1563.5 730.34 1546 734.25 1540.5 726.67 1549.5 711.22 1542.1 704.53 1527.7 715.21 1519.6 710.54 1521.6 692.74 1512 689.66 1503.2 705.26 1493.9 704.3 1488.5 687.22 1478.5 688.29 1476.8 706.12 1467.9 709.04 1456 695.64 1447.4 700.67 1453.1 717.64 1446.1 723.93 1429.8 716.53 1423.9 724.65 1436 737.83 1432.2 746.41 1414.3 746.28 1412.3 756.09 1428.7 763.2 1428.7 772.58 1412.3 779.75 1414.4 789.55 1432.3 789.36 1436.2 797.92 1424.1 811.15 1430 819.25 1446.3 811.79 1453.2 818.05 1447.6 835.05 1456.3 840.04 1468.1 826.61 1477 829.49 1478.8 847.32 1488.8 848.35 1494.1 831.25 1503.4 830.26 1512.3 845.83 1521.8 842.72 1519.8 824.92 1527.9 820.22 1542.3 830.85 1549.7 824.13 1540.6 808.71 1546.1 801.12 1563.6 804.96 1567.7 795.8 1553.1 785.42 1555 776.25" fill="url(#dz)"/>
 <radialGradient id="ek" cx="1492.2" cy="767.6" r="35.474" gradientUnits="userSpaceOnUse">
  <stop stop-color="#E6F3E9" offset=".0056"/>
  <stop stop-color="#C9E6D2" offset=".4494"/>
  <stop stop-color="#ACDABB" offset="1"/>
 </radialGradient>
 <circle cx="1492.2" cy="767.6" r="35.473" fill="url(#ek)"/>
 <radialGradient id="cc" cx="1119.5" cy="1156.4" r="199.69" gradientUnits="userSpaceOnUse">
  <stop stop-color="#E1E4EF" offset="0"/>
  <stop stop-color="#CBD1E4" offset=".5"/>
  <stop stop-color="#B4BED8" offset="1"/>
 </radialGradient>
 <polygon points="1172.4 962.27 1148 957.22 1130.4 998.13 1107.1 998.25 1089.2 957.52 1064.8 962.82 1065.5 1007.3 1044.2 1016.9 1011.2 987.02 991.18 1001.8 1009.8 1042.2 994.34 1059.6 952.06 1045.7 939.72 1067.3 973.21 1096.6 966.12 1118.8 921.84 1123.3 919.36 1148.1 961.88 1161.2 964.43 1184.4 925.81 1206.5 933.62 1230.2 977.82 1224.9 989.58 1245 963.28 1280.9 980.04 1299.4 1018.3 1276.6 1037.2 1290.2 1027.8 1333.7 1050.6 1343.7 1076.2 1307.3 1099.1 1312 1108.2 1355.6 1133.1 1355.5 1141.7 1311.8 1164.5 1306.9 1190.5 1343 1213.2 1332.7 1203.4 1289.3 1222.1 1275.5 1260.6 1297.9 1277.2 1279.3 1250.5 1243.7 1262.1 1223.4 1306.3 1228.2 1313.9 1204.5 1275 1182.8 1277.3 1159.6 1319.7 1146 1317 1121.3 1272.7 1117.2 1265.4 1095.1 1298.5 1065.4 1286 1043.9 1243.8 1058.3 1228.2 1041 1246.4 1000.4 1226.2 985.91 1193.5 1016.2 1172.2 1006.8" fill="url(#cc)"/>
 <radialGradient id="cn" cx="1119.2" cy="1155" r="88.159" gradientUnits="userSpaceOnUse">
  <stop stop-color="#FFFBCC" offset="0"/>
  <stop stop-color="#FBF2BB" offset=".1146"/>
  <stop stop-color="#F0D98E" offset=".3413"/>
  <stop stop-color="#EED688" offset=".3708"/>
  <stop stop-color="#EBBB10" offset=".6854"/>
  <stop stop-color="#C3922E" offset="1"/>
 </radialGradient>
 <circle cx="1119.2" cy="1155" r="88.147" fill="url(#cn)"/>
 <radialGradient id="cr" cx="228.15" cy="753.99" r="143.39" gradientUnits="userSpaceOnUse">
  <stop stop-color="#fff" offset="0"/>
  <stop stop-color="#D9DEEC" offset=".1104"/>
  <stop stop-color="#AFB9D8" offset=".2506"/>
  <stop stop-color="#8D9BC7" offset=".3942"/>
  <stop stop-color="#7284BA" offset=".5395"/>
  <stop stop-color="#5F73B0" offset=".6871"/>
  <stop stop-color="#5469AB" offset=".8386"/>
  <stop stop-color="#5066A9" offset="1"/>
 </radialGradient>
 <polygon points="89.759 713.16 85.748 730.58 114.82 743.81 114.54 760.54 85.032 772.77 88.45 790.32 120.4 790.58 126.94 805.97 104.96 829.15 115.22 843.79 144.51 831.04 156.74 842.44 146.09 872.55 161.42 881.75 182.99 858.19 198.8 863.62 201.32 895.47 219.06 897.64 229.19 867.34 245.85 865.87 261.1 893.94 278.19 888.71 275.11 856.91 289.74 848.8 315.09 868.23 328.57 856.5 312.83 828.7 322.89 815.34 353.95 822.78 361.5 806.58 335.81 787.59 339.56 771.3 370.97 765.46 371.27 747.59 340.08 740.69 336.88 724.28 363.2 706.17 356.21 689.72 324.91 696.11 315.31 682.41 331.99 655.16 318.91 642.98 292.91 661.55 278.57 652.94 282.73 621.27 265.83 615.46 249.63 642.99 233.03 640.96 223.94 610.33 206.14 611.9 202.54 643.64 186.54 648.54 165.79 624.26 150.16 632.93 159.78 663.39 147.16 674.37 118.32 660.63 107.58 674.91 128.76 698.82 121.69 713.98" fill="url(#cr)"/>
 <radialGradient id="dm" cx="227.24" cy="754.34" r="63.273" gradientUnits="userSpaceOnUse">
  <stop stop-color="#fff" offset="0"/>
  <stop stop-color="#D6ECEF" offset=".1175"/>
  <stop stop-color="#ACD9E0" offset=".2566"/>
  <stop stop-color="#8AC9D3" offset=".399"/>
  <stop stop-color="#6FBDC9" offset=".5431"/>
  <stop stop-color="#5CB4C2" offset=".6896"/>
  <stop stop-color="#51AFBD" offset=".8399"/>
  <stop stop-color="#4DADBC" offset="1"/>
 </radialGradient>
 <circle cx="227.24" cy="754.34" r="63.262" fill="url(#dm)"/>
 <radialGradient id="en" cx="1568.7" cy="376.85" r="111.9" gradientUnits="userSpaceOnUse">
  <stop stop-color="#FFF2DB" offset="0"/>
  <stop stop-color="#D7B189" offset=".309"/>
  <stop stop-color="#92562D" offset=".7508"/>
  <stop stop-color="#8D5027" offset=".7809"/>
  <stop stop-color="#541513" offset="1"/>
 </radialGradient>
 <polygon points="1632.2 469.48 1643.2 460.86 1632 438.6 1640.3 428.58 1664.2 435.58 1670.8 423.25 1651.5 407.46 1655 394.91 1679.7 391.58 1680.7 377.67 1656.6 371.08 1654.8 358.17 1676 345.09 1671.2 332 1646.5 335.76 1639.6 324.72 1653.6 304.14 1643.9 294.15 1622.9 307.6 1612.1 300.34 1616.6 275.83 1603.6 270.65 1589.9 291.47 1577.1 289.24 1571.2 265.03 1557.3 265.56 1553.2 290.15 1540.6 293.35 1525.3 273.63 1512.8 279.78 1519.2 303.89 1508.9 311.95 1487 300.13 1478 310.84 1493.6 330.29 1487.5 341.83 1462.7 339.95 1458.9 353.36 1481 364.8 1480.1 377.81 1456.7 386.21 1458.7 400 1483.5 401.45 1488 413.69 1470 430.9 1477.4 442.7 1500.8 433.9 1509.9 443.25 1500.4 466.3 1512 474.06 1529.7 456.54 1541.8 461.39 1542.5 486.29 1556.3 488.67 1565.3 465.46 1578.4 464.96 1589.2 487.42 1602.7 484 1601.5 459.11 1613.2 453.36" fill="url(#en)"/>
 <radialGradient id="cs" cx="1568.8" cy="377.21" r="49.346" gradientUnits="userSpaceOnUse">
  <stop stop-color="#fff" offset="0"/>
  <stop stop-color="#F6F0F6" offset=".049"/>
  <stop stop-color="#DEC6DD" offset=".199"/>
  <stop stop-color="#CAA4C8" offset=".3524"/>
  <stop stop-color="#BA89B8" offset=".5077"/>
  <stop stop-color="#AF76AD" offset=".6655"/>
  <stop stop-color="#A86BA6" offset=".8275"/>
  <stop stop-color="#A667A4" offset="1"/>
 </radialGradient>
 <circle cx="1568.8" cy="377.2" r="49.345" fill="url(#cs)"/>
 <radialGradient id="ct" cx="710.86" cy="1361.6" r="211.81" gradientUnits="userSpaceOnUse">
  <stop stop-color="#fff" offset="0"/>
  <stop stop-color="#FDF4EA" offset=".0483"/>
  <stop stop-color="#F9D9B9" offset=".1764"/>
  <stop stop-color="#F6C18F" offset=".3078"/>
  <stop stop-color="#F3AE6D" offset=".4404"/>
  <stop stop-color="#F1A052" offset=".5746"/>
  <stop stop-color="#EF953F" offset=".711"/>
  <stop stop-color="#EE8F34" offset=".851"/>
  <stop stop-color="#EE8D30" offset="1"/>
 </radialGradient>
 <polygon points="505.41 1414.9 513.71 1440 560.58 1434.3 573.06 1455.7 545.19 1493.8 562.98 1513.3 603.52 1489.1 623.6 1503.5 613.64 1549.7 637.82 1560.3 665.02 1521.7 689.23 1526.7 698.9 1572.9 725.31 1572.8 734.46 1526.5 758.61 1521.2 786.24 1559.5 810.31 1548.6 799.83 1502.6 819.74 1487.9 860.56 1511.6 878.12 1491.9 849.82 1454.1 862.06 1432.7 909 1437.7 917.02 1412.6 875.8 1389.6 878.24 1365 923.19 1350.5 920.28 1324.3 873.26 1320 865.49 1296.5 900.67 1265.1 887.34 1242.3 842.66 1257.5 826.01 1239.2 845.35 1196.1 823.9 1180.7 789.27 1212.8 766.63 1202.9 766.78 1155.7 740.92 1150.4 722.33 1193.8 697.62 1193.9 678.55 1150.7 652.75 1156.3 653.42 1203.5 630.9 1213.7 595.92 1182 574.64 1197.7 594.46 1240.5 578.02 1259 533.17 1244.2 520.09 1267.2 555.62 1298.3 548.12 1321.8 501.15 1326.6 498.54 1352.9 543.64 1366.8 546.36 1391.4" fill="url(#ct)"/>
 <radialGradient id="cu" cx="710.62" cy="1361.3" r="93.517" gradientUnits="userSpaceOnUse">
  <stop stop-color="#E2E5F4" offset=".0056"/>
  <stop stop-color="#C7CEE9" offset=".4494"/>
  <stop stop-color="#A8B5DC" offset="1"/>
 </radialGradient>
 <circle cx="710.62" cy="1361.3" r="93.492" fill="url(#cu)"/>
 <radialGradient id="cv" cx="912.07" cy="773.96" r="209.97" gradientUnits="userSpaceOnUse">
  <stop stop-color="#fff" offset="0"/>
  <stop stop-color="#FAC8E4" offset=".1144"/>
  <stop stop-color="#F697CC" offset=".2335"/>
  <stop stop-color="#F26DB7" offset=".3558"/>
  <stop stop-color="#EF4BA6" offset=".4793"/>
  <stop stop-color="#ED3099" offset=".6042"/>
  <stop stop-color="#EB1D8F" offset=".7311"/>
  <stop stop-color="#EA128A" offset=".8614"/>
  <stop stop-color="#EA0E88" offset="1"/>
 </radialGradient>
 <polygon points="965.54 569.43 939.86 564.39 921.87 607.58 897.38 607.96 878.06 565.35 852.55 571.19 853.69 617.96 831.47 628.27 796.49 597.21 775.56 612.92 795.62 655.18 779.52 673.63 734.93 659.48 722.2 682.35 757.72 712.8 750.51 736.21 704.02 741.42 701.69 767.48 746.52 780.86 749.46 805.17 709.11 828.84 717.58 853.6 763.98 847.58 776.55 868.6 749.32 906.63 767.13 925.8 807.06 901.44 827.1 915.52 817.69 961.35 841.76 971.62 868.33 933.11 892.36 937.83 902.4 983.52 928.57 983.11 937.18 937.13 961.05 931.67 988.81 969.32 1012.6 958.31 1001.7 912.8 1021.3 898.09 1062 921.21 1079.2 901.49 1050.8 864.32 1062.7 842.92 1109.2 847.49 1116.9 822.48 1075.9 800.08 1078.1 775.68 1122.4 760.92 1119.3 734.94 1072.7 731.18 1064.7 708.01 1099.3 676.47 1085.9 654.01 1041.7 669.54 1025.1 651.6 1043.8 608.73 1022.4 593.68 988.38 625.82 965.86 616.21" fill="url(#cv)"/>
 <radialGradient id="cw" cx="911.83" cy="772.61" r="92.656" gradientUnits="userSpaceOnUse">
  <stop stop-color="#E2E5F4" offset=".0056"/>
  <stop stop-color="#C7CEE9" offset=".4494"/>
  <stop stop-color="#A8B5DC" offset="1"/>
 </radialGradient>
 <circle cx="911.83" cy="772.62" r="92.644" fill="url(#cw)"/>
 <radialGradient id="cx" cx="1058.1" cy="1455" r="79.407" gradientUnits="userSpaceOnUse">
  <stop stop-color="#fff" offset="0"/>
  <stop stop-color="#FAFCF8" offset=".0242"/>
  <stop stop-color="#DBECCE" offset=".1773"/>
  <stop stop-color="#C2DEAC" offset=".3338"/>
  <stop stop-color="#AFD391" offset=".4922"/>
  <stop stop-color="#A1CC7E" offset=".6532"/>
  <stop stop-color="#99C773" offset=".8184"/>
  <stop stop-color="#96C66F" offset=".9944"/>
 </radialGradient>
 <polygon points="1086.8 1380.8 1077.4 1377.7 1068.7 1393.2 1059.5 1392.2 1054.1 1375.4 1044.2 1376.4 1042.6 1394.1 1033.8 1397 1022 1383.8 1013.5 1388.7 1019.2 1405.5 1012.3 1411.7 996.16 1404.5 990.36 1412.5 1002.4 1425.5 998.63 1434 980.93 1433.9 978.91 1443.6 995.17 1450.6 995.2 1459.8 979 1467 981.09 1476.6 998.79 1476.4 1002.6 1484.9 990.68 1498 996.53 1506 1012.6 1498.6 1019.5 1504.7 1014 1521.5 1022.6 1526.5 1034.2 1513.2 1043.1 1516 1044.8 1533.6 1054.7 1534.6 1059.9 1517.7 1069.2 1516.7 1077.9 1532.1 1087.3 1529 1085.3 1511.4 1093.3 1506.7 1107.5 1517.2 1114.9 1510.6 1105.8 1495.3 1111.3 1487.8 1128.5 1491.6 1132.5 1482.5 1118.1 1472.3 1120 1463.2 1137.3 1459.6 1137.3 1449.7 1119.9 1446.3 1118 1437.2 1132.3 1426.9 1128.3 1417.8 1111 1421.7 1105.5 1414.3 1114.5 1399 1107.1 1392.4 1092.9 1403 1084.8 1398.4" fill="url(#cx)"/>
 <radialGradient id="cy" cx="1057.7" cy="1454.8" r="35.062" gradientUnits="userSpaceOnUse">
  <stop stop-color="#FFF2DB" offset="0"/>
  <stop stop-color="#D7B189" offset=".309"/>
  <stop stop-color="#92562D" offset=".7508"/>
  <stop stop-color="#8D5027" offset=".7809"/>
  <stop stop-color="#541513" offset="1"/>
 </radialGradient>
 <circle cx="1057.7" cy="1454.8" r="35.054" fill="url(#cy)"/>
 <radialGradient id="cz" cx="804.12" cy="1065.2" r="67.745" gradientUnits="userSpaceOnUse">
  <stop stop-color="#fff" offset="0"/>
  <stop stop-color="#D6ECEF" offset=".1175"/>
  <stop stop-color="#ACD9E0" offset=".2566"/>
  <stop stop-color="#8AC9D3" offset=".399"/>
  <stop stop-color="#6FBDC9" offset=".5431"/>
  <stop stop-color="#5CB4C2" offset=".6896"/>
  <stop stop-color="#51AFBD" offset=".8399"/>
  <stop stop-color="#4DADBC" offset="1"/>
 </radialGradient>
 <polygon points="739.17 1044.8 737.13 1053 750.75 1059.5 750.47 1067.4 736.44 1072.9 737.9 1081.2 752.98 1081.6 755.94 1088.9 745.37 1099.7 750.09 1106.7 764.03 1100.9 769.71 1106.4 764.43 1120.5 771.59 1125 781.97 1114 789.39 1116.7 790.31 1131.8 798.67 1133 803.71 1118.8 811.58 1118.2 818.55 1131.6 826.66 1129.3 825.48 1114.2 832.45 1110.5 844.26 1119.9 850.72 1114.5 843.52 1101.2 848.38 1095 862.99 1098.8 866.69 1091.2 854.72 1082 856.63 1074.3 871.51 1071.8 871.8 1063.4 857.13 1059.9 855.76 1052.1 868.34 1043.8 865.18 1036 850.34 1038.7 845.93 1032.2 854.03 1019.4 847.96 1013.6 835.53 1022.1 828.83 1017.9 831.06 1003 823.13 1000.1 815.25 1013 807.43 1011.9 803.39 997.36 794.97 997.95 793.01 1012.9 785.42 1015.1 775.82 1003.4 768.37 1007.4 772.65 1021.9 766.6 1027 753.1 1020.2 747.91 1026.9 757.7 1038.3 754.24 1045.4" fill="url(#cz)"/>
 <radialGradient id="da" cx="803.74" cy="1065.4" r="29.88" gradientUnits="userSpaceOnUse">
  <stop stop-color="#fff" offset="0"/>
  <stop stop-color="#FAFCF8" offset=".0242"/>
  <stop stop-color="#DBECCE" offset=".1773"/>
  <stop stop-color="#C2DEAC" offset=".3338"/>
  <stop stop-color="#AFD391" offset=".4922"/>
  <stop stop-color="#A1CC7E" offset=".6532"/>
  <stop stop-color="#99C773" offset=".8184"/>
  <stop stop-color="#96C66F" offset=".9944"/>
 </radialGradient>
 <circle cx="803.74" cy="1065.4" r="29.875" fill="url(#da)"/>
 <radialGradient id="db" cx="1843.5" cy="1024.4" r="117.35" gradientUnits="userSpaceOnUse">
  <stop stop-color="#fff" offset="0"/>
  <stop stop-color="#CBE2F0" offset=".1102"/>
  <stop stop-color="#96C5E1" offset=".239"/>
  <stop stop-color="#68ABD3" offset=".3696"/>
  <stop stop-color="#4396C8" offset=".4992"/>
  <stop stop-color="#2586C0" offset=".6276"/>
  <stop stop-color="#117ABA" offset=".7546"/>
  <stop stop-color="#0473B6" offset=".8795"/>
  <stop stop-color="#0071B5" offset="1"/>
 </radialGradient>
 <polygon points="1941.8 1089.7 1949.1 1077 1929.5 1059.7 1933.6 1046.6 1959.7 1044.1 1961.2 1029.5 1936.2 1021.7 1934.7 1008.1 1957.4 995.14 1952.9 981.24 1926.9 984.29 1920 972.45 1935.5 951.37 1925.7 940.53 1903.2 953.88 1892.1 945.87 1897.6 920.31 1884.2 914.4 1869.1 935.75 1855.7 932.94 1850.4 907.33 1835.8 907.38 1830.7 933.03 1817.3 935.92 1802 914.67 1788.7 920.67 1794.4 946.19 1783.4 954.27 1760.8 941.07 1751 951.98 1766.6 972.96 1759.8 984.84 1733.8 981.96 1729.4 995.9 1752.2 1008.7 1750.8 1022.3 1725.9 1030.3 1727.4 1044.8 1753.5 1047.2 1757.8 1060.3 1738.2 1077.7 1745.6 1090.3 1770.4 1081.9 1779.6 1092.1 1768.8 1115.9 1780.7 1124.5 1799.9 1106.7 1812.4 1112.3 1812.3 1138.4 1826.6 1141.4 1836.9 1117.4 1850.6 1117.3 1861.2 1141.3 1875.5 1138.2 1875.1 1112.1 1887.6 1106.4 1907 1124.1 1918.8 1115.4 1907.9 1091.6 1917 1081.4" fill="url(#db)"/>
 <radialGradient id="dd" cx="1843.8" cy="1024.8" r="51.814" gradientUnits="userSpaceOnUse">
  <stop stop-color="#fff" offset="0"/>
  <stop stop-color="#CBE2F0" offset=".1102"/>
  <stop stop-color="#96C5E1" offset=".239"/>
  <stop stop-color="#68ABD3" offset=".3696"/>
  <stop stop-color="#4396C8" offset=".4992"/>
  <stop stop-color="#2586C0" offset=".6276"/>
  <stop stop-color="#117ABA" offset=".7546"/>
  <stop stop-color="#0473B6" offset=".8795"/>
  <stop stop-color="#0071B5" offset="1"/>
 </radialGradient>
 <circle cx="1843.8" cy="1024.8" r="51.803" fill="url(#dd)"/>
 <radialGradient id="de" cx="1846.7" cy="385.97" r="101.53" gradientUnits="userSpaceOnUse">
  <stop stop-color="#fff" offset="0"/>
  <stop stop-color="#FEFBFC" offset=".0175"/>
  <stop stop-color="#F8D6E2" offset=".2178"/>
  <stop stop-color="#F3B9CD" offset=".4183"/>
  <stop stop-color="#EFA5BE" offset=".6166"/>
  <stop stop-color="#ED98B5" offset=".8117"/>
  <stop stop-color="#EC94B2" offset="1"/>
 </radialGradient>
 <polygon points="1886.2 292.38 1874.3 288.17 1862.6 307.56 1850.9 306.03 1844.6 284.29 1832 285.3 1829.3 307.75 1817.9 311.12 1803.4 293.81 1792.3 299.86 1798.9 321.48 1789.9 329.17 1769.6 319.28 1761.9 329.32 1776.7 346.38 1771.6 357.06 1749 356.3 1746.1 368.6 1766.6 378.14 1766.3 389.97 1745.4 398.46 1747.7 410.9 1770.3 411.28 1774.8 422.21 1759.1 438.49 1766.3 448.91 1787.1 440.05 1795.7 448.2 1788 469.45 1798.8 476.05 1814.2 459.5 1825.4 463.44 1827 486 1839.5 487.64 1846.8 466.25 1858.6 465.31 1869.3 485.27 1881.4 481.66 1879.4 459.14 1889.8 453.48 1907.6 467.38 1917.3 459.16 1906.3 439.39 1913.5 429.99 1935.4 435.44 1940.9 424.02 1922.8 410.43 1925.5 398.91 1947.8 394.96 1948.1 382.32 1926.1 377.25 1923.9 365.61 1942.6 352.95 1937.8 341.27 1915.6 345.6 1908.9 335.85 1920.9 316.66 1911.7 307.96 1893.2 320.95 1883.1 314.77" fill="url(#de)"/>
 <radialGradient id="df" cx="1846.2" cy="385.79" r="44.794" gradientUnits="userSpaceOnUse">
  <stop stop-color="#77C697" offset="0"/>
  <stop stop-color="#38BC80" offset=".2573"/>
  <stop stop-color="#00B36C" offset=".5"/>
  <stop stop-color="#00B269" offset=".5432"/>
  <stop stop-color="#00A652" offset="1"/>
 </radialGradient>
 <circle cx="1846.2" cy="385.79" r="44.783" fill="url(#df)"/>
 <radialGradient id="dg" cx="1253" cy="1436.1" r="73.685" gradientUnits="userSpaceOnUse">
  <stop stop-color="#E5E2DF" offset="0"/>
  <stop stop-color="#F1EFEE" offset="0"/>
  <stop stop-color="#fff" offset="0"/>
  <stop stop-color="#F0F0F1" offset=".1259"/>
  <stop stop-color="#C9CACB" offset=".3664"/>
  <stop stop-color="#ADAEB0" offset=".5225"/>
  <stop stop-color="#A3A5A7" offset=".6029"/>
  <stop stop-color="#898D90" offset=".7382"/>
  <stop stop-color="#5F6769" offset=".9108"/>
  <stop stop-color="#465053" offset="1"/>
 </radialGradient>
 <polygon points="1315.2 1476.2 1319.6 1468.2 1307.2 1457.5 1309.7 1449.3 1326 1447.5 1326.8 1438.3 1311.1 1433.6 1310 1425.1 1324.2 1416.8 1321.2 1408.1 1304.9 1410.2 1300.5 1402.9 1310 1389.5 1303.8 1382.8 1289.8 1391.3 1282.7 1386.4 1286 1370.3 1277.6 1366.7 1268.3 1380.3 1259.8 1378.6 1256.3 1362.6 1247.1 1362.7 1244.1 1378.9 1235.7 1380.8 1226 1367.6 1217.6 1371.5 1221.5 1387.4 1214.6 1392.6 1200.3 1384.5 1194.3 1391.4 1204.3 1404.5 1200.1 1412 1183.8 1410.4 1181.1 1419.2 1195.5 1427 1194.7 1435.6 1179.2 1440.8 1180.3 1449.9 1196.6 1451.2 1199.4 1459.3 1187.3 1470.4 1192 1478.3 1207.5 1472.8 1213.4 1479.1 1206.8 1494.1 1214.3 1499.4 1226.3 1488.1 1234.2 1491.5 1234.3 1507.9 1243.3 1509.7 1249.6 1494.5 1258.2 1494.4 1265 1509.3 1273.9 1507.3 1273.5 1490.8 1281.3 1487.2 1293.6 1498.1 1300.9 1492.6 1293.9 1477.8 1299.5 1471.3" fill="url(#dg)"/>
 <radialGradient id="dh" cx="1253.2" cy="1436.3" r="32.517" gradientUnits="userSpaceOnUse">
  <stop stop-color="#fff" offset="0"/>
  <stop stop-color="#FDFDFE" offset=".0047"/>
  <stop stop-color="#C9C8E1" offset=".149"/>
  <stop stop-color="#9B9AC8" offset=".295"/>
  <stop stop-color="#7674B4" offset=".4399"/>
  <stop stop-color="#5A57A4" offset=".5835"/>
  <stop stop-color="#454399" offset=".7255"/>
  <stop stop-color="#393692" offset=".8652"/>
  <stop stop-color="#353290" offset="1"/>
 </radialGradient>
 <circle cx="1253.2" cy="1436.3" r="32.51" fill="url(#dh)"/>
 <radialGradient id="di" cx="547.54" cy="323.42" r="93.028" gradientUnits="userSpaceOnUse">
  <stop stop-color="#fff" offset="0"/>
  <stop stop-color="#FDFDFE" offset=".0047"/>
  <stop stop-color="#C9C8E1" offset=".149"/>
  <stop stop-color="#9B9AC8" offset=".295"/>
  <stop stop-color="#7674B4" offset=".4399"/>
  <stop stop-color="#5A57A4" offset=".5835"/>
  <stop stop-color="#454399" offset=".7255"/>
  <stop stop-color="#393692" offset=".8652"/>
  <stop stop-color="#353290" offset="1"/>
 </radialGradient>
 <polygon points="638.74 303.59 635.54 292.45 614.89 294.08 609.8 284.51 622.69 268.29 615.24 259.42 597.03 269.3 588.48 262.63 593.67 242.57 583.25 237.5 570.64 253.93 560.12 251.31 556.69 230.88 545.11 230.48 540.28 250.63 529.6 252.51 518.16 235.24 507.42 239.58 511.2 259.95 502.21 266.02 484.73 254.89 476.69 263.23 488.42 280.3 482.68 289.5 462.19 286.44 458.23 297.34 475.9 308.16 474.39 318.9 454.43 324.44 455.24 336 475.78 338.7 478.77 349.12 462.79 362.3 468.23 372.53 488.1 366.64 495.07 374.95 485.83 393.49 494.96 400.62 510.71 387.17 520.46 391.92 519.56 412.62 530.81 415.42 539.72 396.72 550.56 397.09 558.16 416.36 569.57 414.35 570.11 393.64 580.16 389.57 594.94 404.09 604.55 397.61 596.62 378.47 604.15 370.66 623.56 377.92 629.69 368.08 614.66 353.83 618.37 343.64 639.05 342.37 640.66 330.89 621.13 323.98 620.37 313.16" fill="url(#di)"/>
 <radialGradient id="dj" cx="547.82" cy="323.44" r="41.036" gradientUnits="userSpaceOnUse">
  <stop stop-color="#fff" offset="0"/>
  <stop stop-color="#FFFEFE" offset=".0023"/>
  <stop stop-color="#F8D6D5" offset=".1599"/>
  <stop stop-color="#F3B6B3" offset=".3199"/>
  <stop stop-color="#EE9C98" offset=".4829"/>
  <stop stop-color="#EB8A85" offset=".6487"/>
  <stop stop-color="#EA7F7A" offset=".8188"/>
  <stop stop-color="#E97B76" offset="1"/>
 </radialGradient>
 <circle cx="547.82" cy="323.44" r="41.025" fill="url(#dj)"/>
 <radialGradient id="dk" cx="1398.1" cy="1278.1" r="58.381" gradientUnits="userSpaceOnUse">
  <stop stop-color="#fff" offset="0"/>
  <stop stop-color="#F5E6DD" offset=".1006"/>
  <stop stop-color="#E9C8B3" offset=".2424"/>
  <stop stop-color="#DFAE91" offset=".3875"/>
  <stop stop-color="#D89B76" offset=".5344"/>
  <stop stop-color="#D28D63" offset=".6837"/>
  <stop stop-color="#CF8558" offset=".8368"/>
  <stop stop-color="#CE8254" offset="1"/>
 </radialGradient>
 <polygon points="1408.6 1335.8 1415.7 1334.1 1415.1 1321.1 1421.2 1318.1 1431.1 1326.5 1436.8 1322.1 1431 1310.4 1435.4 1305.2 1447.9 1308.9 1451.3 1302.5 1441.3 1294.2 1443.1 1287.7 1456 1286 1456.5 1278.7 1444 1275.2 1443 1268.5 1454.1 1261.7 1451.6 1254.9 1438.8 1256.8 1435.2 1251 1442.5 1240.3 1437.5 1235.1 1426.5 1242.1 1420.9 1238.3 1423.2 1225.5 1416.5 1222.8 1409.3 1233.6 1402.6 1232.4 1399.6 1219.8 1392.3 1220 1390.2 1232.9 1383.6 1234.5 1375.6 1224.2 1369.1 1227.4 1372.4 1240 1367 1244.2 1355.6 1238 1350.9 1243.5 1359 1253.7 1355.8 1259.7 1342.8 1258.7 1340.8 1265.7 1352.4 1271.7 1351.9 1278.5 1339.7 1282.8 1340.7 1290 1353.6 1290.8 1356 1297.2 1346.5 1306.2 1350.4 1312.3 1362.6 1307.8 1367.3 1312.7 1362.3 1324.7 1368.4 1328.8 1377.6 1319.6 1384 1322.2 1384.3 1335.2 1391.5 1336.4 1396.2 1324.3 1403 1324.1" fill="url(#dk)"/>
 <radialGradient id="dl" cx="1398.2" cy="1278.4" r="25.752" gradientUnits="userSpaceOnUse">
  <stop stop-color="#fff" offset="0"/>
  <stop stop-color="#FFFEFE" offset=".0023"/>
  <stop stop-color="#F8D6D5" offset=".1599"/>
  <stop stop-color="#F3B6B3" offset=".3199"/>
  <stop stop-color="#EE9C98" offset=".4829"/>
  <stop stop-color="#EB8A85" offset=".6487"/>
  <stop stop-color="#EA7F7A" offset=".8188"/>
  <stop stop-color="#E97B76" offset="1"/>
 </radialGradient>
 <circle cx="1398.2" cy="1278.4" r="25.745" fill="url(#dl)"/>
 <radialGradient id="dn" cx="756.28" cy="281.42" r="113.67" gradientUnits="userSpaceOnUse">
  <stop stop-color="#77C697" offset="0"/>
  <stop stop-color="#38BC80" offset=".2573"/>
  <stop stop-color="#00B36C" offset=".5"/>
  <stop stop-color="#00B269" offset=".5432"/>
  <stop stop-color="#00A652" offset="1"/>
 </radialGradient>
 <polygon points="833.16 365.03 842.98 354.82 828.61 333.99 835.61 322.74 860.65 326.43 865.47 313.12 843.86 299.93 845.68 286.8 870.06 280 869.05 265.87 843.95 262.61 840.27 249.88 859.78 233.74 853.11 221.25 828.85 228.48 820.31 218.35 831.56 195.67 820.39 186.98 801.17 203.45 789.25 197.66 790.31 172.37 776.56 168.97 765.7 191.84 752.46 191.4 743.14 167.86 729.2 170.35 728.58 195.65 716.3 200.64 698.22 182.93 686.49 190.87 696.22 214.24 687.03 223.79 663.3 214.97 655.82 226.99 674.22 244.38 669.71 256.84 644.44 258.43 642.5 272.46 666.37 280.87 667.32 294.08 644.89 305.81 648.82 319.42 674.05 317.39 680.29 329.08 664.57 348.92 673.69 359.75 695.92 347.63 706.37 355.77 700.08 380.29 712.82 386.47 728.19 366.36 741.06 369.54 745.28 394.5 759.43 394.97 765.3 370.35 778.34 368.02 792.36 389.1 805.47 383.78 800.82 358.9 811.79 351.46" fill="url(#dn)"/>
 <radialGradient id="dp" cx="756.48" cy="281.06" r="50.129" gradientUnits="userSpaceOnUse">
  <stop stop-color="#AEB0B7" offset=".0056"/>
  <stop stop-color="#AAAAA8" offset=".3156"/>
  <stop stop-color="#A9A9A6" offset=".3539"/>
  <stop stop-color="#9A9E9E" offset=".5001"/>
  <stop stop-color="#838C92" offset=".6742"/>
  <stop stop-color="#657076" offset="1"/>
 </radialGradient>
 <circle cx="756.48" cy="281.06" r="50.129" fill="url(#dp)"/>
 <radialGradient id="dq" cx="1720.8" cy="578.76" r="59.653" gradientUnits="userSpaceOnUse">
  <stop stop-color="#E2E5F4" offset=".0056"/>
  <stop stop-color="#C7CEE9" offset=".4494"/>
  <stop stop-color="#A8B5DC" offset="1"/>
 </radialGradient>
 <polygon points="1720.9 519.1 1713.5 519.52 1711.6 532.66 1704.9 534.49 1696.6 524.13 1690 527.53 1693.6 540.31 1688.2 544.71 1676.4 538.63 1671.7 544.42 1680.2 554.64 1677.1 560.85 1663.8 560.09 1662 567.28 1673.9 573.15 1673.5 580.1 1661.1 584.8 1662.3 592.14 1675.6 592.66 1678.1 599.14 1668.7 608.49 1672.7 614.7 1685.1 609.78 1690 614.68 1685.2 627.06 1691.4 631.08 1700.7 621.57 1707.2 624.03 1707.8 637.3 1715.2 638.43 1719.8 625.97 1726.7 625.57 1732.7 637.44 1739.9 635.48 1739 622.23 1745.2 619.04 1755.5 627.45 1761.2 622.75 1755.1 610.99 1759.4 605.57 1772.2 609.07 1775.6 602.43 1765.1 594.21 1766.9 587.48 1780 585.46 1780.4 578.04 1767.5 574.77 1766.4 567.91 1777.6 560.72 1774.9 553.8 1761.8 556.05 1758 550.23 1765.3 539.12 1760 533.89 1748.9 541.27 1743.1 537.51 1745.2 524.4 1738.3 521.77 1731.2 533 1724.3 531.94" fill="url(#dq)"/>
 <radialGradient id="dr" cx="1720.5" cy="578.76" r="26.305" gradientUnits="userSpaceOnUse">
  <stop stop-color="#77C697" offset="0"/>
  <stop stop-color="#38BC80" offset=".2573"/>
  <stop stop-color="#00B36C" offset=".5"/>
  <stop stop-color="#00B269" offset=".5432"/>
  <stop stop-color="#00A652" offset="1"/>
 </radialGradient>
 <circle cx="1720.5" cy="578.76" r="26.303" fill="url(#dr)"/>
 <radialGradient id="ds" cx="1719" cy="1394.9" r="196.54" gradientUnits="userSpaceOnUse">
  <stop stop-color="#FCF3DD" offset="0"/>
  <stop stop-color="#FDEDC1" offset="0"/>
  <stop stop-color="#FFE18A" offset="0"/>
  <stop stop-color="#FFCD03" offset=".5506"/>
  <stop stop-color="#F7C50D" offset=".668"/>
  <stop stop-color="#E2B124" offset="1"/>
 </radialGradient>
 <polygon points="1649.1 1211.3 1626.8 1221.4 1636.5 1264.1 1618 1277.7 1580.1 1255.7 1563.8 1273.9 1590.1 1309 1578.7 1328.9 1535.1 1324.2 1527.7 1347.6 1565.9 1368.9 1563.7 1391.8 1521.9 1405.1 1524.6 1429.5 1568.3 1433.5 1575.5 1455.3 1542.8 1484.5 1555.2 1505.6 1596.6 1491.5 1612.1 1508.5 1594.1 1548.4 1614 1562.7 1646.2 1533 1667.2 1542.2 1667 1586 1691 1591 1708.3 1550.7 1731.2 1550.6 1748.9 1590.7 1772.8 1585.4 1772.2 1541.6 1793.1 1532.2 1825.6 1561.6 1845.3 1547.1 1826.9 1507.3 1842.2 1490.2 1883.8 1503.9 1896 1482.6 1863 1453.8 1870 1431.9 1913.6 1427.5 1916 1403.1 1874.1 1390.1 1871.6 1367.4 1909.6 1345.6 1901.9 1322.3 1858.4 1327.5 1846.9 1307.7 1872.8 1272.3 1856.3 1254.2 1818.6 1276.6 1800 1263.3 1809.3 1220.4 1786.8 1210.6 1761.6 1246.4 1739.1 1241.7 1730.2 1198.9 1705.6 1199 1697.1 1242 1674.7 1246.8" fill="url(#ds)"/>
 <radialGradient id="dt" cx="1718.3" cy="1395.5" r="86.772" gradientUnits="userSpaceOnUse">
  <stop stop-color="#E6F3E9" offset=".0056"/>
  <stop stop-color="#C9E6D2" offset=".4494"/>
  <stop stop-color="#ACDABB" offset="1"/>
 </radialGradient>
 <circle cx="1718.3" cy="1395.5" r="86.754" fill="url(#dt)"/>
 <radialGradient id="du" cx="1691" cy="799.44" r="63.948" gradientUnits="userSpaceOnUse">
  <stop stop-color="#E6F3E9" offset=".0056"/>
  <stop stop-color="#C9E6D2" offset=".4494"/>
  <stop stop-color="#ACDABB" offset="1"/>
 </radialGradient>
 <polygon points="1668 859.26 1675.6 861.68 1682.5 849.24 1690 849.98 1694.3 863.55 1702.3 862.67 1703.5 848.48 1710.6 846.13 1720.1 856.76 1727 852.73 1722.4 839.24 1727.9 834.22 1740.9 840.06 1745.6 833.58 1735.9 823.12 1738.9 816.29 1753.2 816.34 1754.8 808.53 1741.7 802.92 1741.6 795.45 1754.7 789.7 1753 781.91 1738.7 782.11 1735.7 775.31 1745.2 764.75 1740.5 758.32 1727.6 764.3 1722 759.34 1726.4 745.8 1719.5 741.85 1710.1 752.58 1703 750.31 1701.6 736.13 1693.6 735.34 1689.4 748.95 1682 749.77 1674.9 737.4 1667.4 739.91 1669 754.06 1662.6 757.83 1651.1 749.41 1645.2 754.78 1652.5 767.02 1648.2 773.08 1634.2 770.07 1631 777.38 1642.7 785.59 1641.2 792.9 1627.2 795.82 1627.2 803.79 1641.2 806.56 1642.8 813.85 1631.3 822.19 1634.5 829.45 1648.4 826.29 1652.9 832.31 1645.7 844.63 1651.6 849.93 1663.1 841.39 1669.5 845.09" fill="url(#du)"/>
 <radialGradient id="dv" cx="1691.4" cy="799.63" r="28.234" gradientUnits="userSpaceOnUse">
  <stop stop-color="#B27867" offset="0"/>
  <stop stop-color="#8E4130" offset=".5"/>
  <stop stop-color="#7A1E15" offset="1"/>
 </radialGradient>
 <circle cx="1691.4" cy="799.63" r="28.227" fill="url(#dv)"/>
 <radialGradient id="dw" cx="2059" cy="442.04" r="65.432" gradientUnits="userSpaceOnUse">
  <stop stop-color="#FFFBCC" offset="0"/>
  <stop stop-color="#FBF2BB" offset=".1146"/>
  <stop stop-color="#F0D98E" offset=".3413"/>
  <stop stop-color="#EED688" offset=".3708"/>
  <stop stop-color="#EBBB10" offset=".6854"/>
  <stop stop-color="#C3922E" offset="1"/>
 </radialGradient>
 <polygon points="2088.2 500.95 2095.3 496.91 2090.7 483.06 2096.4 477.97 2109.7 484.09 2114.5 477.51 2104.7 466.71 2107.8 459.75 2122.4 459.94 2124.1 451.97 2110.8 446.09 2110.8 438.46 2124.2 432.7 2122.6 424.72 2108 424.77 2104.9 417.78 2114.8 407.08 2110.1 400.45 2096.8 406.44 2091.1 401.3 2095.8 387.49 2088.8 383.38 2079 394.26 2071.8 391.86 2070.5 377.34 2062.4 376.44 2057.9 390.33 2050.3 391.1 2043.2 378.37 2035.4 380.85 2037 395.35 2030.4 399.14 2018.7 390.4 2012.6 395.83 2019.9 408.44 2015.4 414.59 2001.2 411.37 1997.8 418.8 2009.7 427.33 2008 434.79 1993.7 437.63 1993.7 445.79 2008 448.77 2009.5 456.24 1997.6 464.66 2000.9 472.12 2015.2 469.04 2019.6 475.24 2012.1 487.77 2018.2 493.26 2029.9 484.64 2036.5 488.49 2034.8 502.97 2042.6 505.53 2049.8 492.87 2057.4 493.7 2061.7 507.63 2069.8 506.82 2071.3 492.31 2078.6 489.98" fill="url(#dw)"/>
 <radialGradient id="dx" cx="2059.4" cy="442.08" r="28.886" gradientUnits="userSpaceOnUse">
  <stop stop-color="#AEB0B7" offset=".0056"/>
  <stop stop-color="#AAAAA8" offset=".3156"/>
  <stop stop-color="#A9A9A6" offset=".3539"/>
  <stop stop-color="#9A9E9E" offset=".5001"/>
  <stop stop-color="#838C92" offset=".6742"/>
  <stop stop-color="#657076" offset="1"/>
 </radialGradient>
 <circle cx="2059.4" cy="442.08" r="28.883" fill="url(#dx)"/>
 <radialGradient id="dy" cx="1449" cy="1414.2" r="55.076" gradientUnits="userSpaceOnUse">
  <stop stop-color="#fff" offset="0"/>
  <stop stop-color="#FAFCF8" offset=".0242"/>
  <stop stop-color="#DBECCE" offset=".1773"/>
  <stop stop-color="#C2DEAC" offset=".3338"/>
  <stop stop-color="#AFD391" offset=".4922"/>
  <stop stop-color="#A1CC7E" offset=".6532"/>
  <stop stop-color="#99C773" offset=".8184"/>
  <stop stop-color="#96C66F" offset=".9944"/>
 </radialGradient>
 <polygon points="1497 1441.4 1500 1435.2 1490.2 1427.7 1491.7 1421.5 1503.8 1419.4 1504 1412.6 1492.1 1409.8 1491 1403.4 1501.2 1396.6 1498.6 1390.3 1486.5 1392.6 1482.9 1387.2 1489.5 1376.9 1484.5 1372.1 1474.5 1379.1 1469 1375.7 1470.8 1363.6 1464.3 1361.3 1457.9 1371.7 1451.6 1370.9 1448.3 1359.1 1441.4 1359.6 1439.9 1371.7 1433.7 1373.5 1425.9 1364.1 1419.8 1367.3 1423.3 1379.1 1418.4 1383.2 1407.4 1377.8 1403.2 1383.2 1411.2 1392.5 1408.4 1398.3 1396.2 1397.8 1394.5 1404.4 1405.6 1409.7 1405.4 1416.1 1394 1420.6 1395.2 1427.4 1407.5 1427.7 1409.9 1433.6 1401.3 1442.4 1405.2 1448.1 1416.5 1443.3 1421.2 1447.8 1416.9 1459.3 1422.7 1462.9 1431.1 1454 1437.2 1456.2 1438 1468.4 1444.8 1469.3 1448.8 1457.8 1455.2 1457.3 1460.9 1468.1 1467.5 1466.2 1466.5 1454 1472.2 1451 1481.8 1458.6 1487 1454.2 1481.2 1443.4 1485.1 1438.3" fill="url(#dy)"/>
 <radialGradient id="ea" cx="1449" cy="1414.2" r="24.296" gradientUnits="userSpaceOnUse">
  <stop stop-color="#E2E5F4" offset=".0056"/>
  <stop stop-color="#C7CEE9" offset=".4494"/>
  <stop stop-color="#A8B5DC" offset="1"/>
 </radialGradient>
 <circle cx="1449" cy="1414.2" r="24.29" fill="url(#ea)"/>
 <radialGradient id="eb" cx="1997.6" cy="1471.2" r="77.992" gradientUnits="userSpaceOnUse">
  <stop stop-color="#F4E8D9" offset=".1798"/>
  <stop stop-color="#EDD089" offset=".5899"/>
  <stop stop-color="#C08329" offset="1"/>
 </radialGradient>
 <polygon points="2038.7 1404.7 2030.1 1400.1 2019.1 1413.5 2010.4 1411 2008.1 1393.8 1998.4 1393.1 1993.8 1409.9 1984.8 1411.1 1975.7 1396.3 1966.6 1399.6 1969.1 1416.8 1961.4 1421.6 1947.1 1411.8 1940.1 1418.6 1949.4 1433.2 1944.4 1440.7 1927.3 1437.6 1923.6 1446.6 1938.1 1456.2 1936.5 1465.1 1919.7 1469.2 1920 1478.9 1937.1 1481.8 1939.3 1490.6 1925.5 1501.2 1929.8 1509.9 1946.6 1505.5 1952.2 1512.7 1943.9 1528 1951.4 1534.2 1965 1523.4 1973 1527.7 1971.6 1545 1981 1547.7 1989 1532.2 1998.1 1532.9 2003.9 1549.3 2013.5 1547.9 2014.5 1530.6 2023.1 1527.5 2035 1540.1 2043.3 1534.9 2037.2 1518.6 2043.7 1512.3 2059.8 1519 2065.2 1510.9 2053 1498.5 2056.4 1490.1 2073.8 1489.6 2075.5 1480.1 2059.3 1473.7 2059 1464.6 2074.7 1457.1 2072.3 1447.7 2055 1448.5 2051 1440.3 2062.3 1427.1 2056.3 1419.4 2040.8 1427.2 2033.8 1421.3" fill="url(#eb)"/>
 <radialGradient id="ec" cx="1997.7" cy="1471.1" r="34.402" gradientUnits="userSpaceOnUse">
  <stop stop-color="#fff" offset="0"/>
  <stop stop-color="#FAFCF8" offset=".0242"/>
  <stop stop-color="#DBECCE" offset=".1773"/>
  <stop stop-color="#C2DEAC" offset=".3338"/>
  <stop stop-color="#AFD391" offset=".4922"/>
  <stop stop-color="#A1CC7E" offset=".6532"/>
  <stop stop-color="#99C773" offset=".8184"/>
  <stop stop-color="#96C66F" offset=".9944"/>
 </radialGradient>
 <circle cx="1997.7" cy="1471.1" r="34.394" fill="url(#ec)"/>
 <radialGradient id="ed" cx="2117.4" cy="978.55" r="62.671" gradientUnits="userSpaceOnUse">
  <stop stop-color="#fff" offset="0"/>
  <stop stop-color="#FDE8E8" offset=".0546"/>
  <stop stop-color="#F8B6B7" offset=".1819"/>
  <stop stop-color="#F48C8D" offset=".3125"/>
  <stop stop-color="#F16A6B" offset=".4442"/>
  <stop stop-color="#EE4F50" offset=".5775"/>
  <stop stop-color="#EC3C3D" offset=".713"/>
  <stop stop-color="#EB3132" offset=".852"/>
  <stop stop-color="#EB2D2E" offset="1"/>
 </radialGradient>
 <polygon points="2059.7 954.15 2057.1 961.51 2069 968.7 2068.1 975.94 2054.7 979.79 2055.3 987.57 2069.1 989.28 2071.2 996.28 2060.5 1005.3 2064.2 1012.1 2077.6 1008 2082.3 1013.6 2076.2 1026.1 2082.4 1030.9 2092.9 1021.7 2099.5 1024.9 2099.1 1038.8 2106.6 1040.7 2112.5 1028 2119.9 1028.2 2125.1 1041.1 2132.8 1039.7 2133 1025.8 2139.8 1023 2149.8 1032.7 2156.2 1028.2 2150.8 1015.4 2155.8 1010.1 2168.9 1014.9 2173 1008.2 2162.8 998.68 2165.2 991.79 2179.2 990.82 2180.2 983.07 2167 978.53 2166.4 971.24 2178.7 964.69 2176.5 957.2 2162.6 958.42 2159.1 952 2167.7 941 2162.6 935.06 2150.4 941.83 2144.6 937.38 2148 923.84 2141 920.47 2132.6 931.62 2125.5 929.92 2123 916.17 2115.2 915.97 2112.1 929.57 2104.9 930.9 2097.1 919.33 2089.9 922.32 2092.5 936.02 2086.5 940.16 2074.7 932.76 2069.3 938.42 2077.3 949.86 2073.5 956.09" fill="url(#ed)"/>
 <radialGradient id="ee" cx="2117.3" cy="978.85" r="27.65" gradientUnits="userSpaceOnUse">
  <stop stop-color="#E2E5F4" offset=".0056"/>
  <stop stop-color="#C7CEE9" offset=".4494"/>
  <stop stop-color="#A8B5DC" offset="1"/>
 </radialGradient>
 <circle cx="2117.3" cy="978.85" r="27.643" fill="url(#ee)"/>
 <radialGradient id="ef" cx="537.8" cy="932.66" r="177.29" gradientUnits="userSpaceOnUse">
  <stop stop-color="#fff" offset="0"/>
  <stop stop-color="#FEFBFC" offset=".0175"/>
  <stop stop-color="#F8D6E2" offset=".2178"/>
  <stop stop-color="#F3B9CD" offset=".4183"/>
  <stop stop-color="#EFA5BE" offset=".6166"/>
  <stop stop-color="#ED98B5" offset=".8117"/>
  <stop stop-color="#EC94B2" offset="1"/>
 </radialGradient>
 <polygon points="634.48 1082.6 652.24 1069.5 635.54 1033.7 649.24 1018.2 686.82 1030.4 697.7 1011.1 667.88 985.23 674.09 965.5 713.38 961.36 715.5 939.36 677.71 927.81 675.36 907.26 709.58 887.5 702.56 866.54 663.34 871.36 652.84 853.54 676.06 821.57 661.12 805.28 627.26 825.64 610.41 813.63 618.62 774.98 598.34 766.17 575.69 798.54 555.42 794.42 547.19 755.78 525.09 755.97 517.56 794.76 497.37 799.24 474.14 767.28 454.02 776.45 462.92 814.95 446.3 827.26 412.07 807.51 397.43 824.07 421.22 855.62 411.04 873.63 371.74 869.51 365.1 890.59 399.66 909.74 397.68 930.33 360.11 942.54 362.62 964.5 401.98 967.94 408.55 987.56 379.19 1014 390.41 1033 427.77 1020.2 441.75 1035.4 425.69 1071.5 443.68 1084.3 472.57 1057.4 491.55 1065.6 491.56 1105.2 513.22 1109.6 528.65 1073.2 549.33 1073 565.41 1109.1 586.99 1104.3 586.29 1064.8 605.11 1056.2" fill="url(#ef)"/>
 <radialGradient id="eg" cx="538.29" cy="933.46" r="78.248" gradientUnits="userSpaceOnUse">
  <stop stop-color="#fff" offset="0"/>
  <stop stop-color="#FDE8E8" offset=".0546"/>
  <stop stop-color="#F8B6B7" offset=".1819"/>
  <stop stop-color="#F48C8D" offset=".3125"/>
  <stop stop-color="#F16A6B" offset=".4442"/>
  <stop stop-color="#EE4F50" offset=".5775"/>
  <stop stop-color="#EC3C3D" offset=".713"/>
  <stop stop-color="#EB3132" offset=".852"/>
  <stop stop-color="#EB2D2E" offset="1"/>
 </radialGradient>
 <circle cx="538.29" cy="933.46" r="78.246" fill="url(#eg)"/>
 <radialGradient id="eh" cx="1271.1" cy="831.84" r="125.99" gradientUnits="userSpaceOnUse">
  <stop stop-color="#F7977A" offset="0"/>
  <stop stop-color="#F68D71" offset=".0711"/>
  <stop stop-color="#F1563C" offset=".5"/>
  <stop stop-color="#DE3B34" offset=".745"/>
  <stop stop-color="#CE242C" offset="1"/>
 </radialGradient>
 <polygon points="1162.1 896.48 1170.9 909.45 1196.8 898.6 1207.4 908.76 1197.7 935.08 1211.1 943.34 1230.3 922.9 1244.1 927.86 1246 955.86 1261.5 957.97 1270.8 931.48 1285.4 930.39 1298.5 955.22 1313.5 950.82 1311.2 922.86 1324.2 915.91 1346.2 933.28 1358.2 923.13 1344.7 898.53 1353.7 886.92 1380.9 893.82 1387.7 879.68 1365.3 862.7 1368.8 848.43 1396.5 843.68 1397 827.99 1369.6 821.56 1367 807.11 1390.4 791.51 1384.4 776.99 1356.8 782.22 1348.6 770.08 1363.5 746.35 1352.2 735.5 1329.2 751.5 1316.7 743.77 1320.7 716 1305.9 710.7 1291.4 734.69 1276.8 732.71 1269.2 705.71 1253.5 706.87 1250 734.71 1235.9 738.82 1217.9 717.25 1204.1 724.68 1212.2 751.55 1201 761.04 1175.8 748.64 1166.2 761.05 1184.5 782.3 1178.2 795.53 1150.1 794.44 1146.4 809.68 1171.8 821.65 1171.3 836.33 1145.3 846.73 1148.1 862.18 1176.1 862.78 1181.7 876.38" fill="url(#eh)"/>
 <radialGradient id="ei" cx="1270.6" cy="832.39" r="55.568" gradientUnits="userSpaceOnUse">
  <stop stop-color="#fff" offset="0"/>
  <stop stop-color="#FFFEFE" offset=".0023"/>
  <stop stop-color="#F8D6D5" offset=".1599"/>
  <stop stop-color="#F3B6B3" offset=".3199"/>
  <stop stop-color="#EE9C98" offset=".4829"/>
  <stop stop-color="#EB8A85" offset=".6487"/>
  <stop stop-color="#EA7F7A" offset=".8188"/>
  <stop stop-color="#E97B76" offset="1"/>
 </radialGradient>
 <circle cx="1270.6" cy="832.39" r="55.565" fill="url(#ei)"/>
 <radialGradient id="ej" cx="944.77" cy="437.48" r="138.69" gradientUnits="userSpaceOnUse">
  <stop stop-color="#fff" offset="0"/>
  <stop stop-color="#FEFBFC" offset=".0175"/>
  <stop stop-color="#F8D6E2" offset=".2178"/>
  <stop stop-color="#F3B9CD" offset=".4183"/>
  <stop stop-color="#EFA5BE" offset=".6166"/>
  <stop stop-color="#ED98B5" offset=".8117"/>
  <stop stop-color="#EC94B2" offset="1"/>
 </radialGradient>
 <polygon points="1080.3 406.31 1075.4 389.76 1044.6 392.57 1036.8 378.38 1055.7 353.96 1044.5 340.87 1017.5 355.95 1004.6 346.15 1012 316.14 996.36 308.76 977.87 333.51 962.12 329.8 956.64 299.39 939.36 299 932.53 329.13 916.64 332.14 899.26 306.6 883.32 313.27 889.33 343.58 876.04 352.79 849.78 336.52 837.93 349.1 855.75 374.34 847.35 388.16 816.74 383.98 811.03 400.3 837.57 416.11 835.52 432.15 805.86 440.78 807.28 458 837.96 461.65 842.62 477.14 819.03 497.09 827.33 512.25 856.84 503.1 867.39 515.36 853.96 543.18 867.71 553.65 890.95 533.29 905.57 540.2 904.61 571.08 921.43 575.04 934.38 547 950.55 547.36 962.24 575.96 979.22 572.74 979.64 541.85 994.56 535.6 1016.9 556.98 1031.1 547.13 1018.9 518.74 1030 506.97 1059 517.42 1068 502.65 1045.3 481.67 1050.7 466.4 1081.5 464.12 1083.7 446.98 1054.4 437.04 1053.1 420.92" fill="url(#ej)"/>
 <radialGradient id="el" cx="945.11" cy="437.58" r="61.198" gradientUnits="userSpaceOnUse">
  <stop stop-color="#E6F3E9" offset=".0056"/>
  <stop stop-color="#C9E6D2" offset=".4494"/>
  <stop stop-color="#ACDABB" offset="1"/>
 </radialGradient>
 <circle cx="945.1" cy="437.58" r="61.181" fill="url(#el)"/>
 <radialGradient id="em" cx="1975.3" cy="703.28" r="186.37" gradientUnits="userSpaceOnUse">
  <stop stop-color="#FCF3DD" offset="0"/>
  <stop stop-color="#FDEDC1" offset="0"/>
  <stop stop-color="#FFE18A" offset="0"/>
  <stop stop-color="#FFCD03" offset=".5506"/>
  <stop stop-color="#F7C50D" offset=".668"/>
  <stop stop-color="#E2B124" offset="1"/>
 </radialGradient>
 <polygon points="2133.5 602.25 2119.7 583.52 2082 600.93 2065.8 586.45 2078.8 546.99 2058.6 535.47 2031.2 566.71 2010.5 560.09 2006.3 518.76 1983.2 516.44 1970.9 556.12 1949.3 558.5 1928.6 522.44 1906.6 529.73 1911.5 570.98 1892.7 581.94 1859.2 557.39 1842 573.03 1863.2 608.72 1850.5 626.38 1809.9 617.58 1800.6 638.85 1834.5 662.82 1830.1 684.11 1789.4 692.59 1789.6 715.83 1830.3 723.92 1834.9 745.17 1801.2 769.45 1810.8 790.64 1851.3 781.45 1864.2 798.98 1843.2 834.88 1860.6 850.35 1893.9 825.48 1912.8 836.26 1908.2 877.56 1930.4 884.64 1950.7 848.38 1972.3 850.55 1985 890.11 2008.1 887.57 2011.9 846.2 2032.5 839.38 2060.2 870.36 2080.3 858.65 2066.9 819.31 2083 804.68 2120.9 821.73 2134.4 802.86 2106.2 772.37 2115 752.46 2156.5 752.62 2161.2 729.87 2123.1 713.48 2123 691.74 2161 674.99 2156 652.28 2114.5 652.84 2105.6 633.02" fill="url(#em)"/>
 <radialGradient id="bu" cx="1976.2" cy="702.73" r="82.27" gradientUnits="userSpaceOnUse">
  <stop stop-color="#C4A873" offset="0"/>
  <stop stop-color="#AA863B" offset=".5"/>
  <stop stop-color="#8C6F2D" offset="1"/>
 </radialGradient>
 <circle cx="1976.2" cy="702.73" r="82.268" fill="url(#bu)"/>
 <radialGradient id="bv" cx="1334" cy="259.32" r="88.764" gradientUnits="userSpaceOnUse">
  <stop stop-color="#FCF3DD" offset="0"/>
  <stop stop-color="#FDEDC1" offset="0"/>
  <stop stop-color="#FFE18A" offset="0"/>
  <stop stop-color="#FFCD03" offset=".5506"/>
  <stop stop-color="#F7C50D" offset=".668"/>
  <stop stop-color="#E2B124" offset="1"/>
 </radialGradient>
 <polygon points="1418.5 287.61 1421.4 276.94 1403.7 268.08 1404.3 257.75 1422.8 250.87 1421.1 239.95 1401.4 239.04 1397.7 229.38 1411.8 215.55 1405.8 206.27 1387.4 213.47 1380.1 206.14 1387.4 187.77 1378.1 181.73 1364.2 195.8 1354.6 192.07 1353.8 172.32 1342.8 170.57 1335.9 189.06 1325.5 189.58 1316.8 171.88 1306.1 174.72 1307.2 194.45 1298 199.13 1282.8 186.52 1274.2 193.46 1283.3 211.01 1276.7 219.04 1257.7 213.72 1252.7 223.56 1268.1 235.89 1265.4 245.88 1245.9 248.76 1245.3 259.8 1264.4 264.79 1266 275.01 1249.3 285.6 1253.2 295.93 1272.7 292.71 1278.3 301.4 1267.4 317.86 1275.2 325.69 1291.7 314.82 1300.4 320.47 1297.1 339.95 1307.4 343.94 1318 327.29 1328.3 328.93 1333.2 348.08 1344.2 347.52 1347.2 327.98 1357.2 325.32 1369.4 340.82 1379.3 335.82 1374.1 316.76 1382.1 310.27 1399.6 319.43 1406.6 310.85 1394.1 295.58 1398.8 286.37" fill="url(#bv)"/>
 <radialGradient id="bw" cx="1334.5" cy="258.97" r="39.146" gradientUnits="userSpaceOnUse">
  <stop stop-color="#fff" offset="0"/>
  <stop stop-color="#CBE2F0" offset=".1102"/>
  <stop stop-color="#96C5E1" offset=".239"/>
  <stop stop-color="#68ABD3" offset=".3696"/>
  <stop stop-color="#4396C8" offset=".4992"/>
  <stop stop-color="#2586C0" offset=".6276"/>
  <stop stop-color="#117ABA" offset=".7546"/>
  <stop stop-color="#0473B6" offset=".8795"/>
  <stop stop-color="#0071B5" offset="1"/>
 </radialGradient>
 <circle cx="1334.5" cy="258.97" r="39.138" fill="url(#bw)"/>
 <radialGradient id="bx" cx="365.46" cy="1138" r="110.07" gradientUnits="userSpaceOnUse">
  <stop stop-color="#fff" offset="0"/>
  <stop stop-color="#D6ECEF" offset=".1175"/>
  <stop stop-color="#ACD9E0" offset=".2566"/>
  <stop stop-color="#8AC9D3" offset=".399"/>
  <stop stop-color="#6FBDC9" offset=".5431"/>
  <stop stop-color="#5CB4C2" offset=".6896"/>
  <stop stop-color="#51AFBD" offset=".8399"/>
  <stop stop-color="#4DADBC" offset="1"/>
 </radialGradient>
 <polygon points="474.55 1154.5 475.71 1140.8 452.18 1133.9 450.58 1121.2 471.67 1108.7 467.17 1095.7 442.87 1099 436.23 1088 450.41 1068 441.03 1058 420.16 1070.9 409.62 1063.5 414.44 1039.5 401.8 1034.2 387.97 1054.4 375.36 1052 369.99 1028.1 356.27 1028.4 351.87 1052.5 339.37 1055.4 324.73 1035.7 312.32 1041.6 318.11 1065.4 307.88 1073.1 286.5 1061.1 277.53 1071.5 292.52 1090.9 286.32 1102.2 261.91 1099.9 257.94 1113 279.52 1124.6 278.43 1137.4 255.2 1145.3 256.91 1158.9 281.36 1160.7 285.58 1172.9 267.54 1189.5 274.64 1201.2 297.73 1193 306.51 1202.3 296.8 1224.9 308.06 1232.7 325.8 1215.8 337.63 1220.7 337.91 1245.3 351.38 1247.8 360.7 1225.2 373.54 1224.9 383.77 1247.2 397.12 1244.1 396.41 1219.6 408.03 1214.1 426.44 1230.3 437.37 1222 426.75 1199.9 435.15 1190.2 458.55 1197.5 465.17 1185.5 446.48 1169.6 450.2 1157.3" fill="url(#bx)"/>
 <radialGradient id="by" cx="365.62" cy="1138.1" r="48.558" gradientUnits="userSpaceOnUse">
  <stop stop-color="#fff" offset="0"/>
  <stop stop-color="#FAC8E4" offset=".1144"/>
  <stop stop-color="#F697CC" offset=".2335"/>
  <stop stop-color="#F26DB7" offset=".3558"/>
  <stop stop-color="#EF4BA6" offset=".4793"/>
  <stop stop-color="#ED3099" offset=".6042"/>
  <stop stop-color="#EB1D8F" offset=".7311"/>
  <stop stop-color="#EA128A" offset=".8614"/>
  <stop stop-color="#EA0E88" offset="1"/>
 </radialGradient>
 <circle cx="365.62" cy="1138.1" r="48.557" fill="url(#by)"/>
 <radialGradient id="bz" cx="165.45" cy="996.82" r="59" gradientUnits="userSpaceOnUse">
  <stop stop-color="#E2E5F4" offset=".0056"/>
  <stop stop-color="#C7CEE9" offset=".4494"/>
  <stop stop-color="#A8B5DC" offset="1"/>
 </radialGradient>
 <polygon points="112.26 1023 115.89 1029.4 128.39 1025.3 132.96 1030.5 127.41 1042.4 133.33 1046.8 143.09 1038 149.36 1040.8 149.14 1054 156.33 1055.5 161.66 1043.5 168.55 1043.6 173.7 1055.7 180.9 1054.2 180.89 1041.1 187.2 1038.3 196.83 1047.3 202.81 1043 197.45 1031 202.1 1025.9 214.54 1030.2 218.26 1023.8 208.48 1015 210.66 1008.5 223.76 1007.3 224.59 1e3 212.08 995.99 211.41 989.14 222.9 982.75 220.69 975.74 207.61 977.12 204.21 971.13 212.12 960.62 207.24 955.12 195.86 961.7 190.32 957.62 193.26 944.8 186.57 941.76 178.85 952.4 172.13 950.92 169.6 938.01 162.25 937.96 159.53 950.82 152.78 952.2 145.23 941.43 138.49 944.37 141.23 957.23 135.63 961.24 124.35 954.47 119.39 959.9 127.13 970.53 123.64 976.47 110.59 974.88 108.26 981.86 119.65 988.42 118.88 995.26 106.31 999.12 107.02 1006.4 120.1 1007.8 122.18 1014.4" fill="url(#bz)"/>
 <radialGradient id="ca" cx="165.42" cy="997.24" r="26.044" gradientUnits="userSpaceOnUse">
  <stop stop-color="#fff" offset="0"/>
  <stop stop-color="#D9DEEC" offset=".1104"/>
  <stop stop-color="#AFB9D8" offset=".2506"/>
  <stop stop-color="#8D9BC7" offset=".3942"/>
  <stop stop-color="#7284BA" offset=".5395"/>
  <stop stop-color="#5F73B0" offset=".6871"/>
  <stop stop-color="#5469AB" offset=".8386"/>
  <stop stop-color="#5066A9" offset="1"/>
 </radialGradient>
 <circle cx="165.42" cy="997.24" r="26.04" fill="url(#ca)"/>
 <radialGradient id="cb" cx="1073.8" cy="222.09" r="87.368" gradientUnits="userSpaceOnUse">
  <stop stop-color="#fff" offset="0"/>
  <stop stop-color="#F5E6DD" offset=".1006"/>
  <stop stop-color="#E9C8B3" offset=".2424"/>
  <stop stop-color="#DFAE91" offset=".3875"/>
  <stop stop-color="#D89B76" offset=".5344"/>
  <stop stop-color="#D28D63" offset=".6837"/>
  <stop stop-color="#CF8558" offset=".8368"/>
  <stop stop-color="#CE8254" offset="1"/>
 </radialGradient>
 <polygon points="1047.9 306 1058.5 308.58 1066.8 290.98 1077 291.29 1084.2 309.35 1094.9 307.41 1095.3 287.96 1104.7 284.1 1118.7 297.67 1127.7 291.54 1120.1 273.6 1127.2 266.23 1145.4 272.96 1151.2 263.7 1137 250.37 1140.4 240.78 1159.8 239.5 1161.3 228.72 1142.9 222.31 1142.2 212.15 1159.4 203.08 1156.3 192.64 1136.9 194.26 1132.1 185.28 1144.1 170 1137.1 161.7 1120.1 171.06 1112 164.83 1116.8 145.97 1107 141.24 1095.2 156.74 1085.3 154.32 1082 135.15 1071.1 134.82 1066.7 153.76 1056.6 155.58 1045.8 139.41 1035.8 143.54 1039.4 162.65 1031 168.39 1014.5 158.02 1007 165.88 1018.1 181.86 1012.7 190.53 993.48 187.75 989.8 197.99 1006.4 208.08 1005.1 218.17 986.35 223.46 987.16 234.32 1006.5 236.76 1009.3 246.54 994.37 258.99 999.53 268.58 1018.2 262.96 1024.7 270.73 1016.1 288.19 1024.8 294.85 1039.5 282.14 1048.7 286.56" fill="url(#cb)"/>
 <radialGradient id="cd" cx="1074.1" cy="222.6" r="38.54" gradientUnits="userSpaceOnUse">
  <stop stop-color="#fff" offset="0"/>
  <stop stop-color="#FFFEFE" offset=".0023"/>
  <stop stop-color="#F8D6D5" offset=".1599"/>
  <stop stop-color="#F3B6B3" offset=".3199"/>
  <stop stop-color="#EE9C98" offset=".4829"/>
  <stop stop-color="#EB8A85" offset=".6487"/>
  <stop stop-color="#EA7F7A" offset=".8188"/>
  <stop stop-color="#E97B76" offset="1"/>
 </radialGradient>
 <circle cx="1074.1" cy="222.6" r="38.532" fill="url(#cd)"/>
 <radialGradient id="ce" cx="1545.7" cy="604.05" r="79.835" gradientUnits="userSpaceOnUse">
  <stop stop-color="#fff" offset="0"/>
  <stop stop-color="#F5E6DD" offset=".1006"/>
  <stop stop-color="#E9C8B3" offset=".2424"/>
  <stop stop-color="#DFAE91" offset=".3875"/>
  <stop stop-color="#D89B76" offset=".5344"/>
  <stop stop-color="#D28D63" offset=".6837"/>
  <stop stop-color="#CF8558" offset=".8368"/>
  <stop stop-color="#CE8254" offset="1"/>
 </radialGradient>
 <polygon points="1504.9 534.9 1496.7 540.49 1503.5 556.9 1497.1 563.61 1480.4 557.43 1475.2 565.87 1488.1 578.08 1484.9 586.83 1467.2 587.97 1465.8 597.82 1482.6 603.71 1483.3 612.99 1467.5 621.24 1470.3 630.8 1488 629.36 1492.4 637.56 1481.4 651.5 1487.8 659.11 1503.4 650.58 1510.7 656.29 1506.3 673.52 1515.3 677.85 1526.1 663.72 1535.1 665.95 1538.1 683.48 1548 683.8 1552.1 666.5 1561.3 664.86 1571.1 679.66 1580.4 675.91 1577.1 658.43 1584.8 653.21 1599.8 662.72 1606.7 655.55 1596.6 640.92 1601.5 633.02 1619.1 635.6 1622.5 626.24 1607.3 616.99 1608.5 607.77 1625.7 602.98 1624.9 593.06 1607.3 590.78 1604.7 581.84 1618.4 570.5 1613.7 561.73 1596.7 566.82 1590.7 559.71 1598.6 543.78 1590.7 537.67 1577.2 549.26 1568.8 545.2 1569.6 527.43 1559.9 525.05 1552.3 541.12 1543 540.82 1536.4 524.3 1526.7 526.05 1526.2 543.82 1517.6 547.33" fill="url(#ce)"/>
 <radialGradient id="cf" cx="1545.4" cy="603.76" r="35.21" gradientUnits="userSpaceOnUse">
  <stop stop-color="#fff" offset="0"/>
  <stop stop-color="#FDFDFE" offset=".0047"/>
  <stop stop-color="#C9C8E1" offset=".149"/>
  <stop stop-color="#9B9AC8" offset=".295"/>
  <stop stop-color="#7674B4" offset=".4399"/>
  <stop stop-color="#5A57A4" offset=".5835"/>
  <stop stop-color="#454399" offset=".7255"/>
  <stop stop-color="#393692" offset=".8652"/>
  <stop stop-color="#353290" offset="1"/>
 </radialGradient>
 <circle cx="1545.4" cy="603.76" r="35.208" fill="url(#cf)"/>
 <radialGradient id="cg" cx="2075.8" cy="1219.5" r="148.02" gradientUnits="userSpaceOnUse">
  <stop stop-color="#FCF3DD" offset="0"/>
  <stop stop-color="#FDEDC1" offset="0"/>
  <stop stop-color="#FFE18A" offset="0"/>
  <stop stop-color="#FFCD03" offset=".5506"/>
  <stop stop-color="#F7C50D" offset=".668"/>
  <stop stop-color="#E2B124" offset="1"/>
 </radialGradient>
 <polygon points="1977.6 1331 1992.1 1342.4 2017.2 1320.9 2032.7 1328.5 2031.3 1361.4 2049.2 1365.9 2063.4 1336.1 2080.6 1336.7 2092.7 1367.4 2110.9 1364.2 2111.7 1331.2 2127.7 1324.8 2151.2 1347.8 2166.5 1337.5 2153.9 1307.1 2165.9 1294.7 2196.7 1306.2 2206.5 1290.6 2182.6 1267.9 2188.5 1251.7 2221.4 1249.6 2223.9 1231.4 2192.9 1220.4 2191.7 1203.2 2220.9 1187.9 2215.8 1170.2 2182.9 1172.8 2174.8 1157.6 2195.4 1131.8 2183.5 1117.7 2154.5 1133.4 2140.9 1122.8 2149.2 1090.9 2132.6 1082.8 2112.5 1108.9 2095.8 1104.8 2090.3 1072.3 2071.9 1071.6 2064.2 1103.7 2047.2 1106.7 2029 1079.2 2011.9 1086.1 2018 1118.5 2003.7 1128.2 1975.8 1110.5 1963 1123.7 1981.7 1150.9 1972.6 1165.5 1940 1160.7 1933.7 1178 1961.8 1195.2 1959.4 1212.3 1927.6 1221.1 1928.9 1239.5 1961.6 1243.8 1966.4 1260.4 1940.9 1281.4 1949.6 1297.7 1981.2 1288.3 1992.3 1301.5" fill="url(#cg)"/>
 <radialGradient id="ch" cx="2076.1" cy="1220.4" r="65.281" gradientUnits="userSpaceOnUse">
  <stop stop-color="#fff" offset="0"/>
  <stop stop-color="#FDF4CC" offset=".1403"/>
  <stop stop-color="#FCEA9F" offset=".286"/>
  <stop stop-color="#FAE279" offset=".4327"/>
  <stop stop-color="#F9DC5C" offset=".5781"/>
  <stop stop-color="#F9D848" offset=".722"/>
  <stop stop-color="#F8D53B" offset=".8635"/>
  <stop stop-color="#F8D437" offset="1"/>
 </radialGradient>
 <circle cx="2076.1" cy="1220.4" r="65.275" fill="url(#ch)"/>
 <radialGradient id="ci" cx="1526.8" cy="1046.6" r="162.03" gradientUnits="userSpaceOnUse">
  <stop stop-color="#fff" offset="0"/>
  <stop stop-color="#FAC8E4" offset=".1144"/>
  <stop stop-color="#F697CC" offset=".2335"/>
  <stop stop-color="#F26DB7" offset=".3558"/>
  <stop stop-color="#EF4BA6" offset=".4793"/>
  <stop stop-color="#ED3099" offset=".6042"/>
  <stop stop-color="#EB1D8F" offset=".7311"/>
  <stop stop-color="#EA128A" offset=".8614"/>
  <stop stop-color="#EA0E88" offset="1"/>
 </radialGradient>
 <polygon points="1527.9 884.55 1507.7 885.62 1502.4 921.3 1484.2 926.2 1461.7 897.98 1443.7 907.15 1453.4 941.91 1438.7 953.8 1406.7 937.17 1394 952.86 1417 980.68 1408.4 997.52 1372.4 995.34 1367.2 1014.8 1399.5 1030.9 1398.5 1049.8 1364.7 1062.4 1367.9 1082.4 1404 1083.9 1410.7 1101.5 1385 1126.8 1396 1143.8 1429.6 1130.5 1442.9 1143.9 1429.7 1177.4 1446.7 1188.4 1471.9 1162.7 1489.6 1169.4 1491.2 1205.5 1511.1 1208.6 1523.7 1174.8 1542.6 1173.8 1558.7 1206.1 1578.2 1200.9 1576 1164.8 1592.8 1156.3 1620.6 1179.2 1636.3 1166.5 1619.6 1134.5 1631.5 1119.8 1666.3 1129.4 1675.4 1111.4 1647.2 1089 1652.1 1070.8 1687.7 1065.4 1688.8 1045.2 1653.9 1036.2 1650.9 1017.6 1681.3 998.18 1674.1 979.34 1638.5 985.32 1628.2 969.48 1648.1 939.39 1633.8 925.13 1603.7 945.06 1587.9 934.78 1593.8 899.2 1575 891.98 1555.6 922.41 1537 919.47" fill="url(#ci)"/>
 <radialGradient id="cj" cx="1526" cy="1046.6" r="71.448" gradientUnits="userSpaceOnUse">
  <stop stop-color="#fff" offset="0"/>
  <stop stop-color="#D9DEEC" offset=".1104"/>
  <stop stop-color="#AFB9D8" offset=".2506"/>
  <stop stop-color="#8D9BC7" offset=".3942"/>
  <stop stop-color="#7284BA" offset=".5395"/>
  <stop stop-color="#5F73B0" offset=".6871"/>
  <stop stop-color="#5469AB" offset=".8386"/>
  <stop stop-color="#5066A9" offset="1"/>
 </radialGradient>
 <circle cx="1526" cy="1046.6" r="71.442" fill="url(#cj)"/>
 <radialGradient id="ck" cx="1266.9" cy="520.64" r="148.77" gradientUnits="userSpaceOnUse">
  <stop stop-color="#77C697" offset="0"/>
  <stop stop-color="#38BC80" offset=".2573"/>
  <stop stop-color="#00B36C" offset=".5"/>
  <stop stop-color="#00B269" offset=".5432"/>
  <stop stop-color="#00A652" offset="1"/>
 </radialGradient>
 <polygon points="1400.8 454.04 1391.6 437.94 1360.1 448.34 1348.5 435.4 1362.4 405.27 1347.4 394.31 1322.9 416.62 1307.1 409.5 1307.5 376.34 1289.3 372.41 1276 402.78 1258.6 402.71 1245.5 372.25 1227.4 376.04 1227.5 409.2 1211.6 416.2 1187.3 393.7 1172.2 404.55 1185.9 434.78 1174.2 447.64 1142.8 436.99 1133.5 453.02 1158.2 475.09 1152.8 491.58 1119.8 494.64 1117.7 513.08 1149.3 523.17 1151.1 540.45 1122.2 556.67 1127.8 574.33 1160.8 570.71 1169.4 585.78 1149.6 612.36 1161.9 626.19 1190.6 609.47 1204.6 619.73 1197.3 652.08 1214.2 659.69 1233.6 632.76 1250.5 636.44 1257 668.96 1275.6 669.03 1282.3 636.56 1299.3 633.01 1318.5 660.08 1335.4 652.6 1328.4 620.2 1342.5 610.05 1371 626.99 1383.4 613.25 1363.8 586.52 1372.6 571.51 1405.5 575.39 1411.3 557.77 1382.5 541.33 1384.4 524.07 1416 514.22 1414.2 495.76 1381.2 492.46 1375.9 475.92" fill="url(#ck)"/>
 <radialGradient id="cl" cx="1267" cy="519.54" r="65.682" gradientUnits="userSpaceOnUse">
  <stop stop-color="#FFFDE3" offset=".0056"/>
  <stop stop-color="#FFFBC8" offset=".4494"/>
  <stop stop-color="#FFF78F" offset="1"/>
 </radialGradient>
 <circle cx="1267" cy="519.54" r="65.674" fill="url(#cl)"/>
 <radialGradient id="cm" cx="1212.8" cy="111.08" r="78.709" gradientUnits="userSpaceOnUse">
  <stop stop-color="#E1E4EF" offset="0"/>
  <stop stop-color="#CBD1E4" offset=".5"/>
  <stop stop-color="#B4BED8" offset="1"/>
 </radialGradient>
 <polygon points="1213.1 189.83 1222.8 189.21 1225.2 171.85 1234.1 169.39 1245.1 182.99 1253.8 178.44 1249 161.6 1256 155.76 1271.7 163.68 1277.8 156 1266.5 142.6 1270.5 134.38 1288 135.26 1290.5 125.77 1274.7 118.11 1275.1 108.94 1291.5 102.63 1289.8 92.967 1272.3 92.387 1268.9 83.856 1281.3 71.441 1275.9 63.275 1259.6 69.87 1253.1 63.45 1259.3 47.077 1251 41.825 1238.9 54.453 1230.3 51.256 1229.3 33.756 1219.6 32.324 1213.7 48.804 1204.5 49.38 1196.5 33.779 1187.1 36.416 1188.4 53.897 1180.2 58.148 1166.6 47.144 1159 53.394 1167.3 68.853 1161.6 76.044 1144.6 71.539 1140.3 80.321 1154.1 91.086 1151.8 99.973 1134.5 102.75 1134.1 112.54 1151.1 116.75 1152.7 125.8 1138 135.37 1141.6 144.48 1158.8 141.41 1163.9 149.05 1154.4 163.77 1161.4 170.63 1175.9 160.8 1183.7 165.72 1181 183.03 1190.2 186.45 1199.4 171.57 1208.5 172.91" fill="url(#cm)"/>
 <radialGradient id="co" cx="1213.2" cy="111.1" r="34.71" gradientUnits="userSpaceOnUse">
  <stop stop-color="#FFF2DB" offset="0"/>
  <stop stop-color="#D7B189" offset=".309"/>
  <stop stop-color="#92562D" offset=".7508"/>
  <stop stop-color="#8D5027" offset=".7809"/>
  <stop stop-color="#541513" offset="1"/>
 </radialGradient>
 <circle cx="1213.2" cy="111.1" r="34.707" fill="url(#co)"/>
 <radialGradient id="cp" cx="552.23" cy="573.47" r="155.33" gradientUnits="userSpaceOnUse">
  <stop stop-color="#F7977A" offset="0"/>
  <stop stop-color="#F68D71" offset=".0711"/>
  <stop stop-color="#F1563C" offset=".5"/>
  <stop stop-color="#DE3B34" offset=".745"/>
  <stop stop-color="#CE242C" offset="1"/>
 </radialGradient>
 <polygon points="527.24 419.12 508.36 423.42 509.16 458.02 492.72 465.63 466.87 442.62 451.37 454.23 466.18 485.51 454.25 499.15 421.27 488.64 411.84 505.55 438.09 528.1 432.74 545.41 398.34 549.23 396.6 568.51 429.75 578.44 431.91 596.43 402.04 613.9 408.28 632.23 442.61 627.81 451.9 643.37 431.72 671.49 444.88 685.68 474.44 667.69 489.25 678.12 482.25 712.02 500.05 719.64 519.74 691.17 537.51 694.68 544.9 728.49 564.26 728.21 570.67 694.2 588.34 690.18 608.84 718.06 626.41 709.93 618.43 676.25 632.93 665.39 663 682.52 675.75 667.95 654.76 640.43 663.59 624.61 698.03 628.02 703.74 609.53 673.38 592.92 675.01 574.88 707.86 564 705.56 544.77 671.07 541.95 665.22 524.81 690.8 501.5 680.88 484.88 648.22 496.33 635.91 483.04 649.8 451.35 633.97 440.2 608.8 463.94 592.14 456.82 591.94 422.21 572.95 418.46 559.61 450.39 541.49 450.66" fill="url(#cp)"/>
 <radialGradient id="cq" cx="551.91" cy="572.62" r="68.553" gradientUnits="userSpaceOnUse">
  <stop stop-color="#FFFBCC" offset="0"/>
  <stop stop-color="#FBF2BB" offset=".1146"/>
  <stop stop-color="#F0D98E" offset=".3413"/>
  <stop stop-color="#EED688" offset=".3708"/>
  <stop stop-color="#EBBB10" offset=".6854"/>
  <stop stop-color="#C3922E" offset="1"/>
 </radialGradient>
 <circle cx="551.91" cy="572.62" r="68.536" fill="url(#cq)"/>
</svg>
