<?xml version="1.0" encoding="UTF-8"?>
<svg version="1.1" viewBox="0 0 600 976" xmlns="http://www.w3.org/2000/svg">
 <rect width="600" height="976" fill="#fff"/>
 <g fill="#ecd1b2">
  <path d="m385.37 510.51l-43.768 39.891-18.107 184.57-71.173 50.74-73.842-7.21-67.534-82.5-7.498-166.43-30.87-13.821-0.16574 251.33-52.443 73.008-44.262 14.837 524.3 6.3697-19.734-33.893-57.462-6.0921 83.572-61.831-48.34-13.913-58.545 37.678 104.32-138.57-29.14-7.0278-34.766 10.521-60.688 89.398 10.925-142.91-4.7462-83.535"/>
 </g>
 <g fill="#465051">
  <path d="m357.52 228.8l-273.15 9.3353q39.499 386.23 24.992 389.82l227.87 1.0616 20.262-399.58"/>
 </g>
 <g fill="#fff">
  <path d="m347.98 260.62l-242.96 12.83q23.705 302.6 24.681 324.49l97.656-0.0267 89.663 3.6438 30.92-340.47"/>
 </g>
 <g fill="#e1e8f1">
  <path d="m592.94 316.23l-307.02-7.827-118.73 2.4051-4.9055 174.31 38.85 44.421 0.48819 6.4802 46.956-48.247 346.07-4.3037-1.6969-167.21"/>
 </g>
 <g fill="#4367a3">
  <path d="m238.72 366.93l-20.253 6.8528-0.82366 22.231 4.0254 6.5561 1.0401 12.189-25.958 16.882-0.64171 10.408 76.648 0.31693-3.5245-8.1339-0.95746-4.7508-6.7276-3.2358-5.5842-4.9092-6.6902-2.9575-6.5168-4.4011 3.6117-9.6848 3.466-6.1825q-0.34639-3.6747-0.6114-20.327l-10.43-10.778"/>
 </g>
 <g fill="#4367a3">
  <path d="m273.07 360.58q-1.8996 2.7881-2.8672 3.0119-1.2198 0.7135-5.1308-0.13553l-6.8693 3.5863-2.0022 6.5047-1.3096 8.2054 0.92422 3.1212 1.7673 1.3557 0.08594 2.0855-1.3534 1.3785-0.06335 3.7229 0.9676 5.6503 4.701 2.5433 0.97797 10.75-3.6504 2.4509 0.18792 1.924 19.068 11.036q-0.20407 2.7002-0.40655 14.451 2.6543-0.31608 3.714-0.20606l7.146 1.0326q4.0468-0.05792 13.485-0.49505l7.2786 0.91717 2.705-0.80154-0.6312-2.5979-1.1942-8.89-3.3528-4.0684q-1.6147-1.3919-10.468-5.4047l-2.84-2.303-7.9041-3.175-0.75054-2.3394q0.29448-5.743 0.0288-12.461 2.4492-0.04782 2.9319-0.53168 1.0135-0.69592 1.5559-2.4468 0.65078-2.1138 0.63546-3.7652 0.16664-1.0463-1.1479-3.6114-0.19052-0.19604 0.37396-2.1772 0.01675-0.39842-0.03198-0.47178-0.26297-0.70349-1.5378-0.70807-8.0159 0.99289-10.006 0.31509-3.0955-0.62249-4.5764-3.0799-1.5032-2.545-1.5992-8.1104-0.03527-2.5014 0.18378-5.3465l1.0418-9.4582q0.12038-1.1579-0.00373-1.4179"/>
 </g>
 <g fill="#f6593a">
  <path d="m313.78 349.04l-45.751 0.97974q-0.67185-0.01779-0.46112 0.07428 2.6135 36.247 2.8916 38.272l41.581-0.53159 0.08194-0.00845 1.6541-38.71"/>
 </g>
 <g fill="#4268a5">
  <path d="m362.77 387.88l-18.874-0.6093-0.0283 0.08304 0.4865 41.864 8.855 14.249 11.15-12.665 43.103-0.7497 0.01634-0.08885-1.3106-14.521-42.423-1.0099-0.97065-26.468"/>
 </g>
 <g fill="#4268a5">
  <path d="m407 369.48l-41.548 0.60199-0.0015 0.10211 1.3414 40.153 37.986 0.40443 16.407 13.145 0.18628-13.478 7.001-0.07849 0.0183-0.08873-0.58498-23.482-20.345 0.21422-0.45812-17.422"/>
 </g>
 <g fill="#ea5632">
  <path d="m442.44 348.91l-35.863 2.2251-0.54414 11.935 0.52522 24.619 37.32 0.0076-1.4367-38.76"/>
 </g>
 <g fill="#4269a7">
  <path d="m504.93 364.86q-16.096 0.32824-27.482 11.51-11.138 11.666-11.273 27.467 0.32157 16.091 11.389 27.425 11.461 11.151 27.548 11.393 16.097-0.28475 27.517-11.441 11.17-11.644 11.341-27.445-0.22805-16.033-11.435-27.562-11.483-11.134-27.572-11.347"/>
 </g>
 <g fill="#ef583c">
  <path d="m554.48 347.19l-38.614 1.9709 1.5402 37.102 37.021-0.86151 0.05231-38.182"/>
 </g>
 <g fill="#ffc98b">
  <path d="m71.682 537.11l-0.11364 47.398 16.594-5.1366 1.7663-6.2984 0.7051-10.31-2.6527-17.277-16.267-8.3599"/>
 </g>
 <g fill="#ffc98b">
  <path d="m386.11 528.89q-4.3123 4.769-6.6004 9.984l-3.5748 7.4462q-0.4794 1.0263-0.77451 1.8584-0.91849 2.5433-0.75687 5.0785 0.16144 3.8706 3.4324 9.7044 2.8977 5.374 11.411 17.186l-3.1338-51.204"/>
 </g>
 <g fill="#ffc98b">
  <path d="m493.69 657.49l-18.151 2.5194-11.708 23.696 6.1714 5.6872 23.677-31.888"/>
 </g>
 <g fill="#ffc98b">
  <path d="m493.05 769.75l-8.8849-0.46942-12.852 10.767-2.8198 8.019 24.527-18.294"/>
 </g>
</svg>
