<?xml version="1.0" encoding="UTF-8"?>
<svg version="1.1" viewBox="0 0 1000 1000" xmlns="http://www.w3.org/2000/svg">
 <g transform="translate(0 -52.362)">
  <circle cx="500" cy="552.36" r="443.92" fill="#409fe2"/>
  <path d="m520.7 432.15 13.408 13.408 89.698-89.698 10.312 10.312-333.32 333.32 68.066 68.066 357.07-357.07-60.148-60.148-7.9183-7.9183-23.72-23.72zm-225.6 273.04-35.443 90.865 12.644 12.644 90.865-35.443zm368.47-368.47 68.066 68.066 32.527-32.527-68.066-68.066zm-407.42 467.22-4.3056 11.04 1.5357 1.5356 11.038-4.3076z" fill-opacity=".13333"/>
  <path d="m512.7 424.15 13.408 13.408 89.698-89.698 10.312 10.312-333.32 333.32 68.066 68.066 357.07-357.07-60.148-60.148-7.9183-7.9183-23.72-23.72zm-225.6 273.04-35.443 90.865 12.644 12.644 90.865-35.443zm368.47-368.47 68.066 68.066 32.527-32.527-68.066-68.066zm-407.42 467.22-4.3056 11.04 1.5357 1.5356 11.038-4.3076z" fill="#e4ff1e"/>
 </g>
</svg>
