<?xml version="1.0" encoding="UTF-8"?>
<svg version="1.1" viewBox="0 0 1000 1000" xmlns="http://www.w3.org/2000/svg">
 <g transform="translate(0 -52.362)">
  <circle cx="500" cy="552.36" r="443.92" fill="#409fe2"/>
  <circle cx="500" cy="552.36" r="238.04" fill="none" stroke="#e4ff1e" stroke-linecap="round" stroke-linejoin="round" stroke-width="44"/>
  <circle cx="500" cy="552.36" r="153.62" fill="none" stroke="#e4ff1e" stroke-linecap="round" stroke-linejoin="round" stroke-width="22"/>
  <circle cx="500" cy="552.36" r="81.07" fill="none" stroke="#e4ff1e" stroke-linecap="round" stroke-linejoin="round" stroke-width="11"/>
  <path transform="translate(0 52.362)" d="m499.83 146.47c-6.0705 0.0916-10.919 5.0837-10.834 11.154l7 338.38-338.38-7c-6.136-0.0868-11.157 4.8634-11.157 11s5.0207 11.087 11.157 11l338.38-7-7 338.38c-0.0868 6.136 4.8634 11.157 11 11.157s11.087-5.0207 11-11.157l-7-338.38 338.38 7c6.136 0.0868 11.157-4.8634 11.157-11s-5.0207-11.087-11.157-11l-338.38 7 7-338.38c0.0871-6.2007-4.9654-11.248-11.166-11.154z" color="#000000" color-rendering="auto" fill="#e4ff1e" fill-rule="evenodd" image-rendering="auto" shape-rendering="auto" solid-color="#000000" style="block-progression:tb;isolation:auto;mix-blend-mode:normal;text-decoration-color:#000000;text-decoration-line:none;text-decoration-style:solid;text-indent:0;text-transform:none;white-space:normal"/>
 </g>
</svg>
