<?xml version="1.0" encoding="UTF-8" standalone="no"?>
<!-- Generator: Adobe Illustrator 19.0.0, SVG Export Plug-In . SVG Version: 6.00 Build 0)  -->

<svg
   xmlns:dc="http://purl.org/dc/elements/1.1/"
   xmlns:cc="http://creativecommons.org/ns#"
   xmlns:rdf="http://www.w3.org/1999/02/22-rdf-syntax-ns#"
   xmlns:svg="http://www.w3.org/2000/svg"
   xmlns="http://www.w3.org/2000/svg"
   xmlns:sodipodi="http://sodipodi.sourceforge.net/DTD/sodipodi-0.dtd"
   xmlns:inkscape="http://www.inkscape.org/namespaces/inkscape"
   version="1.1"
   id="Layer_1"
   x="0px"
   y="0px"
   viewBox="0 0 504 504"
   style="enable-background:new 0 0 504 504;"
   xml:space="preserve"
   sodipodi:docname="shopping-cart.svg"
   inkscape:version="0.92.2 (5c3e80d, 2017-08-06)"><metadata
     id="metadata264"><rdf:RDF><cc:Work
         rdf:about=""><dc:format>image/svg+xml</dc:format><dc:type
           rdf:resource="http://purl.org/dc/dcmitype/StillImage" /></cc:Work></rdf:RDF></metadata><defs
     id="defs262" /><sodipodi:namedview
     pagecolor="#ffffff"
     bordercolor="#666666"
     borderopacity="1"
     objecttolerance="10"
     gridtolerance="10"
     guidetolerance="10"
     inkscape:pageopacity="0"
     inkscape:pageshadow="2"
     inkscape:window-width="1920"
     inkscape:window-height="1017"
     id="namedview260"
     showgrid="false"
     inkscape:zoom="1.6825397"
     inkscape:cx="252"
     inkscape:cy="252"
     inkscape:window-x="-8"
     inkscape:window-y="-8"
     inkscape:window-maximized="1"
     inkscape:current-layer="Layer_1" /><circle
     style="fill:#FD8469;"
     cx="252"
     cy="252"
     r="252"
     id="circle205" /><path
     style="fill:#E6E9EE;"
     d="M381.1,193.5v-30.9h-15.2c-1.5-6.4-4-12.5-7.3-18l10.8-11l-21.3-21.8l-10.8,11  c-5.4-3.4-11.3-5.9-17.6-7.5V99.7h-30.1v15.6c-6.3,1.6-12.2,4.1-17.6,7.5l-10.8-11l-21.3,21.8l10.8,11c-3.3,5.5-5.7,11.6-7.3,18  h-15.2v30.9h15.2c1.5,6.4,4,12.5,7.3,18l-10.8,11l21.3,21.8l10.8-11c5.4,3.4,11.3,5.9,17.6,7.5v15.6h30.1v-15.6  c6.3-1.6,12.2-4.1,17.6-7.5l10.8,11l21.3-21.8l-10.8-11c3.3-5.5,5.7-11.6,7.3-18L381.1,193.5L381.1,193.5z M304.6,223.2  c-5.9,0-11.4-1.2-16.5-3.3c-10.2-4.3-18.6-12.4-23.3-22.6c-2.7-5.8-4.2-12.3-4.2-19.2c0-24.9,19.7-45.1,44-45.1s44,20.2,44,45.1  S328.9,223.2,304.6,223.2z"
     id="path207" /><path
     style="fill:#FFD05B;"
     d="M201.5,185.5l29.9,101.4c1,3.5,4.2,5.9,7.8,5.9H370c3.6,0,6.7-2.4,7.8-5.9l29.9-101.4  c1.6-5.4-2.3-10.7-7.8-10.7H209.3C203.9,174.8,200,180.2,201.5,185.5z"
     id="path209" /><ellipse
     style="fill:#324A5E;"
     cx="236.2"
     cy="380.1"
     rx="33.7"
     ry="34.6"
     id="ellipse211" /><path
     style="fill:#2B3B4E;"
     d="M236.2,398.3c-9.8,0-17.8-8.2-17.8-18.3s8-18.3,17.8-18.3S254,369.9,254,380S246.1,398.3,236.2,398.3  z"
     id="path213" /><ellipse
     style="fill:#324A5E;"
     cx="334.4"
     cy="380.1"
     rx="33.7"
     ry="34.6"
     id="ellipse215" /><path
     style="fill:#2B3B4E;"
     d="M334.4,398.3c-9.8,0-17.8-8.2-17.8-18.3s8-18.3,17.8-18.3s17.8,8.2,17.8,18.3  S344.2,398.3,334.4,398.3z"
     id="path217" /><path
     style="fill:#324A5E;"
     d="M369.3,330.6H200.1l-45.6-153.4c-5.1-17.1-20.4-28.7-37.9-28.7h-16c-4.2,0-7.6-3.5-7.6-7.7l0,0  c0-4.3,3.4-7.7,7.6-7.7h15.9c24.1,0,45.3,16.1,52.3,39.7l42.3,142.4h158c4.2,0,7.6,3.5,7.6,7.7l0,0  C376.8,327.2,373.5,330.6,369.3,330.6z"
     id="path219" /><g
     id="g227"><rect
       x="230.8"
       y="195.3"
       style="fill:#FFFFFF;"
       width="147.7"
       height="12.2"
       id="rect221" /><rect
       x="246.6"
       y="227.7"
       style="fill:#FFFFFF;"
       width="116.2"
       height="12.2"
       id="rect223" /><rect
       x="265.4"
       y="260.1"
       style="fill:#FFFFFF;"
       width="78.4"
       height="12.2"
       id="rect225" /></g><g
     id="g229" /><g
     id="g231" /><g
     id="g233" /><g
     id="g235" /><g
     id="g237" /><g
     id="g239" /><g
     id="g241" /><g
     id="g243" /><g
     id="g245" /><g
     id="g247" /><g
     id="g249" /><g
     id="g251" /><g
     id="g253" /><g
     id="g255" /><g
     id="g257" /><path
     style="fill:#dd55ff;fill-opacity:1;stroke-width:0.59433961"
     d="M 233.87264,503.10472 C 185.54405,499.48248 139.02945,482.04686 100.74057,453.20123 81.675875,438.8385 63.321116,420.32499 49.518189,401.53585 21.974769,364.04255 5.503768,320.53705 1.140066,273.75283 0.24282233,264.13328 0.23935881,239.87136 1.1338723,230.36604 6.6921881,171.30202 31.264097,117.76545 71.879695,76.227082 92.879111,54.750556 115.38987,38.595019 142.77491,25.346946 168.7487,12.781598 194.06617,5.4324059 224.06604,1.7496441 234.9171,0.41757517 266.3246,0.23465189 277.25943,1.4398355 318.27138,5.9599688 355.66359,19.19947 389.4576,41.16596 c 42.93785,27.910099 76.99402,69.30263 96.00855,116.69064 32.77949,81.69305 20.80123,174.19297 -31.67066,244.57076 -47.81696,64.13438 -123.63713,101.89864 -203.28134,101.24969 -5.55707,-0.0453 -13.04575,-0.30282 -16.64151,-0.57233 z m 10.99528,-89.49059 c 10.54726,-2.87954 19.38664,-11.20209 23.28678,-21.9252 1.58762,-4.365 2.15909,-14.34028 1.10176,-19.23131 -1.24537,-5.76083 -4.95018,-12.6145 -9.08998,-16.8159 -6.7511,-6.85153 -14.35329,-10.12699 -23.61931,-10.17653 -9.54975,-0.0511 -17.08243,3.02546 -23.77967,9.71217 -6.81564,6.80493 -10.3006,15.2503 -10.3006,24.96226 0,22.86464 20.88112,39.34974 42.40102,33.47451 z m 97.17453,0.30155 c 11.29754,-2.34106 21.33404,-12.19097 25.02912,-24.56379 1.68589,-5.64514 1.42899,-14.22743 -0.6049,-20.20755 -5.02603,-14.77778 -17.40591,-23.81082 -32.4478,-23.67571 -14.25511,0.12804 -26.39073,8.99809 -31.63411,23.12169 -1.09512,2.94983 -1.31241,4.78776 -1.33033,11.25213 -0.0247,8.92216 1.07417,13.14546 4.97813,19.13206 8.10438,12.4278 21.43893,17.96055 36.00989,14.94117 z m 31.02539,-84.27087 c 4.91803,-2.99869 4.92872,-10.45321 0.0193,-13.42281 -1.87884,-1.13646 -3.71797,-1.16609 -81.90493,-1.31953 L 211.19924,314.7455 189.91713,242.98737 C 178.21196,203.52041 167.83861,169.2794 166.86525,166.89626 160.63645,151.646 147.4254,139.88071 130.92223,134.8867 c -4.83256,-1.46237 -6.21054,-1.59745 -18.59204,-1.82256 -12.26555,-0.22301 -13.541055,-0.15019 -15.406907,0.87955 -5.267745,2.90719 -5.382833,10.26264 -0.213611,13.65228 1.360954,0.89243 3.592008,1.10115 14.998798,1.4032 14.62864,0.38737 16.2174,0.70301 23.75198,4.7189 6.77196,3.60942 13.71646,11.20277 16.90047,18.47954 0.76818,1.75561 11.78432,38.16147 24.4803,80.90192 l 23.0836,77.7099 85.62014,-0.002 c 83.87081,-0.002 85.65901,-0.0259 87.52288,-1.1624 z m 1.18868,-38.03773 c 1.04652,-0.6381 2.28466,-1.9075 2.75144,-2.82089 0.98693,-1.93123 31.31736,-104.63785 31.29335,-105.96732 -0.009,-0.49033 -0.53609,-2.03722 -1.17165,-3.43753 -1.88542,-4.15411 -4.17222,-4.85432 -15.9056,-4.87018 l -9.65802,-0.013 v -5.94339 -5.9434 h -7.66853 -7.66853 l -1.30716,-4.30896 c -0.71893,-2.36993 -2.3642,-6.429 -3.65615,-9.02016 l -2.34899,-4.71118 5.44978,-5.47254 5.44977,-5.47252 -10.89207,-11.10955 -10.89207,-11.10955 -5.34969,5.43686 -5.3497,5.43687 -5.66871,-2.66666 c -3.11779,-1.46666 -7.07283,-3.11185 -8.78899,-3.65598 l -3.12028,-0.98933 v -7.67865 -7.678649 H 304.59906 289.4434 v 7.649349 7.64934 l -4.60614,1.62274 c -2.53337,0.8925 -6.43014,2.57485 -8.65948,3.73856 l -4.05335,2.11584 -5.51415,-5.49122 -5.51414,-5.49121 -10.34288,10.76278 c -5.68859,5.91952 -10.44182,11.0515 -10.56273,11.40437 -0.12093,0.35288 2.10874,2.98103 4.9548,5.84035 l 5.17466,5.19875 -1.84623,3.65737 c -1.01543,2.01155 -2.63128,5.99477 -3.59077,8.85159 l -1.74454,5.19422 -7.45602,0.16634 -7.45601,0.16634 v 5.92565 5.92563 h -9.91613 c -11.87708,0 -14.12341,0.69032 -16.19909,4.97809 -0.67343,1.39111 -1.22578,2.91288 -1.22746,3.38173 -0.005,1.33886 30.35669,104.06983 31.30642,105.92826 0.46677,0.91339 1.70492,2.18279 2.75143,2.82089 1.85779,1.13276 3.50371,1.16017 69.65747,1.16017 66.15375,0 67.79968,-0.0274 69.65746,-1.16017 z"
     id="path272"
     inkscape:connector-curvature="0" /><path
     style="fill:#ff80e5;fill-opacity:1;stroke-width:0.59433961"
     d="M 231.49528,502.75199 C 183.67298,498.40484 138.77815,481.33155 101.33491,453.25261 51.999924,416.25598 17.706511,362.05648 5.6233651,301.98396 1.665278,282.30595 0.94715525,274.63907 0.94715525,252.05943 c 0,-17.55109 0.17378175,-21.4967 1.32195495,-30.01415 C 9.9781611,164.85755 33.089392,116.54866 71.61572,77.091596 86.215066,62.139563 97.548909,52.694537 113.27675,42.373511 145.65835,21.123846 179.33537,8.4441943 218.8394,2.6283759 c 8.22208,-1.2104613 11.3594,-1.3402216 32.86343,-1.3592386 26.2686,-0.02323 29.77977,0.2734811 49.33019,4.1686568 26.35507,5.2509169 52.10512,14.8278669 75.48113,28.0729179 8.61438,4.880979 24.82541,15.936153 32.98585,22.494828 9.42601,7.575831 24.55994,22.179029 32.5638,31.421818 41.12586,47.491842 62.80423,108.075762 61.1423,170.872642 -0.36949,13.96154 -1.30259,23.94198 -3.36047,35.94357 -10.61182,61.88842 -43.89228,117.55501 -93.31733,156.08731 -37.57444,29.29343 -83.11878,47.40124 -130.68322,51.95785 -8.34993,0.79992 -37.31767,1.1025 -44.3498,0.46326 z m 15.38201,-89.62888 c 8.12744,-2.81899 15.25112,-9.04816 19.32548,-16.89881 2.72472,-5.25009 3.62742,-9.47501 3.62742,-16.97747 0,-26.8437 -29.90563,-43.16954 -52.09648,-28.44009 -6.70007,4.44726 -12.61895,13.00411 -14.53432,21.01213 -0.43003,1.79788 -0.78186,5.54221 -0.78186,8.32075 0,6.18987 0.9383,10.29949 3.60989,15.81065 7.37996,15.22399 25.05095,22.65268 40.84987,17.17284 z m 96.62563,0.49924 c 15.21581,-4.21683 25.91638,-19.70232 24.73812,-35.80014 -0.67751,-9.25642 -4.40472,-17.16611 -11.04816,-23.44578 -6.47127,-6.11694 -13.90536,-8.98539 -23.17401,-8.94172 -13.08352,0.0616 -23.90773,7.09403 -30.09117,19.54995 l -2.89468,5.83105 0.003,8.67375 c 0.002,6.9067 0.22957,9.33969 1.11487,11.94262 3.36039,9.88005 12.36156,18.91537 21.86705,21.94999 5.41385,1.72837 13.74467,1.8311 19.48491,0.24028 z m 30.33525,-84.29736 c 4.26079,-3.85626 3.87226,-10.68842 -0.75153,-13.2154 -1.80223,-0.98495 -6.88322,-1.06861 -81.82457,-1.34733 l -79.90303,-0.29717 -7.93622,-26.74528 c -16.61573,-55.99547 -32.91264,-110.22047 -35.13781,-116.91458 -4.82216,-14.50687 -14.45502,-25.54301 -28.31803,-32.44333 -9.21982,-4.58916 -11.36407,-5.01043 -27.09175,-5.32258 -15.640584,-0.31043 -16.736862,-0.10273 -18.993628,3.5985 -2.060267,3.37894 -1.290989,7.35671 2.021093,10.45062 1.456917,1.36094 2.075054,1.445 15.955055,2.16949 11.98103,0.62537 15.00206,0.96625 17.74409,2.00216 10.41669,3.93531 19.79289,13.23379 23.15846,22.96651 1.50168,4.3426 18.73048,61.6025 33.25458,110.52151 5.92023,19.9401 11.4308,38.46559 12.24572,41.16775 l 1.48166,4.91304 86.39204,-0.15832 c 85.41086,-0.15651 86.40694,-0.1718 87.70387,-1.34559 z m 1.74243,-38.63348 c 1.53651,-1.55341 2.75983,-5.11795 9.49976,-27.68065 13.2221,-44.26253 22.65857,-76.82108 22.98372,-79.30048 0.37159,-2.83364 -1.00316,-5.84392 -3.50926,-7.68417 -1.52036,-1.1164 -2.66777,-1.24923 -12.33255,-1.42764 l -10.65623,-0.19672 v -5.89526 -5.89527 h -7.60315 -7.60314 l -0.74582,-2.82311 c -0.4102,-1.55271 -1.97241,-5.58175 -3.47158,-8.95343 l -2.72576,-6.13031 2.00253,-2.19044 c 1.10139,-1.20474 3.44993,-3.70905 5.21897,-5.56512 l 3.21645,-3.37467 -10.63718,-11.03207 c -5.85044,-6.06765 -10.82881,-11.03477 -11.06304,-11.03807 -0.23423,-0.004 -2.72418,2.37815 -5.53322,5.29209 l -5.10736,5.29807 -5.53742,-2.5701 c -3.04557,-1.41354 -7.04135,-3.04416 -8.87951,-3.62358 l -3.34209,-1.05351 V 107.2292 99.611321 H 304.59906 289.4434 v 7.579799 7.57981 l -4.0118,1.39723 c -2.20648,0.76847 -6.03704,2.40637 -8.51235,3.63977 l -4.50057,2.24254 -5.60321,-5.25234 c -3.08176,-2.88878 -5.8,-5.1962 -6.04052,-5.12759 -0.81995,0.23389 -20.66174,21.49729 -20.66174,22.14209 0,0.35329 0.82748,1.42787 1.83885,2.38797 1.01137,0.96009 3.18098,3.28755 4.82136,5.17213 l 2.98251,3.42649 -2.08118,4.89426 c -1.14464,2.69184 -2.68146,6.56584 -3.41514,8.60888 l -1.33398,3.71462 h -3.69638 c -2.03301,0 -5.34034,0.17183 -7.34961,0.38184 l -3.65322,0.38183 v 5.81153 5.81153 l -10.87493,0.19579 c -12.33099,0.222 -13.14405,0.47433 -15.32909,4.75736 -0.92569,1.8145 -1.16182,3.05944 -0.89583,4.72291 0.35451,2.21694 14.8473,51.85225 25.40232,86.99853 5.53859,18.44252 6.54712,20.66647 9.6544,21.28959 0.69046,0.13846 31.94051,0.2191 69.44454,0.1792 l 68.18915,-0.0726 z"
     id="path274"
     inkscape:connector-curvature="0" /></svg>