<?xml version="1.0" encoding="UTF-8"?>
<svg enable-background="new 0 0 873.997 1649.998" version="1.1" viewBox="0 0 873.997 1649.998" xmlns="http://www.w3.org/2000/svg">
 <g fill="none" stroke="#000" stroke-miterlimit="10">
  <path d="m820.87 1580.2c-0.071-0.027-0.136-0.061-0.205-0.091l2.517 19.3 16.299-0.509c-9.414-15.739-13.08-16.176-18.611-18.7z"/>
  <path d="m837.24 1613.8c2.029-0.947 3.739-2.262 4.647-4.253 1.114-3.395-0.427-6.929-1.959-9.923-0.153-0.259-0.301-0.503-0.451-0.755l-16.299 0.509 14.062 14.422z"/>
  <path d="m820.06 1619.9c1.169-0.485 2.278-1.11 3.292-1.894 2.26-1.847 9.02-1.942 13.893-4.216l-14.061-14.421-3.124 20.531z"/>
  <path d="m823.18 1599.4l-2.517-19.3c-2.701-1.163-3.82-4.441-6.672-5.349-3.351-1.071-7.312-1.036-9.853-3.804-1.504-1.474-2.969-2.922-4.416-4.359l-19.562 14.804 43.02 18.008z"/>
  <path d="m795.21 1617.5c4.293 0.457 8.864 1.396 13.745 3.509 3.645 0.54 7.64 0.33 11.104-1.109l3.124-20.531-27.973 18.131z"/>
  <path d="m782.12 784.8c-1.847-2.123-3.898-4.121-5.01-6.736-2.507-5.261-4.942-10.392-7.311-15.403l-6.648 20.315 18.969 1.824z"/>
  <path d="m780.16 1581.4l-7.036 33.9c6.465 2.281 13.749 1.353 22.083 2.241l27.974-18.131-43.021-18.01z"/>
  <path d="m782.86 1549.3c-4.429-4.678-8.53-9.147-12.332-13.425l-4.366 11.46 16.698 1.965z"/>
  <path d="m792.78 847.79c0.626-1.177 1.267-2.393 1.94-3.694 3.213-6.885 3.183 1.087-3.163-21.804l-23.403 8.708 24.626 16.79z"/>
  <path d="m780.16 1581.4l19.562-14.804c-6.098-6.055-11.709-11.795-16.871-17.248l-16.698-1.964 14.007 34.016z"/>
  <path d="m786.61 798.62c-0.131-2.732-0.282-5.457-1.028-8.094-0.631-2.241-1.98-4.02-3.459-5.72l-18.97-1.824 23.457 15.638z"/>
  <path d="m768.9 836.68c0.869-0.893 1.799-1.828 2.811-2.817-0.06 4.372-0.683 8.179-1.671 11.556l3.36 25.762c4.043-0.504 7.892-1.782 19.385-23.388l-24.626-16.79 0.741 5.677z"/>
  <path d="m768.16 831l23.403-8.708c-1.145-4.132-2.496-9.264-4.071-15.677-0.639-2.62-0.749-5.313-0.878-8l-23.457-15.638 5.003 48.023z"/>
  <path d="m745.97 856.06c11.871-3.236 10.338-6.432 22.93-19.375l-0.74-5.677-22.19 25.052z"/>
  <path d="m754.28 871.11l12.499 3.716c1.14-1.264 2.365-2.425 3.882-3.225 0.977-0.239 1.864-0.314 2.742-0.424l-3.36-25.762c-3.56 12.166-11.866 18.718-15.763 25.695z"/>
  <path d="m741.41 1584.5c9.849 9.951 14.681 17.973 25.386 27.132 2.02 1.72 4.127 2.866 6.328 3.642l7.036-33.9-38.75 3.126z"/>
  <path d="m763.16 782.98l6.648-20.315c-5.112-10.812-9.901-21.036-14.418-30.746l-26.247 4.038 34.017 47.023z"/>
  <path d="m737.9 1493.2c-2.708-4.413-5.035-8.596-7.065-12.609l-10.698 7.739 17.763 4.87z"/>
  <path d="m763.16 782.98l-14.464 27.613c1.648 6.605 1.937 11.948 1.267 16.366l18.199 4.044-5.002-48.023z"/>
  <path d="m766.16 1547.4l4.366-11.46c-14.886-16.75-25.192-30.587-32.625-42.698l-17.763-4.87 46.022 59.028z"/>
  <polygon points="763.16 782.98 729.14 735.96 734.14 778.98"/>
  <path d="m730.83 1480.6c-1.135-2.243-2.177-4.433-3.141-6.579l-7.557 14.318 10.698-7.739z"/>
  <polygon points="733.14 1555.4 780.16 1581.4 766.16 1547.4"/>
  <path d="m755.38 731.92c-2.775-5.964-5.45-11.738-8.022-17.311l-18.225 21.349 26.247-4.038z"/>
  <path d="m733.14 1555.4l-7.474 15.446c6.652 5.049 11.636 9.539 15.747 13.692l38.749-3.125-47.022-26.013z"/>
  <polygon points="720.13 1488.3 733.14 1555.4 766.16 1547.4"/>
  <path d="m752.61 875.1c0.618 3.212 3.499 6.432 6.92 6.459 3.102-1.372 5.006-4.254 7.243-6.733l-12.499-3.716c-0.728 1.302-1.303 2.619-1.664 3.99z"/>
  <path d="m749.96 826.96c-0.932 6.146-3.719 10.501-7.296 13.954-1.073 0.975-2.192 1.772-3.311 2.464l-1.455 14.908c1.432-0.511 2.886-1.007 4.261-1.287 1.415-0.321 2.668-0.632 3.81-0.944l22.189-25.052-18.198-4.043z"/>
  <path d="m739.52 697.56c-6.376-13.916-12.102-26.519-17.341-38.018l-5.05 40.4 22.391-2.382z"/>
  <path d="m734.14 778.98l3.631 23.86c2.263 0.48 4.533 0.953 6.841 0.838 1.166-0.209 2.385 0.47 2.585 1.732 0.587 1.81 1.082 3.537 1.493 5.185l14.464-27.613-29.014-4.002z"/>
  <path d="m729.14 735.96l18.225-21.349c-2.718-5.89-5.331-11.575-7.839-17.05l-22.391 2.382 12.005 36.017z"/>
  <path d="m717.13 699.94l5.05-40.4c-1.377-3.022-2.721-5.971-4.033-8.842l-24.028 27.232 23.011 22.01z"/>
  <path d="m708.66 630.06c-4.355-9.368-8.376-17.834-12.206-25.577l-10.331 5.412 22.537 20.165z"/>
  <polygon points="690.12 1499.3 733.14 1555.4 720.13 1488.3"/>
  <polygon points="678.11 1542.3 733.14 1555.4 690.12 1499.3"/>
  <path d="m702.05 784.08c0.298 2.73 0.434 5.461-0.125 8.19-1.913 10.868-3.609 17.395-4.871 21.936l37.085-35.231-32.089 5.105z"/>
  <path d="m705.95 1400.8c-3.069-12.144-5.735-23.192-8.066-33.289l-14.768 4.747 22.834 28.542z"/>
  <path d="m728.05 855.66l3.816 4.349c1.717-0.129 3.849-0.94 6.033-1.719l1.455-14.908c-5.889 3.64-11.804 4.344-11.304 12.278z"/>
  <path d="m695.76 818.86l17.28 19.691c2.221-5.695 4.212-11.777 6.064-17.307l-22.93-3.903c-0.149 0.533-0.287 1.037-0.414 1.519z"/>
  <path d="m697.06 814.21c-0.323 1.162-0.618 2.196-0.88 3.137l22.93 3.903c3.4-10.154 6.335-18.433 9.377-18.948 3.137-0.783 6.207-0.116 9.289 0.537l-3.631-23.86-37.085 35.231z"/>
  <path d="m729.14 735.96l-27.665 35.469c-0.724 4.211 0.117 8.433 0.579 12.657l32.089-5.105-5.003-43.021z"/>
  <path d="m728.14 856.7c0.34 2.705 1.76 3.449 3.72 3.302l-3.816-4.349c0.021 0.337 0.051 0.683 0.096 1.047z"/>
  <path d="m697.53 841.01c0.9 4.709 12.477 6.417 14.057 1.132 0.496-1.17 0.979-2.369 1.453-3.584l-17.28-19.691c-1.606 6.082-1.463 8.662 1.77 22.143z"/>
  <path d="m694.12 677.93l24.028-27.232c-0.665-1.457-1.323-2.895-1.973-4.314l-21.055 6.534-1 25.012z"/>
  <path d="m720.13 1488.3l7.557-14.318c-3.188-7.099-5.52-13.725-7.519-20.241l-46.06 3.543 46.022 31.016z"/>
  <path d="m720.17 1453.8c-1.114-3.631-2.127-7.229-3.126-10.856-1.817-6.648-3.535-13.034-5.161-19.176l-37.773 33.576 46.06-3.544z"/>
  <path d="m697.88 1367.5c-2.5-10.83-4.617-20.569-6.438-29.405l-8.33 34.151 14.768-4.746z"/>
  <path d="m682.12 1405.3l27.247 8.837c-1.19-4.579-2.327-9.013-3.413-13.311l-22.834-28.542-1 33.016z"/>
  <path d="m710.2 739.53c1.302 6.205-5.111 16.192-8.513 30.825-0.085 0.357-0.148 0.713-0.21 1.07l27.665-35.469-18.942 3.574z"/>
  <path d="m678.11 1542.3l18.28 20.108c6.914 1.403 14.98 2.916 24.36 4.733 1.735 1.236 3.368 2.438 4.913 3.611l7.474-15.446-55.027-13.006z"/>
  <path d="m696.45 604.48c-6.675-13.494-12.772-24.787-19.043-34.799l8.712 40.211 10.331-5.412z"/>
  <path d="m717.13 699.94l-19.091 21.419c5.901 7.298 10.2 13.266 11.718 16.809 0.195 0.432 0.335 0.888 0.435 1.364l18.943-3.574-12.005-36.018z"/>
  <path d="m682.17 1559.3c4.075 1.057 8.789 2.091 14.22 3.193l-18.28-20.108 4.06 16.915z"/>
  <path d="m695.12 652.92l21.055-6.534c-2.624-5.731-5.124-11.165-7.522-16.322l-22.537-20.165 9.004 43.021z"/>
  <polygon points="674.11 1457.3 690.12 1499.3 720.13 1488.3"/>
  <path d="m674.11 1457.3l37.773-33.576c-0.867-3.274-1.706-6.476-2.522-9.612l-27.247-8.837-8.004 52.025z"/>
  <path d="m694.12 677.93l-7.812 29.511c4.299 4.947 8.289 9.66 11.732 13.919l19.091-21.419-23.011-22.011z"/>
  <path d="m686.12 609.9l-8.712-40.211c-2.648-4.227-5.327-8.23-8.095-12.071l-22.212 45.278 39.019 7.004z"/>
  <path d="m646.69 1174.9c-0.621-1.386-1.242-2.771-1.854-4.161l-3.743 3.431 5.597 0.73z"/>
  <path d="m644.84 1170.7c-1.893-4.302-3.737-8.625-5.488-12.986-1.468-3.626-2.737-7.318-3.908-11.042l5.653 27.459 3.743-3.431z"/>
  <path d="m668.97 1554.6c3.348 1.745 7.693 3.218 13.204 4.647l-4.06-16.915-9.144 12.268z"/>
  <path d="m689.3 1327.4c-5.001-25.562-7.421-42.922-9.987-57.917l-35.213 12.716 45.2 45.201z"/>
  <path d="m634.09 1309.2l55.715 20.775c-0.173-0.871-0.343-1.735-0.51-2.588l-45.201-45.201-10.004 27.014z"/>
  <path d="m683.12 1372.3l8.33-34.151c-0.326-1.585-0.644-3.142-0.952-4.67l-46.397 38.822 39.019-1e-3z"/>
  <path d="m667.74 1223.8c-1.568-4.41-3.352-9.088-5.406-14.149l-12.235 14.55 17.641-0.401z"/>
  <path d="m678.96 1267.5c-2.574-14.726-5.417-27.372-11.22-43.693l-17.641 0.401 28.861 43.292z"/>
  <path d="m677.02 696.9c3.196 3.578 6.32 7.114 9.295 10.538l7.812-29.511-17.107 18.973z"/>
  <path d="m659.81 677.93c5.673 6.187 11.551 12.643 17.205 18.973l17.107-18.973h-34.312z"/>
  <polygon points="694.12 677.93 695.12 652.92 646.1 646.91"/>
  <polygon points="695.12 652.92 686.12 609.9 646.1 646.91"/>
  <path d="m659.78 1543.3c1.043 5.079 3.86 8.55 9.189 11.327l9.145-12.267-18.334 0.94z"/>
  <path d="m646.1 646.91l-4.645 11.078c5.383 5.853 11.728 12.709 18.356 19.937h34.312l-48.023-31.015z"/>
  <path d="m690.12 1499.3l-20.068-3.583c-2.008 4.173-4.905 8.067-5.868 12.647-1.124 5.104-2.107 9.64-2.893 13.693l16.823 20.264 12.006-43.021z"/>
  <path d="m674.11 1457.3l-8.75 7c0.974 2.706 1.949 5.455 2.922 8.3 1.558 4.944 3.369 9.906 3.812 15.111 0.046 2.916-0.839 5.521-2.044 8.026l20.068 3.583-16.008-42.02z"/>
  <path d="m644.1 1372.3l46.397-38.822c-0.234-1.162-0.462-2.304-0.686-3.434l-55.715-20.775 10.004 63.031z"/>
  <path d="m661.29 1522.1c-1.81 9.333-2.561 16.087-1.511 21.204l18.334-0.94-16.823-20.264z"/>
  <path d="m682.12 1405.3l-29.739 26.575c3.026 6.799 6.099 14.194 9.186 22.233l12.548 3.218 8.005-52.026z"/>
  <path d="m650.1 1224.2l12.235-14.55c-0.251-0.617-0.504-1.239-0.762-1.868-4.791-11.033-9.961-21.902-14.881-32.877l-5.596-0.73 9.004 50.025z"/>
  <polygon points="686.12 609.9 647.1 602.89 646.1 646.91"/>
  <path d="m637.44 1401.7c4.729 8.592 9.765 18.515 14.942 30.15l29.739-26.575-44.681-3.575z"/>
  <polygon points="644.1 1372.3 682.12 1405.3 683.12 1372.3"/>
  <path d="m644.1 1282.2l35.213-12.716c-0.116-0.678-0.232-1.352-0.349-2.02l-28.861-43.292-6.003 58.028z"/>
  <path d="m644.1 1372.3l-9.84 23.781c1.043 1.821 2.102 3.705 3.178 5.66l44.681 3.575-38.019-33.016z"/>
  <path d="m647.1 602.89l22.212-45.278c-2.162-3-4.378-5.906-6.675-8.746l-31.545-3.004 16.008 57.028z"/>
  <path d="m661.56 1454.1c1.265 3.293 2.531 6.7 3.798 10.218l8.75-7-12.548-3.218z"/>
  <path d="m662.64 548.87c-5.099-6.304-10.596-12.296-16.792-18.336-1.043-0.998-2.038-1.865-2.996-2.649l-11.757 17.981 31.545 3.004z"/>
  <path d="m595.07 550.87l-4.556 45.56c0.33 0.707 0.716 1.461 1.179 2.284l39.394-52.846-36.017 5.002z"/>
  <polygon points="584.07 1182.2 594.07 1236.2 641.1 1174.2"/>
  <path d="m634.09 1309.2l-28.653 38.477c2.296 4.401 4.777 8.887 7.457 13.46l31.2 11.094-10.004-63.031z"/>
  <polygon points="594.07 1236.2 594.07 1284.2 644.1 1282.2"/>
  <path d="m604.87 1005.9c-0.791-5.302-1.66-10.506-2.621-15.687l-14.182 13.887 16.803 1.8z"/>
  <path d="m609.27 1051.8c0.027-2.911-0.021-6.114-0.239-9.769l-9.959 9.074 10.198 0.695z"/>
  <path d="m631.09 545.86l-39.394 52.846c0.399 0.708 0.857 1.471 1.374 2.286l54.028 1.896-16.008-57.028z"/>
  <path d="m647.1 602.89l-34.661 22.663c4.372 5.066 9.574 10.959 15.762 17.849l17.899 3.51 1-44.022z"/>
  <path d="m633.24 1139.4c-2.617-9.053-5.042-18.17-8.672-26.886-2.171-5.339-4.892-10.45-7.408-15.643l-23.09 6.297 39.17 36.232z"/>
  <path d="m609.11 1058.5c0.07-2.102 0.142-4.317 0.165-6.73l-10.198-0.695 10.033 7.425z"/>
  <polygon points="650.1 1224.2 594.07 1236.2 644.1 1282.2"/>
  <polygon points="641.1 1174.2 594.07 1236.2 650.1 1224.2"/>
  <path d="m601.3 463.13c-0.523-0.971-1.045-1.908-1.564-2.811l-1.656 2.507 3.22 0.304z"/>
  <path d="m626.86 513.25c-1.084-1.593-2.207-3.426-3.391-5.588-2.406-4.435-4.587-8.671-6.613-12.725l-13.784 10.912 23.788 7.401z"/>
  <path d="m603.08 505.84l13.784-10.912c-6.364-12.732-11.091-23.495-15.567-31.805l-3.219-0.304 5.002 43.021z"/>
  <path d="m594.07 1103.1l23.09-6.297c-2.316-4.781-4.459-9.631-5.831-14.796-2.687-9.406-2.482-15.696-2.222-23.507l-10.034-7.425-5.003 52.025z"/>
  <path d="m593.07 601c3.236 5.108 8.967 12.508 19.367 24.559l34.661-22.663-54.028-1.896z"/>
  <path d="m631.09 545.86l11.757-17.981c-5.894-4.823-10.397-6.429-15.983-14.638l-23.787-7.401 28.013 40.02z"/>
  <path d="m599.08 1051.1l9.959-9.074c-0.145-2.425-0.364-5.043-0.689-7.912-1-9.93-2.128-19.223-3.473-28.237l-16.803-1.8 11.006 47.023z"/>
  <path d="m628.2 643.4c1.675 1.864 3.401 3.781 5.224 5.796 2.291 2.538 5.011 5.509 8.03 8.792l4.645-11.078-17.899-3.51z"/>
  <path d="m599.73 460.32c-1.352-2.354-2.698-4.496-4.076-6.368l2.421 8.876 1.655-2.508z"/>
  <path d="m612.9 1361.2c0.179 0.306 0.351 0.609 0.532 0.915 5.036 8.584 12.339 19.129 20.828 33.959l9.84-23.781-31.2-11.093z"/>
  <polygon points="594.07 1284.2 634.09 1309.2 644.1 1282.2"/>
  <path d="m641.1 1174.2l-5.653-27.459c-0.681-2.167-1.33-4.344-1.964-6.527l-39.406 1.97 47.023 32.016z"/>
  <path d="m591.59 1316.9c3.695 9.775 8.221 20.044 13.848 30.827l28.653-38.477-42.501 7.65z"/>
  <path d="m588.07 1004.1l14.182-13.887c-2.265-12.22-5.054-24.312-8.608-37.218l-9.576-0.921 4.002 52.026z"/>
  <polygon points="594.07 1142.2 584.07 1182.2 641.1 1174.2"/>
  <path d="m594.07 1142.2l39.406-1.97c-0.079-0.272-0.158-0.545-0.236-0.817l-39.169-36.232-1e-3 39.019z"/>
  <path d="m593.64 952.98c-1.545-5.61-3.235-11.377-5.089-17.375l-4.488 16.454 9.577 0.921z"/>
  <polygon points="631.09 545.86 603.08 505.84 595.07 550.87"/>
  <path d="m594.07 1284.2l-6.372 21.666c1.184 3.593 2.478 7.26 3.891 10.997l42.501-7.65-40.02-25.013z"/>
  <path d="m584.07 1182.2l-29.299 4.883c1.2 1.594 2.389 3.195 3.535 4.826 0.605 0.857 1.176 1.732 1.728 2.618l34.041 41.7-10.005-54.027z"/>
  <path d="m577.41 902.23c-3.756-10.555-7.349-20.034-10.775-28.598l-14.579 1.389 25.354 27.209z"/>
  <polygon points="599.08 1051.1 540.05 1085.1 594.07 1103.1"/>
  <path d="m566.63 873.64c-1.386-3.465-2.747-6.791-4.079-9.969l-10.501 11.358 14.58-1.389z"/>
  <path d="m562.55 863.67c-6.725-16.048-12.749-28.574-18.058-39.022l7.557 50.38 10.501-11.358z"/>
  <path d="m603.08 505.84l-54.686 13.231c3.193 2.413 4.754 3.645 9.762 11.28l36.92 20.511 8.004-45.022z"/>
  <polygon points="598.08 462.82 541.05 461.82 603.08 505.84"/>
  <path d="m541.05 461.82v51.162c3.443 3.154 5.63 4.794 7.344 6.089l54.686-13.231-62.03-44.02z"/>
  <polygon points="588.07 1004.1 584.07 952.06 551.05 965.07"/>
  <path d="m594.07 1236.2l-19.049 14.463c1.56 9.801 3.383 20.417 6.099 31.881l12.95 1.679v-48.023z"/>
  <path d="m573.08 554.4c19.88 32.066 12.794 32.087 17.435 42.026l4.556-45.56-21.991 3.534z"/>
  <polygon points="599.08 1051.1 588.07 1004.1 538.05 1060.1"/>
  <polygon points="538.05 1060.1 540.05 1085.1 599.08 1051.1"/>
  <path d="m543.05 909.04l39.457 7.891c-1.732-5.126-3.43-10.012-5.098-14.698l-25.355-27.21-9.004 34.017z"/>
  <path d="m598.08 462.82l-2.421-8.876c-0.528-0.717-1.061-1.399-1.601-2.043-4.431-5.318-8.539-11.263-9.732-18.227-0.503-2.684-0.926-6.751-1.461-11.81l-41.813 39.954 57.028 1.002z"/>
  <polygon points="549.05 994.08 588.07 1004.1 551.05 965.07"/>
  <polygon points="594.07 1103.1 540.05 1135.2 594.07 1142.2"/>
  <path d="m560.03 1194.5c6.99 11.216 9.93 24.783 12.581 40.933l21.46 0.766-34.041-41.699z"/>
  <path d="m572.61 1235.4c0.795 4.843 1.565 9.916 2.411 15.23l19.049-14.463-21.46-0.767z"/>
  <polygon points="538.05 1060.1 588.07 1004.1 549.05 994.08"/>
  <path d="m582.5 418.49c-0.989-9.131-2.41-20.822-5.15-33.318l-36.301 29.634 41.451 3.684z"/>
  <polygon points="540.05 1135.2 584.07 1182.2 594.07 1142.2"/>
  <path d="m540.05 1135.2l13.56 50.368c0.387 0.513 0.775 1.025 1.162 1.538l29.299-4.883-44.021-47.023z"/>
  <path d="m558.15 530.36c2.982 4.546 7.184 11.358 13.686 22.051 0.43 0.683 0.836 1.339 1.243 1.995l21.991-3.534-36.92-20.512z"/>
  <path d="m541.05 414.8l36.301-29.634c-0.815-3.717-1.748-7.504-2.821-11.318l-34.48-2.069 1 43.021z"/>
  <path d="m581.12 1282.5c1.759 7.421 3.894 15.198 6.578 23.344l6.372-21.666-12.95-1.678z"/>
  <path d="m574.53 373.85c-3.71-13.186-9.104-26.667-17.153-38.547l-17.327 36.478 34.48 2.069z"/>
  <path d="m584.07 952.06l4.488-16.454c-1.352-4.374-2.786-8.865-4.321-13.517-0.58-1.748-1.156-3.461-1.73-5.158l-39.457-7.891 41.02 43.02z"/>
  <polygon points="540.05 1085.1 540.05 1135.2 594.07 1103.1"/>
  <path d="m541.05 461.82l41.813-39.954c-0.115-1.085-0.234-2.211-0.361-3.384l-41.452-3.685v47.023z"/>
  <polygon points="584.07 952.06 543.05 909.04 551.05 965.07"/>
  <path d="m510.54 617.57c-0.255-3.083-0.51-6.165-0.76-9.249l-6.752 1.57 7.512 7.679z"/>
  <polygon points="503.03 1011.1 538.05 1060.1 549.05 994.08"/>
  <polygon points="551.05 965.07 543.05 909.04 514.04 925.05"/>
  <path d="m552.05 875.02l-7.557-50.38c-1.161-2.286-2.289-4.476-3.382-6.577l-32.082 50.954 43.021 6.003z"/>
  <path d="m523.77 782.41c-1.779-4.756-3.258-9.659-4.429-15.064l-12.311 9.635 16.74 5.429z"/>
  <path d="m532.64 1142.7c3.407 10.125 6.7 20.291 11.971 29.639 2.583 4.66 5.789 8.901 8.995 13.142l-13.56-50.368-7.406 7.587z"/>
  <path d="m554.86 331.76c-7.11-9.544-16.107-17.855-27.539-23.858l-23.29 23.858h50.829z"/>
  <path d="m540.05 371.78l17.327-36.478c-0.811-1.198-1.649-2.379-2.516-3.542h-50.828l36.017 40.02z"/>
  <path d="m516.27 741.65c-0.257-4.505-0.342-9.025-0.513-13.538l-15.732 13.845 16.245-0.307z"/>
  <path d="m509.03 869.02l32.082-50.954c-0.584-1.124-1.158-2.223-1.723-3.301l-28.359-1.772-2 56.027z"/>
  <path d="m540.05 1085.1l-25.861 14.678c3.629 7.257 7.384 15.184 11.302 23.935l14.559 11.411v-50.024z"/>
  <path d="m520.05 486.93c3.073 6.409 8.279 14.176 17.724 22.952 1.208 1.177 2.292 2.199 3.277 3.1v-51.162l-21.001 25.11z"/>
  <path d="m510.15 518.17c0.83-8.083 1.724-15.542 2.505-22.395l-17.631 21.08 15.126 1.315z"/>
  <path d="m496.03 648.92l16.675 2.245c-0.054-3.929-0.217-8.199-0.556-12.988-0.472-6.866-1.036-13.731-1.605-20.597l-7.512-7.679-7.002 39.019z"/>
  <path d="m512.14 689.82c-0.201-5.043-0.164-9.553-0.039-13.926l-18.078 10.044 18.117 3.882z"/>
  <path d="m507.03 776.98l12.311-9.635c-1.582-7.296-2.609-15.509-3.062-25.545-3e-3 -0.048-4e-3 -0.096-7e-3 -0.143l-16.245 0.306 7.003 35.017z"/>
  <polygon points="503.03 1011.1 499.03 1048.1 538.05 1060.1"/>
  <polygon points="541.05 461.82 541.05 414.8 508.03 454.82"/>
  <polygon points="552.05 875.02 509.03 869.02 543.05 909.04"/>
  <path d="m508.03 454.82l-13.006 62.03 17.631-21.08c1.066-9.366 1.914-17.641 2.066-24.967 1.083 3.25 1.81 8.802 5.325 16.13l21.001-25.11-33.017-7.003z"/>
  <polygon points="551.05 965.07 495.02 968.07 549.05 994.08"/>
  <path d="m500.03 741.96l15.732-13.845c-0.192-5.057-0.494-10.106-1.291-15.113-1.407-9.233-2.067-16.659-2.327-23.188l-18.117-3.882 6.003 56.028z"/>
  <polygon points="514.04 925.05 495.02 968.07 551.05 965.07"/>
  <path d="m508.06 544.38c0.063-1.17 0.127-2.339 0.197-3.488l-3.228 1.972 3.031 1.516z"/>
  <polygon points="541.05 414.8 540.05 371.78 495.02 381.78"/>
  <path d="m527.32 307.9c-5.892-3.094-12.433-5.572-19.696-7.29l-3.594 31.148 23.29-23.858z"/>
  <path d="m509.78 608.33c-0.19-2.345-0.377-4.69-0.556-7.035l-6.196 8.605 6.752-1.57z"/>
  <path d="m494.02 685.93l18.078-10.044c0.226-7.865 0.726-15.313 0.598-24.73l-16.675-2.245-2.001 37.019z"/>
  <polygon points="495.02 968.07 503.03 1011.1 549.05 994.08"/>
  <polygon points="508.03 454.82 541.05 414.8 496.03 428.81"/>
  <path d="m539.39 814.77c-3.12-5.957-5.936-11.249-8.444-16.256l-19.915 14.484 28.359 1.772z"/>
  <path d="m530.25 1135.8c0.82 2.312 1.611 4.635 2.394 6.961l7.406-7.587-9.8 0.626z"/>
  <polygon points="543.05 909.04 509.03 869.02 514.04 925.05"/>
  <path d="m511.03 812.99l19.915-14.484c-2.772-5.535-5.166-10.731-7.176-16.105l-16.74-5.429 4.001 36.018z"/>
  <path d="m503.03 609.9l6.196-8.605c-1.226-16.074-2.111-32.165-1.554-48.3 0.101-2.942 0.238-5.797 0.39-8.612l-3.031-1.515-2.001 67.032z"/>
  <polygon points="540.05 371.78 504.03 331.76 495.02 381.78"/>
  <polygon points="496.03 428.81 541.05 414.8 495.02 381.78"/>
  <path d="m525.49 1123.7c0.07 0.157 0.14 0.309 0.21 0.466 1.689 3.787 3.162 7.661 4.549 11.57l9.8-0.625-14.559-11.411z"/>
  <polygon points="499.03 1048.1 540.05 1085.1 538.05 1060.1"/>
  <path d="m499.03 1048.1l1.862 26.998c4.278 7.34 8.686 15.477 13.296 24.698l25.861-14.678-41.019-37.018z"/>
  <path d="m505.03 542.86l3.228-1.972c0.496-8.096 1.168-15.653 1.893-22.725l-15.126-1.315 10.005 26.012z"/>
  <polygon points="470.01 515.85 495.02 516.85 455.01 465.83"/>
  <path d="m485.42 61.31c-3.428-6.699-8.347-11.962-15.487-16.914l-6.923 9.231 22.41 7.683z"/>
  <path d="m490.58 1058.5c3.376 5.117 6.798 10.605 10.306 16.624l-1.862-26.998-8.444 10.374z"/>
  <polygon points="450 601.89 503.03 609.9 450 556.87"/>
  <polygon points="503.03 609.9 505.03 542.86 450 556.87"/>
  <polygon points="495.02 516.85 508.03 454.82 455.01 465.83"/>
  <polygon points="464.01 873.02 509.03 869.02 467.01 820"/>
  <path d="m504.03 331.76l3.594-31.148c-3.83-0.906-7.852-1.609-12.095-2.069-2.374-0.121-4.507-0.137-6.48-0.105l-25.038 22.316 40.019 11.006z"/>
  <path d="m489.05 298.44c-10.445 0.168-16.154 1.741-26.159-2.913l1.121 25.23 25.038-22.317z"/>
  <path d="m485.81 148.46c-3.328-7.616 8.183-23.653 7.815-28.151-0.06-2.752-0.126-5.385-0.2-7.93l-35.415 29.286 27.8 6.795z"/>
  <path d="m458.01 141.67l35.415-29.286c-0.129-4.447-0.284-8.602-0.487-12.469l-36.929 2.735 2.001 39.02z"/>
  <polygon points="511.03 812.99 507.03 776.98 464.01 784.98"/>
  <polygon points="509.03 869.02 511.03 812.99 467.01 820"/>
  <polygon points="462.01 925.05 495.02 968.07 514.04 925.05"/>
  <polygon points="514.04 925.05 509.03 869.02 464.01 873.02"/>
  <polygon points="464.01 873.02 462.01 925.05 514.04 925.05"/>
  <polygon points="500.03 741.96 494.02 685.93 467.01 744.96"/>
  <polygon points="467.01 820 511.03 812.99 464.01 784.98"/>
  <polygon points="495.02 968.07 459.01 993.08 503.03 1011.1"/>
  <polygon points="495.02 381.78 504.03 331.76 468.01 385.79"/>
  <polygon points="504.03 331.76 464.01 320.76 468.01 385.79"/>
  <polygon points="507.03 776.98 500.03 741.96 467.01 744.96"/>
  <path d="m492.94 99.915c-0.573-10.92-1.521-19.651-3.288-26.901l-33.641 29.636 36.929-2.735z"/>
  <polygon points="495.02 381.78 468.01 385.79 496.03 428.81"/>
  <path d="m460.58 223.7c0.369-0.179 0.736-0.375 1.101-0.597 6.524-4.535 9.831-19.299 12.812-32.373l-25.486 5.965 11.573 27.005z"/>
  <path d="m486.24 1052.1c1.44 2.079 2.886 4.214 4.339 6.417l8.444-10.374-12.783 3.957z"/>
  <polygon points="464.01 784.98 507.03 776.98 467.01 744.96"/>
  <polygon points="467.01 744.96 494.02 685.93 448 694.94"/>
  <polygon points="496.03 428.81 468.01 385.79 470.01 428.81"/>
  <polygon points="496.03 648.92 503.03 609.9 464.01 645.91"/>
  <polygon points="470.01 428.81 508.03 454.82 496.03 428.81"/>
  <polygon points="455.01 465.83 508.03 454.82 470.01 428.81"/>
  <path d="m459.01 993.08l-0.66 22.445c9.669 12.186 18.68 23.231 27.897 36.538l12.783-3.957-40.02-55.026z"/>
  <polygon points="459.01 993.08 499.03 1048.1 503.03 1011.1"/>
  <path d="m482.33 169.83c2.388-4.797 4.354-10.707 3.692-20.9-0.082-0.151-0.147-0.311-0.216-0.469l-27.8-6.796 24.324 28.165z"/>
  <polygon points="505.03 542.86 495.02 516.85 470.01 515.85"/>
  <polygon points="450 556.87 505.03 542.86 470.01 515.85"/>
  <polygon points="464.01 645.91 503.03 609.9 450 601.89"/>
  <polygon points="462.01 925.05 452 960.06 495.02 968.07"/>
  <polygon points="494.02 685.93 496.03 648.92 464.01 645.91"/>
  <path d="m469.93 44.395c-1.385-0.961-2.851-1.91-4.408-2.856-2.349-1.335-4.673-2.57-6.976-3.728l4.461 15.815 6.923-9.231z"/>
  <path d="m456.01 102.65l33.641-29.636c-1.072-4.396-2.454-8.239-4.227-11.704l-22.41-7.684-7.004 49.024z"/>
  <path d="m449 196.7l25.486-5.965c0.676-2.964 1.335-5.843 2.011-8.494 1.241-4.742 3.704-8.131 5.831-12.403l-24.324-28.165-9.004 55.027z"/>
  <polygon points="448 694.94 494.02 685.93 464.01 645.91"/>
  <polygon points="452 960.06 459.01 993.08 495.02 968.07"/>
  <path d="m451.37 1006.7c2.369 3.051 4.69 5.996 6.974 8.874l0.66-22.445-7.634 13.571z"/>
  <path d="m441.12 993.08c3.533 4.819 6.942 9.303 10.255 13.571l7.634-13.571h-17.889z"/>
  <polygon points="463.01 53.626 408.98 64.632 456.01 102.65"/>
  <polygon points="464.01 873.02 404.98 903.04 462.01 925.05"/>
  <polygon points="418.99 866.02 404.98 903.04 464.01 873.02"/>
  <path d="m464.01 320.76l-1.121-25.23c-5.305-2.468-11.839-6.706-20.92-13.822l-26.983 8.037 49.024 31.015z"/>
  <polygon points="464.01 320.76 414.99 289.74 422.99 322.76"/>
  <polygon points="419.99 380.78 464.01 320.76 422.99 322.76"/>
  <polygon points="418.99 866.02 464.01 873.02 467.01 820"/>
  <polygon points="407.98 816 418.99 866.02 467.01 820"/>
  <polygon points="464.01 784.98 407.98 816 467.01 820"/>
  <polygon points="467.01 744.96 448 694.94 404.98 722.95"/>
  <polygon points="464.01 784.98 467.01 744.96 414.99 768.97"/>
  <polygon points="468.01 385.79 464.01 320.76 419.99 380.78"/>
  <polygon points="450 556.87 470.01 515.85 408.98 513.85"/>
  <polygon points="470.01 515.85 455.01 465.83 418.99 472.83"/>
  <polygon points="408.98 513.85 470.01 515.85 418.99 472.83"/>
  <polygon points="470.01 428.81 468.01 385.79 420.99 409.8"/>
  <polygon points="455.01 465.83 470.01 428.81 420.99 409.8"/>
  <path d="m424.67 242.55c0.37-1.608 0.789-3.316 1.263-5.144l-8.949-1.689 7.686 6.833z"/>
  <path d="m416.99 235.72l8.949 1.689c0.042-0.162 0.079-0.314 0.122-0.477 7.396-25.351 21.917-7.119 34.518-13.225l-11.573-27.005-32.016 39.018z"/>
  <polygon points="449 196.7 458.01 141.67 408.98 189.69"/>
  <polygon points="464.01 645.91 450 601.89 409.98 645.91"/>
  <polygon points="448 694.94 464.01 645.91 409.98 645.91"/>
  <polygon points="468.01 385.79 419.99 380.78 420.99 409.8"/>
  <polygon points="414.99 768.97 467.01 744.96 404.98 722.95"/>
  <polygon points="424.99 558.87 450 556.87 408.98 513.85"/>
  <polygon points="408.98 189.69 458.01 141.67 403.98 143.67"/>
  <polygon points="458.01 141.67 456.01 102.65 416.99 113.66"/>
  <polygon points="418.99 472.83 455.01 465.83 420.99 409.8"/>
  <path d="m463.01 53.626l-4.461-15.815c-6.742-3.39-13.281-6.03-19.608-8.014l-29.958 34.835 54.027-11.006z"/>
  <polygon points="414.99 768.97 407.98 816 464.01 784.98"/>
  <polygon points="407.98 685.93 448 694.94 409.98 645.91"/>
  <polygon points="450 601.89 450 556.87 424.99 558.87"/>
  <path d="m414.99 289.74l26.983-8.037c-1.379-1.081-2.796-2.205-4.299-3.423-13.778-11.462-17.83-14.721-12.997-35.733l-7.686-6.832-2.001 54.025z"/>
  <polygon points="404.98 903.04 452 960.06 462.01 925.05"/>
  <path d="m452 960.06l-21.42 18.125c3.646 5.347 7.147 10.272 10.534 14.891h17.889l-7.003-33.016z"/>
  <path d="m404.98 903.04v33.669c3.364 6.091 7.204 12.71 11.599 19.896 1.838 2.972 3.635 5.819 5.402 8.573l30.023-5.11-47.024-57.028z"/>
  <path d="m438.94 29.797c-7.644-2.397-14.977-3.838-21.968-4.449l-7.99 39.284 29.958-34.835z"/>
  <polygon points="456.01 102.65 408.98 64.632 416.99 113.66"/>
  <polygon points="407.98 588.89 450 601.89 424.99 558.87"/>
  <polygon points="403.98 143.67 458.01 141.67 416.99 113.66"/>
  <path d="m421.98 965.18c2.958 4.611 5.823 8.938 8.603 13.014l21.42-18.125-30.023 5.111z"/>
  <polygon points="416.99 235.72 449 196.7 408.98 189.69"/>
  <polygon points="409.98 645.91 450 601.89 407.98 588.89"/>
  <polygon points="404.98 722.95 448 694.94 407.98 685.93"/>
  <polygon points="407.98 588.89 368.96 610.9 409.98 645.91"/>
  <polygon points="368.96 610.9 372.97 634.91 409.98 645.91"/>
  <polygon points="377.97 780.98 407.98 816 414.99 768.97"/>
  <polygon points="414.99 289.74 416.99 235.72 371.97 280.74"/>
  <polygon points="407.98 816 378.97 864.02 418.99 866.02"/>
  <polygon points="364.96 426.81 364.96 471.83 418.99 472.83"/>
  <polygon points="420.99 409.8 364.96 426.81 418.99 472.83"/>
  <path d="m416.97 25.348c-14.665-1.282-27.835 1.048-39.285 5.641l31.295 33.643 7.99-39.284z"/>
  <polygon points="419.99 380.78 422.99 322.76 377.97 364.78"/>
  <polygon points="422.99 322.76 369.96 334.76 377.97 364.78"/>
  <polygon points="408.98 513.85 371.97 553.87 424.99 558.87"/>
  <polygon points="408.98 189.69 371.97 203.7 416.99 235.72"/>
  <polygon points="424.99 558.87 371.97 553.87 407.98 588.89"/>
  <path d="m394.11 915.53c2.93 6.226 6.495 13.253 10.872 21.178v-33.669l-10.872 12.491z"/>
  <polygon points="373.97 823 378.97 864.02 407.98 816"/>
  <polygon points="371.97 734.96 414.99 768.97 404.98 722.95"/>
  <polygon points="416.99 235.72 366.96 237.72 371.97 280.74"/>
  <polygon points="408.98 64.632 358.96 98.648 416.99 113.66"/>
  <polygon points="420.99 409.8 419.99 380.78 377.97 364.78"/>
  <polygon points="422.99 322.76 414.99 289.74 369.96 334.76"/>
  <polygon points="378.97 864.02 404.98 903.04 418.99 866.02"/>
  <polygon points="418.99 472.83 364.96 471.83 408.98 513.85"/>
  <polygon points="377.97 364.78 364.96 426.81 420.99 409.8"/>
  <polygon points="364.96 471.83 362.96 505.84 408.98 513.85"/>
  <polygon points="366.96 66.633 358.96 98.648 408.98 64.632"/>
  <polygon points="369.96 334.76 414.99 289.74 371.97 280.74"/>
  <path d="m389.16 904.38c1.41 3.39 3.047 7.099 4.951 11.144l10.872-12.491-15.823 1.347z"/>
  <polygon points="371.97 203.7 366.96 237.72 416.99 235.72"/>
  <polygon points="403.98 143.67 362.96 159.68 408.98 189.69"/>
  <polygon points="409.98 645.91 378.97 688.93 407.98 685.93"/>
  <polygon points="377.97 780.98 414.99 768.97 371.97 734.96"/>
  <polygon points="416.99 113.66 358.96 98.648 403.98 143.67"/>
  <polygon points="407.98 685.93 378.97 688.93 404.98 722.95"/>
  <path d="m408.98 64.632l-31.295-33.643c-3.254 1.305-6.368 2.793-9.338 4.433l-1.387 31.21 42.02-2z"/>
  <polygon points="372.97 634.91 378.97 688.93 409.98 645.91"/>
  <polygon points="362.96 505.84 371.97 553.87 408.98 513.85"/>
  <polygon points="373.97 823 407.98 816 377.97 780.98"/>
  <polygon points="362.96 159.68 371.97 203.7 408.98 189.69"/>
  <polygon points="371.97 553.87 368.96 610.9 407.98 588.89"/>
  <polygon points="358.96 98.648 362.96 159.68 403.98 143.67"/>
  <path d="m378.97 864.02l-3.503 7.172c5.174-0.124 2.954 7.383 13.692 33.194l15.823-1.347-26.012-39.019z"/>
  <polygon points="378.97 688.93 371.97 734.96 404.98 722.95"/>
  <path d="m358.96 98.648l-28.909 42.124c0.481 3.635 0.979 7.262 1.47 10.844l31.441 8.062-4.002-61.03z"/>
  <polygon points="330.95 378.78 327.94 414.8 364.96 426.81"/>
  <path d="m334.01 1493c-1.642-5.167-3.249-7.817-3.519-9.554-0.211-1.13-0.423-2.329-0.633-3.575l-10.921 8.418 15.073 4.711z"/>
  <path d="m368.35 35.422c-12.573 6.944-22.558 16.608-29.551 26.668l28.164 4.543 1.387-31.211z"/>
  <polygon points="326.94 280.74 321.94 335.76 369.96 334.76"/>
  <polygon points="316.94 742.96 326.94 785.98 371.97 734.96"/>
  <polygon points="362.96 505.84 333.95 507.85 371.97 553.87"/>
  <polygon points="371.97 553.87 329.94 588.89 368.96 610.9"/>
  <polygon points="371.97 280.74 326.94 280.74 369.96 334.76"/>
  <polygon points="371.97 280.74 366.96 237.72 326.94 280.74"/>
  <path d="m321.94 1084.1l25.161 7.742c0.688-4.353 1.299-8.717 1.644-13.116 0.149-1.657 0.295-3.292 0.439-4.916l-24.243-25.727-3.001 36.017z"/>
  <polygon points="326.94 785.98 334.95 825 373.97 823"/>
  <path d="m343.19 1147.6c0.133-3.95 0.091-7.905 0.032-11.858l-13.278 15.391 13.246-3.533z"/>
  <path d="m340.87 1167.6c1.029-5.429 1.827-11.022 2.164-16.588 0.07-1.112 0.117-2.224 0.154-3.337l-13.246 3.532 10.928 16.393z"/>
  <path d="m349.19 1073.8c0.985-11.084 1.865-21.396 2.65-31l-26.893 5.273 24.243 25.727z"/>
  <path d="m351.84 1042.8c1.118-13.683 2.043-25.931 2.801-36.923l-29.694 42.196 26.893-5.273z"/>
  <polygon points="326.94 785.98 373.97 823 377.97 780.98"/>
  <polygon points="371.97 734.96 326.94 785.98 377.97 780.98"/>
  <polygon points="377.97 364.78 369.96 334.76 330.95 378.78"/>
  <polygon points="330.95 378.78 364.96 426.81 377.97 364.78"/>
  <path d="m356.15 905.36c-1.11-10.146-2.414-17.444-2.361-32.603l-23.842 8.272 26.203 24.331z"/>
  <path d="m356.72 871.74c5.144 0.74 10.39 1.535 15.464 0.095 1.36-0.392 2.42-0.62 3.279-0.64l3.503-7.172-22.246 7.717z"/>
  <polygon points="334.95 825 378.97 864.02 373.97 823"/>
  <path d="m334.95 825l-5.002 56.027 23.842-8.272c2e-3 -0.467 4e-3 -0.938 8e-3 -1.421 0.971 0.121 1.948 0.26 2.929 0.402l22.245-7.718-44.022-39.018z"/>
  <polygon points="318.94 686.93 371.97 734.96 378.97 688.93"/>
  <polygon points="372.97 634.91 328.94 653.92 378.97 688.93"/>
  <polygon points="378.97 688.93 328.94 653.92 318.94 686.93"/>
  <polygon points="316.94 742.96 371.97 734.96 318.94 686.93"/>
  <path d="m329.94 1151.2l13.278-15.391c-0.106-7.128-0.25-14.253 0.553-21.346 0.716-7.57 2.138-15.047 3.326-22.554l-25.161-7.742 8.004 67.033z"/>
  <path d="m326.67 102.45c0.088 11.583 1.615 25.001 3.377 38.326l28.909-42.124-32.286 3.798z"/>
  <polygon points="364.96 426.81 332.95 471.83 364.96 471.83"/>
  <polygon points="369.96 334.76 321.94 335.76 330.95 378.78"/>
  <path d="m362.96 159.68l-27.81 22.702c0.517 7.054 0.558 13.143-0.236 17.683-0.071 0.366-0.147 0.711-0.22 1.066l37.27 2.57-9.004-44.021z"/>
  <path d="m324.94 1048.1l29.694-42.196c0.271-3.933 0.521-7.704 0.75-11.325l-37.448 2.497 7.004 51.024z"/>
  <path d="m337.15 1362.1c0.62-3.701 1.206-7.141 1.756-10.354l-8.958 10.539 7.202-0.185z"/>
  <polygon points="333.95 507.85 312.94 553.87 371.97 553.87"/>
  <path d="m318.94 1488.3l10.921-8.418c-1.456-8.622-2.829-19.784-3.335-30.481l-2.584-0.12-5.002 39.019z"/>
  <path d="m335.87 1369.8c0.441-2.683 0.866-5.245 1.276-7.691l-7.202 0.185 5.926 7.506z"/>
  <path d="m371.97 203.7l-37.27-2.57c-0.946 4.564-2.059 8.171-3.296 11.089l35.563 25.498 5.003-34.017z"/>
  <path d="m333.32 1551.4c-0.755-3.662-1.503-7.229-1.62-10.53-0.169-3.414 1.573-6.207 3.246-9.03l-22.004 19.559h20.378v1e-3z"/>
  <polygon points="368.96 610.9 328.94 653.92 372.97 634.91"/>
  <path d="m343.03 1282.2c-0.618-4.353-1.387-9.221-2.311-14.818l-9.774 14.818h12.085z"/>
  <path d="m366.96 237.72l-35.563-25.499c-4.443 10.48-10.466 12.14-15.947 17.841-0.816 0.823-1.607 1.622-2.401 2.424l-0.114 4.233 54.025 1.001z"/>
  <polygon points="312.94 553.87 329.94 588.89 371.97 553.87"/>
  <path d="m318.94 1310.2l25.314-18.174c-0.307-3.012-0.714-6.252-1.223-9.839h-12.085l-12.006 28.013z"/>
  <path d="m322.94 1191.2l11.784 1.593c1.99-7.3 4.402-16.019 6.147-25.22l-10.928-16.392-7.003 40.019z"/>
  <path d="m355.87 986.74c0.669-11.347 1.123-21.072 1.408-29.48l-23.328 6.804 21.92 22.676z"/>
  <path d="m344.32 1317c0.879-8.534 0.882-15.663-0.063-24.941l-25.314 18.174 25.377 6.767z"/>
  <polygon points="364.96 471.83 332.95 471.83 362.96 505.84"/>
  <path d="m312.94 1551.4l22.004-19.559c1.522-2.568 2.987-5.16 2.899-8.266 0.014-15.193-1.93-24.525-3.828-30.495l-15.073-4.71-6.002 63.03z"/>
  <path d="m326.53 1449.4c-0.187-3.96-0.254-7.852-0.164-11.53l-2.42 11.409 2.584 0.121z"/>
  <polygon points="366.96 237.72 312.94 236.72 326.94 280.74"/>
  <path d="m366.96 66.633l-28.164-4.543c-0.458 0.659-0.902 1.319-1.334 1.98l21.495 34.578 8.003-32.015z"/>
  <polygon points="329.94 588.89 328.94 653.92 368.96 610.9"/>
  <path d="m357.28 957.26c0.81-23.927 0.248-37.216-0.642-47.074l-22.686 53.878 23.328-6.804z"/>
  <path d="m333.95 964.07l22.686-53.878c-0.095-1.05-0.193-2.061-0.294-3.042l-43.401 2.893 21.009 54.027z"/>
  <path d="m333.68 1225.8c-0.718-4.296-1.472-8.844-2.262-13.664l-14.482 8.083 16.744 5.581z"/>
  <polygon points="332.95 471.83 333.95 507.85 362.96 505.84"/>
  <path d="m331.52 151.62c1.521 11.091 2.969 21.726 3.631 30.764l27.81-22.702-31.441-8.062z"/>
  <polygon points="327.94 414.8 332.95 471.83 364.96 426.81"/>
  <path d="m318.32 1582.9c3.01-0.302 5.971-0.795 8.453-2.703 10.757-7.947 8.623-18.731 6.546-28.797h-20.378l5.379 31.5z"/>
  <path d="m330.95 1282.2l9.774-14.818c-1.767-10.699-4.102-24.071-7.037-41.63l-16.744-5.581 14.007 62.029z"/>
  <path d="m329.94 1362.3l8.958-10.539c2.678-15.653 4.509-25.934 5.414-34.719l-25.377-6.767 11.005 52.025z"/>
  <path d="m316.94 1220.2l14.482-8.083c-0.062-0.38-0.124-0.754-0.187-1.138-0.561-3.147 1.179-9.715 3.492-18.201l-11.784-1.593-6.003 29.015z"/>
  <path d="m337.46 64.07c-1.491 2.281-2.831 4.573-4.009 6.851l-6.65 24.787c-0.108 2.162-0.15 4.412-0.132 6.738l32.286-3.798-21.495-34.578z"/>
  <path d="m317.94 997.08l37.448-2.497c0.171-2.698 0.331-5.311 0.48-7.844l-21.92-22.676-16.008 33.017z"/>
  <path d="m330.7 1402.9c1.904-12.839 3.631-23.75 5.173-33.145l-5.926-7.507 0.753 40.652z"/>
  <path d="m312.94 910.04l43.401-2.893c-0.063-0.607-0.126-1.203-0.19-1.789l-26.203-24.331-17.008 29.013z"/>
  <polygon points="312.94 1551.4 318.94 1488.3 277.92 1494.3"/>
  <polygon points="318.94 686.93 286.92 690.94 316.94 742.96"/>
  <polygon points="324.94 1048.1 317.94 997.08 282.92 1041.1"/>
  <polygon points="326.94 280.74 281.92 322.76 321.94 335.76"/>
  <polygon points="288.93 413.8 281.92 466.83 327.94 414.8"/>
  <polygon points="329.94 1362.3 318.94 1310.2 285.92 1317.2"/>
  <polygon points="329.94 1151.2 321.94 1084.1 282.92 1095.1"/>
  <polygon points="275.92 1138.2 329.94 1151.2 282.92 1095.1"/>
  <polygon points="322.94 1191.2 329.94 1151.2 284.92 1173.2"/>
  <polygon points="329.94 588.89 269.92 644.91 328.94 653.92"/>
  <polygon points="267.92 599.89 269.92 644.91 329.94 588.89"/>
  <path d="m276.92 1376.3l52.044 38.551c0.594-4.145 1.172-8.11 1.735-11.906l-0.753-40.652-53.026 14.007z"/>
  <path d="m276.92 1415.3l51.84 0.96c0.068-0.479 0.136-0.953 0.204-1.428l-52.044-38.551v39.019z"/>
  <polygon points="330.95 1282.2 316.94 1220.2 276.92 1272.2"/>
  <polygon points="321.94 335.76 284.92 366.78 330.95 378.78"/>
  <polygon points="288.93 413.8 327.94 414.8 330.95 378.78"/>
  <polygon points="327.94 414.8 281.92 466.83 332.95 471.83"/>
  <polygon points="281.92 466.83 287.92 510.85 332.95 471.83"/>
  <polygon points="333.95 964.07 312.94 910.04 269.92 954.06"/>
  <polygon points="332.95 471.83 287.92 510.85 333.95 507.85"/>
  <polygon points="333.95 507.85 287.92 510.85 312.94 553.87"/>
  <polygon points="278.92 827 334.95 825 326.94 785.98"/>
  <polygon points="329.94 881.03 334.95 825 289.93 866.02"/>
  <polygon points="289.93 866.02 334.95 825 278.92 827"/>
  <path d="m327.32 89.691c-0.241 1.911-0.407 3.923-0.511 6.017l6.65-24.787c-3.413 6.6-5.499 13.074-6.139 18.77z"/>
  <polygon points="278.92 827 326.94 785.98 281.92 781.98"/>
  <polygon points="312.94 236.72 284.92 273.73 326.94 280.74"/>
  <path d="m301.21 1610.5c1.216-1.204 2.386-2.456 3.503-3.748 3.089-3.804 3.954-7.786 4.506-11.567l-20.292 5.237 12.283 10.078z"/>
  <polygon points="317.94 997.08 333.95 964.07 269.92 954.06"/>
  <polygon points="281.92 781.98 326.94 785.98 316.94 742.96"/>
  <polygon points="284.92 273.73 281.92 322.76 326.94 280.74"/>
  <path d="m323.94 1449.3l2.42-11.409c0.097-3.941 0.374-7.636 0.885-10.889 0.514-3.715 1.018-7.296 1.512-10.758l-51.84-0.96 47.023 34.016z"/>
  <polygon points="286.92 745.96 281.92 781.98 316.94 742.96"/>
  <polygon points="276.92 1376.3 329.94 1362.3 285.92 1317.2"/>
  <polygon points="318.94 1310.2 330.95 1282.2 276.92 1272.2"/>
  <polygon points="284.92 366.78 288.93 413.8 330.95 378.78"/>
  <polygon points="318.94 1488.3 323.94 1449.3 278.92 1459.3"/>
  <polygon points="328.94 653.92 286.92 690.94 318.94 686.93"/>
  <polygon points="284.92 1173.2 329.94 1151.2 275.92 1138.2"/>
  <polygon points="312.94 910.04 329.94 881.03 289.93 866.02"/>
  <polygon points="312.94 553.87 267.92 599.89 329.94 588.89"/>
  <polygon points="286.92 690.94 286.92 745.96 316.94 742.96"/>
  <polygon points="321.94 1084.1 324.94 1048.1 282.92 1041.1"/>
  <polygon points="328.94 653.92 269.92 644.91 286.92 690.94"/>
  <polygon points="277.92 553.87 267.92 599.89 312.94 553.87"/>
  <path d="m285.65 1621.4c5.709-2.593 10.969-6.439 15.56-10.987l-12.283-10.078-3.277 21.065z"/>
  <polygon points="276.92 1272.2 316.94 1220.2 267.92 1225.2"/>
  <polygon points="282.92 1041.1 317.94 997.08 271.92 1011.1"/>
  <polygon points="285.92 1317.2 318.94 1310.2 276.92 1272.2"/>
  <path d="m288.93 1600.4l20.292-5.237c0.633-4.341 0.853-8.418 3.545-11.656 1.802-0.33 3.686-0.444 5.552-0.631l-5.378-31.5-24.011 49.024z"/>
  <polygon points="282.92 1095.1 321.94 1084.1 282.92 1041.1"/>
  <polygon points="323.94 1449.3 276.92 1415.3 278.92 1459.3"/>
  <polygon points="316.94 1220.2 322.94 1191.2 284.92 1173.2"/>
  <path d="m312.94 1551.4l-35.017-57.028-2.345 15.897c0.267 13.426-0.393 19.065-3.638 24.66l-3.021 20.473 44.021-4.002z"/>
  <polygon points="321.94 335.76 281.92 322.76 284.92 366.78"/>
  <polygon points="288.93 1600.4 312.94 1551.4 268.92 1555.4"/>
  <polygon points="273.92 904.04 312.94 910.04 289.93 866.02"/>
  <polygon points="269.92 954.06 312.94 910.04 273.92 904.04"/>
  <polygon points="287.92 510.85 277.92 553.87 312.94 553.87"/>
  <path d="m312.94 236.72l-6.002 1.946c-10.248 10.359-18.588 18.813-25.393 25.678l3.382 9.393 28.013-37.017z"/>
  <path d="m313.05 232.48c-0.72 0.728-1.433 1.447-2.136 2.158l2.022 2.075 0.114-4.233z"/>
  <polygon points="267.92 1225.2 316.94 1220.2 284.92 1173.2"/>
  <polygon points="271.92 1011.1 317.94 997.08 269.92 954.06"/>
  <polygon points="277.92 1494.3 318.94 1488.3 278.92 1459.3"/>
  <path d="m310.92 234.64c-1.359 1.372-2.684 2.711-3.98 4.022l6.002-1.946-2.022-2.076z"/>
  <path d="m263.15 1546.3c-2.638 3.041-5.165 5.889-7.582 8.562l13.349 0.477-5.767-9.039z"/>
  <polygon points="273.92 904.04 240.9 921.05 269.92 954.06"/>
  <path d="m239.1 1274.1c-0.028 0.985-0.034 1.7-0.014 2.102 0.326 10.152 3.022 27.02 6.843 47.059l30.996-51.052-37.825 1.891z"/>
  <path d="m271.94 1534.9c-1.83 3.156-4.482 6.3-8.257 10.825-0.178 0.206-0.352 0.405-0.53 0.609l5.766 9.039 3.021-20.473z"/>
  <path d="m277.14 1494.4c-0.501 3.918-1.81 7.733-1.663 11.734 0.042 1.451 0.075 2.814 0.101 4.112l2.345-15.897-0.783 0.051z"/>
  <path d="m229.65 1617.9c0.691 0.781 1.381 1.569 2.324 2.057 3.099 0.853 6.537-0.696 9.514 0.836 2.759 1.219 5.493 3.656 8.739 2.733 2.803-1.193 4.361-4.004 6.406-6.084 0.574 1.932 0 4.849 2.307 5.797 2.044 0.667 4.074 1.126 6.086 1.412l-27.121-33.284-8.255 26.533z"/>
  <polygon points="232.9 459.82 281.92 466.83 233.9 426.81"/>
  <path d="m282.92 1041.1l-48.523 17.645c1.035 2.74 2.057 5.483 3.012 8.247l45.511 28.134v-54.026z"/>
  <path d="m284.92 1173.2l-41.208 4.338c-0.211 6.404-0.453 12.779-0.713 19.038l24.913 28.65 17.008-52.026z"/>
  <polygon points="284.92 366.78 281.92 322.76 238.9 368.78"/>
  <path d="m284.92 273.73l-19.788 6.962c-18.551 18.05-14.967 11.681-25.498 11.895-2.613 0.157-5.26 0.351-7.898 0.648l50.182 29.519 3.002-49.024z"/>
  <path d="m276.92 1272.2l-30.996 51.052c0.252 1.321 0.509 2.657 0.771 4.005l39.23-10.036-9.005-45.021z"/>
  <path d="m285.92 1317.2l-39.23 10.036c0.555 2.864 1.132 5.787 1.725 8.757l28.501 40.236 9.004-59.029z"/>
  <polygon points="269.92 644.91 235.9 687.93 286.92 690.94"/>
  <polygon points="286.92 690.94 225.9 736.96 286.92 745.96"/>
  <polygon points="235.9 687.93 225.9 736.96 286.92 690.94"/>
  <path d="m281.92 466.83l-43.173 33.361c0.074 0.29 0.148 0.58 0.221 0.87l48.955 9.791-6.003-44.022z"/>
  <path d="m287.92 510.85l-48.955-9.791c0.154 0.605 0.308 1.21 0.462 1.816l38.488 50.996 10.005-43.021z"/>
  <path d="m237.9 1591.4l27.121 33.284c7.23 1.025 14.212-0.301 20.627-3.215l3.277-21.065-51.025-9.004z"/>
  <polygon points="237.9 1591.4 288.93 1600.4 268.92 1555.4"/>
  <polygon points="233.9 426.81 281.92 466.83 288.93 413.8"/>
  <polygon points="238.9 368.78 288.93 413.8 284.92 366.78"/>
  <polygon points="238.9 368.78 233.9 426.81 288.93 413.8"/>
  <polygon points="289.93 866.02 233.9 867.02 273.92 904.04"/>
  <polygon points="278.92 827 238.9 832 289.93 866.02"/>
  <polygon points="238.9 832 233.9 867.02 289.93 866.02"/>
  <path d="m248.42 1336c1.872 9.373 3.912 19.219 6.017 29.244l22.484 10.992-28.501-40.236z"/>
  <path d="m282.92 1095.1l-39.09 9.149c0.145 2.719 0.263 5.558 0.359 8.49l31.728 25.382 7.003-43.021z"/>
  <polygon points="286.92 745.96 228.9 768.97 281.92 781.98"/>
  <path d="m239.43 502.87c2.774 10.892 5.559 21.759 8.065 30.933 2.79 10.656 6.728 10.415 9.126 22.247l21.296-2.184-38.487-50.996z"/>
  <polygon points="281.92 781.98 238.9 832 278.92 827"/>
  <path d="m275.92 1138.2l-31.528 11.823c-2e-3 0.15-5e-3 0.301-7e-3 0.452l40.54 22.742-9.005-35.017z"/>
  <path d="m267.92 1225.2l-26.961 13.48c-0.025 0.466-0.051 0.938-0.076 1.398l36.041 32.145-9.004-47.023z"/>
  <polygon points="269.92 954.06 242.9 1014.1 271.92 1011.1"/>
  <path d="m277.92 553.87l-21.296 2.184c0.836 4.125 1.486 9.705 1.833 17.741 0.114 4.714 0.064 8.697-0.127 12.216l9.585 13.882 10.005-46.023z"/>
  <path d="m276.92 1415.3l-10.599 6.624c2.64 12.918 5.026 25.098 6.896 35.8l5.704 1.597-2.001-44.021z"/>
  <polygon points="281.92 322.76 227.9 324.76 238.9 368.78"/>
  <polygon points="225.9 736.96 228.9 768.97 286.92 745.96"/>
  <path d="m237.41 1067c1.06 3.068 2.035 6.162 2.827 9.308 1.818 6.154 2.953 15.951 3.594 27.974l39.09-9.149-45.511-28.133z"/>
  <polygon points="228.9 768.97 238.9 832 281.92 781.98"/>
  <path d="m244.38 1150.4c-0.135 8.889-0.369 18.006-0.668 27.079l41.208-4.338-40.54-22.741z"/>
  <path d="m281.54 264.34c-6.885 6.945-12.208 12.271-16.406 16.356l19.788-6.962-3.382-9.394z"/>
  <polygon points="233.9 953.06 242.9 1014.1 269.92 954.06"/>
  <path d="m276.92 1376.3l-17.56 12.329c1.793 8.478 3.572 16.911 5.274 25.121l12.286 1.568v-39.018z"/>
  <path d="m278.92 1459.3l-4.776 3.861c2.181 13.179 3.421 23.661 3.139 29.789-0.033 0.475-0.088 0.947-0.148 1.418l0.784-0.051 1.001-35.017z"/>
  <path d="m232.9 459.82l4.068 33.361c0.591 2.318 1.186 4.658 1.782 7.003l43.173-33.361-49.023-7.003z"/>
  <path d="m281.92 322.76l-50.182-29.519c-0.3 0.034-0.6 0.069-0.899 0.106l-2.945 31.414 54.026-2.001z"/>
  <polygon points="242.9 1014.1 282.92 1041.1 271.92 1011.1"/>
  <path d="m242.9 1014.1l-11.596 36.335c0.995 2.784 2.046 5.552 3.093 8.323l48.523-17.645-40.02-27.013z"/>
  <path d="m267.92 599.89l-11.715 1.212c-1.289 5.433-3.057 10.701-5.16 17.988-0.012 0.065-0.024 0.133-0.037 0.199l18.912 25.623-2-45.022z"/>
  <path d="m240.88 1240.1c-0.894 16.463-1.64 28.956-1.784 34.036l37.825-1.891-36.041-32.145z"/>
  <path d="m244.19 1112.8c0.37 11.265 0.396 23.969 0.2 37.206l31.528-11.823-31.728-25.383z"/>
  <path d="m264.63 1413.7c0.572 2.759 1.135 5.491 1.687 8.193l10.599-6.624-12.286-1.569z"/>
  <path d="m273.22 1457.7c0.326 1.868 0.635 3.684 0.928 5.458l4.776-3.861-5.704-1.597z"/>
  <path d="m268.92 1555.4l-13.349-0.477c-6.051 6.691-11.414 12.287-16.089 17.038l-1.578 19.457 31.016-36.018z"/>
  <path d="m269.92 644.91l-24.31 4.42c-2.536 13.313-5.527 26.355-9.729 36.477-0.114 0.275-0.227 0.572-0.34 0.856l0.362 1.268 34.017-43.021z"/>
  <path d="m254.44 1365.3c1.621 7.719 3.278 15.537 4.924 23.321l17.56-12.329-22.484-10.992z"/>
  <path d="m258.33 586.01c-0.324 5.971-1.061 10.592-2.129 15.094l11.715-1.212-9.586-13.882z"/>
  <polygon points="233.9 867.02 240.9 921.05 273.92 904.04"/>
  <polygon points="240.9 921.05 233.9 953.06 269.92 954.06"/>
  <path d="m243 1196.5c-0.634 15.236-1.378 29.746-2.048 42.13l26.961-13.48-24.913-28.65z"/>
  <path d="m251 619.29c-1.76 9.37-3.444 19.786-5.398 30.043l24.31-4.42-18.912-25.623z"/>
  <path d="m216.9 772.97c-0.552 3.769-1.089 7.558-1.61 11.351l13.605-15.349-11.995 3.998z"/>
  <polygon points="191.88 407.8 233.9 426.81 197.88 375.78"/>
  <path d="m228.9 768.97l-13.605 15.349c-1.704 12.424-3.228 24.882-4.531 36.769l28.141 10.912-10.005-63.03z"/>
  <path d="m195.46 516.06c2.128-3.383 4.432-7.072 6.93-11.123l-16.51 1.905 9.58 9.218z"/>
  <path d="m184.01 534.19c3.147-5.047 6.899-10.896 11.444-18.122l-9.58-9.218-1.864 27.34z"/>
  <polygon points="197.88 375.78 233.9 426.81 238.9 368.78"/>
  <path d="m233.9 867.02l-28.006 25.338c0.156 6.004 0.551 11.765 1.159 17.635l33.85 11.053-7.003-54.026z"/>
  <path d="m233.9 953.06l-16.663 20.366c1.657 9.695 3.455 20.567 5.369 32.995l20.299 7.669-9.005-61.03z"/>
  <path d="m222.6 1006.4c1.155 7.502 2.352 15.567 3.585 24.28 0.844 6.815 2.825 13.311 5.117 19.723l11.596-36.335-20.298-7.668z"/>
  <path d="m235.9 687.93l-1.315 1.228c-4.089 11.181-8.044 27.938-11.645 47.205l2.956 0.591 10.004-49.024z"/>
  <polygon points="227.9 324.76 194.88 334.76 238.9 368.78"/>
  <path d="m239.48 1571.9c-8.68 8.819-14.999 14.745-19.014 19.457h17.436l1.578-19.457z"/>
  <path d="m214.52 957.8c0.854 4.866 1.761 10.052 2.714 15.63l16.663-20.366-19.377 4.736z"/>
  <path d="m220.46 1591.4c-6.117 7.179-6.878 11.538-2.448 19.008 2.237 0.818 3.786 2.568 5.284 4.352 1.192 1.576 3.308 1.375 5.031 1.828 0.476 0.401 0.896 0.872 1.315 1.346l8.255-26.534h-17.437z"/>
  <polygon points="194.88 334.76 197.88 375.78 238.9 368.78"/>
  <path d="m206.52 868.98c-0.611 10.05-0.844 18.133-0.63 23.302 1e-3 0.027 2e-3 0.054 2e-3 0.081l28.006-25.338-27.378 1.955z"/>
  <path d="m202.39 504.94c3.681-5.97 7.781-12.719 12.375-20.463 3.153-5.59 4.98-9.444 6.08-12.597l-34.965 34.965 16.51-1.905z"/>
  <path d="m229.2 463.52c2.279 8.216 4.97 18.694 7.765 29.665l-4.068-33.361-3.697 3.696z"/>
  <path d="m238.9 832l-31.587 25.539c-0.31 4.034-0.576 7.859-0.793 11.434l27.378-1.956 5.002-35.017z"/>
  <path d="m240.9 921.05l-33.85-11.053c0.486 4.704 1.109 9.479 1.856 14.507l24.991 28.562 7.003-32.016z"/>
  <path d="m210.76 821.09c-1.439 13.127-2.607 25.547-3.446 36.45l31.587-25.539-28.141-10.911z"/>
  <path d="m208.91 924.5c1.442 9.713 3.345 20.376 5.614 33.298l19.377-4.737-24.991-28.561z"/>
  <path d="m235.01 688.01c-0.142 0.375-0.284 0.764-0.426 1.152l1.315-1.228-0.889 0.076z"/>
  <path d="m228.06 459.47c0.368 1.276 0.749 2.628 1.143 4.048l3.696-3.696-4.839-0.352z"/>
  <path d="m185.88 506.85l34.965-34.965c1.64-4.701 1.656-7.843 1.976-12.791l-44.945-3.269 8.004 51.025z"/>
  <path d="m233.9 426.81l-56.027 29.014 44.945 3.269c0.188-2.915 0.483-6.456 1.284-11.327 0.944 1.813 2.312 5.993 3.958 11.708l4.839 0.352 1.001-33.016z"/>
  <path d="m235.54 686.67c-0.176 0.44-0.351 0.882-0.527 1.343l0.889-0.075-0.362-1.268z"/>
  <path d="m227.9 324.76l2.945-31.414c-0.17 0.021-0.341 0.039-0.511 0.06l-35.45 41.358 33.016-10.004z"/>
  <polygon points="177.87 455.82 233.9 426.81 191.88 407.8"/>
  <path d="m222.94 736.37c-0.369 1.973-0.734 3.97-1.095 5.993l4.051-5.402-2.956-0.591z"/>
  <path d="m225.9 736.96l-4.051 5.402c-1.749 9.793-3.406 20.12-4.943 30.612l11.996-3.999-3.002-32.015z"/>
  <path d="m230.33 293.4c-6.808 0.871-13.505 2.54-19.347 6.271-8.479 5.248-15.807 10.816-22.157 16.589l6.054 18.498 35.45-41.358z"/>
  <path d="m162.37 596.64c0.142-2.124 0.329-4.237 0.763-6.285 1.039-5.448 1.997-10.139 2.947-14.303l-11.222 16.833 7.512 3.755z"/>
  <path d="m152.24 839.19c1.865-1.749 1.008-4.043-0.106-6.883l-5.274 2.698 5.38 4.185z"/>
  <path d="m147.57 839.64c1.052 0.44 2.135 0.796 3.276 0.502 0.577-0.296 1.034-0.613 1.392-0.949l-5.38-4.185 0.712 4.632z"/>
  <path d="m188.83 316.26c-4.318 3.925-8.183 7.945-11.638 12.025l17.692 6.473-6.054-18.498z"/>
  <path d="m194.88 334.76l-39.563 32.098c-1.223 3.563-2.259 7.089-3.134 10.554l45.698-1.632-3.001-41.02z"/>
  <path d="m155.86 517.85l21.902 26.769c1.792-3.189 3.845-6.579 6.249-10.434l1.864-27.34-30.015 11.005z"/>
  <path d="m197.88 375.78l-45.698 1.632c-0.491 1.944-0.931 3.868-1.327 5.77l41.022 24.613 6.003-32.015z"/>
  <path d="m191.88 407.8l-44.644 6.649c-0.051 1.071-0.097 2.117-0.14 3.136l30.777 38.238 14.007-48.023z"/>
  <path d="m177.19 328.29c-10.698 12.634-17.5 25.841-21.871 38.571l39.563-32.098-17.692-6.473z"/>
  <path d="m150.86 383.18c-2.418 11.59-3.198 22.316-3.622 31.262l44.644-6.649-41.022-24.613z"/>
  <polygon points="185.88 506.85 177.87 455.82 155.86 517.85"/>
  <path d="m177.87 455.82l-38.065 2.656c-0.955 1.979-1.976 3.845-3.046 5.71l19.101 53.664 22.01-62.03z"/>
  <path d="m152.13 832.31c-0.882-2.249-1.923-4.839-1.896-7.775-0.051-4.001-0.07-8.181-1.511-11.945l-1.868 22.418 5.275-2.698z"/>
  <path d="m154.86 592.89l11.222-16.833c2.485-10.89 4.916-18.133 8.587-25.588l-32.815-1.601 13.006 44.022z"/>
  <path d="m154.37 619.83c1.521-2.518 3.031-5.036 4.517-7.554 3.058-4.71 3.121-10.209 3.485-15.632l-7.512-3.756-0.49 26.942z"/>
  <path d="m141.85 548.87l32.815 1.601c0.942-1.912 1.966-3.84 3.093-5.847l-21.902-26.769-14.006 31.015z"/>
  <path d="m147.09 417.58c-0.141 3.36-0.252 6.43-0.41 9.142-0.83 15.878-3.415 24.576-6.877 31.753l38.065-2.656-30.778-38.239z"/>
  <path d="m107.9 697c1.033-1.943 2.092-3.893 3.172-5.848l-8.235 0.784 5.063 5.064z"/>
  <path d="m93.831 722.95l1.656 0.452c3.442-8.646 7.661-17.46 12.413-26.403l-5.064-5.064-9.005 31.015z"/>
  <path d="m120.44 887.15c0.428-2.087-0.468-4.254-0.247-6.371 5.579-0.679 11.168 0.992 16.73 0.27 2.559-1.985 1.567-5.832 0.627-8.434-1.259-2.816-3.576-3.782-6.56-4.821l-24.147 8.232 13.597 11.124z"/>
  <path d="m149.11 861.61l-11.668 3.978c5.71 1.003 10.173 0.278 11.668-3.978z"/>
  <path d="m122.25 834.51c-4.648-4.099-9.002-8.348-12.059-12.132l-13.355 11.624 25.414 0.508z"/>
  <path d="m131.42 823.13c4.746 8.281 4.755 10.326 6.26 11.692l9.171 0.183 1.868-22.418c-0.296-0.772-0.646-1.529-1.075-2.261-2.779-5.068-5.461-9.547-8.072-13.526l-18.594 16.184c3.462 3.334 9.415 8.542 10.442 10.146z"/>
  <path d="m121.91 775.98c-5.846-4.918-11.599-7.939-17.598-10.178l-3.474 2.171 21.072 8.007z"/>
  <path d="m125.9 665.82c4.17-6.824 8.462-13.691 12.772-20.585l-35.837-6.324 23.065 26.909z"/>
  <polygon points="154.86 592.89 141.85 548.87 103.84 559.87"/>
  <path d="m102.84 638.91l35.837 6.324c5.276-8.439 10.571-16.918 15.698-25.404l0.49-26.942-52.025 46.022z"/>
  <polygon points="102.84 638.91 154.86 592.89 87.828 595.89"/>
  <path d="m155.86 517.85l-42.091 2.177c-1.065 2.561-2.336 5.339-3.923 8.47l32.007 20.368 14.007-31.015z"/>
  <path d="m136.76 464.19c-2.874 5.012-6.096 10.043-9.313 17.392-8.207 18.41-8.403 25.763-13.678 38.449l42.091-2.177-19.1-53.664z"/>
  <polygon points="87.828 595.89 154.86 592.89 103.84 559.87"/>
  <path d="m102.84 691.94l8.235-0.784c4.613-8.354 9.621-16.808 14.83-25.332l-23.065-26.909v53.025z"/>
  <path d="m96.833 834l13.355-11.624c-6.607-8.177-7.154-14.18 8.521-11.785 0.376 0.51 1.213 1.364 2.276 2.388l18.594-16.184c-6.192-9.437-11.977-16.03-17.672-20.82l-21.071-8.007-4.003 66.032z"/>
  <path d="m143.93 838.01c0.622 0.288 1.302 0.606 2.053 0.963 0.524 0.194 1.053 0.44 1.59 0.664l-0.713-4.631-2.93 3.004z"/>
  <path d="m137.44 865.59l11.668-3.978c0.449-1.279 0.632-2.876 0.499-4.841-1.192-2.881-4.265-4.256-6.607-6.049-1.807-1.214-4.141-2.879-6.756-4.843l-14.393 14.753c5.407 2.158 10.915 4.137 15.589 4.958z"/>
  <path d="m130.98 867.79c-3.04-1.059-6.774-2.202-10.802-5.447l-13.345 13.679 24.147-8.232z"/>
  <path d="m106.84 876.02l13.345-13.679c-1.369-1.103-2.77-2.442-4.19-4.111 1.909 0.791 3.878 1.606 5.861 2.398l14.393-14.753c-4.266-3.204-9.282-7.207-14-11.368l-25.415-0.508 10.006 42.021z"/>
  <path d="m137.68 834.82c0.953 0.865 2.505 1.459 6.241 3.187l2.931-3.004-9.172-0.183z"/>
  <path d="m104.31 765.8c-1.05-0.392-2.107-0.762-3.174-1.112-0.275-0.097-0.561-0.18-0.85-0.257l0.551 3.541 3.473-2.172z"/>
  <path d="m94.353 726.3c0.366-0.965 0.748-1.934 1.134-2.903l-1.656-0.452 0.522 3.355z"/>
  <path d="m141.85 548.87l-32.007-20.368c-2.162 4.267-4.91 9.189-8.514 15.106l2.503 16.268 38.018-11.006z"/>
  <path d="m105.32 890.41c11.529-0.757 13.589-1.017 14.952-2.621 0.074-0.211 0.116-0.423 0.16-0.636l-13.597-11.125-1.515 14.382z"/>
  <polygon points="96.833 834 100.83 767.97 52.811 817"/>
  <path d="m102.84 638.91l-49.677 5.961c-0.02 0.104-0.039 0.209-0.058 0.313l49.735 46.751v-53.025z"/>
  <path d="m81.427 890.67c2.383 0.641 4.947 1.286 7.73 1.94 1.68 0.644 2.785-1.314 4.352-1.428 4.775-0.321 8.649-0.566 11.814-0.774l1.514-14.382-25.41 14.644z"/>
  <polygon points="106.84 876.02 96.833 834 60.815 858.02"/>
  <path d="m53.1 645.18c-2.022 10.777-3.566 22.849-5.226 37.591l54.962 9.16-49.736-46.751z"/>
  <path d="m60.815 858.02l-5.022 20.088c3.467 4.76 10.847 8.585 25.634 12.564l25.41-14.643-46.022-18.009z"/>
  <path d="m100.28 764.43c-2.014-0.537-4.339-0.637-6.519-0.701l7.07 4.242-0.551-3.541z"/>
  <path d="m50.81 737.96l35.506 21.304c0.874-10.621 3.747-21.638 8.036-32.956l-0.522-3.355-43.02 15.007z"/>
  <polygon points="100.83 767.97 46.808 768.97 52.811 817"/>
  <path d="m101.33 543.6c-1.675 2.749-3.532 5.711-5.604 8.925-0.946 1.45-1.864 2.866-2.768 4.265l10.876 3.078-2.504-16.268z"/>
  <path d="m87.828 595.89l-34.552 48.373c-0.039 0.203-0.079 0.405-0.118 0.609l49.677-5.961-15.007-43.021z"/>
  <path d="m103.84 559.87l-22.848 16.042c-3.953 6.58-7.358 12.61-10.316 18.315l17.156 1.66 16.008-36.017z"/>
  <path d="m92.96 556.79c-4.471 6.919-8.442 13.243-11.973 19.12l22.848-16.042-10.875-3.078z"/>
  <path d="m46.808 768.97l54.026-1-7.07-4.242c-4.511-0.133-8.387-0.126-7.533-3.594 0.021-0.29 0.06-0.584 0.084-0.875l-35.505-21.304-4.002 31.015z"/>
  <path d="m102.84 691.94l-54.962-9.16c-0.11 0.976-0.22 1.963-0.331 2.963l46.289 37.212 9.004-31.015z"/>
  <path d="m70.672 594.23c-9.09 17.534-13.945 32.014-17.396 50.033l34.552-48.373-17.156-1.66z"/>
  <path d="m93.831 722.95l-46.289-37.212c-0.527 4.746-1.07 9.759-1.646 15.095-0.052 0.539-0.108 1.057-0.163 1.583l5.077 35.541 43.021-15.007z"/>
  <polygon points="60.815 858.02 96.833 834 52.811 817"/>
  <path d="m51.802 867.45c0.555 1.833 1.119 3.689 1.702 5.584 0.42 1.82 1.142 3.497 2.289 5.072l5.022-20.088-9.013 9.432z"/>
  <path d="m49.059 858.24c0.877 2.986 1.786 6.041 2.743 9.206l9.013-9.432-11.756 0.226z"/>
  <path d="m52.811 817l-11.96 11.416c2.234 8.849 4.948 18.734 8.207 29.83l11.756-0.226-8.003-41.02z"/>
  <path d="m45.733 702.42c-1.235 11.841-3.292 20.551-5.457 27.988l10.535 7.553-5.078-35.541z"/>
  <path d="m46.808 768.97l-15.039 5.729c0.232 8.206 1.392 18.133 3.89 30.859l17.152 11.435-6.003-48.023z"/>
  <path d="m40.276 730.4c-0.663 2.276-1.335 4.437-1.997 6.53l12.532 1.023-10.535-7.553z"/>
  <path d="m38.031 816.7c0.84 3.69 1.781 7.593 2.821 11.712l11.96-11.416-14.781-0.296z"/>
  <path d="m35.659 805.56c0.686 3.493 1.475 7.201 2.371 11.139l14.781 0.296-17.152-11.435z"/>
  <path d="m50.81 737.96l-12.532-1.023c-2.239 7.077-4.352 13.419-5.548 21.089l14.078 10.949 4.002-31.015z"/>
  <path d="m32.731 758.02c-0.756 4.851-1.144 10.235-0.962 16.679l15.039-5.729-14.077-10.95z"/>
 </g>
</svg>
