<?xml version="1.0" encoding="UTF-8"?>
<svg width="67mm" height="138mm" clip-rule="evenodd" fill-rule="evenodd" image-rendering="optimizeQuality" shape-rendering="geometricPrecision" text-rendering="geometricPrecision" viewBox="0 0 6700 13800" xmlns="http://www.w3.org/2000/svg" xmlns:xlink="http://www.w3.org/1999/xlink">
 <defs>
  <style type="text/css">.fil10 {fill:#2B2A29} .fil8 {fill:#434242} .fil9 {fill:#727271} .fil6 {fill:#FEFEFE} .fil7 {fill:black} .fil5 {fill:#1B1B1B} .fil0 {fill:#ACACAC} .fil3 {fill:url(#a)} .fil1 {fill:url(#e)} .fil4 {fill:url(#f)} .fil2 {fill:url(#g)}</style>
  <linearGradient id="a" x1="90.58" x2="3157.8" y1="13800" y2="13800" gradientUnits="userSpaceOnUse">
   <stop stop-color="#2B2A29" offset="0"/>
   <stop stop-color="#4D4D4D" offset="1"/>
  </linearGradient>
  <linearGradient id="e" x1="41.74" x2="3171" y1="6840.1" y2="6875.2" gradientUnits="userSpaceOnUse" xlink:href="#a"></linearGradient>
  <linearGradient id="f" x1="3478.6" x2="6258" y1="13800" y2="13800" gradientUnits="userSpaceOnUse">
   <stop stop-color="#4D4D4D" offset="0"/>
   <stop stop-color="#2B2A29" offset="1"/>
  </linearGradient>
  <linearGradient id="g" x1="6534.8" x2="3532" y1="6789.7" y2="6874.8" gradientUnits="userSpaceOnUse" xlink:href="#a"></linearGradient>
 </defs>
 <rect class="fil0" x="-1" width="6699" height="13801" rx="1355" ry="1355"/>
 <path class="fil1" d="m1431 0h1918v6900h-3220v-5598c0-716 586-1303 1303-1303z"/>
 <path class="fil2" d="m3349 0h1914c715 0 1300 585 1300 1300v5575h-3214v-6875z"/>
 <path class="fil3" d="m128 6900h3239v6900h-1936c-717 0-1303-586-1303-1303v-5598z"/>
 <path class="fil4" d="m3367 6875h3196v5626c0 715-585 1300-1300 1300h-1896v-6926z"/>
 <rect class="fil5" x="213" y="169" width="6265" height="13462" rx="1317" ry="1317"/>
 <rect class="fil6" x="344" y="1490" width="6003" height="10829"/>
 <rect class="fil7" x="2685" y="616" width="1359" height="112" rx="78" ry="78"/>
 <rect class="fil8" x="2685" y="592" width="1363" height="110" rx="68" ry="68"/>
 <path class="fil9" d="m-20 2421h64v906h-64c-19 0-34-15-34-34v-839c0-19 15-34 34-34z"/>
 <ellipse class="fil0" cx="3367" cy="12973" rx="318" ry="317"/>
 <circle class="fil10" cx="3367" cy="12973" r="309"/>
 <rect class="fil6" x="3295" y="12899" width="144" height="144"/>
 <rect class="fil10" x="3308" y="12911" width="119" height="118"/>
</svg>
