<?xml version="1.0" encoding="UTF-8"?>
<svg version="1.1" viewBox="0 0 744.09 1052.4" xmlns="http://www.w3.org/2000/svg">
 <path d="m286.55 66.729c-76.05 1.9267-137.14 64.307-137.14 140.82 0 32.449 10.989 62.244 29.438 86.05 13.992 21.332 38.733 60.714 49.818 89.871 6.5903 17.334 8.7748 70.34 8.7748 70.34s34.246 8.7748 52.79 8.7748c2.318 0 4.9314-0.18464 7.6426-0.42459 18.978-1.6796 45.148-8.3502 45.148-8.3502s0.11681-3.2516 0.42459-8.4918c0.92332-15.721 3.4076-48.848 8.3502-61.848 10.56-27.775 33.247-65.024 47.412-87.041 19.81-24.249 31.703-55.127 31.703-88.88 0-77.729-62.951-140.82-140.68-140.82-1.2145 0-2.4726-0.0308-3.6798 0zm-42.034 113.65c1.1586-0.0196 2.3131 0.28202 3.5382 0.70765h0.14153c5.5791 2.4911 10.715 8.8342 15.427 16.842 0.33202 0.56437 0.66463 1.2588 0.99071 1.8399 1.1006-1.8752 2.0879-3.9921 3.2552-5.6612 2.6688-3.8159 5.4591-7.0204 8.3502-9.341 2.8912-2.3205 5.9555-3.8213 9.0579-3.8213 3.4029 0 6.4868 1.4461 9.1994 3.8213 2.7127 2.3752 5.1172 5.6272 7.218 9.4825 1.0146 1.862 1.8011 4.2638 2.6891 6.3688 1.8149-2.4179 3.3872-5.1503 5.3781-7.218 7.1222-7.3969 15.386-12.281 23.635-11.605 2.0312 0.16628 3.6918 1.5467 4.6705 3.3967 0.97871 1.85 1.4667 4.3172 1.8399 7.218 0.74596 5.8017 0.63396 13.761-0.14153 23.211-1.5509 18.9-5.6056 43.791-10.332 68.642-9.0612 47.646-20.294 93.957-21.229 97.797 1.1162 0.22079 2.1218 0.43139 3.1136 0.70765 3.651 1.0169 6.6033 2.2661 7.9256 4.812 0.77676 1.4956 0.78418 3.2452 0.70764 5.5196-0.0765 2.2744-0.38532 4.9565-0.84917 8.0672-0.92776 6.2214-2.4331 13.869-4.1044 21.229-3.2604 14.36-6.8934 27.508-7.0765 28.164-0.52205 0.06-1.034 0.0874-1.5568 0.14153l-1.9814-0.56612s3.7548-13.818 7.0765-28.447c1.6608-7.315 3.341-14.878 4.2459-20.946 0.45262-3.0342 0.63836-5.7255 0.70765-7.7841 0.0693-2.0586-0.1712-3.6062-0.28306-3.8213-0.45484-0.87572-2.5396-2.2049-5.8027-3.1136-3.2631-0.90882-7.566-1.4176-12.313-1.6984-9.4941-0.56168-20.686 0.17939-28.447 1.8399-1.4025 0.30004-2.266 0.98142-2.9721 2.6891-0.70606 1.7076-1.0315 4.2875-0.9907 7.3595 0.0798 6.144 1.7283 14.31 3.8213 22.362 4.1859 16.103 10.332 31.844 10.332 31.844l-1.2738 0.56612c-0.80172-0.066-1.6053-0.20494-2.406-0.28306-0.57427-1.4816-6.0072-15.731-10.049-31.278-2.1277-8.1852-3.7348-16.394-3.8213-23.069-0.0434-3.3375 0.27912-6.3694 1.2738-8.7748 0.9947-2.4055 2.782-4.3982 5.3781-4.9535 1.5435-0.3302 3.2246-0.59465 4.9535-0.84917-2.1478-3.2036-4.3396-7.6245-6.6519-13.162-3.083-7.3837-6.2748-16.744-9.4825-27.174-6.4154-20.86-12.801-46.394-17.408-70.906-4.6072-24.512-7.456-47.912-7.0765-64.679 0.18981-8.3832 1.154-15.111 3.3967-19.673 1.1213-2.2807 2.66-4.1196 4.6705-5.0951 1.0052-0.48772 2.0966-0.68817 3.2552-0.70765zm0 3.5382c-0.66186 0.0107-1.3057 0.16544-1.8399 0.42459-1.0807 0.52433-2.0694 1.5606-2.9721 3.3967-1.8054 3.6722-2.7878 10.109-2.9721 18.257-0.36897 16.297 2.494 39.591 7.0765 63.971 4.5825 24.381 10.755 49.771 17.125 70.482 3.1848 10.356 6.4634 19.518 9.4825 26.749 2.6748 6.406 5.2823 11.42 7.3595 14.153 6.5805-0.71168 13.74-0.95878 20.38-0.56612 2.2605 0.13374 4.4513 0.42459 6.5104 0.70765 0.76449-3.1421 12.115-50.013 21.229-97.938 4.7149-24.792 8.8004-49.558 10.332-68.217 0.76544-9.3297 0.82889-17.159 0.14153-22.503-0.34366-2.672-0.7605-4.7065-1.4153-5.9442-0.6548-1.2378-1.2054-1.6465-1.8399-1.6984-6.5944-0.53982-13.935 3.6272-20.663 10.615-2.3218 2.4114-4.4201 5.549-6.5104 8.4918 2.0773 5.6655 3.8924 11.613 5.0951 17.833 1.9475 10.075 2.6685 20.204 1.9814 27.881-0.34356 3.8387-1.0425 7.0085-2.2645 9.4825-1.222 2.4739-3.2944 4.4413-5.9442 4.3874-4.9175-0.10018-8.9174-1.6722-11.747-4.2459-2.8296-2.5736-4.5013-6.1297-5.2366-10.19-1.4705-8.1207 0.59936-18.329 4.6705-28.447 2.4231-6.0226 5.6779-11.858 9.3409-17.267-1.0606-2.7102-2.015-5.5082-3.2552-7.7841-1.9696-3.6146-4.1032-6.6495-6.3688-8.6333s-4.5622-2.9721-6.9349-2.9721c-1.924 0-4.2764 1.0934-6.7934 3.1136-2.517 2.0203-5.1068 5.0074-7.6426 8.6333-1.5215 2.1756-2.9742 4.7953-4.3874 7.3595 3.4753 6.8076 6.5893 14.178 8.7748 21.654 2.7833 9.5208 4.3351 18.882 3.5382 26.041-0.39846 3.5797-1.4045 6.5964-3.2552 8.9164-1.8508 2.32-4.6846 3.8258-8.0672 3.8213-4.5105-8e-3 -8.1228-1.4674-10.756-3.9628-2.6335-2.4954-4.317-5.9435-5.0951-9.9071-1.5562-7.9271 0.0208-18.073 3.1136-28.164 1.9762-6.4484 4.7312-12.606 7.7841-18.399-0.65018-1.2212-1.1653-2.6747-1.8399-3.8213-4.5008-7.6497-9.5513-13.366-13.728-15.285-0.0186-7e-3 -0.11889 7e-3 -0.14153 0-0.88677-0.30217-1.6027-0.43501-2.2645-0.42459zm19.956 23.211c-2.4593 4.9806-4.8578 10.318-6.5104 15.71-2.9903 9.758-4.1991 19.495-2.8306 26.466 0.68428 3.4855 2.004 6.211 3.9628 8.0672s4.5532 2.9631 8.3502 2.9721c2.4832 4e-3 4.1217-0.83106 5.3781-2.406 1.2564-1.5749 2.0518-4.0352 2.406-7.218 0.70855-6.3658-0.55099-15.376-3.2552-24.626-1.8975-6.491-4.576-12.916-7.5011-18.965zm38.921 0.28306c-2.9973 4.6887-5.5912 9.7619-7.6426 14.861-3.915 9.7306-5.8071 19.549-4.5289 26.608 0.63908 3.5291 2.1042 6.2607 4.2459 8.2087s5.0813 3.1682 9.3409 3.2552c1.0456 0.0213 1.7859-0.57744 2.6891-2.406 0.90321-1.8286 1.6599-4.7567 1.9814-8.3502 0.6432-7.1871-0.0826-16.929-1.9814-26.749-1.0195-5.2721-2.4522-10.552-4.1044-15.427zm-65.953 251.64 9.0579 13.445s-9.0262 7.6153-9.0579 12.879c-0.0309 5.4052 9.0579 13.445 9.0579 13.445s-11.1 8.1477-9.0579 13.021c6.8921 16.45 26.119 17.691 52.507 17.691s46.534-1.098 53.074-17.691c1.8278-4.6378-9.1994-11.888-9.1994-11.888s9.3154-8.8633 9.1994-14.578c-0.10629-5.2402-8.9164-12.879-8.9164-12.879l8.9164-13.445s-26.402 8.7748-52.79 8.7748-52.79-8.7748-52.79-8.7748zm92.56 15.568c0.40058 0.0145 0.6311 0.0747 0.70764 0.28306 0.3058 0.8341-2.8641 3.3279-3.6798 3.6798 0 0-18.789 11.413-31.844 15.285-6.621 1.9638-15.617 2.6454-23.069 2.8306-7.4522 0.18523-13.304-0.14153-13.304-0.14153 19.409-2.2413 45.951-7.4774 66.519-20.946 0.18175-0.12908 0.34964-0.23098 0.56612-0.28306 0.63745-0.19402 2.9022-0.75294 4.1044-0.70765zm0 24.626c0.40058 0.0145 0.6311 0.0747 0.70764 0.28306 0.3058 0.83414-2.8641 3.3279-3.6798 3.6798 0 0-18.789 11.413-31.844 15.285-6.621 1.9638-15.617 2.6454-23.069 2.8306-7.4522 0.18523-13.304-0.14153-13.304-0.14153 19.409-2.2413 45.951-7.4774 66.519-20.946 0.18175-0.12862 0.34964-0.23097 0.56612-0.28306 0.63745-0.19402 2.9022-0.75293 4.1044-0.70764z"/>
</svg>
