<?xml version="1.0" encoding="iso-8859-1"?>
<!-- Generator: Adobe Illustrator 19.0.0, SVG Export Plug-In . SVG Version: 6.00 Build 0)  -->
<svg version="1.1" id="Layer_1" xmlns="http://www.w3.org/2000/svg" xmlns:xlink="http://www.w3.org/1999/xlink" x="0px" y="0px"
	 viewBox="0 0 511.998 511.998" style="enable-background:new 0 0 511.998 511.998;" xml:space="preserve">
<circle style="fill:#21D0C3;" cx="255.999" cy="255.999" r="255.999"/>
<path style="fill:#FFFFFF;" d="M84.955,108.547h104.21h15.514c1.88,0,3.417,1.539,3.417,3.417v20.337v74.282H66.026h-0.002v-74.282
	v-20.337c0-1.88,1.539-3.417,3.417-3.417C69.441,108.547,84.955,108.547,84.955,108.547z"/>
<path style="fill:#828282;" d="M69.439,108.547h135.234c1.88,0,3.417,1.539,3.417,3.417v6.835H66.022v-6.835
	C66.022,110.084,67.561,108.547,69.439,108.547z"/>
<path style="fill:#FFFFFF;" d="M129.272,112.088h68.626c0.505,0,0.917,0.412,0.917,0.917v1.705c0,0.505-0.412,0.917-0.917,0.917
	h-68.626c-0.505,0-0.917-0.412-0.917-0.917v-1.705C128.355,112.5,128.767,112.088,129.272,112.088z"/>
<path style="fill:#21D0C3;" d="M72.841,111.479c1.085,0,1.967,0.879,1.967,1.967c0,1.087-0.882,1.967-1.967,1.967
	c-1.087,0-1.969-0.879-1.969-1.967C70.872,112.359,71.755,111.479,72.841,111.479z"/>
<path style="fill:#FAD24D;" d="M80.607,111.479c1.087,0,1.969,0.879,1.969,1.967c0,1.087-0.879,1.967-1.969,1.967
	c-1.085,0-1.967-0.879-1.967-1.967C78.64,112.359,79.522,111.479,80.607,111.479z"/>
<path style="fill:#FF5B62;" d="M88.377,111.479c1.087,0,1.967,0.879,1.967,1.967c0,1.087-0.879,1.967-1.967,1.967
	c-1.087,0-1.969-0.879-1.969-1.967C86.408,112.359,87.287,111.479,88.377,111.479z"/>
<path style="fill:#ECF0F1;" d="M73.713,122.558h126.69v41.793H73.713V122.558z"/>
<path style="fill:#FF5B62;" d="M92.509,170.454c4.652,0,8.423,3.771,8.423,8.423c0,4.652-3.771,8.423-8.423,8.423
	c-4.65,0-8.421-3.771-8.421-8.423C84.088,174.225,87.859,170.454,92.509,170.454z"/>
<path style="fill:#21D0C3;" d="M137.058,170.454c4.65,0,8.421,3.771,8.421,8.423c0,4.652-3.771,8.423-8.421,8.423
	c-4.652,0-8.421-3.771-8.421-8.423C128.637,174.225,132.408,170.454,137.058,170.454z"/>
<path style="fill:#FAD24D;" d="M181.607,170.454c4.652,0,8.421,3.771,8.421,8.423c0,4.652-3.771,8.423-8.421,8.423
	c-4.652,0-8.423-3.771-8.423-8.423C173.184,174.225,176.955,170.454,181.607,170.454z"/>
<g>
	<path style="fill:#DCE3DB;" d="M80.427,190.106h24.168v1.709H80.427V190.106z M80.427,200.846h16.232v1.709H80.427V200.846z
		 M80.427,195.474h24.168v1.709H80.427V195.474z"/>
	<path style="fill:#DCE3DB;" d="M124.975,190.106h24.168v1.709h-24.168V190.106z M124.975,200.846h16.232v1.709h-16.232V200.846z
		 M124.975,195.474h24.168v1.709h-24.168V195.474z"/>
	<path style="fill:#DCE3DB;" d="M169.524,190.106h24.165v1.709h-24.165V190.106z M169.524,200.846h16.232v1.709h-16.232
		L169.524,200.846L169.524,200.846z M169.524,195.474h24.165v1.709h-24.165V195.474z"/>
</g>
<path style="fill:#ECF0F1;" d="M73.082,167.019h127.321v0.525H73.082V167.019z"/>
<path style="fill:#C9CACC;" d="M162.865,170.71h1.281c-2.536,0.029-4.418,2.059-4.418,4.416l-0.002,31.458h-1.691V175.54
	C158.035,172.884,160.208,170.71,162.865,170.71z"/>
<path style="fill:#FFFFFF;" d="M184.195,170.71H318.88h20.049c2.429,0,4.416,1.989,4.416,4.418v26.287v96.008H159.727l-0.002-0.002
	v-96.005v-26.287c0-2.429,1.986-4.418,4.416-4.418h20.051L184.195,170.71L184.195,170.71z"/>
<path style="fill:#828282;" d="M164.144,170.71h174.785c2.429,0,4.416,1.986,4.416,4.418v8.833h-183.62v-8.833
	c0-2.429,1.986-4.418,4.416-4.418H164.144z"/>
<path style="fill:#FFFFFF;" d="M241.474,175.285h88.698c0.653,0,1.187,0.534,1.187,1.187v2.203c0,0.653-0.534,1.187-1.187,1.187
	h-88.698c-0.653,0-1.187-0.534-1.187-1.187v-2.203C240.289,175.819,240.822,175.285,241.474,175.285z"/>
<path style="fill:#21D0C3;" d="M168.538,174.498c1.404,0,2.544,1.138,2.544,2.542s-1.14,2.544-2.544,2.544
	c-1.404,0-2.544-1.138-2.544-2.544C165.994,175.635,167.134,174.498,168.538,174.498z"/>
<path style="fill:#FAD24D;" d="M178.577,174.498c1.406,0,2.544,1.138,2.544,2.542s-1.138,2.544-2.544,2.544
	c-1.404,0-2.542-1.138-2.542-2.544C176.034,175.635,177.172,174.498,178.577,174.498z"/>
<path style="fill:#FF5B62;" d="M188.62,174.498c1.402,0,2.542,1.138,2.542,2.542s-1.138,2.544-2.542,2.544
	c-1.406,0-2.547-1.138-2.547-2.544C186.074,175.635,187.212,174.498,188.62,174.498z"/>
<path style="fill:#ECF0F1;" d="M172.355,200.565h32.151v32.151h-32.151V200.565z M172.355,245.71h32.151v32.149h-32.151V245.71z
	 M298.569,245.71h32.151v32.149h-32.151V245.71z M256.496,245.71h32.151v32.149h-32.151V245.71z M214.425,245.71h32.151v32.149
	h-32.151V245.71z M298.569,200.565h32.151v32.151h-32.151V200.565z M256.496,200.565h32.151v32.151h-32.151V200.565z
	 M214.425,200.565h32.151v32.151h-32.151V200.565z"/>
<path style="fill:#C9CACC;" d="M229.392,252.587h1.281c-2.536,0.029-4.418,2.059-4.418,4.416l-0.003,40.415h-1.691v-40.001
	C224.562,254.761,226.735,252.587,229.392,252.587z"/>
<path style="fill:#FFFFFF;" d="M255.531,251.831h161.168h23.991c2.908,0,5.288,2.379,5.288,5.285v31.454v114.883H226.254v-0.002
	V288.57v-31.454c0-2.908,2.376-5.285,5.285-5.285h23.993L255.531,251.831L255.531,251.831z"/>
<path style="fill:#828282;" d="M231.537,251.831h209.15c2.908,0,5.288,2.376,5.288,5.285v10.57H226.252v-10.57
	C226.252,254.208,228.63,251.831,231.537,251.831z"/>
<path style="fill:#FFFFFF;" d="M324.07,257.305h106.137c0.78,0,1.42,0.64,1.42,1.42v2.635c0,0.78-0.637,1.42-1.42,1.42H324.07
	c-0.78,0-1.42-0.637-1.42-1.42v-2.635C322.651,257.945,323.287,257.305,324.07,257.305z"/>
<path style="fill:#21D0C3;" d="M236.796,256.364c1.68,0,3.043,1.36,3.043,3.043c0,1.68-1.362,3.043-3.043,3.043
	c-1.683,0-3.045-1.36-3.045-3.043C233.751,257.725,235.116,256.364,236.796,256.364z"/>
<path style="fill:#FAD24D;" d="M248.81,256.364c1.683,0,3.043,1.36,3.043,3.043c0,1.68-1.36,3.043-3.043,3.043
	c-1.68,0-3.043-1.36-3.043-3.043C245.767,257.725,247.13,256.364,248.81,256.364z"/>
<path style="fill:#FF5B62;" d="M260.825,256.364c1.68,0,3.043,1.36,3.043,3.043c0,1.68-1.362,3.043-3.043,3.043
	c-1.683,0-3.045-1.36-3.045-3.043C257.78,257.725,259.144,256.364,260.825,256.364z"/>
<rect x="238.563" y="280.351" style="fill:#ECF0F1;" width="94.325" height="112.759"/>
<rect x="343.608" y="280.341" style="fill:#21D0C3;" width="48.877" height="8.147"/>
<path style="fill:#C9CACC;" d="M343.61,297.498h85.327v4.194H343.61L343.61,297.498L343.61,297.498z M343.61,336.662h49.959v4.194
	H343.61V336.662z M343.61,326.87h85.327v4.196H343.61L343.61,326.87L343.61,326.87z M343.61,317.078h85.327v4.194H343.61
	L343.61,317.078L343.61,317.078z M343.61,307.287h85.327v4.194H343.61L343.61,307.287L343.61,307.287z"/>
<rect x="343.608" y="348.728" style="fill:#FF5B62;" width="33.452" height="8.147"/>
<g>
	<path style="fill:#0E7886;" d="M307.726,190.56c3.08,0.545,5.421,3.237,5.421,6.473c0,3.631-2.943,6.573-6.573,6.573
		c-3.631,0-6.573-2.941-6.573-6.573c0-3.237,2.339-5.928,5.419-6.473v-43.433h-97.328v-2.305h98.481h1.151v1.151L307.726,190.56
		L307.726,190.56z"/>
	<path style="fill:#0E7886;" d="M422.426,278.297c3.08,0.547,5.421,3.237,5.421,6.473c0,3.631-2.943,6.572-6.573,6.572
		c-3.631,0-6.573-2.941-6.573-6.572c0-3.237,2.339-5.926,5.419-6.473v-43.433h-76.775v-2.305h77.929h1.151v1.151L422.426,278.297
		L422.426,278.297z"/>
</g>
<g>
</g>
<g>
</g>
<g>
</g>
<g>
</g>
<g>
</g>
<g>
</g>
<g>
</g>
<g>
</g>
<g>
</g>
<g>
</g>
<g>
</g>
<g>
</g>
<g>
</g>
<g>
</g>
<g>
</g>
</svg>
