<?xml version="1.0" encoding="iso-8859-1"?>
<!-- Generator: Adobe Illustrator 19.0.0, SVG Export Plug-In . SVG Version: 6.00 Build 0)  -->
<svg xmlns="http://www.w3.org/2000/svg" xmlns:xlink="http://www.w3.org/1999/xlink" version="1.1" id="Layer_1" x="0px" y="0px" viewBox="0 0 464 464" style="enable-background:new 0 0 464 464;" xml:space="preserve">
<path style="fill:#F6BF58;" d="M0,336c0,17.672,14.328,32,32,32h400c17.672,0,32-14.328,32-32v-40H0V336z"/>
<path style="fill:#66CEDB;" d="M432,0H32C14.328,0,0,14.328,0,32v264h464V32C464,14.328,449.672,0,432,0z"/>
<path style="fill:#F6BF58;" d="M336,464H128l0,0c0-17.672,14.328-32,32-32h144C321.672,432,336,446.328,336,464L336,464z"/>
<polygon style="fill:#CE9232;" points="288,432 176,432 192,368 272,368 "/>
<g>
	<rect x="96" y="24" style="fill:#00BFC8;" width="16" height="16"/>
	<rect x="64" y="24" style="fill:#00BFC8;" width="16" height="16"/>
	<rect x="32" y="24" style="fill:#00BFC8;" width="16" height="16"/>
</g>
<polyline style="fill:#E74C3C;" points="208,296 208,176 160,144 160,88 200,56 200,112 232,128 264,112 264,56 304,88 304,144   256,176 256,296 "/>
<g>
	<polyline style="fill:#34495E;" points="96,296 96,240 80,224 96,168 128,168 144,224 128,240 128,296  "/>
	<polyline style="fill:#34495E;" points="304,296 304,280 320,256 304,232 304,192 328,168 376,168 400,192 400,232 384,256    400,280 400,296  "/>
</g>
<g>
	<rect x="344" y="168" style="fill:#FFFFFF;" width="16" height="104"/>
	<path style="fill:#FFFFFF;" d="M376,296h-16v-8c0-4.408-3.584-8-8-8s-8,3.592-8,8v8h-16v-8c0-13.232,10.768-24,24-24   s24,10.768,24,24V296z"/>
</g>
<rect y="56" style="fill:#00BFC8;" width="136" height="16"/>
<g>
</g>
<g>
</g>
<g>
</g>
<g>
</g>
<g>
</g>
<g>
</g>
<g>
</g>
<g>
</g>
<g>
</g>
<g>
</g>
<g>
</g>
<g>
</g>
<g>
</g>
<g>
</g>
<g>
</g>
</svg>
