<?xml version="1.0" encoding="iso-8859-1"?>
<!-- Generator: Adobe Illustrator 19.0.0, SVG Export Plug-In . SVG Version: 6.00 Build 0)  -->
<svg version="1.1" id="Layer_1" xmlns="http://www.w3.org/2000/svg" xmlns:xlink="http://www.w3.org/1999/xlink" x="0px" y="0px"
	 viewBox="0 0 512 512" style="enable-background:new 0 0 512 512;" xml:space="preserve">
<g>
	<path style="fill:#C7CFE2;" d="M444.658,186.01c-4.529-1.811-9.664,0.391-11.475,4.918l-7.076,17.693
		c-9.297-33.369-28.363-63.545-54.925-86.429C339.189,94.628,298.283,79.448,256,79.448c-79.475,0-149.536,53.498-170.374,130.098
		l17.035,4.634C121.415,145.248,184.47,97.103,256,97.103c38.055,0,74.868,13.66,103.658,38.464
		c24.899,21.452,42.485,50.013,50.434,81.518L393.71,204.8c-3.901-2.926-9.434-2.135-12.359,1.766
		c-2.925,3.9-2.135,9.433,1.766,12.359l35.31,26.483c1.545,1.159,3.407,1.766,5.297,1.766c0.797,0,1.599-0.108,2.383-0.328
		c2.644-0.742,4.792-2.671,5.813-5.222l17.655-44.138C451.386,192.959,449.184,187.821,444.658,186.01z"/>
	<path style="fill:#C7CFE2;" d="M409.339,297.818C390.585,366.752,327.53,414.897,256,414.897
		c-38.055,0-74.868-13.66-103.657-38.463c-24.899-21.452-42.486-50.013-50.435-81.519L118.29,307.2
		c3.9,2.925,9.433,2.135,12.359-1.766c2.925-3.9,2.135-9.433-1.766-12.359l-35.31-26.483c-2.197-1.649-5.036-2.179-7.68-1.438
		c-2.644,0.741-4.792,2.671-5.813,5.221l-17.655,44.138c-1.811,4.526,0.391,9.664,4.918,11.475c1.076,0.43,2.184,0.633,3.276,0.633
		c3.503,0,6.818-2.1,8.199-5.551l7.076-17.693c9.297,33.371,28.364,63.546,54.925,86.43c31.993,27.563,72.899,42.743,115.181,42.743
		c79.475,0,149.536-53.498,170.374-130.098L409.339,297.818z"/>
</g>
<path style="fill:#7D5A50;" d="M88.276,0C24.026,0,9.422,69.988,8.828,147.096c-0.024,3.209,1.942,6.098,4.956,7.448
	c10.321,4.623,23.936,8.292,37.899,10.676l72.969,0.038c14.05-2.383,27.743-6.067,38.116-10.713c3.014-1.351,4.98-4.239,4.956-7.448
	C167.129,69.988,152.525,0,88.276,0z"/>
<path style="fill:#D29B6E;" d="M176.552,220.69v-11.114c0-9.504-5.092-18.279-13.344-22.994l-39.554-22.602
	c-5.501-3.144-8.896-8.993-8.896-15.329v-16.237H61.793v16.237c0,6.336-3.395,12.185-8.896,15.329l-39.553,22.602
	C5.092,191.297,0,200.072,0,209.576v11.114c0,9.751,7.904,17.655,17.655,17.655h141.241
	C168.648,238.345,176.552,230.441,176.552,220.69z"/>
<path style="fill:#F0C087;" d="M132.414,70.621v46.798c0,9.302-4.881,17.922-12.857,22.709l-22.197,13.319
	c-5.591,3.354-12.576,3.354-18.167,0l-22.197-13.319c-7.977-4.786-12.857-13.406-12.857-22.709V70.621c0,0,52.966,0,70.621-17.655
	L132.414,70.621z"/>
<path style="fill:#FF6464;" d="M163.209,186.582l-25.77-14.726c-4.868,6.908-23.315,31.06-49.163,40.006
	c-25.848-8.946-44.295-33.098-49.163-40.006l-25.769,14.726C5.092,191.297,0,200.072,0,209.576v11.114
	c0,9.751,7.904,17.655,17.655,17.655h141.241c9.751,0,17.655-7.904,17.655-17.655v-11.114
	C176.552,200.072,171.459,191.297,163.209,186.582z"/>
<path style="fill:#D29B6E;" d="M494.816,443.763l-41.981-15.743c-6.891-2.584-11.456-10.73-11.456-18.089h-70.621
	c0,7.359-4.565,15.505-11.456,18.089l-41.981,15.743c-10.336,3.876-17.184,13.758-17.184,24.797v25.785
	c0,9.751,7.904,17.655,17.655,17.655h176.552c9.751,0,17.655-7.904,17.655-17.655v-25.785
	C512,457.521,505.152,447.639,494.816,443.763z"/>
<path style="fill:#E4EAF6;" d="M494.816,443.763l-33.955-12.733l-43.489,36.241c-6.548,5.457-16.059,5.457-22.605,0l-43.489-36.241
	l-33.955,12.733c-10.336,3.876-17.184,13.758-17.184,24.797v25.785c0,9.751,7.904,17.655,17.655,17.655h176.552
	c9.751,0,17.655-7.904,17.655-17.655v-25.785C512,457.521,505.152,447.639,494.816,443.763z"/>
<path style="fill:#F0C087;" d="M465.352,302.487l-5.508,82.624c-0.513,7.701-4.361,14.794-10.535,19.425l-18.522,13.891
	c-4.584,3.438-10.159,5.297-15.89,5.297h-17.655c-5.73,0-11.306-1.858-15.89-5.297l-18.522-13.892
	c-6.174-4.63-10.022-11.724-10.535-19.425l-5.508-82.624c-1.358-20.38,14.807-37.659,35.232-37.659h48.1
	C450.545,264.828,466.71,282.106,465.352,302.487z"/>
<path style="fill:#5B5D6E;" d="M471.207,346.646c-4.759-0.401-9.078,3.358-9.397,8.22c-0.887,13.401-12.991,24.721-26.422,24.721
	h-29.319v17.655h29.319c22.776,0,42.526-18.483,44.043-41.203C479.75,351.172,476.069,346.969,471.207,346.646z"/>
<path style="fill:#5A4146;" d="M430.119,264.828h-48.1c-20.426,0-36.591,17.279-35.232,37.658l2.196,32.941
	c3.036-0.209,78.753-5.652,115.833-24.909l0.535-8.032C466.71,282.106,450.546,264.828,430.119,264.828z"/>
<circle style="fill:#707487;" cx="406.069" cy="388.414" r="8.828"/>
<g>
</g>
<g>
</g>
<g>
</g>
<g>
</g>
<g>
</g>
<g>
</g>
<g>
</g>
<g>
</g>
<g>
</g>
<g>
</g>
<g>
</g>
<g>
</g>
<g>
</g>
<g>
</g>
<g>
</g>
</svg>
