<?xml version="1.0" encoding="UTF-8" standalone="no"?>
<!-- Created with Inkscape (http://www.inkscape.org/) -->

<svg
   xmlns:dc="http://purl.org/dc/elements/1.1/"
   xmlns:cc="http://creativecommons.org/ns#"
   xmlns:rdf="http://www.w3.org/1999/02/22-rdf-syntax-ns#"
   xmlns:svg="http://www.w3.org/2000/svg"
   xmlns="http://www.w3.org/2000/svg"
   xmlns:sodipodi="http://sodipodi.sourceforge.net/DTD/sodipodi-0.dtd"
   xmlns:inkscape="http://www.inkscape.org/namespaces/inkscape"
   width="338.66666mm"
   height="158.75mm"
   viewBox="0 0 338.66666 158.75"
   version="1.1"
   id="svg6463"
   inkscape:version="0.92.2 (5c3e80d, 2017-08-06)"
   sodipodi:docname="bg-1.svg">
  <defs
     id="defs6457">
    <clipPath
       clipPathUnits="userSpaceOnUse"
       id="clipPath20">
      <path
         inkscape:connector-curvature="0"
         d="M 0,786.61 H 1172.529 V 0 H 0 Z"
         id="path18" />
    </clipPath>
  </defs>
  <sodipodi:namedview
     id="base"
     pagecolor="#ffffff"
     bordercolor="#666666"
     borderopacity="1.0"
     inkscape:pageopacity="0.0"
     inkscape:pageshadow="2"
     inkscape:zoom="0.35"
     inkscape:cx="854.78318"
     inkscape:cy="72.258351"
     inkscape:document-units="mm"
     inkscape:current-layer="layer1"
     showgrid="false"
     inkscape:window-width="1920"
     inkscape:window-height="1017"
     inkscape:window-x="-8"
     inkscape:window-y="-8"
     inkscape:window-maximized="1" />
  <metadata
     id="metadata6460">
    <rdf:RDF>
      <cc:Work
         rdf:about="">
        <dc:format>image/svg+xml</dc:format>
        <dc:type
           rdf:resource="http://purl.org/dc/dcmitype/StillImage" />
        <dc:title></dc:title>
      </cc:Work>
    </rdf:RDF>
  </metadata>
  <g
     inkscape:label="Layer 1"
     inkscape:groupmode="layer"
     id="layer1"
     transform="translate(279.39251,38.494162)">
    <path
       inkscape:connector-curvature="0"
       id="path12"
       style="fill:#fb7941;fill-opacity:1;fill-rule:nonzero;stroke:none;stroke-width:0.34251541"
       d="M -279.39251,120.25584 H 59.274156 V -38.494162 H -279.39251 Z" />
    <g
       id="g14"
       transform="matrix(0.35277777,0,0,-0.35277777,-273.09107,243.72785)">
      <g
         clip-path="url(#clipPath20)"
         id="g16">
        <g
           transform="translate(737.3237,671.8804)"
           id="g150">
          <path
             inkscape:connector-curvature="0"
             id="path152"
             style="fill:#ff9976;fill-opacity:1;fill-rule:evenodd;stroke:none"
             d="M 0,0 C -1.09,1.096 -2.606,2.395 -3.792,2.5 -4.98,2.595 -5.485,2.696 -5.884,1.895 -6.279,1.096 -7.082,1.599 -6.98,2.098 c 0.097,0.497 0.701,1.293 -0.196,1.592 -0.899,0.303 -4.789,3.494 -6.387,4.592 -1.595,1.096 -1.201,1.995 -2.484,2.394 -1.304,0.395 -2.803,-0.302 -3.409,0.099 -0.598,0.402 -0.99,1.496 -1.893,1.691 -0.896,0.2 -6.588,0.2 -7.18,0.3 -0.596,0.1 -0.396,-0.596 -0.396,-1.792 0,-1.198 0.301,-2.495 -0.793,-2.596 -1.101,-0.096 -2.003,0.298 -2.101,0.701 -0.097,0.398 -0.402,2.293 -0.796,2.389 -0.396,0.103 -5.785,-0.096 -7.487,-0.397 -1.69,-0.296 -2.688,-1.594 -2.877,-1.898 -0.208,-0.296 -1.008,1.302 -1.51,2.004 -0.5,0.691 0.705,1.589 -0.897,2.389 0,0 -5.889,1.399 -7.08,1.399 -1.196,0 -7.675,-1.001 -8.677,-0.903 -0.994,0.104 -0.891,1.495 -0.795,2.197 0.091,0.698 0.486,1.793 -0.897,2.194 -1.406,0.398 -3.197,-2.394 -3.893,-2.695 -0.696,-0.3 -0.793,0.798 -1.291,1.598 -0.497,0.797 -1.004,2.093 -1.701,2.196 -0.697,0.099 -4.086,0.398 -5.384,0.398 -1.295,0 -2.094,-0.799 -1.799,-1.797 0.295,-0.996 1.402,-2.592 0.599,-2.395 -0.802,0.2 -1.295,0.793 -2.288,0.398 -1.002,-0.398 -1.604,-0.599 -2.499,0 -0.897,0.606 -1.79,1.2 -2.298,1.2 -0.499,0 -2.188,-1.297 -2.784,-1.501 -0.598,-0.191 -2.094,-0.495 -2.201,-0.993 -0.099,-0.497 0.107,-2.396 -0.703,-1.791 -0.788,0.594 -2.272,2.193 -3.885,2.988 -1.594,0.797 -3.886,2.492 -5.083,2.792 -1.187,0.3 -5.794,1.499 -7.172,1.499 -1.405,0 -3.599,0.993 -4.096,1.291 -0.495,0.3 0.792,1.198 -0.596,1.501 -1.403,0.3 -4.191,0.896 -5.097,0.499 -0.891,-0.399 -1.892,-0.9 -2.595,-0.997 -0.685,-0.104 -4.181,-0.102 -4.979,-0.801 -0.802,-0.697 -1.298,1.196 -1.298,1.196 0,0 0.199,1.397 1.092,1.799 0.903,0.392 3.598,0.992 5.101,1.39 1.479,0.407 1.884,0.5 1.588,1.406 -0.304,0.892 -0.204,1.888 -0.801,2.684 -0.595,0.8 -1.295,2.498 -2.582,2.797 -1.307,0.292 -2.904,-0.202 -3.795,-0.502 -0.898,-0.299 -2.299,-0.596 -2.299,-0.596 0,0 0.304,1.499 -1.197,1.696 -1.49,0.199 -1.397,1.691 -2.09,1.597 -0.701,-0.102 -3.701,0 -4.697,-0.602 -0.992,-0.595 -2.085,-1.593 -2.484,-2.296 -0.402,-0.693 -2.103,-0.593 -2.395,-0.992 -0.299,-0.401 -0.599,-0.904 -1.498,-1.398 -0.9,-0.5 -2.391,-0.699 -2.391,-0.699 0,0 0.704,1.296 0.301,1.489 -0.406,0.207 -3.397,-0.494 -5.187,-0.592 -1.791,-0.098 -5.293,-1.095 -6.182,-1.497 -0.894,-0.397 -2.793,-1.794 -3.205,-2.495 -0.392,-0.694 0,-1.39 0,-2.091 0,-0.695 -1.391,-1.098 -2.181,-0.802 -0.81,0.306 -1.101,1.403 -2.897,0.703 -1.803,-0.703 -3.691,0.099 -3.983,-1.601 -0.305,-1.689 -0.904,-2.582 0,-3.086 0.892,-0.5 2.292,0.399 2.583,-0.998 0.301,-1.396 -0.403,-1.802 -1.194,-1.696 -0.797,0.103 -2.192,1.196 -3.388,1.696 -1.199,0.498 -1.9,0.894 -2.994,0 -1.092,-0.895 -2.199,-1.3 -2.295,-1.593 -0.101,-0.304 -0.892,-2.395 -1.497,-1.699 -0.599,0.697 -1.198,2.397 -2.089,1.699 -0.902,-0.701 -0.799,-1.798 -0.6,-2.698 0.203,-0.895 0,-2.79 0.6,-3.189 0.587,-0.398 1.69,0.198 2.694,0 0.988,-0.197 2.292,-0.304 2.882,-1.202 0.601,-0.894 0.705,-2.487 0.496,-3.19 -0.191,-0.693 -1.283,-1.191 -1.488,-0.4 -0.191,0.803 -1.197,3.695 -2.093,3.092 -0.895,-0.596 -2.295,-0.497 -2.092,-1.589 0.188,-1.103 0.188,-2.599 -0.506,-3.097 -0.692,-0.494 -1.8,-0.097 -1.8,0.6 0,0.701 0.81,1.899 -0.189,3.291 -1.007,1.398 -0.801,2.994 -1.098,4.488 -0.293,1.499 -0.102,2.494 0.297,3.685 0.398,1.204 2.192,3.1 0.302,3.891 -1.896,0.806 -4.893,0.003 -5.091,-0.692 -0.188,-0.701 -3.394,-3.589 -3.089,-4.984 0.304,-1.402 0.899,-3.191 1.402,-4.59 0.491,-1.399 1.196,-2.296 0.395,-3.292 -0.801,-0.996 -2.997,2.589 -4.097,2.99 -1.092,0.403 -5.084,1.498 -6.38,1.197 -1.292,-0.296 -0.889,-2.091 -1.196,-2.592 -0.308,-0.495 -2.088,-0.599 -2.591,-0.298 -0.496,0.298 -3.588,-0.097 -4.283,-0.197 -0.703,-0.104 -9.179,-0.998 -11.475,-2.496 -2.291,-1.495 -1.591,-3.39 -3.189,-3.39 -1.609,0 -1.004,1.592 -2.395,1.793 -1.4,0.203 -2.195,-0.997 -2.791,-1.693 -0.604,-0.702 -1.5,-0.1 -2.203,-0.1 -0.697,0 -2.297,-0.597 -2.487,-1.397 -0.197,-0.801 1.59,-2.194 0.096,-2.394 -1.495,-0.201 -5.778,-2.394 -6.782,-1.796 -0.994,0.597 -0.892,3.387 -1.387,3.885 -0.503,0.503 -2.398,1.702 -2.807,2.396 -0.39,0.699 0.608,1.398 1.693,1.099 1.114,-0.3 3.505,-1.391 4.6,-1.693 1.095,-0.303 4.288,0.397 4.777,1.492 0.505,1.102 -0.29,2.693 -1.889,3.789 -1.597,1.098 -10.569,4.288 -12.562,5.092 -1.999,0.793 -6.488,1.794 -7.185,1.491 -0.695,-0.298 -1.197,-1.997 -1.795,-1.596 -0.59,0.4 -1.694,1.003 -2.388,0.898 -0.699,-0.101 -2.999,-1.093 -3.399,-1.194 -0.399,-0.105 -5.177,-2.499 -5.979,-3.792 -0.796,-1.295 -4.088,-7.078 -5.585,-8.084 -1.504,-0.991 -3.888,-5.179 -5.592,-5.677 -1.696,-0.499 -3.781,-1.9 -4.981,-3.792 -1.202,-1.891 -1.898,-3.993 -1.698,-5.483 0.203,-1.502 -1.094,-3.593 0.593,-4.19 1.703,-0.6 3.992,0.996 5.388,1.299 1.395,0.296 2.797,0.195 3.097,-0.401 0.293,-0.603 1.303,-3.692 1.792,-4.291 0.504,-0.599 -0.103,-1.696 1.003,-1.994 1.095,-0.3 2.191,-0.3 3.483,1.3 1.295,1.591 1.303,3.487 1.898,4.781 0.602,1.299 2.597,3.091 1.689,4.293 -0.888,1.194 -1.087,2.195 -1.4,3.089 -0.289,0.897 0,2.093 1.015,3.394 0.991,1.296 4.583,2.892 4.878,3.991 0.3,1.094 0.602,3.387 1.897,3.988 1.298,0.598 2.994,1.597 3.6,0.197 0.587,-1.391 1.584,-1.295 -0.711,-4.185 -2.295,-2.895 -3.59,-1.398 -2.889,-4.291 0.697,-2.893 2.187,-5.187 2.595,-5.684 0.399,-0.499 3.787,0.294 4.98,0.497 1.208,0.198 2.798,-0.397 3.593,-0.397 0.798,0 1.3,2.089 2.101,2.596 0.802,0.499 1.598,-0.106 1.993,-0.605 0.398,-0.499 0.297,-1.991 0,-2.195 -0.299,-0.195 -6.978,-1.899 -8.481,-2.492 -1.497,-0.593 -4.285,-0.593 -4.481,-1.591 -0.21,-1.004 0,-3.795 -1.002,-4.191 -1.001,-0.401 -1.2,1.79 -2.096,0.696 -0.901,-1.097 -1.895,-5.082 -2.49,-6.185 -0.6,-1.099 -1.597,-1.796 -3.99,-1.896 -2.4,-0.094 -6.882,0.004 -7.882,-0.198 -0.846,-0.166 -1.439,-0.196 -2.449,-0.13 -0.104,0.657 -0.899,0.903 -1.249,1.933 -0.44,1.336 0.119,1.894 0.56,3.349 0.45,1.45 0.226,1.78 -0.115,2.454 -0.326,0.671 -0.658,0.671 -1.448,-0.118 -0.772,-0.781 -1.672,-0.996 -2.109,-1.781 -0.455,-0.782 0.437,-2.792 0.997,-4.241 0.343,-0.898 0.225,-1.959 0.081,-2.644 -2.777,-1.457 -6.609,-3.951 -7.432,-4.706 -1.2,-1.097 -4.088,-2.093 -4.58,-3.387 -0.511,-1.301 -2.798,-2.201 -3.293,-1.998 -0.502,0.196 -0.502,-0.602 -1.5,-1.294 -0.997,-0.7 -2.095,0.296 -2.997,-0.403 -0.896,-0.701 0.107,-1.593 1.394,-3.29 1.306,-1.692 2.5,-2.294 2.895,-3.889 0.404,-1.599 1.202,-4.386 -0.604,-4.288 -1.786,0.098 -6.279,0.694 -8.072,0.593 -1.8,-0.098 -2.588,-2.29 -2.891,-3.189 -0.296,-0.894 -0.499,-5.68 -0.596,-6.682 -0.1,-0.995 -0.601,-2.296 0.699,-3.189 1.297,-0.902 2.891,-0.799 3.29,-1.098 0.396,-0.304 0.197,-0.996 1.593,-0.996 1.396,0 2.794,-0.501 4.191,0.291 1.387,0.805 3.592,2.696 3.888,3.596 0.3,0.896 0.999,2.595 1.399,3.394 0.398,0.793 3.189,3.488 3.691,3.984 0.5,0.504 0,1.795 1.097,2.3 1.102,0.496 2.794,0.398 3.691,0.598 0.893,0.196 2.889,2.195 3.496,2.393 0.59,0.2 2.887,-1.497 3.286,-2.197 0.397,-0.694 2.395,-3.69 4.483,-5.388 2.091,-1.69 2.795,-1.992 3.197,-2.494 0.397,-0.498 0.694,-1.291 0.397,-2.287 -0.304,-0.998 -0.999,-1.897 -1.092,-2.197 -0.107,-0.292 1.285,-1.098 1.893,-0.199 0.607,0.898 1.003,2.989 1.003,2.989 l -0.508,2.295 c 0,0 1.004,-0.201 1.501,-0.301 0.489,-0.1 1.193,1.394 -0.104,2.093 -1.285,0.704 -3.991,1.502 -4.596,2.201 -0.59,0.698 -2.39,3.19 -2.879,4.184 -0.502,0.995 0,2.295 0.296,2.596 0.293,0.306 1.888,-0.098 2.583,-0.997 0.704,-0.896 2.6,-2.793 3.399,-3.591 0.804,-0.796 2.89,-1.797 3.287,-2.294 0.403,-0.496 0.099,-2.692 0.8,-3.192 0.699,-0.496 2.395,-3.392 2.888,-4.487 0.502,-1.095 -0.093,-2.999 1.104,-2.696 1.194,0.301 3.091,1.699 3.393,1.995 0.294,0.297 -0.897,1.901 -1.393,3.099 -0.5,1.189 0.692,3.384 1.89,3.182 1.2,-0.196 3.486,-0.593 3.486,-0.593 l 1.793,2.392 0.708,3.189 c 0.196,0.801 1.496,4.991 2.786,5.787 1.3,0.799 3.194,1.298 4.691,0.799 1.499,-0.501 4.993,0.602 5.284,0.7 0,0 1.196,-0.301 1.698,-1.799 0.493,-1.494 2.09,-3.993 3.397,-5.487 1.284,-1.494 3.886,-1.696 2.289,-3.189 -1.589,-1.496 -4.691,-1.897 -6.388,-1.195 -1.694,0.698 -3.087,2.491 -5.378,1.495 -2.289,-0.991 -4.089,-0.698 -6.188,-2.197 -2.099,-1.491 -3.486,-1.694 -3.695,-3.586 -0.191,-1.896 -0.589,-3.392 0.405,-4.387 0.999,-1 2.595,-2.897 3.394,-2.499 0.788,0.402 1.391,1.991 2.494,1.7 1.084,-0.304 3.187,-0.501 4.187,-0.201 0.996,0.299 1.787,-0.103 2.199,-0.198 0.392,-0.102 0.188,-2.794 0.298,-3.193 0.094,-0.402 -1.102,-4.586 -1.801,-5.691 -0.696,-1.093 -4.391,-1.989 -5.685,-1.989 -1.297,0 -10.871,1.797 -13.171,2.689 -2.29,0.9 -3.886,-1.096 -4.382,-2.389 -0.499,-1.299 -0.499,-3.391 -2.096,-2.395 -1.595,1 -6.984,4.386 -8.975,4.784 -2,0.405 -2.998,2.695 -3.395,4.091 -0.389,1.394 -0.801,4.59 -0.801,4.59 0,0 -2.884,0.3 -6.086,0 -3.176,-0.299 -9.27,-2.499 -10.861,-2.694 -1.602,-0.198 -4.486,-0.502 -5.693,-0.302 -1.198,0.202 -1.692,-1.193 -2.292,-1.594 -0.598,-0.398 -3.489,-2.692 -4.185,-3.39 -0.704,-0.701 -0.596,-3.39 -0.704,-4.989 -0.095,-1.592 -1.99,-4.784 -3.483,-5.389 -1.499,-0.598 -5.293,-6.579 -6.394,-9.07 -1.089,-2.494 -1.19,-3.591 -0.881,-5.186 0.29,-1.6 0.982,-6.682 0.386,-8.476 -0.594,-1.798 -1.19,-2.295 -0.891,-3.79 0.297,-1.497 1.487,-3.89 2.487,-5.491 0.999,-1.589 1.9,-4.886 3.994,-7.277 2.092,-2.396 4.687,-5.987 7.177,-6.08 2.494,-0.1 3.794,0.894 5.387,0.785 1.601,-0.089 7.682,1.702 8.574,2.2 0.908,0.5 4.296,0.107 5.398,0.107 1.095,0 0.691,-2.098 2.186,-2.802 1.499,-0.691 4.194,-0.197 4.892,-0.996 0.692,-0.8 0.989,-3.487 0.403,-5.682 -0.608,-2.195 -1.101,-3.692 -0.508,-4.489 0.6,-0.799 4.694,-5.485 5.29,-9.173 0.591,-3.69 1.991,-6.685 1.895,-8.078 -0.1,-1.396 0.203,-4.691 -1.394,-7.281 -1.594,-2.598 -1.896,-5.986 -1.701,-7.184 0.205,-1.2 2.395,-5.985 3.298,-8.176 0.892,-2.2 1.789,-6.686 1.888,-8.282 0.107,-1.59 1.798,-3.781 2.495,-6.185 0.699,-2.385 1.99,-4.286 1.896,-5.481 -0.1,-1.194 -1.101,-3.391 0.094,-4.685 1.206,-1.297 3.596,-1.401 5.786,-0.903 2.2,0.499 5.186,1.002 7.085,2.302 1.895,1.288 4.887,4.881 6.378,6.879 1.494,1.988 2.502,4.48 2.699,5.581 0.198,1.095 -0.397,3.198 0.596,3.692 0.99,0.504 3.594,1.398 3.797,1.998 0.196,0.597 -0.403,4.686 -0.707,5.782 -0.3,1.093 0,4.088 0.408,4.688 0.395,0.598 1.194,1.993 1.793,2.29 0.59,0.303 4.483,2.6 5.083,3.396 0.604,0.791 1.595,5.283 1.396,7.178 -0.199,1.896 -0.692,5.189 -0.991,5.985 -0.305,0.8 -0.206,2.691 -0.305,2.991 -0.1,0.302 -0.5,2 -0.796,2.494 -0.299,0.504 1.197,6.484 4.587,10.572 3.387,4.089 7.081,6.783 7.681,7.782 0.599,0.994 2.594,5.182 3.485,7.076 0.895,1.896 2.695,4.691 2.392,6.488 -0.292,1.795 -1.396,1.899 -2.188,1.698 -0.791,-0.201 -3.49,-1.299 -4.589,-1.102 -1.097,0.196 -2.094,-0.802 -3.394,0.1 -1.292,0.899 -2.085,3.297 -2.988,4.194 -0.897,0.897 -3.495,4.684 -4.091,5.683 -0.599,0.993 0,3.393 -1.897,5.385 -1.893,1.991 -1.097,3.285 -1.893,5.281 -0.795,1.997 -1.688,5.192 -2.491,6.383 -0.802,1.198 -1.306,2.897 -2.298,4.99 0,0 -0.8,2.596 0.3,2.295 1.1,-0.3 2.398,0.199 3.194,-1.993 0.804,-2.199 3.391,-5.092 4.19,-7.687 0.793,-2.587 2.382,-5.183 3.389,-6.671 0.993,-1.502 2.389,-5.295 2.794,-7.389 0.4,-2.092 0.699,-4.189 1.398,-4.989 0.692,-0.796 4.882,-0.296 6.78,1.002 1.894,1.292 4.683,3.989 6.586,5.085 1.886,1.098 4.589,2.491 5.985,4.093 1.392,1.591 2.297,2.885 3.184,4.586 0.899,1.696 2.301,2.195 1.102,3.389 -1.196,1.198 -2.894,1.996 -3.893,3.489 -0.996,1.502 -1.698,1.994 -1.698,1.994 0,0 -1.597,-2.587 -3.184,-2.793 -1.6,-0.196 -3.899,0.298 -3.899,0.799 0,0.501 0.105,2.199 -0.189,2.394 -0.307,0.201 -1.005,0.101 -1.307,0.704 -0.299,0.595 -2.386,4.585 -2.687,5.28 -0.301,0.702 -0.199,2.198 0.396,2.597 0.607,0.4 2.291,0.796 2.697,0.197 0.399,-0.596 1.59,-2.792 2.494,-4.087 0.895,-1.292 3.194,-2.894 4.685,-2.591 1.496,0.296 2.999,0.895 3.482,0.096 0.505,-0.799 2.807,-2.79 4.004,-3.19 1.194,-0.402 7.873,0.496 8.676,0.4 0.799,-0.099 1.883,-0.099 3.186,-1.895 1.298,-1.796 3.196,-2.895 3.59,-2.997 0.405,-0.095 0.1,-0.301 -0.195,-1.691 -0.3,-1.398 -0.3,-2.696 1.19,-2.895 1.5,-0.193 2.896,3.092 2.896,3.092 0,0 1.002,-2.793 0.699,-3.59 -0.296,-0.798 0.604,-7.579 1.297,-9.769 0.692,-2.196 2.692,-8.282 3.291,-9.679 0.605,-1.392 0.598,-3.695 1.995,-3.298 1.397,0.406 3.293,3.298 3.392,4.094 0.1,0.801 0.892,3.792 0.593,5.589 -0.292,1.792 0.096,3.888 0.512,3.988 0.387,0.1 5.873,5.387 7.775,6.68 1.892,1.305 1.487,2.196 2.987,3.393 1.496,1.196 3.787,1.699 4.686,2.193 0.904,0.502 2.196,0.695 2.998,-0.697 0.8,-1.395 1.596,-3.089 2.192,-3.584 0.596,-0.502 1.798,-3.102 1.589,-4.698 -0.205,-1.593 -1.49,-2.691 -0.293,-2.791 1.191,-0.096 2.394,1.701 2.696,1.896 0.293,0.2 2.198,-0.195 2.481,-1.796 0.301,-1.593 1.303,-6.081 1.496,-7.976 0.207,-1.898 0.609,-2.792 0.107,-4.185 -0.492,-1.404 0,-2.897 0.799,-4.196 0.797,-1.298 1.287,-3.388 1.695,-4.385 0.403,-1.004 0.2,-3.494 1.196,-3.989 0.997,-0.503 1.699,-2.296 2.396,-2.495 0.696,-0.194 1.694,-0.302 1.694,0 0,0.298 -0.998,1.291 -0.9,3.091 0.102,1.793 0.602,2.795 -0.606,3.689 -1.188,0.897 -3.178,3.792 -3.78,4.292 -0.598,0.502 -1.496,2.89 -1.496,3.19 0,0.3 0.994,3.487 1.088,4.782 0.112,1.299 0.205,2.694 0.205,2.694 0,0 1.204,-0.092 1.896,-0.99 0.7,-0.902 1.996,-2.498 2.489,-3.198 0.505,-0.699 1.41,-1.193 1.806,-1.697 0.398,-0.494 0.491,-2.294 0.491,-2.595 0,-0.299 0,-1.187 0.611,-0.595 0.588,0.595 0.791,1.403 0.696,1.797 -0.108,0.405 -0.108,1.499 -0.108,1.499 0,0 1.602,-0.699 2.595,-0.198 1,0.496 2.893,1.694 2.986,2.589 0.107,0.9 0.107,2.495 -0.192,3.787 -0.299,1.299 -0.996,3.496 -1.794,4.593 -0.804,1.104 -1.993,2.086 -2.492,2.793 -0.497,0.697 -1.499,2.093 -1.3,2.992 0.197,0.903 1.3,2.489 1.887,3.093 0.598,0.595 1.999,1.993 2.801,2.092 0.791,0.1 1.387,-0.196 1.499,-0.896 0.094,-0.701 0.493,-1.8 0.791,-1.897 0.3,-0.095 0.5,1.101 0.696,1.397 0.204,0.299 1.999,1.396 2.595,1.693 0.602,0.303 1.897,0.8 2.103,1.101 0.188,0.3 0.791,1.197 0.791,1.197 0,0 0.196,-1.097 0.795,-0.797 0.592,0.294 2.292,0.199 2.499,0.797 0.192,0.596 1.299,1.695 1.299,1.695 0,0 1.297,1.398 2.289,1.891 0.995,0.501 1.495,0.998 1.593,1.896 0.108,0.902 0.206,2.295 0.999,3.691 0.801,1.392 1.697,3.489 2.196,4.091 0.488,0.599 0.694,1.494 0.103,1.894 -0.602,0.395 -1.195,0.896 -1.195,0.896 0,0 -0.609,2.2 -0.097,2.2 0.497,0 0.197,2.093 -0.512,2.987 -0.701,0.9 -1.592,2.094 -1.494,3.392 0.108,1.296 1.697,2.996 2.196,3.493 0.5,0.497 3.783,0.297 2.292,1.294 -1.494,0.998 -2.591,0.903 -3.489,0.501 -0.891,-0.4 -1.8,-1.396 -2.297,-0.802 -0.492,0.601 -1.588,2.698 -1.588,2.993 0,0.3 1.194,0.503 1.895,1.401 0.695,0.896 2.485,2.293 2.997,2.99 0.497,0.696 0.889,0.598 1.487,0.498 0.602,-0.099 -0.109,-1.195 -0.298,-1.89 -0.201,-0.702 -0.999,-2.298 0,-1.997 0.99,0.299 2.987,1.397 3.492,1.493 0.499,0.097 2.097,0.595 1.893,-0.499 -0.2,-1.093 -1.295,-2.193 -0.699,-2.891 0.596,-0.699 2.096,-1.397 2.096,-1.397 l 0.9,0.301 c 0,0 0.497,-1.198 0.302,-2.199 -0.195,-0.994 0,-2.687 -0.302,-3.391 -0.308,-0.695 -0.697,-1.792 0.191,-1.492 0.891,0.296 2.394,1.3 2.7,1.692 0.309,0.398 1.094,1.797 0.795,3.296 -0.302,1.494 -1.189,3.485 -1.685,4.186 -0.51,0.697 -0.612,2.099 -0.612,2.394 0,0.299 1.792,1.298 2.4,2.195 0.596,0.896 0.3,1.796 1,2.794 0.684,0.995 2.196,1.989 2.69,2.494 0.493,0.501 1.096,0 1.692,-0.302 0.604,-0.299 1.196,-1.6 2.096,-0.498 0.895,1.093 4.883,5.887 5.783,6.984 0.894,1.094 2.393,4.28 2.992,5.484 0.596,1.198 1.104,3.782 1.2,4.681 0.104,0.903 0.992,1.599 0.404,3.593 -0.605,1.999 -1.104,3.792 -2.108,3.792 -0.99,0 -1.295,-1.398 -2.488,-1.294 -1.198,0.096 -1.589,2.296 -1.795,2.592 -0.198,0.299 -1.993,0.401 -2.095,0.697 -0.098,0.308 5.486,6.183 7.585,8.38 2.091,2.19 3.288,4.288 5.478,4.685 2.203,0.396 5.383,0.304 6.39,-0.202 0.999,-0.495 3.2,0.506 3.79,0.701 0.591,0.196 2.592,0.599 2.991,0.196 0.403,-0.391 -1.199,-2.088 -0.399,-2.39 0.802,-0.297 3.096,0.4 3.988,0.998 0.897,0.6 -0.497,2.093 0.397,2.994 0.903,0.898 2.898,2.787 3.895,3.09 0.995,0.298 3.486,0.897 3.885,0.499 0.412,-0.399 0.412,-1.698 0.905,-2.398 0.497,-0.698 2.489,1.199 2.978,1.804 0.508,0.594 0.9,1.79 1.706,2.388 0.796,0.6 2.199,0.301 2.492,0.099 0.305,-0.195 -0.803,-0.5 -1.295,-2.194 -0.496,-1.696 -0.892,-2.196 -2.395,-2.989 -1.493,-0.798 -3.795,-3.293 -4.296,-3.989 -0.494,-0.7 -3.092,-2.194 -3.686,-3.491 -0.59,-1.299 -0.497,-2.597 -0.99,-2.789 -0.504,-0.206 -1.508,-0.409 -1.7,-2.002 -0.208,-1.596 0.494,-5.284 0.601,-6.185 0.097,-0.897 0.398,-2.893 0.595,-3.882 0.203,-1.002 0.099,-2.197 0.904,-1.901 0.79,0.301 1.783,1.197 1.887,2.099 0.103,0.892 0.502,2.087 1.2,2.39 0.695,0.301 0.998,1.294 1.189,2.094 0.203,0.801 1.216,0.899 1.999,1.695 0.804,0.798 0.205,2.297 0.609,3.389 0.398,1.099 2.291,0.699 1.995,1.799 -0.307,1.093 0,2.295 -0.2,3.091 -0.208,0.804 -0.615,2.2 -0.409,2.794 0.201,0.597 1.996,3.592 1.996,3.592 0,0 1.792,0.294 2.594,0.9 0.796,0.59 1.996,0.292 2.588,0.496 0.604,0.194 2.7,0.194 3.201,-0.204 0.498,-0.395 0.597,-2.188 1.489,-1.691 0.903,0.499 1.503,2.695 3.094,3.593 1.6,0.898 6.081,2.885 7.081,2.988 1.008,0.099 2.2,-0.694 2.692,-0.103 0.499,0.598 0,1.001 -0.492,2.397 -0.497,1.397 -1.298,2.99 -0.604,2.99 0.703,0 2.499,-0.095 2.895,0.802 0.395,0.892 0.603,2.59 0.795,2.886 0.205,0.305 0.799,0.305 1.102,-0.596 0.296,-0.89 1.593,-0.89 2.593,-0.793 0.992,0.097 1.998,-0.998 2.291,-1.497 0.302,-0.504 1.702,-1.1 2.898,-1.597 1.187,-0.496 1.887,0 1.783,0.995 -0.099,0.995 0.307,1.694 0.809,1.599 0.495,-0.105 1.69,-0.401 1.995,0 C 0,-1.09 1.096,-1.09 0,0" />
        </g>
        <g
           transform="translate(637.1519,560.7158)"
           id="g506">
          <path
             inkscape:connector-curvature="0"
             id="path508"
             style="fill:#ffc871;fill-opacity:1;fill-rule:evenodd;stroke:none"
             d="M 0,0 C -0.821,-2.452 0.508,-2.227 2.947,-3.005 L 2.693,-4.092 c -1.14,0.278 -1.815,0.47 -2.887,1.022 -0.68,0.352 -1.16,0.566 -1.135,1.394 0.023,0.762 0.26,1.282 0.46,2.004 z" />
        </g>
        <g
           transform="translate(679.8716,481.3823)"
           id="g22">
          <path
             inkscape:connector-curvature="0"
             id="path24"
             style="fill:#ff9976;fill-opacity:1;fill-rule:evenodd;stroke:none"
             d="m 0,0 c -0.604,1.396 -1.69,2.797 -2.396,3.891 -0.685,1.091 -1.398,2.19 -2.186,2.799 -0.801,0.594 -0.801,2.39 -1.801,3.978 -0.993,1.598 -2.493,1.998 -3.001,2.4 -0.491,0.402 -0.196,1.496 -0.288,2.595 -0.099,1.094 -0.796,1.994 -0.796,1.994 -0.4,0.496 -0.4,1.797 -0.507,2.497 -0.088,0.693 -0.596,0.693 -1.2,1.294 -0.587,0.6 -0.79,-0.498 -1.291,-0.1 -0.496,0.401 0.101,1.393 0.101,2.495 0,1.093 -0.693,0.898 -1.192,1.99 -0.505,1.095 -1.3,2.593 -1.3,2.593 -0.9,1.202 -0.803,-1.596 -0.692,-2.796 0.089,-1.187 -0.508,-3.787 -0.403,-5.282 0.096,-1.494 -0.596,-4.49 -1.104,-5.384 -0.496,-0.899 -1.69,0.401 -2.192,1.493 -0.499,1.1 -1.989,1.497 -3.083,2.397 -1.102,0.893 -1.702,2.189 -1.502,3.389 0.2,1.196 0.896,1.299 0.996,3.088 0.099,1.804 -2.395,0.9 -3.487,0.9 -1.098,0 -3.094,-0.199 -3.801,-0.499 -0.689,-0.301 -2.779,-1.196 -3.178,-2.19 -0.406,-0.996 -0.905,-2.592 -1.7,-2.791 -0.8,-0.207 -1.502,1.187 -2.289,1.69 -0.798,0.495 -1.603,-0.198 -2.001,-0.692 -0.393,-0.5 -2.691,-3 -3.499,-3.596 -0.796,-0.596 -2.099,-1.591 -2.385,-2.992 -0.304,-1.395 -1.201,-2.593 -2.293,-3.591 -1.094,-0.998 -4.287,-0.793 -6.589,-2.49 -2.291,-1.696 -3.79,-2.6 -4.184,-4.985 -0.406,-2.401 0,-6.389 0.598,-7.981 0.595,-1.595 1.501,-6.38 1.899,-8.089 0.395,-1.687 -0.398,-5.181 1.092,-6.475 1.499,-1.294 4.586,1.294 5.684,1.497 1.097,0.201 5.782,1.396 7.187,2.191 1.392,0.801 4.191,2.091 6.474,1.995 2.292,-0.1 5.891,0.096 7.687,-0.796 1.789,-0.898 1.198,-3.189 2.79,-4.091 1.592,-0.899 2.603,2.293 2.603,2.293 0,0 0.187,-1.49 0.891,-2.69 0.702,-1.195 1.198,-2.192 2.192,-2.982 0.99,-0.813 0.695,-3.597 1.998,-4.796 1.292,-1.201 3.69,-1.593 4.589,-1.195 0.888,0.392 1.689,0.998 2.095,0.392 0.401,-0.597 1.287,-1.794 2.681,-1.398 1.407,0.407 1.205,2.292 1.205,2.292 0,0 1.797,0.207 3.183,1.198 1.401,1.007 0,1.306 0.509,3.1 0.495,1.79 1.49,4.487 2.488,6.578 1.005,2.095 1.898,2.394 2.499,4.596 0.598,2.187 0.295,4.088 -0.105,5.377 C 0.602,-3.592 0.602,-1.394 0,0" />
        </g>
        <g
           transform="translate(669.8999,449.2661)"
           id="g26">
          <path
             inkscape:connector-curvature="0"
             id="path28"
             style="fill:#ff9976;fill-opacity:1;fill-rule:evenodd;stroke:none"
             d="m 0,0 c -1.196,-0.094 -2.395,0.701 -2.395,0.701 0,0 -0.093,-3.293 0.296,-4.293 0.409,-0.994 1.699,-1.796 3.093,-2.296 1.4,-0.493 1.602,1.098 2.101,2.803 C 3.589,-1.396 3.282,0 2.79,0.403 2.291,0.796 1.188,0.1 0,0" />
        </g>
        <g
           transform="translate(712.4927,448.6733)"
           id="g30">
          <path
             inkscape:connector-curvature="0"
             id="path32"
             style="fill:#ff9976;fill-opacity:1;fill-rule:evenodd;stroke:none"
             d="m 0,0 c -0.608,0.295 -1.304,0.996 -1.304,0.996 -0.792,0.297 -1.886,-2.401 -2.191,-3.389 -0.298,-1 -1.894,-2.804 -2.786,-3.497 -0.907,-0.695 -2.404,-1.995 -3.698,-2.593 -1.296,-0.601 -1.598,-2.796 -0.992,-2.692 0.596,0.097 1.98,-0.295 3.491,-0.896 1.492,-0.601 1.987,0.896 2.69,1.89 0.696,1.006 1.6,2.296 2.59,3.791 1.002,1.493 2.699,2.697 3.191,4.285 C 1.484,-0.506 0.588,-0.306 0,0" />
        </g>
        <g
           transform="translate(717.0747,455.3564)"
           id="g34">
          <path
             inkscape:connector-curvature="0"
             id="path36"
             style="fill:#ff9976;fill-opacity:1;fill-rule:evenodd;stroke:none"
             d="M 0,0 C -0.704,0.391 -1.799,2.295 -2.192,3.09 -2.592,3.88 -3.994,6.282 -4.885,6.476 -5.78,6.673 -5.78,5.377 -4.982,4.18 c 0.793,-1.193 2.088,-1.885 1.991,-2.988 -0.107,-1.103 0,-3.789 -0.693,-4.09 0,0 1.092,-0.695 1.39,-1.597 0.298,-0.895 -0.697,-2.092 0,-2.59 0.698,-0.505 1.898,-0.303 2.294,0.697 0.398,0.998 0.9,2.59 1.49,3.39 0.607,0.801 1.704,1.493 1.501,2.093 C 2.791,-0.303 0.694,-0.403 0,0" />
        </g>
        <g
           transform="translate(647.2593,528.2578)"
           id="g38">
          <path
             inkscape:connector-curvature="0"
             id="path40"
             style="fill:#ff9976;fill-opacity:1;fill-rule:evenodd;stroke:none"
             d="M 0,0 C 0,0 0.306,-0.995 1.295,-1.295 2.293,-1.588 3.589,-1.193 3.493,-1.696 3.39,-2.191 1.798,-2.098 1.69,-2.691 c -0.098,-0.597 0.108,-1.495 0.904,-1.7 0.796,-0.194 2.09,0 2.694,-0.397 0.593,-0.396 3.993,-2.295 4.497,-2.895 0.489,-0.588 1.784,-2.888 1.989,-3.783 0.188,-0.901 0.895,-0.998 1.387,-1.796 0.504,-0.801 2.406,-1.995 3.701,-1.797 1.292,0.197 1.888,2.194 2.385,1.994 0.505,-0.197 2.302,0.105 2.993,-0.498 0.7,-0.598 2.189,-2.79 3.288,-3.585 1.1,-0.804 3.29,-2.197 3.594,-1.202 0.303,1.001 -2.093,4.085 -2.893,4.585 -0.798,0.503 -1.893,2.199 -1.893,2.601 0,0.393 1.399,0.298 0.998,0.995 -0.402,0.7 -0.595,1.495 -1.598,1.99 -0.999,0.496 -1.69,2.195 -2.786,2.795 -1.099,0.596 -6.587,3.089 -8.084,3.491 -1.497,0.399 -2.998,0.991 -3.296,0.991 -0.289,0 -1.494,-1.789 -2.491,-2.095 C 6.08,-3.288 5.188,-2.586 4.888,-1.793 4.59,-0.995 5.485,-0.192 4.59,0.704 3.688,1.595 0.097,2.098 0,0" />
        </g>
        <g
           transform="translate(674.396,519.0835)"
           id="g42">
          <path
             inkscape:connector-curvature="0"
             id="path44"
             style="fill:#ff9976;fill-opacity:1;fill-rule:evenodd;stroke:none"
             d="M 0,0 C 0.482,-0.199 2.288,-0.295 3.283,-0.099 4.28,0.099 5.776,1.394 6.077,2.295 6.379,3.19 6.379,4.386 5.679,4.889 4.974,5.389 4.181,4.889 4.571,4.283 4.974,3.692 4.28,2.49 3.683,1.898 3.08,1.296 -0.306,1.202 -0.306,1.202 -1.002,0.904 -0.509,0.198 0,0" />
        </g>
        <g
           transform="translate(629.0093,520.7793)"
           id="g46">
          <path
             inkscape:connector-curvature="0"
             id="path48"
             style="fill:#ff9976;fill-opacity:1;fill-rule:evenodd;stroke:none"
             d="m 0,0 c 0.689,-0.6 1.795,-0.7 1.885,-0.102 0.104,0.6 -0.293,2.297 0.104,2.995 0.404,0.7 0.799,1.001 1.109,0.3 0.294,-0.7 0,-1.891 0.785,-2.194 0.803,-0.298 1.8,0 2.005,0.4 0.19,0.397 -0.406,1.992 -1.003,2.689 -0.599,0.7 -1.598,1.695 -1.598,1.695 0,0 1.189,0.502 1.598,1.001 0.391,0.497 1.59,0.597 1.59,0.999 0,0.4 -0.792,0.794 -1.891,0.597 C 3.484,8.183 2.483,8.075 2.483,8.075 L 1.885,8.878 c 0,0 -0.293,2.193 0.403,1.991 0.7,-0.194 3.395,-0.194 4.094,-0.394 0.688,-0.201 1.895,0.296 2.195,0.8 0.299,0.495 1.298,1.793 0.505,1.991 -0.805,0.2 -1.609,-0.9 -2.607,-1.101 -0.993,-0.2 -2.688,0 -3.188,0.402 C 2.788,12.965 0.397,11.871 0.29,11.071 0.194,10.274 0.493,8.577 0.29,7.884 0.101,7.175 0,5.585 -0.107,4.396 -0.206,3.193 0.397,2.493 0.29,1.895 0.194,1.302 -0.698,0.599 0,0" />
        </g>
        <g
           transform="translate(613.3384,531.0532)"
           id="g50">
          <path
             inkscape:connector-curvature="0"
             id="path52"
             style="fill:#ff9976;fill-opacity:1;fill-rule:evenodd;stroke:none"
             d="m 0,0 c 0.307,-0.995 0.902,-2.491 0.902,-2.491 0,0 0.503,0.4 0.7,-0.304 0.203,-0.695 -0.104,-1.696 0.601,-2.192 0.699,-0.499 1.891,-0.297 2.293,-0.599 0.397,-0.292 1.097,-0.701 1.606,-0.893 0.494,-0.202 1.882,0.396 1.882,0.396 0,0 0.903,-0.898 1.902,-0.702 0.993,0.204 1.789,1.403 2.195,2.197 0.39,0.798 0.896,2.591 1.1,3.287 0.196,0.697 0.203,1.502 0.595,2.098 0.402,0.599 1.497,0.204 1.197,1.198 -0.301,0.997 -0.692,1.097 -1.097,1.993 -0.403,0.901 -0.799,2.097 -0.899,2.493 -0.097,0.408 -0.303,1.4 0.204,1.306 0.489,-0.11 1.291,-0.304 1.291,0.094 0,0.397 -0.191,0.999 -0.191,0.999 0,0 0.692,-0.1 0.992,0.397 0.29,0.499 0.192,0.693 -0.497,1.395 -0.7,0.695 -1.196,1.597 -1.799,2.091 C 12.378,13.261 11.082,12.475 10.778,11.77 10.482,11.064 11.185,9.676 10.072,9.277 8.979,8.88 8.388,8.974 7.779,7.977 7.192,6.982 6.994,6.186 6.102,6.085 5.2,5.99 4.094,4.981 3.894,4.69 3.697,4.389 3.894,2.691 3.198,3.192 2.502,3.69 1.707,4.488 1.01,3.889 0.307,3.29 -0.285,1.001 0,0" />
        </g>
        <g
           transform="translate(625.3257,513.2988)"
           id="g54">
          <path
             inkscape:connector-curvature="0"
             id="path56"
             style="fill:#ff9976;fill-opacity:1;fill-rule:evenodd;stroke:none"
             d="M 0,0 C 1.09,-0.298 2.685,-0.198 3.478,0 4.28,0.197 2.88,0.798 2.386,0.896 1.889,0.999 0.292,0.798 -0.214,0.999 -0.71,1.194 -1.309,1.999 -1.712,2.397 -2.102,2.792 -3.193,3.29 -3.6,3.986 -4.003,4.689 -4.993,4.884 -5.392,5.289 -5.798,5.686 -6.787,5.686 -7.787,6.09 -8.789,6.488 -10.28,5.686 -11.384,5.785 c -1.089,0.098 -1.292,0.903 -2.379,0.995 -1.103,0.101 -2.906,0 -2.906,0 -1.199,-0.595 -0.7,-1.688 0.111,-2.192 0.796,-0.495 2.284,-1.393 2.795,-1.393 0.492,0 2.678,0 3.67,-0.2 C -9.09,2.792 -4.9,1.697 -3.803,1.593 -2.705,1.503 -1.108,0.3 0,0" />
        </g>
        <g
           transform="translate(632.8921,513.2988)"
           id="g58">
          <path
             inkscape:connector-curvature="0"
             id="path60"
             style="fill:#ff9976;fill-opacity:1;fill-rule:evenodd;stroke:none"
             d="M 0,0 C 0.803,0.097 2.096,0.197 1.903,0.598 1.696,0.999 -2.386,1.793 -2.386,0.499 -2.386,0.499 -0.785,-0.1 0,0" />
        </g>
        <g
           transform="translate(629.6987,511.2026)"
           id="g62">
          <path
             inkscape:connector-curvature="0"
             id="path64"
             style="fill:#ff9976;fill-opacity:1;fill-rule:evenodd;stroke:none"
             d="M 0,0 C 0.608,-0.395 1.703,-0.897 1.896,-0.293 2.099,0.3 0.106,0.905 0.106,0.905 -0.689,0.905 -0.589,0.402 0,0" />
        </g>
        <g
           transform="translate(608.3569,521.48)"
           id="g66">
          <path
             inkscape:connector-curvature="0"
             id="path68"
             style="fill:#ff9976;fill-opacity:1;fill-rule:evenodd;stroke:none"
             d="M 0,0 C 0.303,1.194 1.406,2.993 0.909,3.695 0.411,4.389 0.3,4.985 -0.4,5.783 c -0.692,0.798 -0.788,1.896 -1.689,2.795 -0.9,0.896 -1.201,1.792 -1.89,2.19 -0.697,0.402 -1.401,1.6 -2.102,2.095 -0.692,0.491 -1.497,2.495 -2.488,3.095 -1.001,0.597 -1.995,2.396 -2.602,2.991 -0.605,0.594 -0.589,0.697 -1.802,1.191 -1.183,0.498 -1.882,1.308 -2.582,1.203 -0.7,-0.1 -0.7,-1.499 0.197,-2.89 0.904,-1.396 2.299,-3.197 2.703,-3.693 0.396,-0.496 1.687,-0.698 2.091,-1.496 0.392,-0.797 0.495,-1.599 0.891,-2.597 0.4,-0.989 1.4,-1.996 1.89,-2.988 0.512,-0.998 1.702,-2.897 2.1,-3.39 0.401,-0.508 0.1,-2.299 1.092,-2.895 0,0 1.398,-0.898 2.199,-1.193 C -1.597,-0.102 -0.293,-1.195 0,0" />
        </g>
        <g
           transform="translate(639.186,548.7051)"
           id="g70">
          <path
             inkscape:connector-curvature="0"
             id="path72"
             style="fill:#ff9976;fill-opacity:1;fill-rule:evenodd;stroke:none"
             d="m 0,0 c -1.204,-0.1 -1.095,-0.896 -2.098,-1.094 -1.008,-0.204 -1.8,-0.204 -2.396,-0.204 -0.607,0 -1.496,-0.301 -1.302,-1.197 0.073,-0.287 0.504,-0.697 1.405,-0.995 0.888,-0.295 1.285,-0.295 1.488,-1.496 0.212,-1.202 0.903,-2.196 1.699,-1.994 0.797,0.196 1.001,0.998 1.204,1.994 0.187,0.998 1.393,0.998 0.984,2.096 C 0.591,-1.794 1.187,0.104 0,0" />
        </g>
        <g
           transform="translate(637.0884,510.8076)"
           id="g74">
          <path
             inkscape:connector-curvature="0"
             id="path76"
             style="fill:#ff9976;fill-opacity:1;fill-rule:evenodd;stroke:none"
             d="M 0,0 C 0.498,0.399 1.489,1.3 2.688,1.796 3.89,2.292 3.996,2.792 3.784,3.29 3.581,3.787 2.989,3.29 2.285,2.99 1.593,2.688 0.69,2.588 0,1.996 -0.701,1.396 -2.396,-0.302 -2.396,-0.302 -2.692,-2.197 -0.501,-0.401 0,0" />
        </g>
        <g
           transform="translate(630.894,562.1714)"
           id="g78">
          <path
             inkscape:connector-curvature="0"
             id="path80"
             style="fill:#ff9976;fill-opacity:1;fill-rule:evenodd;stroke:none"
             d="m 0,0 c 0,-0.601 -1.089,-0.202 -1.089,-0.202 -0.303,-0.501 0.796,-2.092 1.193,-2.695 0.404,-0.596 0.102,-1.292 0,-1.695 C 0,-4.987 -0.587,-5.782 0,-6.283 c 0.599,-0.501 1.104,-1.399 1.6,-1.299 0.502,0.099 -0.387,1.395 -0.593,1.694 -0.193,0.306 0.303,1.102 1.004,1.001 0.692,-0.1 1.381,-0.597 2.083,-1.195 0.695,-0.598 1.507,-1.003 1.698,-0.304 0.201,0.701 -0.299,1.499 -0.698,2.197 -0.399,0.698 -1.091,0.396 -1.4,0.501 C 3.392,-3.593 2.401,-3.89 2.011,-3.493 1.603,-3.095 1.6,-1.988 1.507,-1.205 1.402,-0.398 2.699,0.498 3.392,1.399 4.094,2.294 3,3.484 2.699,4.789 2.401,6.085 1.402,5.184 0.814,4.989 0.206,4.789 0,3.891 0,3.195 Z" />
        </g>
        <g
           transform="translate(634.396,552.0952)"
           id="g82">
          <path
             inkscape:connector-curvature="0"
             id="path84"
             style="fill:#ff9976;fill-opacity:1;fill-rule:evenodd;stroke:none"
             d="m 0,0 c 0.096,0.502 -0.406,1.394 -0.406,1.394 0,0 -1.194,0 -1.288,-0.788 C -1.792,-0.199 -1.988,-1.496 -1.4,-1.196 -0.803,-0.894 -0.11,-0.5 0,0" />
        </g>
        <g
           transform="translate(569.2612,549.1055)"
           id="g86">
          <path
             inkscape:connector-curvature="0"
             id="path88"
             style="fill:#ff9976;fill-opacity:1;fill-rule:evenodd;stroke:none"
             d="m 0,0 c 0,0 -0.892,-2.194 -1.093,-2.689 -0.197,-0.504 0.105,-2.893 0.7,-3.899 0.604,-0.995 1.497,-0.4 2.296,0.206 0.791,0.599 0.791,1.693 0.195,3.693 C 1.498,-0.701 0,0 0,0" />
        </g>
        <g
           transform="translate(617.3384,569.1548)"
           id="g90">
          <path
             inkscape:connector-curvature="0"
             id="path92"
             style="fill:#ff9976;fill-opacity:1;fill-rule:evenodd;stroke:none"
             d="m 0,0 c -0.106,0.698 -1.494,-0.299 -2.591,-0.801 -1.095,-0.497 -1.791,-1.194 -1.791,-1.194 0,0 0.696,-1.298 1.192,-1.694 0.502,-0.407 1.293,0.19 2.199,0.691 C -0.106,-2.498 0.094,-0.707 0,0" />
        </g>
        <g
           transform="translate(633.4849,576.4316)"
           id="g94">
          <path
             inkscape:connector-curvature="0"
             id="path96"
             style="fill:#ff9976;fill-opacity:1;fill-rule:evenodd;stroke:none"
             d="M 0,0 C 0.409,0.995 0.409,1.893 0.299,2.693 0.21,3.492 0.21,3.993 -0.282,3.79 -0.783,3.592 -1.992,1.893 -2.283,1.104 -2.591,0.302 -2.486,-2.098 -2.486,-2.098 c 0,0 2.096,1.103 2.486,2.098" />
        </g>
        <g
           transform="translate(647.356,597.3755)"
           id="g98">
          <path
             inkscape:connector-curvature="0"
             id="path100"
             style="fill:#ff9976;fill-opacity:1;fill-rule:evenodd;stroke:none"
             d="m 0,0 -1.589,-1.191 c 0,0 0.987,-0.704 0.8,-1.496 -0.2,-0.804 -1.4,-2.397 -0.399,-2.792 0.995,-0.406 1.487,-0.203 1.686,0.395 0.203,0.599 1.299,1.797 0.7,3.094 C 0.606,-0.7 0,0 0,0" />
        </g>
        <g
           transform="translate(659.1245,605.7588)"
           id="g102">
          <path
             inkscape:connector-curvature="0"
             id="path104"
             style="fill:#ff9976;fill-opacity:1;fill-rule:evenodd;stroke:none"
             d="m 0,0 c -0.69,-1.003 -1.79,-2.396 -2.388,-2.396 -0.603,0 -1.298,0.7 -1.401,0.298 -0.097,-0.401 -0.097,-1.495 -0.591,-2.195 -0.505,-0.696 -0.809,-0.296 -1.693,-0.499 -0.905,-0.197 -2.005,-0.694 -2.603,-1.095 -0.595,-0.398 -1.702,-1.198 -1.702,-1.198 0,0 1.806,-0.099 2.703,0.102 0.892,0.202 2.19,-0.403 2.19,-0.403 0,0 -0.3,-1.593 0.6,-1.295 0.896,0.298 1.894,1.198 1.894,1.198 0,0 1.4,0.097 2.495,0.702 1.097,0.592 2.502,0.993 2.787,1.989 0.308,1 0.804,3.194 0.804,4.092 0,0.897 0.31,1.894 0.607,2.091 C 3.998,1.594 5.288,3.984 4.783,4.784 4.287,5.582 4.087,6.479 3.405,6.674 2.698,6.884 1.896,6.884 1.8,4.882 1.699,2.886 0.705,0.997 0,0" />
        </g>
        <g
           transform="translate(649.6567,596.9775)"
           id="g106">
          <path
             inkscape:connector-curvature="0"
             id="path108"
             style="fill:#ff9976;fill-opacity:1;fill-rule:evenodd;stroke:none"
             d="m 0,0 c 0,0 0.295,-2.289 0.692,-2.589 0.404,-0.3 0.599,0.997 0.995,1.592 0.403,0.606 1.294,0.606 1.407,1.3 C 3.194,0.998 2.286,0.998 1.494,1.1 0.701,1.198 0,0 0,0" />
        </g>
        <g
           transform="translate(662.9194,617.5259)"
           id="g110">
          <path
             inkscape:connector-curvature="0"
             id="path112"
             style="fill:#ff9976;fill-opacity:1;fill-rule:evenodd;stroke:none"
             d="m 0,0 c -0.7,-0.203 -1.399,-0.397 -1.399,-0.397 0,0 -0.697,-1.004 -0.596,-1.6 0.096,-0.595 0.596,-1.396 0.596,-1.396 l 0.902,0.304 c 0,0 -0.607,0.993 0.107,1.288 0.682,0.306 0.682,-0.295 1.791,-0.393 1.093,-0.105 2.085,0.5 2.986,0.997 0.903,0.497 2.286,0.198 2.193,0.9 C 6.484,0.397 7.083,0.9 5.488,1.399 3.889,1.897 2.895,1.995 2.091,3.188 1.29,4.386 1.29,5.786 0.796,4.784 0.292,3.788 0.492,3.388 0.599,2.395 0.699,1.399 0.699,0.2 0,0" />
        </g>
        <g
           transform="translate(673.394,621.52)"
           id="g114">
          <path
             inkscape:connector-curvature="0"
             id="path116"
             style="fill:#ff9976;fill-opacity:1;fill-rule:evenodd;stroke:none"
             d="m 0,0 c -0.508,-0.301 -1.396,-1.201 -1.396,-1.201 0,0 2.696,0.795 2.79,1.496 C 1.484,0.992 1.095,1.589 1.095,1.589 1.095,1.589 0.493,0.295 0,0" />
        </g>
        <g
           transform="translate(676.481,624.4067)"
           id="g118">
          <path
             inkscape:connector-curvature="0"
             id="path120"
             style="fill:#ff9976;fill-opacity:1;fill-rule:evenodd;stroke:none"
             d="m 0,0 c -0.495,-0.095 -0.896,-1.694 -0.896,-1.694 0,0 1.206,0.296 2.094,1.295 C 2.096,0.598 0.499,0.103 0,0" />
        </g>
        <g
           transform="translate(665.0103,624.6099)"
           id="g122">
          <path
             inkscape:connector-curvature="0"
             id="path124"
             style="fill:#ff9976;fill-opacity:1;fill-rule:evenodd;stroke:none"
             d="m 0,0 1.592,-0.999 c 0,0 -0.788,2.195 -0.788,3.388 0,1.198 0.592,3.398 0.592,3.398 l 1.595,0.192 c 0,0 -0.496,2.094 -0.801,3.193 -0.294,1.096 0.106,2.789 -0.294,3.791 -0.4,0.997 -0.7,1.692 -0.7,2.092 0,0.398 0.3,1.999 -0.197,2.097 C 0.5,17.254 0,15.954 0,15.257 0,14.556 -0.598,14.358 -0.598,12.86 c 0,-1.494 0.107,-4.085 0.107,-5.087 0,-0.992 0.094,-3.687 0.094,-4.488 0,-0.79 -0.201,-3.888 -0.201,-3.888 z" />
        </g>
        <g
           transform="translate(637.9819,692.5298)"
           id="g126">
          <path
             inkscape:connector-curvature="0"
             id="path128"
             style="fill:#ff9976;fill-opacity:1;fill-rule:evenodd;stroke:none"
             d="M 0,0 C 1.001,0.198 2.392,1.097 2.494,1.493 2.597,1.891 0.797,3.389 -0.596,3.291 -2.003,3.185 -3.187,2.693 -2.591,1.787 -2.421,1.531 -0.999,-0.208 0,0" />
        </g>
        <g
           transform="translate(666.9067,695.3228)"
           id="g130">
          <path
             inkscape:connector-curvature="0"
             id="path132"
             style="fill:#ff9976;fill-opacity:1;fill-rule:evenodd;stroke:none"
             d="m 0,0 c -0.897,0.596 -1.896,1.592 -2.785,1.091 -0.91,-0.495 -1.902,-2.192 -1.902,-2.192 0,0 1.103,-0.4 2.895,-0.498 C 0,-1.696 0.895,-0.603 0,0" />
        </g>
        <g
           transform="translate(529.272,688.1392)"
           id="g134">
          <path
             inkscape:connector-curvature="0"
             id="path136"
             style="fill:#ff9976;fill-opacity:1;fill-rule:evenodd;stroke:none"
             d="m 0,0 c 0.396,-0.801 -0.505,-1.999 -0.102,-2.197 0.401,-0.194 3.291,0 3.796,-0.098 0.498,-0.096 2.59,0.499 2.59,0.499 0,0 -2.695,1.596 -2.994,2.793 -0.299,1.197 0.703,5.086 1.1,5.783 0.399,0.699 2.195,3.196 4.681,4.193 2.5,0.994 7.284,2.193 9.07,2.89 1.797,0.691 2.905,0.897 2.905,1.697 0,0.794 1.391,2.093 -1.503,1.094 C 16.646,15.656 13.861,14.66 11.97,14.66 10.071,14.66 10.574,14.257 7.172,13.366 3.79,12.464 1.191,11.863 0.2,9.876 -0.798,7.878 -0.6,6.178 -1.8,4.391 -2.989,2.592 -4.594,1.892 -3.896,0.794 -3.194,-0.3 -0.406,0.794 0,0" />
        </g>
        <g
           transform="translate(517.8267,500.9497)"
           id="g138">
          <path
             inkscape:connector-curvature="0"
             id="path140"
             style="fill:#ff9976;fill-opacity:1;fill-rule:evenodd;stroke:none"
             d="m 0,0 c -1.588,-0.644 -4.469,-1.917 -3.506,-3.837 0.957,-1.914 -0.317,-4.781 -1.921,-7.018 -1.59,-2.232 0,-5.099 3.52,-8.29 3.501,-3.195 1.907,1.908 3.183,5.429 1.274,3.502 3.188,7.644 3.836,11.481 C 5.741,1.59 4.783,5.415 4.783,5.415 4.783,5.415 1.594,0.63 0,0" />
        </g>
        <g
           transform="translate(439.353,644.4902)"
           id="g142">
          <path
             inkscape:connector-curvature="0"
             id="path144"
             style="fill:#ff9976;fill-opacity:1;fill-rule:evenodd;stroke:none"
             d="M 0,0 C 0,0 1.918,-1.274 2.871,-2.555 3.833,-3.83 0,-3.83 0,-3.83 c 0,0 0.964,-3.825 1.918,-3.825 0.953,0 -2.549,-3.508 -2.549,-3.508 0,0 3.825,1.275 5.105,1.917 1.269,0.635 4.464,1.912 4.464,1.912 0,0 0,1.913 -0.645,3.504 C 7.661,-2.231 5.425,0.314 4.152,2.549 2.871,4.783 5.103,7.973 5.103,7.973 L 2.242,7.337 c 0,0 -0.324,3.825 -1.599,3.825 -1.274,0 -2.558,-3.825 -2.236,-6.058 C -1.278,2.871 0,0 0,0" />
        </g>
        <g
           transform="translate(435.8472,639.3862)"
           id="g146">
          <path
             inkscape:connector-curvature="0"
             id="path148"
             style="fill:#ff9976;fill-opacity:1;fill-rule:evenodd;stroke:none"
             d="M 0,0 C 1.913,1.916 0.637,2.549 1.281,4.463 1.913,6.375 0,6.061 0,6.061 L -2.232,5.744 c 0,0 -1.594,-1.914 -1.594,-3.828 C -3.826,0 -4.783,-1.276 -4.138,-2.551 -3.51,-3.83 -1.916,-1.916 0,0" />
        </g>
        <g
           transform="translate(459.5503,614.0991)"
           id="g154">
          <path
             inkscape:connector-curvature="0"
             id="path156"
             style="fill:#ff9976;fill-opacity:1;fill-rule:evenodd;stroke:none"
             d="M 0,0 C 0.227,-0.556 1.116,-0.111 1.784,0.784 2.466,1.679 1.677,3.129 1.677,3.129 0.782,3.352 -0.218,0.56 0,0" />
        </g>
        <g
           transform="translate(459.7769,611.8613)"
           id="g158">
          <path
             inkscape:connector-curvature="0"
             id="path160"
             style="fill:#ff9976;fill-opacity:1;fill-rule:evenodd;stroke:none"
             d="m 0,0 c 0,0 -0.115,-2.898 0.669,-3.681 0.781,-0.778 0.888,0.45 1.23,1.562 C 2.239,-1 2.12,-0.104 1.557,0.786 1.007,1.682 0,0 0,0" />
        </g>
        <g
           transform="translate(357.6943,630.7734)"
           id="g162">
          <path
             inkscape:connector-curvature="0"
             id="path164"
             style="fill:#ff9976;fill-opacity:1;fill-rule:evenodd;stroke:none"
             d="M 0,0 C 1.913,-1.914 3.831,-0.955 5.094,-1.595 6.382,-2.229 10.213,-5.102 9.887,-3.83 9.569,-2.551 7.969,1.274 6.382,1.594 4.783,1.916 3.188,2.875 3.188,2.875 V 5.424 C 3.188,5.424 -1.917,1.916 0,0" />
        </g>
        <g
           transform="translate(324.8296,576.2271)"
           id="g166">
          <path
             inkscape:connector-curvature="0"
             id="path168"
             style="fill:#ff9976;fill-opacity:1;fill-rule:evenodd;stroke:none"
             d="m 0,0 c -1.264,0.955 -6.053,0.635 -6.053,0.635 l 7.659,-4.786 c 0,0 4.146,-1.269 5.737,-1.592 C 8.94,-6.064 6.711,-4.471 5.752,-3.829 4.8,-3.195 1.282,-0.96 0,0" />
        </g>
        <g
           transform="translate(335.3604,570.4844)"
           id="g170">
          <path
             inkscape:connector-curvature="0"
             id="path172"
             style="fill:#ff9976;fill-opacity:1;fill-rule:evenodd;stroke:none"
             d="m 0,0 c 0,0 1.28,-3.827 3.197,-3.507 1.919,0.319 3.19,1.911 2.229,2.55 C 4.474,-0.321 0.958,0.322 0,0" />
        </g>
        <g
           transform="translate(348.7627,671.6011)"
           id="g174">
          <path
             inkscape:connector-curvature="0"
             id="path176"
             style="fill:#ff9976;fill-opacity:1;fill-rule:evenodd;stroke:none"
             d="m 0,0 c 1.277,1.6 2.866,4.788 2.866,4.788 0,0 -5.737,0.636 -7.332,1.913 -1.6,1.278 -1.6,4.147 -1.6,5.099 0,0.965 -0.319,3.838 -2.862,5.106 -2.555,1.28 -7.662,2.556 -9.253,3.193 -1.598,0.64 -0.952,2.874 -2.555,4.15 -1.591,1.277 -5.414,0.952 -5.414,0.952 l -3.51,-0.635 -2.879,-4.467 -0.962,4.79 c 0,0 -3.176,0.312 -4.46,-1.916 -1.276,-2.234 -2.236,-3.831 -0.955,-5.111 1.271,-1.273 3.829,-2.863 5.096,-2.544 1.281,0.32 7.025,-2.553 7.025,-2.553 0,0 0.319,0.956 2.551,0.956 2.232,0 4.786,-0.956 6.378,-2.235 1.602,-1.277 2.873,-1.592 3.512,-3.827 0.634,-2.235 0,-3.823 -0.31,-5.424 -0.329,-1.597 -6.709,-5.107 -6.709,-5.107 0,0 6.064,1.282 7.341,0 1.278,-1.271 1.91,-3.502 4.138,-4.144 1.821,-0.522 6.182,-0.828 7.215,-0.92 -1.237,0.345 -7.122,5.672 -4.337,4.745 2.87,-0.952 5.422,-0.952 4.145,0.639 -1.275,1.597 -3.514,3.51 -3.514,3.51 l -3.191,1.599 4.79,0.317 c 0,0 3.514,-4.464 4.786,-2.874" />
        </g>
        <g
           transform="translate(346.084,663.6655)"
           id="g178">
          <path
             inkscape:connector-curvature="0"
             id="path180"
             style="fill:#ff9976;fill-opacity:1;fill-rule:evenodd;stroke:none"
             d="M 0,0 C 0.058,-0.018 0.1,-0.037 0.133,-0.037 0.303,-0.037 0.24,-0.025 0,0" />
        </g>
        <g
           transform="translate(410.6431,687.2388)"
           id="g182">
          <path
             inkscape:connector-curvature="0"
             id="path184"
             style="fill:#ff9976;fill-opacity:1;fill-rule:evenodd;stroke:none"
             d="m 0,0 c -1.594,1.268 -1.91,2.548 0,2.868 1.918,0.314 3.509,-0.32 3.196,1.913 -0.318,2.233 1.272,2.871 1.927,3.83 0.627,0.952 0.941,3.183 0.941,3.183 v 3.832 c 0,0 0,1.594 -0.314,2.55 -0.325,0.96 0.314,2.237 0.636,3.505 0.318,1.282 3.191,4.792 3.191,4.792 l 2.225,3.188 c 0,0 1.594,1.914 2.563,2.236 0.944,0.314 2.862,1.595 2.862,1.595 0,0 -4.151,1.596 -7.327,0.319 -3.196,-1.275 -6.391,-2.879 -7.982,-2.236 -1.596,0.636 0,2.869 -0.955,2.869 h -7.018 c 0,0 12.759,2.239 9.887,2.873 -2.869,0.639 -6.7,1.913 -8.928,2.551 -2.236,0.642 -7.015,1.919 -11.812,1.275 -4.778,-0.633 -7.018,-1.592 -9.56,-1.913 -2.55,-0.318 -5.428,-0.634 -6.699,-1.593 -1.278,-0.954 0,-3.193 -0.959,-3.826 -0.956,-0.64 -2.551,0.32 -3.829,1.277 -1.284,0.956 -3.508,0.635 -3.508,0.635 0,0 -1.599,-2.552 -2.864,-2.231 -1.284,0.319 -3.528,1.596 -3.528,1.596 0,0 -7.327,-0.957 -8.606,-1.277 -1.274,-0.319 -1.588,-2.879 -3.506,-2.557 -1.913,0.321 -5.423,-1.593 -6.059,-2.552 -0.641,-0.955 3.188,0.644 3.188,-0.955 0,-1.595 0.313,-3.505 -1.588,-3.185 -1.921,0.315 -4.152,0.315 -6.704,-0.645 -2.555,-0.954 -6.059,-2.236 -3.828,-2.547 2.236,-0.321 10.207,-0.642 10.207,-0.642 l -7.664,-3.187 4.469,-1.915 c 0,0 6.707,0.957 8.931,0.322 2.239,-0.64 7.348,-2.871 8.932,-4.154 1.605,-1.27 3.201,-6.693 2.565,-7.97 -0.648,-1.276 2.539,0 3.816,-1.914 1.277,-1.91 0.967,-3.191 0,-3.827 -0.951,-0.636 -3.816,-0.636 -2.545,-1.92 1.268,-1.272 4.784,-0.953 4.14,-2.224 -0.628,-1.279 -3.189,-1.918 -3.189,-3.51 0,-1.597 2.561,-7.657 3.189,-9.258 0.644,-1.596 3.191,-5.739 4.152,-6.378 0.955,-0.639 3.188,-2.229 3.188,-2.229 0,0 1.918,-0.956 3.834,-1.603 1.915,-0.631 2.865,5.429 3.825,7.342 0.955,1.917 7.968,9.25 9.883,9.895 1.925,0.634 7.022,4.778 7.022,4.778 2.553,0.32 7.653,2.873 10.203,3.83 2.551,0.955 1.592,1.913 0,3.194" />
        </g>
        <g
           transform="translate(425.3159,671.2871)"
           id="g186">
          <path
             inkscape:connector-curvature="0"
             id="path188"
             style="fill:#ff9976;fill-opacity:1;fill-rule:evenodd;stroke:none"
             d="m 0,0 c 0.636,2.229 -0.629,3.188 -2.223,3.505 -1.597,0.321 -6.7,-3.191 -6.7,-3.191 l -3.199,1.6 C -14.988,1.272 -15.305,0 -14.988,-1.276 -14.673,-2.558 -10.205,-4.79 -7.33,-4.473 -4.459,-4.146 -0.629,-2.238 0,0" />
        </g>
        <g
           transform="translate(261.9971,691.063)"
           id="g190">
          <path
             inkscape:connector-curvature="0"
             id="path192"
             style="fill:#ff9976;fill-opacity:1;fill-rule:evenodd;stroke:none"
             d="m 0,0 c 1.277,0.637 3.19,-1.276 4.473,-2.233 1.261,-0.955 3.497,-0.955 5.732,-1.911 2.236,-0.961 -4.783,-1.919 -4.783,-1.919 0,0 2.236,-1.273 3.511,-1.913 1.272,-0.638 4.781,-1.909 6.696,-1.909 1.915,0 6.703,2.867 6.703,2.867 0,0 2.232,-0.958 4.789,-1.275 2.543,-0.321 2.543,1.916 1.592,3.506 -0.959,1.599 -2.558,0.963 -3.826,1.599 -1.29,0.632 -1.915,4.78 -1.915,4.78 l -2.565,2.556 c 0,0 -1.58,-1.592 -2.22,-0.32 C 17.544,5.104 16.269,3.19 14.995,2.556 13.714,1.911 12.118,1.592 10.205,3.828 8.299,6.064 6.701,6.378 4.473,7.655 2.232,8.931 0.315,9.252 -2.546,8.612 -5.422,7.97 -6.377,7.332 -6.696,6.064 -7.017,4.787 -6.377,0.637 -4.464,-0.956 -2.546,-2.556 -1.281,-0.642 0,0" />
        </g>
        <g
           transform="translate(295.4907,697.4414)"
           id="g194">
          <path
             inkscape:connector-curvature="0"
             id="path196"
             style="fill:#ff9976;fill-opacity:1;fill-rule:evenodd;stroke:none"
             d="m 0,0 c -1.912,-0.314 -3.507,-0.314 -3.507,-1.592 v -1.276 l -1.918,-1.277 c 0,0 1.918,-2.876 4.154,-3.509 2.231,-0.638 6.692,0.956 5.099,2.233 -1.595,1.276 -3.185,3.505 -3.185,3.505 0,0 1.275,2.237 -0.643,1.916" />
        </g>
        <g
           transform="translate(306.3345,694.8906)"
           id="g198">
          <path
             inkscape:connector-curvature="0"
             id="path200"
             style="fill:#ff9976;fill-opacity:1;fill-rule:evenodd;stroke:none"
             d="m 0,0 c -0.63,1.6 -4.78,1.6 -4.78,1.6 0,0 0.31,-2.872 0,-4.79 -0.318,-1.914 -2.236,-4.462 -2.236,-4.462 0,0 1.279,-1.6 2.236,-2.239 0.955,-0.634 4.15,1.92 4.15,1.92 l -2.873,2.867 0.948,3.187 c 0,0 3.198,0.323 2.555,1.917" />
        </g>
        <g
           transform="translate(299.3188,683.0874)"
           id="g202">
          <path
             inkscape:connector-curvature="0"
             id="path204"
             style="fill:#ff9976;fill-opacity:1;fill-rule:evenodd;stroke:none"
             d="m 0,0 c 0.633,0.958 -2.549,1.598 -2.549,1.598 0,0 -2.237,-1.598 -1.279,-1.916 C -2.868,-0.638 -0.643,-0.958 0,0" />
        </g>
        <g
           transform="translate(301.0957,705.2441)"
           id="g206">
          <path
             inkscape:connector-curvature="0"
             id="path208"
             style="fill:#ff9976;fill-opacity:1;fill-rule:evenodd;stroke:none"
             d="M 0,0 C -0.995,0.127 -1.777,0.17 -1.777,0.17 -1.618,-0.15 -0.937,-0.166 0,0" />
        </g>
        <g
           transform="translate(302.5093,713.7119)"
           id="g210">
          <path
             inkscape:connector-curvature="0"
             id="path212"
             style="fill:#ff9976;fill-opacity:1;fill-rule:evenodd;stroke:none"
             d="m 0,0 c 1.271,-0.64 2.235,-2.868 2.558,-3.51 0.312,-0.64 0.312,-1.914 2.547,-0.957 2.232,0.957 5.097,0.317 5.097,0.317 0,0 -2.229,-1.274 -3.185,-1.596 -0.713,-0.231 -5.684,-2.243 -8.431,-2.722 1.617,-0.206 3.768,-0.629 3.972,-1.422 0.312,-1.276 0.952,-4.465 1.91,-4.789 0.947,-0.315 7.966,0.642 7.966,0.642 0,0 5.115,0.319 6.39,0.319 1.28,0 5.747,1.916 3.186,2.231 -2.552,0.321 -9.258,-0.315 -10.528,-0.315 -1.28,0 -3.829,1.277 -3.829,1.277 0,0 1.924,2.228 3.514,1.912 1.585,-0.32 6.382,-0.32 8.61,0.316 2.233,0.64 3.825,0 3.825,1.276 0,1.275 0.969,1.597 2.557,2.554 1.59,0.957 2.55,2.236 2.55,2.236 -0.322,1.591 -0.636,3.504 0.633,3.504 1.28,0 4.468,0.637 4.468,0.637 0,0 5.108,3.514 6.059,4.153 0.965,0.635 3.513,1.274 5.112,1.908 1.597,0.644 4.138,1.6 4.138,1.6 0,0 -0.952,0.954 -5.411,1.912 -4.47,0.956 -9.577,-1.912 -12.448,-1.912 -2.873,0 -6.379,0.317 -9.573,-0.321 -3.188,-0.635 -6.051,1.275 -9.563,0 C 8.609,7.971 7.017,7.658 6.383,6.698 5.741,5.738 3.825,6.063 1.913,6.063 0,6.063 -3.833,3.188 -2.558,2.229 -1.272,1.273 -1.272,0.637 0,0" />
        </g>
        <g
           transform="translate(301.5547,702.2251)"
           id="g214">
          <path
             inkscape:connector-curvature="0"
             id="path216"
             style="fill:#ff9976;fill-opacity:1;fill-rule:evenodd;stroke:none"
             d="m 0,0 c 0,0 -2.558,-2.231 -1.603,-2.55 0.96,-0.319 2.88,-0.957 2.88,-0.957 z" />
        </g>
        <g
           transform="translate(285.9272,705.4146)"
           id="g218">
          <path
             inkscape:connector-curvature="0"
             id="path220"
             style="fill:#ff9976;fill-opacity:1;fill-rule:evenodd;stroke:none"
             d="M 0,0 C 0,0 0.313,-1.592 0.957,-2.868 1.589,-4.148 4.138,-3.829 5.1,-4.784 6.057,-5.739 8.932,-5.421 10.524,-4.46 12.113,-3.505 9.25,-0.635 9.25,-0.635 L 6.057,-0.956 Z" />
        </g>
        <g
           transform="translate(271.8838,700.9541)"
           id="g222">
          <path
             inkscape:connector-curvature="0"
             id="path224"
             style="fill:#ff9976;fill-opacity:1;fill-rule:evenodd;stroke:none"
             d="m 0,0 c 0,0 0.963,-2.559 2.231,-1.921 1.283,0.642 4.151,1.598 5.426,1.282 1.283,-0.321 3.503,0.951 3.503,3.187 0,2.236 -3.503,2.236 -3.503,2.236 L 5.108,1.911 C 5.108,1.911 1.592,2.868 0,3.505 -1.587,4.145 -3.508,2.868 -3.186,1.271 -2.872,-0.323 0,0 0,0" />
        </g>
        <g
           transform="translate(258.4878,702.2251)"
           id="g226">
          <path
             inkscape:connector-curvature="0"
             id="path228"
             style="fill:#ff9976;fill-opacity:1;fill-rule:evenodd;stroke:none"
             d="M 0,0 C 2.229,-1.594 2.87,0.962 3.825,2.234 4.787,3.513 6.7,1.597 8.292,3.189 9.888,4.789 9.573,7.02 9.573,7.02 9.573,7.02 2.229,5.107 0.638,4.149 -0.955,3.189 -2.231,1.597 0,0" />
        </g>
        <g
           transform="translate(274.7568,706.0547)"
           id="g230">
          <path
             inkscape:connector-curvature="0"
             id="path232"
             style="fill:#ff9976;fill-opacity:1;fill-rule:evenodd;stroke:none"
             d="m 0,0 c 1.59,-0.64 1.913,0.637 3.195,1.912 1.269,1.278 0.95,2.877 0,3.514 -0.96,0.636 -5.75,-2.236 -5.75,-2.236 0,0 0.964,-2.553 2.555,-3.19" />
        </g>
        <g
           transform="translate(285.5942,709.8794)"
           id="g234">
          <path
             inkscape:connector-curvature="0"
             id="path236"
             style="fill:#ff9976;fill-opacity:1;fill-rule:evenodd;stroke:none"
             d="M 0,0 C 1.29,0.322 4.471,-0.959 6.39,-1.913 8.302,-2.865 9.265,-2.228 9.265,-0.959 9.265,0.322 7.342,1.602 5.75,2.554 4.157,3.512 0,2.875 0,2.875 0,2.875 -1.265,-0.317 0,0" />
        </g>
        <g
           transform="translate(302.1831,706.6914)"
           id="g238">
          <path
             inkscape:connector-curvature="0"
             id="path240"
             style="fill:#ff9976;fill-opacity:1;fill-rule:evenodd;stroke:none"
             d="M 0,0 C 2.239,-0.317 2.561,1.917 1.597,2.553 0.648,3.188 -0.946,4.152 -0.946,4.152 l -4.786,0.957 c 0,0 3.501,-4.786 5.732,-5.109" />
        </g>
        <g
           transform="translate(385.7666,524.8677)"
           id="g242">
          <path
             inkscape:connector-curvature="0"
             id="path244"
             style="fill:#ff9976;fill-opacity:1;fill-rule:evenodd;stroke:none"
             d="m 0,0 c -1.921,0.958 -7.333,3.508 -9.891,5.108 -2.542,1.588 -5.736,-0.647 -5.736,-0.647 l -0.325,4.789 c 0,0 -1.279,4.784 -3.186,7.977 -1.916,3.186 -5.425,1.593 -8.297,1.274 -2.87,-0.323 -3.513,2.869 -4.786,3.513 -1.27,0.637 -1.591,2.867 -1.591,2.867 0,0 -3.192,0.955 -4.786,1.596 -1.589,0.631 -6.693,1.913 -7.982,2.232 -1.265,0.322 -1.907,-3.509 -2.868,-3.19 -0.958,0.317 -0.633,3.512 -1.91,3.512 -1.277,0 -5.425,-5.109 -5.425,-5.109 l -0.316,-1.908 -3.187,3.186 -5.108,-0.637 c 0,0 -0.954,2.231 -2.227,3.827 -1.281,1.591 0,2.552 0.631,5.101 0.642,2.557 -1.912,2.235 -3.834,2.875 -1.909,0.635 -4.141,0.635 -4.141,0.635 l 0.958,4.149 c 0,0 1.274,5.738 0.952,6.703 -0.315,0.954 -3.509,0 -4.146,-0.965 -0.641,-0.949 -2.861,-3.824 -2.861,-3.824 0,0 -4.15,-1.274 -5.429,-0.316 -1.279,0.95 -1.599,2.547 -2.866,4.14 -1.276,1.597 -1.601,5.107 -1.919,8.3 -0.313,3.19 0.318,5.099 0.961,6.06 0.632,0.957 4.146,2.869 6.058,3.825 1.913,0.959 5.105,0 5.105,0 0,0 3.187,0.641 5.736,1.276 2.555,0.637 4.469,-2.555 5.426,-4.144 0.957,-1.596 2.231,-5.747 4.464,-4.466 2.24,1.274 0,3.192 -0.314,4.782 -0.314,1.596 0.639,4.785 0.951,7.656 0.319,2.87 2.234,2.236 4.464,5.421 2.24,3.192 0.642,3.192 0.642,4.785 0,1.598 0.961,2.874 2.867,4.148 1.919,1.279 1.603,1.279 4.79,3.835 3.194,2.545 1.281,2.867 3.506,6.377 1.556,2.445 2.969,2.89 4.541,4.013 l 1.529,-1.143 c 0,0 -0.637,-2.235 -0.325,-3.831 0.325,-1.594 2.227,1.596 3.195,2.551 0.953,0.961 2.868,2.233 3.189,3.829 0.318,1.595 -1.921,-0.634 -2.871,0 -0.567,0.381 -1.347,1.079 -1.904,1.595 1.399,2.381 -0.474,3.121 -1.609,5.11 -1.274,2.227 -5.416,-1.601 -5.416,-1.601 0,0 2.868,3.515 3.821,4.151 0.957,0.635 4.79,0 8.297,0 3.503,0 4.151,3.505 7.014,4.465 2.869,0.954 1.596,2.231 0.637,3.51 -0.955,1.275 -4.148,2.231 -5.732,3.502 -1.604,1.278 -3.195,1.918 -3.514,6.702 -0.323,4.787 -4.149,5.424 -4.149,5.424 0,0 -3.196,-3.832 -5.422,-3.187 -2.241,0.631 -1.281,3.5 -2.241,5.419 -0.958,1.912 -5.088,2.875 -7.336,2.551 -2.221,-0.324 -4.46,0.324 -5.415,-1.912 -0.955,-2.229 0.955,-5.427 2.548,-7.335 1.598,-1.916 -0.957,-7.019 -1.904,-7.977 -0.968,-0.956 -0.644,-7.337 -3.202,-7.976 -2.545,-0.635 -3.174,7.659 -4.459,8.291 -1.273,0.643 -10.853,4.79 -12.442,6.387 -1.597,1.589 -5.112,2.866 -6.379,5.739 -1.279,2.871 7.327,7.654 8.605,8.609 1.279,0.962 3.509,0 5.43,-0.634 1.912,-0.636 2.868,-0.321 3.82,0.951 0.966,1.282 0.966,2.56 0.966,2.56 0,0 -7.333,0 -6.068,0.318 1.282,0.32 3.828,2.548 3.828,2.548 0,0 2.88,2.552 5.434,4.785 2.546,2.235 -0.645,2.556 -1.605,4.786 -0.949,2.234 -3.829,0.959 -3.829,0.959 l -1.917,-5.427 c 0,0 -2.55,0.325 -3.176,1.283 -0.641,0.955 -3.52,3.824 -5.432,4.776 -1.909,0.964 -3.188,-0.952 -3.822,-2.224 -0.648,-1.279 -5.422,-1.279 -5.422,-1.279 0,0 -3.831,-0.639 -5.103,-1.273 -1.279,-0.643 -7.028,1.589 -9.581,1.909 -2.542,0.316 -0.321,-4.783 -0.944,-5.743 -0.644,-0.955 -3.515,1.918 -5.112,2.551 -1.592,0.64 -5.425,1.6 -5.425,1.6 0,0 -4.775,2.868 -7.016,3.827 -2.232,0.957 -9.248,1.596 -11.48,3.506 -2.232,1.914 -4.79,-0.318 -6.068,0 -1.269,0.324 -4.465,-2.874 -5.737,-3.188 -1.277,-0.318 -4.467,0.639 -8.609,0.639 -4.151,0 -10.846,2.873 -13.721,4.463 -2.873,1.597 -12.752,-1.27 -14.673,-1.59 -1.915,-0.324 -6.699,-0.961 -7.018,-3.512 -0.319,-2.553 -5.741,-3.828 -5.741,-3.828 l 7.973,-3.189 c 0,0 -1.913,-1.596 -2.877,-1.596 -0.949,0 -3.815,2.55 -5.096,1.596 -1.278,-0.958 -1.6,-2.87 -0.955,-4.15 0.634,-1.275 4.464,-1.275 7.335,-0.634 2.867,0.634 1.912,-1.913 2.229,-3.191 0.322,-1.282 -4.145,-0.954 -5.416,-1.599 -1.282,-0.634 -1.282,-3.826 0,-5.738 1.271,-1.912 3.51,-3.825 5.738,-4.468 2.233,-0.639 3.509,-1.276 3.509,-1.276 0,0 -2.871,-4.144 -1.913,-5.421 0.955,-1.277 3.51,2.87 4.787,3.83 1.275,0.957 4.145,4.464 4.145,4.464 l 2.876,5.107 -0.641,-5.107 c 0,0 1.591,-1.597 4.142,0.959 2.554,2.546 1.596,3.824 1.596,3.824 0,0 6.381,-3.506 7.654,-3.19 1.277,0.323 6.067,-0.951 7.98,-2.869 1.912,-1.911 4.139,-6.06 5.106,-6.06 0.956,0 -0.642,2.55 0.956,2.235 1.589,-0.323 4.781,-5.107 6.057,-7.657 1.274,-2.558 3.827,-8.294 4.472,-9.574 0.631,-1.271 1.91,-0.954 2.868,-2.549 0.956,-1.595 2.55,-5.744 2.55,-7.335 0,-1.597 -0.636,-7.022 0.634,-12.129 1.268,-5.098 2.875,-11.483 5.744,-13.715 2.868,-2.229 4.464,-6.061 5.096,-7.332 0.645,-1.279 2.877,-7.341 4.472,-10.526 1.596,-3.193 3.828,-5.419 4.145,-3.193 0.322,2.233 -7.01,14.681 -7.01,14.681 0,0 1.27,1.271 2.225,1.271 0.966,0 2.875,-6.698 2.875,-6.698 0,0 7.657,-10.209 8.288,-11.48 0.64,-1.284 0.64,-6.066 2.553,-8.619 1.919,-2.549 14.997,-5.102 15.958,-4.78 0.947,0.319 3.186,-3.197 4.143,-4.15 0.955,-0.959 6.065,-2.557 7.654,-3.834 1.599,-1.269 2.228,-4.464 3.831,-6.698 1.588,-2.232 2.869,-1.588 4.782,-1.908 1.919,-0.324 2.55,0.957 2.55,0.957 l 2.239,-3.188 c 0,0 0.315,-4.471 0,-5.429 -0.324,-0.958 -1.917,-4.466 -3.195,-7.018 -1.273,-2.555 -0.628,-4.461 -0.628,-6.058 0,-1.597 -0.326,-5.421 1.906,-7.653 2.232,-2.235 3.508,-8.937 4.465,-11.171 0.961,-2.23 5.115,-6.378 6.702,-7.657 1.594,-1.271 2.236,-4.782 2.872,-7.335 0.629,-2.544 -0.636,-8.297 -0.636,-9.574 0,-1.269 -1.281,-16.897 -1.603,-18.494 -0.31,-1.595 -2.22,-9.251 -2.22,-10.846 0,-1.604 -0.967,-5.748 -0.967,-5.748 0,0 1.277,-1.588 0.322,-4.141 -0.955,-2.559 -1.603,-5.749 -1.913,-7.978 -0.322,-2.233 0,-8.932 0.958,-10.526 0.955,-1.597 3.187,-5.098 6.059,-7.006 2.87,-1.928 3.82,1.908 3.82,1.908 0,0 -1.902,4.459 -2.543,6.377 -0.648,1.915 0.952,3.507 2.862,6.694 1.921,3.19 0.957,2.87 -0.632,4.467 -1.589,1.594 1.279,3.505 3.515,6.064 2.225,2.553 0.637,3.502 1.27,4.786 0.641,1.273 2.237,2.869 2.237,3.828 0,0.954 4.14,1.59 6.69,2.555 2.555,0.953 3.199,3.184 2.236,6.055 -0.958,2.874 -1.268,5.424 -1.268,5.424 0,0 4.138,-2.229 7.332,0.324 3.187,2.546 2.865,4.141 5.418,7.654 2.555,3.502 0.962,4.777 1.285,7.647 0.31,2.871 4.782,4.154 8.614,5.754 3.821,1.592 3.504,1.269 5.733,5.098 2.231,3.825 1.591,8.292 1.276,10.85 -0.318,2.548 2.233,4.776 4.151,7.329 1.911,2.552 3.181,7.022 2.553,9.894 C 6.698,-1.596 1.917,-0.954 0,0" />
        </g>
        <g
           transform="translate(607.5122,710.6636)"
           id="g246">
          <path
             inkscape:connector-curvature="0"
             id="path248"
             style="fill:#ff9976;fill-opacity:1;fill-rule:evenodd;stroke:none"
             d="m 0,0 c -1.477,1.481 -3.506,1.481 -4.261,1.663 -0.729,0.184 -2.954,-3.329 -2.954,-3.329 0,0 3.143,0.745 4.446,0.925 C -1.477,-0.555 1.477,-1.475 0,0" />
        </g>
        <g
           transform="translate(590.8726,712.6968)"
           id="g250">
          <path
             inkscape:connector-curvature="0"
             id="path252"
             style="fill:#ff9976;fill-opacity:1;fill-rule:evenodd;stroke:none"
             d="m 0,0 c 0.736,0.185 1.663,-0.552 2.966,-0.552 1.282,0 3.508,-0.739 3.508,-0.739 L 9.05,0 C 9.05,0 8.875,0.739 8.137,1.11 7.396,1.479 7.396,2.221 6.66,2.78 5.925,3.327 5.735,3.884 4.448,4.811 3.145,5.728 3.519,5.363 2.4,4.811 1.295,4.253 0.736,3.512 -0.176,2.589 -1.109,1.662 -3.323,2.406 -2.771,0.561 -2.22,-1.291 -0.73,-0.187 0,0" />
        </g>
        <g
           transform="translate(467.5786,709.5571)"
           id="g254">
          <path
             inkscape:connector-curvature="0"
             id="path256"
             style="fill:#ff9976;fill-opacity:1;fill-rule:evenodd;stroke:none"
             d="m 0,0 c 0.738,-0.369 1.852,-1.109 1.852,-1.109 0,0 -1.852,-2.4 -1.852,-3.145 0,-0.743 1.852,-0.923 4.435,-1.662 2.586,-0.742 3.331,1.662 3.331,1.662 0,0 0.555,1.479 1.1,1.667 0.559,0.182 1.85,-0.369 2.776,-1.298 0.931,-0.924 2.039,-0.734 4.064,0.185 2.043,0.925 -2.025,1.481 -2.025,1.481 0,0 -2.592,1.11 -3.336,2.219 C 9.606,1.106 8.141,1.849 7.393,2.403 6.652,2.953 5.181,4.989 5.181,4.989 5.181,4.989 2.953,4.25 2.22,4.436 1.485,4.626 0.738,5.729 -0.188,5.361 -1.106,4.989 -2.033,4.626 -1.857,2.953 -1.665,1.291 -0.747,0.366 0,0" />
        </g>
        <g
           transform="translate(478.4858,712.5103)"
           id="g258">
          <path
             inkscape:connector-curvature="0"
             id="path260"
             style="fill:#ff9976;fill-opacity:1;fill-rule:evenodd;stroke:none"
             d="m 0,0 c 1.112,0 4.432,-0.55 6.656,-0.923 2.223,-0.368 4.06,2.406 3.695,3.145 C 9.979,2.966 7.572,2.036 7.022,2.036 6.459,2.036 3.326,2.775 1.852,3.884 0.368,4.997 -1.66,3.333 -1.66,3.333 L -2.586,2.036 C -2.586,2.036 -1.108,0 0,0" />
        </g>
        <g
           transform="translate(630.8677,562.8979)"
           id="g502">
          <path
             inkscape:connector-curvature="0"
             id="path504"
             style="fill:#ffc871;fill-opacity:1;fill-rule:evenodd;stroke:none"
             d="M 0,0 C 1.598,-0.586 3.319,0.049 3.815,1.416 4.311,2.778 3.413,4.369 1.807,4.96 0.207,5.539 -1.504,4.907 -2.009,3.541 -2.504,2.177 -1.606,0.589 0,0" />
        </g>
        <g
           transform="translate(626.2837,561.9189)"
           id="g510">
          <path
             inkscape:connector-curvature="0"
             id="path512"
             style="fill:#ffc871;fill-opacity:1;fill-rule:evenodd;stroke:none"
             d="M 0,0 C 0.148,0.292 0.302,0.582 0.461,0.873 0.712,0.755 1.199,0.536 1.708,0.33 2.357,0.068 3.042,-0.175 3.308,-0.143 3.649,-0.102 3.852,0.104 3.989,0.354 4.134,0.632 4.215,0.97 4.307,1.264 4.539,1.196 4.779,1.129 5.007,1.062 4.873,0.629 4.755,0.295 4.584,-0.033 4.392,-0.407 4.235,-0.621 4.052,-0.754 3.491,-1.141 2.573,-0.943 1.761,-0.703 1.146,-0.512 0.532,-0.347 0,0" />
        </g>
        <g
           transform="translate(582.8901,705.7212)"
           id="g530" />
        <g
           transform="translate(585.7544,660.8877)"
           id="g542" />
      </g>
    </g>
  </g>
</svg>
