<?xml version="1.0" encoding="iso-8859-1"?>
<!-- Generator: Adobe Illustrator 19.0.0, SVG Export Plug-In . SVG Version: 6.00 Build 0)  -->
<svg version="1.1" id="Layer_1" xmlns="http://www.w3.org/2000/svg" xmlns:xlink="http://www.w3.org/1999/xlink" x="0px" y="0px"
	 viewBox="0 0 512 512" style="enable-background:new 0 0 512 512;" xml:space="preserve">
<rect x="172.669" y="403.853" style="fill:#333333;" width="156.735" height="62.694"/>
<rect x="109.714" y="450.873" style="fill:#B6B6B6;" width="292.571" height="31.347"/>
<rect x="256" y="450.873" style="fill:#9D9D9D;" width="146.286" height="31.347"/>
<rect y="348.473" style="fill:#B6B6B6;" width="512" height="57.469"/>
<rect x="256" y="348.473" style="fill:#9D9D9D;" width="256" height="57.469"/>
<rect y="29.78" style="fill:#565659;" width="512" height="334.367"/>
<rect x="256" y="29.78" style="fill:#333333;" width="256" height="334.367"/>
<rect x="26.122" y="55.902" style="fill:#AED5F3;" width="459.755" height="271.673"/>
<rect x="256" y="55.902" style="fill:#78B9EB;" width="229.878" height="271.673"/>
<g>
	<rect x="255.979" y="107.886" style="fill:#FFFFFF;" width="36.049" height="31.347"/>
	<rect x="316.061" y="107.886" style="fill:#FFFFFF;" width="108.147" height="31.347"/>
	<rect x="255.979" y="173.976" style="fill:#FFFFFF;" width="36.049" height="31.347"/>
	<rect x="316.061" y="173.976" style="fill:#FFFFFF;" width="108.147" height="31.347"/>
	<rect x="255.979" y="240.065" style="fill:#FFFFFF;" width="36.049" height="31.347"/>
	<rect x="316.061" y="240.065" style="fill:#FFFFFF;" width="108.147" height="31.347"/>
</g>
<path style="fill:#FF5023;" d="M212.188,271.413H83.467V253.86c0-35.489,28.873-64.36,64.36-64.36
	c35.489,0,64.36,28.873,64.36,64.36V271.413z"/>
<path style="fill:#BF3C1A;" d="M147.828,189.5v81.914h64.36V253.86C212.188,218.371,183.317,189.5,147.828,189.5z"/>
<path style="fill:#FFFFFF;" d="M147.828,212.903c-29.036,0-52.659-23.623-52.659-52.659s23.623-52.659,52.659-52.659
	s52.659,23.623,52.659,52.659S176.864,212.903,147.828,212.903z"/>
<path style="fill:#FFF8DA;" d="M147.828,107.586c29.036,0,52.659,23.623,52.659,52.659s-23.623,52.659-52.659,52.659"/>
<g>
</g>
<g>
</g>
<g>
</g>
<g>
</g>
<g>
</g>
<g>
</g>
<g>
</g>
<g>
</g>
<g>
</g>
<g>
</g>
<g>
</g>
<g>
</g>
<g>
</g>
<g>
</g>
<g>
</g>
</svg>
