<?xml version="1.0" encoding="UTF-8" standalone="no"?>
<svg
   xmlns:dc="http://purl.org/dc/elements/1.1/"
   xmlns:cc="http://creativecommons.org/ns#"
   xmlns:rdf="http://www.w3.org/1999/02/22-rdf-syntax-ns#"
   xmlns:svg="http://www.w3.org/2000/svg"
   xmlns="http://www.w3.org/2000/svg"
   viewBox="0 0 718.96002 266.76001"
   height="266.76001"
   width="718.96002"
   xml:space="preserve"
   id="svg2"
   version="1.1"><metadata
     id="metadata8"><rdf:RDF><cc:Work
         rdf:about=""><dc:format>image/svg+xml</dc:format><dc:type
           rdf:resource="http://purl.org/dc/dcmitype/StillImage" /></cc:Work></rdf:RDF></metadata><defs
     id="defs6" /><g
     transform="matrix(1.3333333,0,0,-1.3333333,0,266.76)"
     id="g10"><g
       transform="scale(0.1)"
       id="g12"><path
         id="path14"
         style="fill:#94979a;fill-opacity:1;fill-rule:evenodd;stroke:none"
         d="m 1784.86,1536.66 c 266.81,0 483.56,-213.98 488.55,-479.64 v 0 c 4.73,-154.801 131.77,-278.571 287.46,-278.571 155.85,0 282.88,123.77 287.7,278.571 h 200.91 c -4.64,-265.508 -221.88,-479.579 -488.61,-479.579 -266.72,0 -483.74,214.071 -488.63,479.579 v 0 c -4.66,154.62 -131.78,278.72 -287.38,278.72 -155.94,0 -282.81,-124.1 -287.55,-278.72 h -201.16 c 4.9,265.66 221.82,479.64 488.71,479.64" /><path
         id="path16"
         style="fill:#e51635;fill-opacity:1;fill-rule:evenodd;stroke:none"
         d="m 3870.74,1537.55 v -480.53 c -0.1,-1.64 -0.1,-3.19 -0.25,-4.74 -7.19,-152.339 -133.25,-273.831 -287.31,-273.831 -153.89,0 -279.63,120.832 -287.36,272.851 -0.19,1.8 -0.25,486.01 -0.25,487.97 h -201.01 c 0,-1.72 0,-485.44 0,-486.99 7.51,-263.471 223.29,-474.839 488.62,-474.839 264.78,0 480.54,210.879 488.48,473.699 0,1.96 0.15,4 0.15,5.88 v 480.53 h -201.07" /><path
         id="path18"
         style="fill:#e51635;fill-opacity:1;fill-rule:evenodd;stroke:none"
         d="m 1025.42,2000.71 c 0,-1.14 0,-1420.901 0,-1420.901 h 201.33 c 0,0 -0.16,1420.171 -0.16,1420.901 h -201.17" /><path
         id="path20"
         style="fill:#e51635;fill-opacity:1;fill-rule:evenodd;stroke:none"
         d="m 4591.72,769.391 c -158.97,0 -287.96,128.75 -288.19,287.629 v 0 0 c 4.9,154.62 137.63,278.72 293.4,278.72 110.38,0 206.07,-62.13 254.41,-153.33 18.21,-37.79 28.56,-80.17 28.56,-124.99 0,-159.111 -128.98,-288.029 -288.18,-288.029 z m 493.93,-191.629 v 180.859 -4.082 c -0.09,137.383 -0.09,304.351 -0.09,304.671 -6.11,264.61 -222.47,477.45 -488.63,477.45 -48.48,0 -95.34,-7.02 -139.61,-20.16 -197.15,-54.79 -342.64,-232.76 -348.52,-445.69 -0.26,-4.58 -0.26,-9.14 -0.39,-13.79 h 0.13 c 0.26,-262.801 213.43,-476.071 476.32,-476.071 113.48,0 217.81,39.852 299.79,106.223 0,-60.242 0,-104.742 0,-109.242 v -0.168 h 201" /><path
         id="path22"
         style="fill:#e51635;fill-opacity:1;fill-rule:evenodd;stroke:none"
         d="m 1784.86,577.441 c 266.81,0 483.56,213.899 488.55,479.579 v 0 c 4.73,154.62 131.77,278.72 287.46,278.72 154.87,0 281.08,-122.47 287.54,-275.54 0,-0.99 0.16,-1060.2 0.16,-1060.2 h 200.91 c 0,0 0,1058.56 0,1059.21 -5.94,264.61 -222.38,477.45 -488.61,477.45 -266.72,0 -483.74,-213.98 -488.63,-479.64 v 0 c -4.66,-154.801 -131.78,-278.571 -287.38,-278.571 -155.94,0 -282.81,123.77 -287.55,278.571 h -201.16 c 4.9,-265.68 221.82,-479.579 488.71,-479.579" /><path
         id="path24"
         style="fill:#e51635;fill-opacity:1;fill-rule:nonzero;stroke:none"
         d="m 715.836,1169.19 c -14.863,49.96 -44.164,90.87 -88.008,122.05 -43.848,31.28 -94.543,47.03 -152.344,47.03 -62.871,0 -117.816,-17.63 -165.246,-52.74 -29.64,-21.96 -57.312,-60.82 -82.539,-116.34 z M 940.922,992.031 H 217.656 c 10.532,-63.929 38.367,-114.543 83.758,-152.269 45.32,-37.711 103.367,-56.5 173.582,-56.5 84.25,0 156.344,29.386 217,88.258 L 881.57,782.371 C 834.297,715.352 777.555,665.621 711.672,633.691 645.699,601.449 567.406,585.371 476.711,585.371 335.867,585.371 221.246,629.609 132.75,718.609 44.082,807.34 0,918.539 0,1052.12 c 0,136.83 44.082,250.47 132.344,340.93 88.246,90.63 198.957,135.69 331.871,135.69 141.316,0 256.191,-45.06 344.691,-135.69 88.668,-90.46 132.754,-209.82 132.754,-358.24 l -0.738,-42.779" /><path
         id="path26"
         style="fill:#e51635;fill-opacity:1;fill-rule:nonzero;stroke:none"
         d="m 5245.5,680.559 v -95.188 h -16.73 v 95.188 h -30.45 v 15.191 h 77.39 v -15.191 h -30.21" /><path
         id="path28"
         style="fill:#e51635;fill-opacity:1;fill-rule:nonzero;stroke:none"
         d="m 5375.47,585.371 v 73.891 l -25.46,-53.973 h -12.26 l -26.21,53.973 V 585.371 H 5294.9 V 695.75 h 16.64 l 32.34,-68.82 31.59,68.82 h 16.74 V 585.371 h -16.74" /></g></g></svg>