<?xml version="1.0" encoding="iso-8859-1"?>
<!-- Generator: Adobe Illustrator 19.0.0, SVG Export Plug-In . SVG Version: 6.00 Build 0)  -->
<svg version="1.1" id="Layer_1" xmlns="http://www.w3.org/2000/svg" xmlns:xlink="http://www.w3.org/1999/xlink" x="0px" y="0px"
	 viewBox="0 0 511.601 511.601" style="enable-background:new 0 0 511.601 511.601;" xml:space="preserve">
<path style="fill:#FFCE54;" d="M181.062,108.946c-11.647-1.296-29.165,2.95-38.923,9.461L17.737,201.343
	C7.978,207.853,0,222.764,0,234.488v255.8C0,502.014,9.586,511.6,21.312,511.6H490.29c11.725,0,21.311-9.586,21.311-21.312v-255.8
	c0-11.725-7.979-26.636-17.736-33.146l-85.839-57.222c-9.758-6.51-27.26-12.896-38.923-14.191L181.062,108.946z"/>
<path style="fill:#F6BB42;" d="M369.117,129.93l-94.035-10.492l-94.021-10.491c-11.647-1.296-29.149,2.95-38.907,9.445
	l-62.217,41.483l-62.201,41.468c-5.934,3.95-11.21,11.022-14.427,18.579l252.1,165.776l252.678-166.261
	c-3.247-7.369-8.415-14.223-14.224-18.095l-42.919-28.618l-42.936-28.619C398.251,137.612,380.765,131.241,369.117,129.93z"/>
<g>
	<path style="fill:#434A54;" d="M95.925,426.339H53.286c-5.886,0-10.647-4.778-10.647-10.664s4.762-10.663,10.647-10.663h42.639
		c5.886,0,10.663,4.777,10.663,10.663S101.811,426.339,95.925,426.339z"/>
	<path style="fill:#434A54;" d="M181.187,468.961h-127.9c-5.886,0-10.647-4.762-10.647-10.647s4.762-10.663,10.647-10.663h127.9
		c5.886,0,10.663,4.777,10.663,10.663S187.072,468.961,181.187,468.961z"/>
	<polygon style="fill:#434A54;" points="274.613,310.32 196.94,322.966 148.775,206.355 255.176,189.805 238.907,244.403 	"/>
	<path style="fill:#434A54;" d="M437.954,114.363c5.465,33.536-17.299,65.137-50.819,70.586
		c-33.537,5.464-65.137-17.299-70.602-50.82c-5.449-33.536,17.314-65.136,50.836-70.585
		C400.905,58.079,432.506,80.843,437.954,114.363z"/>
</g>
<polygon style="fill:#E6E9ED;" points="422.935,241.686 250.507,216.58 223.357,79.235 383.621,0 "/>
<path style="fill:#ED5564;" d="M192.537,190.57c0.765,4.777-2.467,9.259-7.229,10.039l-77.128,12.553
	c-4.762,0.766-9.258-2.467-10.039-7.229l-11.226-69.056c-0.78-4.777,2.451-9.258,7.229-10.039l77.112-12.553
	c4.777-0.765,9.273,2.467,10.039,7.229L192.537,190.57z"/>
<path style="fill:#F5F7FA;" d="M257.737,206.542c0.779,4.777-2.467,9.258-7.229,10.038l-103.575,16.847
	c-4.777,0.78-9.273-2.451-10.039-7.229l-19.672-120.844c-0.765-4.762,2.467-9.258,7.229-10.023L228.04,78.47
	c4.763-0.765,9.259,2.467,10.039,7.229L257.737,206.542z"/>
<path style="fill:#DA4453;" d="M279.156,375.035c-5.854-6.542-14.363-10.648-23.825-10.648c-9.477,0-17.985,4.106-23.84,10.648
	l-8.135,10.663v10.664c0,17.657,14.302,31.975,31.975,31.975c17.658,0,31.976-14.317,31.976-31.975v-10.664L279.156,375.035z"/>
<path style="fill:#ED5564;" d="M287.307,385.698c0,17.658-14.317,31.975-31.976,31.975c-17.673,0-31.975-14.316-31.975-31.975
	s14.302-31.975,31.975-31.975C272.989,353.724,287.307,368.04,287.307,385.698z"/>
<g>
</g>
<g>
</g>
<g>
</g>
<g>
</g>
<g>
</g>
<g>
</g>
<g>
</g>
<g>
</g>
<g>
</g>
<g>
</g>
<g>
</g>
<g>
</g>
<g>
</g>
<g>
</g>
<g>
</g>
</svg>
