<?xml version="1.0" encoding="UTF-8" standalone="no"?>
<!-- Created with Inkscape (http://www.inkscape.org/) -->

<svg
   xmlns:dc="http://purl.org/dc/elements/1.1/"
   xmlns:cc="http://creativecommons.org/ns#"
   xmlns:rdf="http://www.w3.org/1999/02/22-rdf-syntax-ns#"
   xmlns:svg="http://www.w3.org/2000/svg"
   xmlns="http://www.w3.org/2000/svg"
   xmlns:sodipodi="http://sodipodi.sourceforge.net/DTD/sodipodi-0.dtd"
   xmlns:inkscape="http://www.inkscape.org/namespaces/inkscape"
   width="95.25mm"
   height="82.020836mm"
   viewBox="0 0 95.25 82.020836"
   version="1.1"
   id="svg9697"
   inkscape:version="0.92.2 (5c3e80d, 2017-08-06)"
   sodipodi:docname="email_mark.svg">
  <defs
     id="defs9691">
    <clipPath
       clipPathUnits="userSpaceOnUse"
       id="clipPath680">
      <path
         inkscape:connector-curvature="0"
         d="m 354.603,679.734 c 0,-12.712 10.303,-23.016 23.014,-23.016 v 0 c 12.711,0 23.016,10.304 23.016,23.016 v 0 c 0,12.711 -10.305,23.015 -23.016,23.015 v 0 c -12.711,0 -23.014,-10.304 -23.014,-23.015"
         id="path678" />
    </clipPath>
    <clipPath
       clipPathUnits="userSpaceOnUse"
       id="clipPath692">
      <path
         inkscape:connector-curvature="0"
         d="m 362.72,694.096 h 49.345 v -49.32 H 362.72 Z"
         id="path690" />
    </clipPath>
    <clipPath
       clipPathUnits="userSpaceOnUse"
       id="clipPath716">
      <path
         inkscape:connector-curvature="0"
         d="m 370.304,691.36 h 5.253 v -14.704 h -5.253 z"
         id="path714" />
    </clipPath>
    <clipPath
       clipPathUnits="userSpaceOnUse"
       id="clipPath612">
      <path
         inkscape:connector-curvature="0"
         d="m 350.262,601.19 c 0,-14.074 11.409,-25.483 25.484,-25.483 v 0 c 14.073,0 25.482,11.409 25.482,25.483 v 0 c 0,14.073 -11.409,25.483 -25.482,25.483 v 0 c -14.075,0 -25.484,-11.41 -25.484,-25.483"
         id="path610" />
    </clipPath>
    <clipPath
       clipPathUnits="userSpaceOnUse"
       id="clipPath624">
      <path
         inkscape:connector-curvature="0"
         d="M 358.087,606.852 H 413.57 V 566.837 H 358.087 Z"
         id="path622" />
    </clipPath>
    <clipPath
       clipPathUnits="userSpaceOnUse"
       id="clipPath656">
      <path
         inkscape:connector-curvature="0"
         d="m 358.087,600.749 h 35.317 v -6.104 h -35.317 z"
         id="path654" />
    </clipPath>
  </defs>
  <sodipodi:namedview
     id="base"
     pagecolor="#ffffff"
     bordercolor="#666666"
     borderopacity="1.0"
     inkscape:pageopacity="0.0"
     inkscape:pageshadow="2"
     inkscape:zoom="3.959798"
     inkscape:cx="273.17962"
     inkscape:cy="235.69056"
     inkscape:document-units="mm"
     inkscape:current-layer="layer1"
     showgrid="false"
     inkscape:window-width="1920"
     inkscape:window-height="1017"
     inkscape:window-x="-8"
     inkscape:window-y="-8"
     inkscape:window-maximized="1" />
  <metadata
     id="metadata9694">
    <rdf:RDF>
      <cc:Work
         rdf:about="">
        <dc:format>image/svg+xml</dc:format>
        <dc:type
           rdf:resource="http://purl.org/dc/dcmitype/StillImage" />
        <dc:title />
      </cc:Work>
    </rdf:RDF>
  </metadata>
  <g
     inkscape:label="Layer 1"
     inkscape:groupmode="layer"
     id="layer1"
     transform="translate(4.4794851,-152.87803)">
    <g
       transform="matrix(0.25005708,0,0,-0.30046141,57.420901,209.45725)"
       id="g242" />
    <g
       transform="matrix(0.25005708,0,0,-0.30046141,-4.2001417,231.12762)"
       id="g262">
      <path
         inkscape:connector-curvature="0"
         id="path264"
         style="fill:#273942;fill-opacity:1;fill-rule:nonzero;stroke:none"
         d="m 0,0 c 0,0 -7.885,-11.785 18.242,-11.785 26.127,0 332.503,-0.757 332.503,-0.757 0,0 17.988,-0.774 15.079,11.636 z" />
    </g>
    <g
       transform="matrix(0.25005708,0,0,-0.30046141,87.278004,231.40548)"
       id="g266">
      <path
         inkscape:connector-curvature="0"
         id="path268"
         style="fill:#e6e6e8;fill-opacity:1;fill-rule:nonzero;stroke:none"
         d="m 0,0 c 1.242,-4.369 -1.771,-6.562 -6.257,-6.562 l -353.36,0.758 c -4.486,0 -7.258,3.043 -6.212,6.729 l 51.63,53.736 c 4.157,3.801 4.803,5.574 8.85,5.574 h 243.933 c 1.948,0 5.276,-1.511 9.167,-5.574 z" />
    </g>
    <g
       transform="matrix(0.25005708,0,0,-0.30046141,11.914855,169.3967)"
       id="g270">
      <path
         inkscape:connector-curvature="0"
         id="path272"
         style="fill:#273942;fill-opacity:1;fill-rule:nonzero;stroke:none"
         d="m 0,0 c -4.047,0 -7.281,-3.312 -7.281,-7.472 v -138.755 c 0,0 3.234,0.216 7.281,0.216 H 9.143 L 229.991,0 Z" />
    </g>
    <g
       transform="matrix(0.25005708,0,0,-0.30046141,70.562648,169.3967)"
       id="g274">
      <path
         inkscape:connector-curvature="0"
         id="path276"
         style="fill:#273942;fill-opacity:1;fill-rule:nonzero;stroke:none"
         d="M 0,0 H -4.546 L -225.395,-146.011 H 0 c 4.046,0 7.378,-0.216 7.378,-0.216 V -7.472 C 7.378,-3.312 4.046,0 0,0" />
    </g>
    <g
       transform="matrix(0.25005708,0,0,-0.30046141,28.919119,226.0975)"
       id="g278">
      <path
         inkscape:connector-curvature="0"
         id="path280"
         style="fill:#354f5c;fill-opacity:1;fill-rule:nonzero;stroke:none"
         d="M 0,0 3.734,9.272 H -14.078 L -19.271,0 Z" />
    </g>
    <g
       transform="matrix(0.25005708,0,0,-0.30046141,30.428235,222.4123)"
       id="g282">
      <path
         inkscape:connector-curvature="0"
         id="path284"
         style="fill:#354f5c;fill-opacity:1;fill-rule:nonzero;stroke:none"
         d="m 0,0 2.977,7.302 h -16.56 L -17.729,0 Z" />
    </g>
    <g
       transform="matrix(0.25005708,0,0,-0.30046141,31.390978,219.48648)"
       id="g286">
      <path
         inkscape:connector-curvature="0"
         id="path288"
         style="fill:#354f5c;fill-opacity:1;fill-rule:nonzero;stroke:none"
         d="M 0,0 2.754,6.858 H -12.652 L -16.494,0 Z" />
    </g>
    <g
       transform="matrix(0.25005708,0,0,-0.30046141,25.439293,219.48648)"
       id="g290">
      <path
         inkscape:connector-curvature="0"
         id="path292"
         style="fill:#354f5c;fill-opacity:1;fill-rule:nonzero;stroke:none"
         d="M 0,0 3.921,6.858 H -10.362 L -15.292,0 Z" />
    </g>
    <g
       transform="matrix(0.25005708,0,0,-0.30046141,22.070979,226.0975)"
       id="g294">
      <path
         inkscape:connector-curvature="0"
         id="path296"
         style="fill:#354f5c;fill-opacity:1;fill-rule:nonzero;stroke:none"
         d="M 0,0 5.308,9.272 H -11.207 L -17.867,0 Z" />
    </g>
    <g
       transform="matrix(0.25005708,0,0,-0.30046141,24.000267,222.4123)"
       id="g298">
      <path
         inkscape:connector-curvature="0"
         id="path300"
         style="fill:#354f5c;fill-opacity:1;fill-rule:nonzero;stroke:none"
         d="M 0,0 4.238,7.302 H -11.113 L -16.438,0 Z" />
    </g>
    <g
       transform="matrix(0.25005708,0,0,-0.30046141,36.625071,219.48648)"
       id="g302">
      <path
         inkscape:connector-curvature="0"
         id="path304"
         style="fill:#354f5c;fill-opacity:1;fill-rule:nonzero;stroke:none"
         d="m 0,0 1.756,6.858 h -13.06 L -13.981,0 Z" />
    </g>
    <g
       transform="matrix(0.25005708,0,0,-0.30046141,19.855141,219.48648)"
       id="g306">
      <path
         inkscape:connector-curvature="0"
         id="path308"
         style="fill:#354f5c;fill-opacity:1;fill-rule:nonzero;stroke:none"
         d="M 0,0 5.006,6.858 H -10.298 L -16.385,0 Z" />
    </g>
    <g
       transform="matrix(0.25005708,0,0,-0.30046141,17.404635,223.31164)"
       id="g310">
      <path
         inkscape:connector-curvature="0"
         id="path312"
         style="fill:#354f5c;fill-opacity:1;fill-rule:nonzero;stroke:none"
         d="m 0,0 h -17.137 l -8.775,-9.272 h 19.144 z" />
    </g>
    <g
       transform="matrix(0.25005708,0,0,-0.30046141,17.943588,222.45882)"
       id="g314">
      <path
         inkscape:connector-curvature="0"
         id="path316"
         style="fill:#354f5c;fill-opacity:1;fill-rule:nonzero;stroke:none"
         d="M 0,0 5.752,7.307 H -10.342 L -16.914,0 Z" />
    </g>
    <g
       transform="matrix(0.25005708,0,0,-0.30046141,14.204425,219.4627)"
       id="g318">
      <path
         inkscape:connector-curvature="0"
         id="path320"
         style="fill:#354f5c;fill-opacity:1;fill-rule:nonzero;stroke:none"
         d="M 0,0 6.402,6.935 -8.722,6.945 -16.191,0.011 Z" />
    </g>
    <g
       transform="matrix(0.25005708,0,0,-0.30046141,11.107294,223.33084)"
       id="g322">
      <path
         inkscape:connector-curvature="0"
         id="path324"
         style="fill:#354f5c;fill-opacity:1;fill-rule:nonzero;stroke:none"
         d="M 0,0 -16.935,0.011 -27.574,-9.365 -8.656,-9.377 Z" />
    </g>
    <g
       transform="matrix(0.25005708,0,0,-0.30046141,11.79056,222.46849)"
       id="g326">
      <path
         inkscape:connector-curvature="0"
         id="path328"
         style="fill:#354f5c;fill-opacity:1;fill-rule:nonzero;stroke:none"
         d="M 0,0 7.235,7.389 -8.67,7.399 -16.715,0.011 Z" />
    </g>
    <g
       transform="matrix(0.25005708,0,0,-0.30046141,36.19945,222.4123)"
       id="g330">
      <path
         inkscape:connector-curvature="0"
         id="path332"
         style="fill:#354f5c;fill-opacity:1;fill-rule:nonzero;stroke:none"
         d="M 0,0 1.735,7.302 H -13.761 L -16.027,0 Z" />
    </g>
    <g
       transform="matrix(0.25005708,0,0,-0.30046141,66.493963,226.0975)"
       id="g334">
      <path
         inkscape:connector-curvature="0"
         id="path336"
         style="fill:#354f5c;fill-opacity:1;fill-rule:nonzero;stroke:none"
         d="M 0,0 H 19.145 L 10.334,9.272 H -7.361 Z" />
    </g>
    <g
       transform="matrix(0.25005708,0,0,-0.30046141,62.559348,220.21828)"
       id="g338">
      <path
         inkscape:connector-curvature="0"
         id="path340"
         style="fill:#354f5c;fill-opacity:1;fill-rule:nonzero;stroke:none"
         d="M 0,0 5.892,-7.302 H 23.503 L 16.448,0 Z" />
    </g>
    <g
       transform="matrix(0.25005708,0,0,-0.30046141,66.323873,219.48648)"
       id="g342">
      <path
         inkscape:connector-curvature="0"
         id="path344"
         style="fill:#354f5c;fill-opacity:1;fill-rule:nonzero;stroke:none"
         d="M 0,0 -6.535,6.858 H -21.839 L -16.384,0 Z" />
    </g>
    <g
       transform="matrix(0.25005708,0,0,-0.30046141,55.331267,222.4123)"
       id="g346">
      <path
         inkscape:connector-curvature="0"
         id="path348"
         style="fill:#354f5c;fill-opacity:1;fill-rule:nonzero;stroke:none"
         d="M 0,0 -4.582,7.302 H -19.166 L -15.616,0 Z" />
    </g>
    <g
       transform="matrix(0.25005708,0,0,-0.30046141,57.170186,226.0975)"
       id="g350">
      <path
         inkscape:connector-curvature="0"
         id="path352"
         style="fill:#354f5c;fill-opacity:1;fill-rule:nonzero;stroke:none"
         d="m 0,0 -6.188,9.272 h -15.69 L -17.452,0 Z" />
    </g>
    <g
       transform="matrix(0.25005708,0,0,-0.30046141,59.975022,219.48648)"
       id="g354">
      <path
         inkscape:connector-curvature="0"
         id="path356"
         style="fill:#354f5c;fill-opacity:1;fill-rule:nonzero;stroke:none"
         d="M 0,0 -4.503,6.858 H -19.396 L -14.527,0 Z" />
    </g>
    <g
       transform="matrix(0.25005708,0,0,-0.30046141,62.011993,222.4123)"
       id="g358">
      <path
         inkscape:connector-curvature="0"
         id="path360"
         style="fill:#354f5c;fill-opacity:1;fill-rule:nonzero;stroke:none"
         d="M 0,0 -5.799,7.302 H -21.37 L -16.673,0 Z" />
    </g>
    <g
       transform="matrix(0.25005708,0,0,-0.30046141,59.633499,226.0975)"
       id="g362">
      <path
         inkscape:connector-curvature="0"
         id="path364"
         style="fill:#354f5c;fill-opacity:1;fill-rule:nonzero;stroke:none"
         d="M 0,0 H 18.122 L 10.894,9.272 H -5.858 Z" />
    </g>
    <g
       transform="matrix(0.25005708,0,0,-0.30046141,54.004912,219.48648)"
       id="g366">
      <path
         inkscape:connector-curvature="0"
         id="path368"
         style="fill:#354f5c;fill-opacity:1;fill-rule:nonzero;stroke:none"
         d="M 0,0 -5.097,6.858 H -19.585 L -15.511,0 Z" />
    </g>
    <g
       transform="matrix(0.25005708,0,0,-0.30046141,71.51061,223.31164)"
       id="g370">
      <path
         inkscape:connector-curvature="0"
         id="path372"
         style="fill:#354f5c;fill-opacity:1;fill-rule:nonzero;stroke:none"
         d="M 0,0 8.95,-9.272 H 29.115 L 18.637,0 Z" />
    </g>
    <g
       transform="matrix(0.25005708,0,0,-0.30046141,72.845384,219.48648)"
       id="g374">
      <path
         inkscape:connector-curvature="0"
         id="path376"
         style="fill:#354f5c;fill-opacity:1;fill-rule:nonzero;stroke:none"
         d="m 0,0 -7.769,6.858 h -16.12 L -17.258,0 Z" />
    </g>
    <g
       transform="matrix(0.25005708,0,0,-0.30046141,70.827949,222.4123)"
       id="g378">
      <path
         inkscape:connector-curvature="0"
         id="path380"
         style="fill:#354f5c;fill-opacity:1;fill-rule:nonzero;stroke:none"
         d="M 0,0 H 18.553 L 10.162,7.302 H -7.165 Z" />
    </g>
    <g
       transform="matrix(0.25005708,0,0,-0.30046141,48.34297,219.48648)"
       id="g382">
      <path
         inkscape:connector-curvature="0"
         id="path384"
         style="fill:#354f5c;fill-opacity:1;fill-rule:nonzero;stroke:none"
         d="M 0,0 -3.197,6.858 H -18.501 L -16.384,0 Z" />
    </g>
    <g
       transform="matrix(0.25005708,0,0,-0.30046141,49.228049,222.4123)"
       id="g386">
      <path
         inkscape:connector-curvature="0"
         id="path388"
         style="fill:#354f5c;fill-opacity:1;fill-rule:nonzero;stroke:none"
         d="M 0,0 -3.449,7.302 H -19.897 L -17.612,0 Z" />
    </g>
    <g
       transform="matrix(0.25005708,0,0,-0.30046141,42.371039,219.48648)"
       id="g390">
      <path
         inkscape:connector-curvature="0"
         id="path392"
         style="fill:#354f5c;fill-opacity:1;fill-rule:nonzero;stroke:none"
         d="M 0,0 -0.855,6.858 H -15 L -15.741,0 Z" />
    </g>
    <g
       transform="matrix(0.25005708,0,0,-0.30046141,42.626947,222.4123)"
       id="g394">
      <path
         inkscape:connector-curvature="0"
         id="path396"
         style="fill:#354f5c;fill-opacity:1;fill-rule:nonzero;stroke:none"
         d="M 0,0 -1.273,7.302 H -16.844 L -17.911,0 Z" />
    </g>
    <g
       transform="matrix(0.25005708,0,0,-0.30046141,49.464078,223.31164)"
       id="g398">
      <path
         inkscape:connector-curvature="0"
         id="path400"
         style="fill:#354f5c;fill-opacity:1;fill-rule:nonzero;stroke:none"
         d="m 0,0 h -18.506 -16.661 -0.09 -17.213 -0.273 -18.13 l -2.846,-9.272 h 19.872 0.277 18.648 0.091 18.031 20.356 z" />
    </g>
    <g
       transform="matrix(0.25005708,0,0,-0.30046141,30.926771,229.92694)"
       id="g402">
      <path
         inkscape:connector-curvature="0"
         id="path404"
         style="fill:#273942;fill-opacity:1;fill-rule:nonzero;stroke:none"
         d="m 0,0 -1.117,-0.677 c -3.595,-3.849 -0.997,-4.902 6.985,-4.902 h 63.416 c 7.981,0 10.73,1.526 6.857,4.902 L 75.037,0 Z" />
    </g>
    <g
       transform="matrix(0.25005708,0,0,-0.30046141,47.785949,227.96702)"
       id="g406">
      <path
         inkscape:connector-curvature="0"
         id="path408"
         style="fill:#354f5c;fill-opacity:1;fill-rule:nonzero;stroke:none"
         d="m 0,0 c -2.171,1.52 -3.654,2.335 -8.009,2.335 l -43.965,0.069 c -4.354,0 -5.547,-0.884 -7.743,-2.404 l -7.7,-6.523 H 7.624 Z" />
    </g>
    <g
       transform="matrix(0.25005708,0,0,-0.30046141,68.644483,172.18421)"
       id="g410">
      <path
         inkscape:connector-curvature="0"
         id="path412"
         style="fill:#2aadd3;fill-opacity:1;fill-rule:nonzero;stroke:none"
         d="m 0,0 h -218.333 c -4.047,0 -7.336,-3.343 -7.336,-7.419 V -126.29 c 0,-4.077 3.289,-7.414 7.336,-7.414 h 0.954 L 0.213,-0.05 C 0.142,-0.048 0.071,0 0,0" />
    </g>
    <g
       transform="matrix(0.25005708,0,0,-0.30046141,68.691367,172.20752)"
       id="g414">
      <path
         inkscape:connector-curvature="0"
         id="path416"
         style="fill:#2aadd3;fill-opacity:1;fill-rule:nonzero;stroke:none"
         d="m 0,0 -217.567,-133.626 h 217.38 c 4.045,0 7.275,3.337 7.275,7.414 V -7.342 C 7.088,-3.338 3.947,-0.112 0,0" />
    </g>
    <g
       transform="matrix(0.25005708,0,0,-0.30046141,31.980113,187.572)"
       id="g418">
      <path
         inkscape:connector-curvature="0"
         id="path420"
         style="fill:#e6e7e8;fill-opacity:1;fill-rule:evenodd;stroke:none"
         d="m 0,0 c -16.764,-26.326 -36.692,-60.553 -69.595,-11.857 -0.935,-2.451 -1.906,-4.888 -2.942,-7.306 l -6.238,-14.55 c 3.421,-4.857 9.27,-10.763 19.163,-15.766 34.195,-17.288 50.607,7.566 71.096,39.161 z" />
    </g>
    <g
       transform="matrix(0.25005708,0,0,-0.30046141,34.309242,190.89952)"
       id="g422">
      <path
         inkscape:connector-curvature="0"
         id="path424"
         style="fill:#ffd1ae;fill-opacity:1;fill-rule:evenodd;stroke:none"
         d="m 0,0 c -0.699,0.568 -8.526,4.329 -8.932,9.355 -0.406,5.029 -1.527,10.901 2.101,14.335 3.629,3.434 7.566,5.385 13.212,0.942 5.645,-4.442 8.427,-6.443 6.394,-13.391 C 10.739,4.294 0,0 0,0" />
    </g>
    <g
       transform="matrix(0.25005708,0,0,-0.30046141,38.647634,176.1269)"
       id="g426">
      <path
         inkscape:connector-curvature="0"
         id="path428"
         style="fill:#f48245;fill-opacity:1;fill-rule:evenodd;stroke:none"
         d="m 0,0 c -1.543,-2.734 -4.07,-12.089 -3.693,-21.948 0.379,-9.86 4.587,-17.515 3.494,-21.26 -1.134,-3.891 -13.386,-7.459 -16.426,-1.452 -2.453,4.843 -1.368,46.439 -0.148,46.897 C -15.555,2.695 0,0 0,0" />
    </g>
    <g
       transform="matrix(0.25005708,0,0,-0.30046141,58.081644,160.75319)"
       id="g430"
       style="fill:#ac0080;fill-opacity:1">
      <path
         inkscape:connector-curvature="0"
         id="path432"
         style="fill:#ac0080;fill-opacity:1;fill-rule:evenodd;stroke:none"
         d="m 0,0 c -0.126,0.85 -1.267,0.155 -4.298,-0.778 -3.03,-0.932 -0.611,-0.188 -3.976,-3.772 -7.126,-7.593 -74.562,-24.026 -86.989,-25.711 -7.763,-1.052 -9.612,-1.932 -12.46,-3.031 l 1.571,-32.481 c 2.922,-0.879 4.477,-0.837 12.3,-1.294 12.518,-0.73 81.013,-11.957 88.7,-18.981 2.075,-1.896 8.595,-3.926 8.597,-3.905 C 5.581,-60.278 4.48,-30.298 0,0" />
    </g>
    <g
       transform="matrix(0.25005708,0,0,-0.30046141,34.619616,169.77977)"
       id="g434">
      <path
         inkscape:connector-curvature="0"
         id="path436"
         style="fill:#f48245;fill-opacity:1;fill-rule:evenodd;stroke:none"
         d="M 0,0 C -0.536,-0.088 -1.02,-0.163 -1.436,-0.219 -9.2,-1.271 -13.375,-0.346 -16.222,-1.443 l 0.68,-17.746 0.68,-17.744 c 2.923,-0.879 7.014,0.366 14.837,-0.092 0.419,-0.024 0.906,-0.061 1.445,-0.108 z" />
    </g>
    <g
       transform="matrix(0.25005708,0,0,-0.30046141,34.343673,176.02593)"
       id="g438">
      <path
         inkscape:connector-curvature="0"
         id="path440"
         style="fill:#c96c38;fill-opacity:1;fill-rule:evenodd;stroke:none"
         d="M 0,0 C 0.141,1.162 0.288,1.843 0.438,1.901 1.13,2.161 6.427,1.408 10.886,0.704 Z" />
    </g>
    <g
       transform="matrix(0.25005708,0,0,-0.30046141,58.081644,160.75319)"
       id="g442"
       style="fill:#ad0080;fill-opacity:1">
      <path
         inkscape:connector-curvature="0"
         id="path444"
         style="fill:#ad0080;fill-opacity:1;fill-rule:evenodd;stroke:none"
         d="m 0,0 c -0.126,0.848 -7.042,-3.236 -8.274,-4.55 -7.126,-7.593 -74.562,-24.026 -86.989,-25.711 -7.763,-1.052 -9.612,-1.932 -12.46,-3.031 l 0.219,-18.351 111.675,7.215 C 3.584,-29.694 2.199,-14.886 0,0" />
    </g>
    <g
       transform="matrix(0.25005708,0,0,-0.30046141,34.619616,169.77977)"
       id="g446">
      <path
         inkscape:connector-curvature="0"
         id="path448"
         style="fill:#f48245;fill-opacity:1;fill-rule:evenodd;stroke:none"
         d="M 0,0 C -0.537,-0.088 -1.02,-0.163 -1.436,-0.219 -9.2,-1.273 -13.375,-0.346 -16.222,-1.443 l 0.68,-17.746 0.097,-2.525 16.236,1.049 z" />
    </g>
    <g
       transform="matrix(0.25005708,0,0,-0.30046141,39.232623,183.71441)"
       id="g450">
      <path
         inkscape:connector-curvature="0"
         id="path452"
         style="fill:#f2c8ad;fill-opacity:1;fill-rule:evenodd;stroke:none"
         d="m 0,0 c -3.42,-1.432 -9.225,-3.688 -11.535,-2.063 -2.862,2.011 -3.142,4.784 -1.554,6.598 1.586,1.813 9.12,3.977 11.975,3.561 C 1.743,7.68 2.629,6.29 3.174,4.574 4.012,1.936 2.04,0.855 0,0" />
    </g>
    <g
       transform="matrix(0.25005708,0,0,-0.30046141,39.383022,186.22196)"
       id="g454">
      <path
         inkscape:connector-curvature="0"
         id="path456"
         style="fill:#f2c8ad;fill-opacity:1;fill-rule:evenodd;stroke:none"
         d="m 0,0 c -3.42,-1.433 -9.226,-3.689 -11.537,-2.065 -2.86,2.013 -3.139,4.784 -1.552,6.6 1.586,1.813 9.119,3.975 11.976,3.561 C 1.742,7.681 2.629,6.29 3.173,4.571 4.01,1.934 2.039,0.854 0,0" />
    </g>
    <g
       transform="matrix(0.25005708,0,0,-0.30046141,38.416878,188.57986)"
       id="g458">
      <path
         inkscape:connector-curvature="0"
         id="path460"
         style="fill:#f2c8ad;fill-opacity:1;fill-rule:evenodd;stroke:none"
         d="m 0,0 c -3.67,-0.543 -7.872,-1.023 -9.709,1.122 -2.274,2.657 -1.859,5.411 0.126,6.777 1.986,1.366 9.821,1.6 12.485,0.491 C 5.566,7.281 6.081,5.714 6.185,3.916 6.343,1.152 2.186,0.324 0,0" />
    </g>
    <g
       transform="matrix(0.25005708,0,0,-0.30046141,37.978428,190.44633)"
       id="g462">
      <path
         inkscape:connector-curvature="0"
         id="path464"
         style="fill:#f2c8ad;fill-opacity:1;fill-rule:evenodd;stroke:none"
         d="M 0,0 C -3.081,0.491 -6.574,1.167 -7.506,3.354 -8.659,6.059 -7.631,8.165 -5.692,8.757 -3.754,9.353 2.59,7.559 4.447,5.997 6.305,4.435 6.321,3.049 5.951,1.58 5.379,-0.678 1.835,-0.292 0,0" />
    </g>
    <g
       transform="matrix(0.25005708,0,0,-0.30046141,36.04889,191.00822)"
       id="g466">
      <path
         inkscape:connector-curvature="0"
         id="path468"
         style="fill:#d0d2d3;fill-opacity:1;fill-rule:evenodd;stroke:none"
         d="m 0,0 c -2.276,-3.328 -4.434,-6.666 -4.434,-6.666 0,0 -15.794,9.156 -15.757,9.59 0.035,0.436 4.096,7.945 4.168,8.288 C -15.95,11.555 -5.077,2.309 0,0" />
    </g>
    <g
       transform="matrix(0.25005708,0,0,-0.30046141,12.118501,198.159)"
       id="g470">
      <path
         inkscape:connector-curvature="0"
         id="path472"
         style="fill:#252122;fill-opacity:1;fill-rule:evenodd;stroke:none"
         d="m 0,0 c 1.707,-2.171 3.375,-4.372 4.992,-6.614 7.628,-7.181 22.422,-17.486 38.535,-15.778 12.481,1.324 28.697,11.693 34.338,18.475 5.643,6.779 18.476,22.148 16.053,23.244 C 91.494,20.42 76.072,30.337 76.329,30.36 76.586,30.381 64.62,15.062 59.518,10.413 54.416,5.761 46.148,-1.634 37.702,1.861 31.01,4.631 7.323,25.009 0.365,33.112 c -1.301,-3.609 -0.5,-10.75 0,-16.25 z" />
    </g>
    <g
       transform="matrix(0.25005708,0,0,-0.30046141,38.202487,184.17375)"
       id="g474">
      <path
         inkscape:connector-curvature="0"
         id="path476"
         style="fill:#ffd1ae;fill-opacity:1;fill-rule:evenodd;stroke:none"
         d="m 0,0 c 0.584,-4.255 -2.306,-6.7 -7.975,-4.203 -5.671,2.498 -8.3,2.048 -8.3,2.048 0,0 -4.133,-9.429 -6.948,-10.649 -2.815,-1.219 -4.179,10.93 -2.974,14.054 C -19.555,18.482 -0.582,4.259 0,0" />
    </g>
    <g
       transform="matrix(0.25005708,0,0,-0.30046141,34.619616,169.77977)"
       id="g478">
      <path
         inkscape:connector-curvature="0"
         id="path480"
         style="fill:#f48245;fill-opacity:1;fill-rule:evenodd;stroke:none"
         d="m 0,0 -16.842,-1.082 1.98,-35.851 16.282,-0.2 z" />
    </g>
    <g
       transform="matrix(0.25005708,0,0,-0.30046141,30.818576,172.17204)"
       id="g482">
      <path
         inkscape:connector-curvature="0"
         id="path484"
         style="fill:#f48245;fill-opacity:1;fill-rule:evenodd;stroke:none"
         d="m 0,0 -10.585,-0.681 1.244,-22.531 10.234,-0.127 z" />
    </g>
    <g
       id="g11791"
       transform="matrix(0.34303272,0,0,0.43999361,55.554552,129.66674)">
      <g
         id="g1472"
         transform="matrix(0.35277777,0,0,-0.35277777,88.608759,162.28331)">
        <path
           d="m 0,0 c 28.96,8.089 45.892,38.715 37.819,68.403 -8.072,29.687 -38.09,47.194 -67.049,39.104 -28.958,-8.091 -45.892,-38.715 -37.821,-68.401 0.33,-1.21 0.707,-2.391 1.108,-3.558 l -12.578,-24.992 25.298,4.156 C -39.785,0.817 -19.651,-5.49 0,0"
           style="fill:#004b96;fill-opacity:1;fill-rule:nonzero;stroke:none"
           id="path1474"
           inkscape:connector-curvature="0" />
      </g>
      <g
         id="g1476"
         transform="matrix(0.35277777,0,0,-0.35277777,91.577788,149.25247)">
        <path
           d="m 0,0 h -47.953 c -0.977,0 -1.776,0.796 -1.776,1.812 V 31.874 L -23.733,11.94 1.778,30.316 V 1.812 C 1.778,0.796 0.989,0 0,0 M -1.742,35.147 -23.617,19.402 -44.156,35.147 Z M 0,41.173 h -47.953 c -4.266,-0.014 -7.72,-3.508 -7.72,-7.841 V 1.812 c 0,-4.344 3.454,-7.828 7.72,-7.837 H 0 c 4.265,0.009 7.728,3.504 7.728,7.837 v 31.52 c 0,4.333 -3.463,7.841 -7.728,7.841"
           style="fill:#ffffff;fill-opacity:1;fill-rule:nonzero;stroke:none"
           id="path1478"
           inkscape:connector-curvature="0" />
      </g>
    </g>
    <g
       id="g11936"
       transform="matrix(0.33972251,0,0,0.3637009,5.5523996,156.86321)">
      <g
         id="g1410"
         transform="matrix(0.35277777,0,0,-0.35277777,142.12988,149.0768)">
        <path
           d="M 0,0 C 0,-2.271 -2.4,-4.344 -4.763,-4.344 H -74.521 C -76.884,-4.344 -79,-2.271 -79,0 v 137.058 c 0,2.272 2.116,3.598 4.479,3.598 H -4.763 C -2.4,140.656 0,139.33 0,137.058 Z"
           style="fill:#273942;fill-opacity:1;fill-rule:nonzero;stroke:none"
           id="path1412"
           inkscape:connector-curvature="0" />
      </g>
      <path
         d="M 139.3077,143.90629 H 116.37714 V 102.98407 H 139.3077 Z"
         style="fill:#ffffff;fill-opacity:1;fill-rule:nonzero;stroke:none;stroke-width:0.35277775"
         id="path1414"
         inkscape:connector-curvature="0" />
      <path
         d="m 138.42857,107.27102 h -21.8186 v -4.06012 h 21.8186 z"
         style="fill:#636363;fill-opacity:1;fill-rule:nonzero;stroke:none;stroke-width:0.35277775"
         id="path1416"
         inkscape:connector-curvature="0" />
      <g
         id="g1418"
         transform="matrix(0.35277777,0,0,-0.35277777,118.78142,105.24142)">
        <path
           d="m 0,0 c 0,-0.99 -0.784,-1.793 -1.769,-1.793 -0.969,0 -1.766,0.803 -1.766,1.793 0,0.992 0.797,1.794 1.766,1.794 C -0.784,1.794 0,0.992 0,0"
           style="fill:#01c5c5;fill-opacity:1;fill-rule:nonzero;stroke:none"
           id="path1420"
           inkscape:connector-curvature="0" />
      </g>
      <g
         id="g1422"
         transform="matrix(0.35277777,0,0,-0.35277777,120.47677,105.24142)">
        <path
           d="m 0,0 c 0,-0.99 -0.788,-1.793 -1.762,-1.793 -0.98,0 -1.773,0.803 -1.773,1.793 0,0.992 0.793,1.794 1.773,1.794 C -0.788,1.794 0,0.992 0,0"
           style="fill:#b8de70;fill-opacity:1;fill-rule:nonzero;stroke:none"
           id="path1424"
           inkscape:connector-curvature="0" />
      </g>
      <g
         id="g1426"
         transform="matrix(0.35277777,0,0,-0.35277777,122.17486,105.24142)">
        <path
           d="m 0,0 c 0,-0.99 -0.796,-1.793 -1.771,-1.793 -0.978,0 -1.77,0.803 -1.77,1.793 0,0.992 0.792,1.794 1.77,1.794 C -0.796,1.794 0,0.992 0,0"
           style="fill:#f29232;fill-opacity:1;fill-rule:nonzero;stroke:none"
           id="path1428"
           inkscape:connector-curvature="0" />
      </g>
      <path
         d="m 135.02991,105.87402 h -11.60603 v -1.26541 h 11.60603 z"
         style="fill:#ffffff;fill-opacity:1;fill-rule:nonzero;stroke:none;stroke-width:0.35277775"
         id="path1430"
         inkscape:connector-curvature="0" />
      <g
         id="g1432"
         transform="matrix(0.35277777,0,0,-0.35277777,122.39877,131.65566)">
        <path
           d="M 0,0 V 0 L 0.065,-9.596 -12.53,0 h -19.924 c -4.451,0 -8.098,3.693 -8.098,8.21 v 42.195 c 0,4.514 3.647,8.207 8.098,8.207 h 39.84 c 4.459,0 8.1,-3.693 8.1,-8.207 V 7.91 c 0,-4.428 -3.561,-8.007 -7.927,-7.972 z"
           style="fill:#9b5ab6;fill-opacity:1;fill-rule:nonzero;stroke:none"
           id="path1434"
           inkscape:connector-curvature="0" />
      </g>
      <path
         d="m 124.94364,119.12647 h -13.90861 v 1.42099 h 13.90861 z"
         style="fill:#ffffff;fill-opacity:1;fill-rule:nonzero;stroke:none;stroke-width:0.35277775"
         id="path1436"
         inkscape:connector-curvature="0" />
      <path
         d="m 122.74196,122.52337 h -11.70693 v 1.42205 h 11.70693 z"
         style="fill:#ffffff;fill-opacity:1;fill-rule:nonzero;stroke:none;stroke-width:0.35277775"
         id="path1438"
         inkscape:connector-curvature="0" />
      <path
         d="m 124.94364,125.92309 h -13.90861 v 1.42205 h 13.90861 z"
         style="fill:#ffffff;fill-opacity:1;fill-rule:nonzero;stroke:none;stroke-width:0.35277775"
         id="path1440"
         inkscape:connector-curvature="0" />
      <path
         d="m 121.37036,115.3581 h -10.33533 v 1.42099 h 10.33533 z"
         style="fill:#ffffff;fill-opacity:1;fill-rule:nonzero;stroke:none;stroke-width:0.35277775"
         id="path1442"
         inkscape:connector-curvature="0" />
    </g>
    <g
       transform="matrix(0.17229323,0,0,-0.21323309,26.15287,159.65842)"
       id="g1480"
       style="fill:#00b0ff;fill-opacity:1">
      <path
         inkscape:connector-curvature="0"
         id="path1482"
         style="fill:#00b0ff;fill-opacity:1;fill-rule:nonzero;stroke:none"
         d="m 0,0 c -2.077,0 -3.762,1.709 -3.762,3.812 0,2.105 1.685,3.814 3.762,3.814 2.078,0 3.763,-1.709 3.763,-3.814 C 3.763,1.709 2.078,0 0,0 m -10.529,0 c -2.076,0 -3.76,1.709 -3.76,3.812 0,2.105 1.684,3.814 3.76,3.814 2.078,0 3.761,-1.709 3.761,-3.814 C -6.768,1.709 -8.451,0 -10.529,0 m -10.532,0 c -2.076,0 -3.759,1.709 -3.759,3.812 0,2.105 1.683,3.814 3.759,3.814 2.08,0 3.763,-1.709 3.763,-3.814 C -17.298,1.709 -18.981,0 -21.061,0 m 47.906,5.747 c 0,14.387 -16.221,26.051 -36.231,26.051 -20.011,0 -36.233,-11.664 -36.233,-26.051 0,-14.389 16.222,-26.056 36.233,-26.056 4.76,0 9.303,0.669 13.466,1.87 2.332,-3.078 8,-8.751 18.882,-10.281 0,0 -5.87,7.716 -6.983,15.869 6.702,4.729 10.866,11.311 10.866,18.598" />
    </g>
  </g>
</svg>
